<?xml version="1.0" encoding="UTF-8" standalone="no"?>
<svg
   xmlns:dc="http://purl.org/dc/elements/1.1/"
   xmlns:cc="http://creativecommons.org/ns#"
   xmlns:rdf="http://www.w3.org/1999/02/22-rdf-syntax-ns#"
   xmlns:svg="http://www.w3.org/2000/svg"
   xmlns="http://www.w3.org/2000/svg"
   xmlns:sodipodi="http://sodipodi.sourceforge.net/DTD/sodipodi-0.dtd"
   xmlns:inkscape="http://www.inkscape.org/namespaces/inkscape"
   width="170mm"
   height="102mm"
   viewBox="0 0 170 102"
   version="1.1"
   id="svg1376"
   inkscape:version="1.0 (4035a4fb49, 2020-05-01)"
   sodipodi:docname="Alekhya.svg">
  <defs
     id="defs1370" />
  <sodipodi:namedview
     width="840mm"
     units="mm"
     id="base"
     pagecolor="#ffffff"
     bordercolor="#666666"
     borderopacity="1.0"
     inkscape:pageopacity="0.0"
     inkscape:pageshadow="2"
     inkscape:zoom="0.7"
     inkscape:cx="618.99941"
     inkscape:cy="424.83897"
     inkscape:document-units="mm"
     inkscape:current-layer="layer1"
     inkscape:document-rotation="0"
     showgrid="false"
     inkscape:window-width="1920"
     inkscape:window-height="1001"
     inkscape:window-x="-9"
     inkscape:window-y="-9"
     inkscape:window-maximized="1" />
  <metadata
     id="metadata1373">
    <rdf:RDF>
      <cc:Work
         rdf:about="">
        <dc:format>image/svg+xml</dc:format>
        <dc:type
           rdf:resource="http://purl.org/dc/dcmitype/StillImage" />
        <dc:title></dc:title>
      </cc:Work>
    </rdf:RDF>
  </metadata>
  <g
     inkscape:label="Layer 1"
     inkscape:groupmode="layer"
     id="layer1">
    <g
       id="g1319"
       transform="matrix(1.0569299,0,0,1.0644842,-17.309013,-156.12935)">
      <g
         id="g1277"
         inkscape:export-xdpi="96"
         inkscape:export-ydpi="96">
        <g
           id="g1065"
           transform="matrix(0.52130682,-0.05596635,0.05573132,0.51911753,3.9627615,97.751648)"
           style="stroke-width:0.764526;stroke-miterlimit:4;stroke-dasharray:none">
          <path
             sodipodi:nodetypes="csssc"
             d="m 24.054257,171.31976 c -4.400448,5.9256 -4.167933,12.07285 -4.167933,12.07285 0.781076,5.79588 -7.970904,-5.62477 -7.246052,-12.72561 0.512503,-5.02062 2.131201,-6.38366 5.711035,-7.63134 2.805325,-0.97774 9.658016,2.58223 5.70295,8.2841"
             style="fill:none;fill-opacity:1;stroke:#000000;stroke-width:0.764526;stroke-linecap:round;stroke-linejoin:round;stroke-miterlimit:4;stroke-dasharray:none;stroke-opacity:1"
             id="path1037" />
          <path
             sodipodi:nodetypes="ccsssscccc"
             d="m 21.398079,163.31561 -1.554293,2.42909 -1.757015,3.5803 c -0.370332,0.75463 -0.663387,3.50745 -0.699426,3.97848 -0.06682,0.87331 -0.377963,2.07877 0,4.15739 0.377962,2.07862 0.188686,0.75571 0.94461,4.44054 0.265344,1.29344 0.647141,2.30192 1.030907,3.07334 0.45405,0.0455 0.679623,-0.42346 0.523462,-1.58214 0,0 -0.232218,-6.14631 4.168066,-12.0712 2.641297,-3.80755 0.08528,-6.55502 -2.656311,-8.0058 z"
             style="fill:#000000;fill-opacity:1;stroke:#000000;stroke-width:0.764526;stroke-linecap:butt;stroke-linejoin:miter;stroke-miterlimit:4;stroke-dasharray:none;stroke-opacity:1"
             id="path1040" />
          <path
             sodipodi:nodetypes="cccc"
             id="path1051"
             d="m 19.843786,165.7447 c -2.538084,0.59717 -3.607162,1.2039 -3.607162,1.2039 0,0 -1.164666,0.69441 -2.171566,1.39779 l -1.267155,1.01946"
             style="fill:none;stroke:#000000;stroke-width:0.764526;stroke-linecap:butt;stroke-linejoin:miter;stroke-miterlimit:4;stroke-dasharray:none;stroke-opacity:1" />
          <path
             style="fill:none;stroke:#000000;stroke-width:0.764526;stroke-linecap:butt;stroke-linejoin:miter;stroke-miterlimit:4;stroke-dasharray:none;stroke-opacity:1"
             d="m 19.843786,169.97806 c -2.538084,0.59717 -3.607162,1.2039 -3.607162,1.2039 0,0 -1.164666,0.69441 -2.171566,1.39779 l -1.267155,1.01946"
             id="path1053"
             sodipodi:nodetypes="cccc" />
          <path
             sodipodi:nodetypes="cccc"
             id="path1055"
             d="m 21.230809,174.21142 c -2.538084,0.59717 -3.607162,1.2039 -3.607162,1.2039 0,0 -1.164666,0.69441 -2.171566,1.39779 l -1.267155,1.01946"
             style="fill:none;stroke:#000000;stroke-width:0.764526;stroke-linecap:butt;stroke-linejoin:miter;stroke-miterlimit:4;stroke-dasharray:none;stroke-opacity:1" />
          <path
             style="fill:none;stroke:#000000;stroke-width:0.764526;stroke-linecap:butt;stroke-linejoin:miter;stroke-miterlimit:4;stroke-dasharray:none;stroke-opacity:1"
             d="m 19.541067,178.75043 c -1.264444,0.46717 -1.797045,0.94182 -1.797045,0.94182 0,0 -0.580223,0.54325 -1.081848,1.09351 l -0.631282,0.79752"
             id="path1057"
             sodipodi:nodetypes="cccc" />
        </g>
        <path
           sodipodi:nodetypes="csssc"
           d="m 22.543127,194.67249 c 1.320118,1.27421 1.583962,2.53402 1.583962,2.53402 0.119278,1.18054 1.546537,-1.05238 1.012816,-2.52047 -0.377366,-1.03801 -0.820797,-1.33896 -1.710239,-1.64157 -0.697008,-0.23715 -2.092461,0.40553 -0.886539,1.62802"
           style="fill:none;fill-opacity:1;stroke:#000000;stroke-width:0.4;stroke-linecap:round;stroke-linejoin:round;stroke-miterlimit:4;stroke-dasharray:none;stroke-opacity:1"
           id="path1067" />
        <path
           sodipodi:nodetypes="ccsssscccc"
           d="m 22.741958,193.06256 0.483638,0.51911 0.589802,0.75823 c 0.124315,0.15981 0.334002,0.72911 0.366631,0.82634 0.06049,0.18027 0.194448,0.43193 0.214677,0.85405 0.02023,0.42212 -0.0045,0.1528 0.0116,0.89999 0.0056,0.26228 -0.03027,0.46451 -0.07888,0.61802 -0.102292,0.003 -0.178494,-0.0958 -0.202336,-0.33179 0,0 -0.263864,-1.25962 -1.583908,-2.53368 -0.80533,-0.81635 -0.358139,-1.3477 0.198777,-1.61027 z"
           style="fill:#000000;fill-opacity:1;stroke:#000000;stroke-width:0.4;stroke-linecap:butt;stroke-linejoin:miter;stroke-miterlimit:4;stroke-dasharray:none;stroke-opacity:1"
           id="path1069" />
        <path
           sodipodi:nodetypes="cccc"
           id="path1071"
           d="m 23.225596,193.58167 c 0.615767,0.15551 0.893478,0.29398 0.893478,0.29398 0,0 0.304269,0.15772 0.572641,0.31524 l 0.344673,0.22581"
           style="fill:none;stroke:#000000;stroke-width:0.4;stroke-linecap:butt;stroke-linejoin:miter;stroke-miterlimit:4;stroke-dasharray:none;stroke-opacity:1" />
        <path
           style="fill:none;stroke:#000000;stroke-width:0.4;stroke-linecap:butt;stroke-linejoin:miter;stroke-miterlimit:4;stroke-dasharray:none;stroke-opacity:1"
           d="m 23.444196,194.45133 c 0.615768,0.15551 0.893479,0.29397 0.893479,0.29397 0,0 0.304269,0.15772 0.572641,0.31524 l 0.344673,0.22582"
           id="path1073"
           sodipodi:nodetypes="cccc" />
        <path
           sodipodi:nodetypes="cccc"
           id="path1075"
           d="m 23.343142,195.30304 c 0.615767,0.15551 0.893478,0.29398 0.893478,0.29398 0,0 0.304269,0.15771 0.572642,0.31523 l 0.344673,0.22582"
           style="fill:none;stroke:#000000;stroke-width:0.4;stroke-linecap:butt;stroke-linejoin:miter;stroke-miterlimit:4;stroke-dasharray:none;stroke-opacity:1" />
        <g
           style="stroke-width:0.4;stroke-miterlimit:4;stroke-dasharray:none"
           transform="translate(-3.8018711,29.881872)"
           id="g1269">
          <path
             sodipodi:nodetypes="cccc"
             id="path1077"
             d="m 27.368732,166.7752 c 0.315529,0.11233 0.462783,0.21672 0.462783,0.21672 0,0 0.161772,0.11911 0.305791,0.23864 l 0.186668,0.172"
             style="fill:none;stroke:#000000;stroke-width:0.4;stroke-linecap:butt;stroke-linejoin:miter;stroke-miterlimit:4;stroke-dasharray:none;stroke-opacity:1" />
          <path
             sodipodi:nodetypes="csssc"
             d="m 27.129229,168.53237 c -0.0023,1.36341 0.522057,2.28652 0.522057,2.28652 0.556115,0.8128 -1.331733,-0.0502 -1.828383,-1.21821 -0.351155,-0.82586 -0.284021,-1.20158 0.0078,-1.76037 0.228703,-0.43789 1.270085,-0.59128 1.298501,0.69206"
             style="fill:none;fill-opacity:1;stroke:#000000;stroke-width:0.4;stroke-linecap:round;stroke-linejoin:round;stroke-miterlimit:4;stroke-dasharray:none;stroke-opacity:1"
             id="path1081" />
          <path
             sodipodi:nodetypes="ccsssscccc"
             d="m 26.188008,167.57142 0.02645,0.53335 0.09761,0.73143 c 0.02057,0.15417 0.21179,0.60822 0.246057,0.68447 0.06353,0.14137 0.127192,0.35892 0.337379,0.6404 0.210187,0.28149 0.08205,0.0971 0.464084,0.58729 0.134102,0.17207 0.257866,0.28831 0.362609,0.36784 0.05355,-0.0395 0.04026,-0.13482 -0.07091,-0.29731 0,0 -0.524283,-0.923 -0.521908,-2.28628 -0.01895,-0.857 -0.522587,-1.01846 -0.941371,-0.96119 z"
             style="fill:#000000;fill-opacity:1;stroke:#000000;stroke-width:0.4;stroke-linecap:butt;stroke-linejoin:miter;stroke-miterlimit:4;stroke-dasharray:none;stroke-opacity:1"
             id="path1083" />
          <path
             sodipodi:nodetypes="cccc"
             id="path1085"
             d="m 26.214458,168.10477 c -0.230242,0.3519 -0.298399,0.55484 -0.298399,0.55484 0,0 -0.07154,0.22624 -0.125024,0.4377 l -0.05641,0.2868"
             style="fill:none;stroke:#000000;stroke-width:0.4;stroke-linecap:butt;stroke-linejoin:miter;stroke-miterlimit:4;stroke-dasharray:none;stroke-opacity:1" />
          <path
             style="fill:none;stroke:#000000;stroke-width:0.4;stroke-linecap:butt;stroke-linejoin:miter;stroke-miterlimit:4;stroke-dasharray:none;stroke-opacity:1"
             d="m 26.558002,168.75687 c -0.230242,0.35191 -0.298399,0.55485 -0.298399,0.55485 0,0 -0.07154,0.22623 -0.125024,0.43769 l -0.05641,0.2868"
             id="path1087"
             sodipodi:nodetypes="cccc" />
          <path
             sodipodi:nodetypes="cccc"
             id="path1089"
             d="m 27.053853,169.26694 c -0.230242,0.3519 -0.298399,0.55484 -0.298399,0.55484 0,0 -0.07154,0.22624 -0.125023,0.4377 l -0.05641,0.2868"
             style="fill:none;stroke:#000000;stroke-width:0.4;stroke-linecap:butt;stroke-linejoin:miter;stroke-miterlimit:4;stroke-dasharray:none;stroke-opacity:1" />
          <path
             style="fill:none;stroke:#000000;stroke-width:0.4;stroke-linecap:butt;stroke-linejoin:miter;stroke-miterlimit:4;stroke-dasharray:none;stroke-opacity:1"
             d="m 27.236653,170.13916 c -0.100935,0.20145 -0.1209,0.32911 -0.1209,0.32911 0,0 -0.01963,0.1431 -0.03006,0.27923 l -0.0046,0.1875"
             id="path1091"
             sodipodi:nodetypes="cccc" />
        </g>
        <path
           style="fill:none;stroke:#000000;stroke-width:2.065;stroke-linecap:round;stroke-linejoin:miter;stroke-miterlimit:4;stroke-dasharray:none;stroke-opacity:1"
           d="m 157.27315,181.15268 c 4.70653,5.18095 4.65184,13.69404 3.89589,18.79672 -0.75595,5.10268 -2.69455,7.51611 -6.14211,11.43378 -5.82083,6.61459 -9.97857,8.46667 -9.97857,8.46667 0,0 -8.29981,4.37054 -10.96131,5.23497 -9.81173,3.18677 -2.74033,1.5119 -14.64658,4.15773 -11.90625,2.64584 -28.688389,3.3262 -28.688389,3.3262 L 78.070599,231.84781 61.175,228.4759 48.664433,224.10208 43.759501,221.3639 39.466,217.316"
           id="path1107"
           sodipodi:nodetypes="csscsscccccc" />
        <path
           id="path855"
           style="fill:#000000;fill-opacity:1;stroke:#000000;stroke-width:0.261731px;stroke-linecap:butt;stroke-linejoin:miter;stroke-opacity:1"
           d="m 85.38668,229.98652 c -4.563186,-0.21671 -9.113289,-0.68577 -13.618916,-1.42414 -0.708415,-0.11608 -1.415884,-0.23922 -2.121861,-0.36874 -8.126575,-1.49105 -16.122426,-3.90597 -23.413286,-7.72189 -1.651314,-0.86428 -3.319138,-1.84753 -4.373718,-3.36185 -0.753153,-1.08149 -1.14783,-2.39777 -1.111313,-3.70603 0.178658,-0.47853 0.433457,-0.93023 0.752353,-1.33294 0.702894,-0.88762 1.70898,-1.52293 2.796977,-1.87998 1.087996,-0.35707 2.255674,-0.44539 3.39971,-0.35753 2.288068,0.17576 4.453213,1.03305 6.628963,1.74787 1.272518,0.41808 2.580709,0.79289 3.922762,0.81912 1.342063,0.0262 2.737647,-0.33179 3.725422,-1.22122 0.628316,-0.56577 1.06906,-1.33856 1.184112,-2.16649 0.09447,-0.67977 -0.03009,-1.38168 -0.315446,-2.00831 -0.285355,-0.62661 -0.72765,-1.17946 -1.25357,-1.63308 -1.051835,-0.90729 -2.407362,-1.40693 -3.769318,-1.73299 -3.903279,-0.93447 -7.989331,-0.57684 -12.004538,-0.7335 -4.532142,-0.17684 -9.059765,-1.0283 -13.236515,-2.75891 -1.23047,-0.50985 -2.434759,-1.09873 -3.512652,-1.87151 -1.077894,-0.77279 -2.029566,-1.7381 -2.660838,-2.89059 -1.001483,-1.82831 -1.134922,-4.02031 -0.753006,-6.06077 0.436278,-2.33092 1.508587,-4.5195 2.905792,-6.45496 1.397206,-1.93547 3.115218,-3.63095 4.930959,-5.19886 6.379555,-5.5088 14.078969,-9.53575 22.29103,-11.71338 5.992743,-1.58914 12.201863,-2.19883 18.35553,-3.00723 9.388976,-1.23339 18.773842,-2.94555 28.245437,-2.77276 10.24508,0.18691 20.36121,2.59025 29.91528,6.21465 6.46306,2.45181 12.79188,5.52222 17.93854,10.06601 3.03115,2.67609 5.62997,5.86382 7.3425,9.49028 1.71252,3.62645 2.51249,7.70507 1.98622,11.66668 -0.42061,3.16633 -1.67478,6.19855 -3.43477,8.88722 -1.75999,2.68869 -4.0174,5.04372 -6.50285,7.11246 -6.18483,5.1479 -13.72718,8.51401 -21.44902,10.9703 -10.37184,3.29921 -21.23452,5.06369 -32.1331,5.45881 -3.550752,0.12872 -7.107721,0.11285 -10.65687,-0.0558 z m -7.202261,-6.16159 5.2e-4,3e-5 c 3.979889,0.25614 7.412858,-2.37562 7.682688,-5.89019 l 0.009,-0.13726 c 0.184437,-3.51982 -3.883639,-5.9321 -7.866185,-6.15087 -3.982559,-0.21875 -6.383346,1.83815 -6.610486,5.35561 -0.227163,3.5173 2.804357,6.56595 6.784213,6.82268 z m 30.738561,-1.89524 5.3e-4,4e-5 c 3.66781,0.23949 6.7855,-1.30441 7.04491,-4.74848 l 0.009,-0.13473 c 0.18073,-3.44899 -2.63802,-6.39861 -6.30841,-6.60133 -3.6704,-0.20269 -6.81345,2.41771 -7.03354,5.86452 -0.22006,3.44665 2.61961,5.38017 6.28739,5.61998 z m 28.51283,-11.61588 5.3e-4,3e-5 c 3.59445,0.23455 6.70315,-2.30008 6.95724,-5.67239 l 0.009,-0.13171 c 0.17696,-3.37712 -2.62747,-5.47691 -6.22446,-5.67556 -3.59698,-0.19862 -7.703,1.52509 -7.91854,4.90009 -0.21549,3.37483 3.58174,6.34445 7.17627,6.57954 z M 49.575686,194.85879 c 5.871311,0.33644 10.833615,-1.57967 11.095311,-4.16295 0.135718,-2.59018 -4.711468,-5.98978 -10.584912,-6.29841 -5.873454,-0.30862 -10.566798,2.58961 -10.765514,5.1765 -0.198715,2.58688 4.383801,4.94848 10.255115,5.28486 z m 82.021064,-9.47482 5.3e-4,3e-5 c 3.59437,0.23473 5.83457,-1.03982 6.08865,-4.41214 l 0.009,-0.1312 c 0.17696,-3.37713 -2.57328,-6.5112 -6.17026,-6.70984 -3.59699,-0.19862 -7.20986,2.32454 -7.4254,5.69953 -0.21549,3.37484 3.90299,5.31864 7.49755,5.55362 z m -30.19174,-7.01183 c 3.36548,0.22109 6.27864,-2.19218 6.52036,-5.42242 l 0.008,-0.12619 c 0.16949,-3.23461 -2.40178,-6.23297 -5.76946,-6.41935 -3.367686,-0.18633 -8.700228,1.14452 -8.905835,4.37711 -0.20553,3.23259 4.781799,7.3698 8.147285,7.59085 z"
           inkscape:export-xdpi="96"
           inkscape:export-ydpi="96" />
        <path
           id="path893"
           style="fill:#000000;stroke:#000000;stroke-width:0.280387px;stroke-linecap:butt;stroke-linejoin:miter;stroke-opacity:1"
           d="m 58.738513,157.36921 c 6.226054,-1.56016 9.614115,-2.50151 16.502154,-3.62492 5.774417,-0.82429 11.534354,-1.54977 17.317911,-2.04995 8.822462,0.15845 16.808112,-0.5341 25.333582,1.21915 6.41176,1.15665 9.05105,2.08475 13.26032,3.65155 3.5215,1.93788 7.28238,3.46541 10.87241,5.625 3.28753,2.33047 5.00929,4.03617 7.97217,7.04131 2.68651,3.39517 5.10576,5.85488 5.25321,8.98278 -3.48024,-0.0939 -7.2138,-5.51695 -10.49891,-7.09458 -2.89885,-1.77546 -6.94655,-3.26538 -9.65771,-4.86219 -6.81843,-2.34633 -14.87904,-5.45746 -23.83053,-6.77021 -5.71127,-0.5956 -11.828016,-0.67447 -18.181535,-0.0999 -9.873053,1.38182 -19.763909,2.61072 -28.886532,4.12511 -4.458159,0.66737 -10.092919,2.2184 -14.35288,1.61794 -2.468427,-1.6775 0.394595,-3.9725 2.961099,-5.32455 z"
           sodipodi:nodetypes="cccccccccccccccc" />
        <path
           style="fill:#000000;stroke:#000000;stroke-width:0.197556px;stroke-linecap:butt;stroke-linejoin:miter;stroke-opacity:1"
           d="m 51.969584,165.99355 c -3.085896,2.00405 -6.312725,2.77129 -8.244749,3.57206 -1.932032,0.80078 -5.971996,3.99063 -5.971996,3.99063 0.467048,-0.87342 1.460304,-3.0838 1.460304,-3.0838 0,0 -2.116601,2.88663 -3.51042,3.53648 -1.393837,0.64985 -6.564891,7.3461 -8.033636,8.83091 -1.468736,1.48481 4.79885,-12.4904 6.85995,-14.57088 2.163396,-2.18373 -3.729429,3.46992 -3.729429,3.46992 0,0 3.064145,-8.24894 7.053677,-10.3498 3.928902,-2.06893 11.975897,-0.80109 11.975897,-0.80109 -1.783439,2.64476 -3.009537,5.73093 2.140402,5.40557 z"
           id="path896"
           sodipodi:nodetypes="csscssscscc" />
        <path
           sodipodi:t0="0"
           sodipodi:argument="-16.112856"
           sodipodi:radius="5.7571616"
           sodipodi:revolution="3"
           sodipodi:expansion="1"
           sodipodi:cy="187.62787"
           sodipodi:cx="166.91461"
           id="path1122"
           style="fill:none;fill-rule:evenodd;stroke:#000000;stroke-width:1.365;stroke-miterlimit:4;stroke-dasharray:none"
           sodipodi:type="spiral"
           d="m 166.91461,187.62787 c -0.26531,0.11371 -0.28417,-0.30154 -0.18899,-0.44097 0.25795,-0.37785 0.81576,-0.23205 1.07094,0.063 0.45645,0.52777 0.21477,1.32748 -0.31498,1.70089 -0.77743,0.548 -1.84719,0.19986 -2.33086,-0.56696 -0.64465,-1.02204 -0.18611,-2.36986 0.81895,-2.96081 1.26476,-0.74366 2.89398,-0.17302 3.59077,1.07093 0.84391,1.50658 0.16031,3.41892 -1.32291,4.22073 -1.74792,0.94491 -3.94438,0.14783 -4.85069,-1.57489 -1.04638,-1.98895 -0.13551,-4.47019 1.82688,-5.48066 2.22979,-1.14816 4.99622,-0.12331 6.11061,2.07886 1.25018,2.47051 0.11118,5.52245 -2.33085,6.74058 -2.71111,1.35236 -6.04879,0.0991 -7.37053,-2.58283" />
        <path
           transform="matrix(0.54794118,0.65782483,-0.59775917,0.51785976,193.55843,-12.668214)"
           sodipodi:type="spiral"
           style="fill:none;fill-rule:evenodd;stroke:#000000;stroke-width:1.365;stroke-miterlimit:4;stroke-dasharray:none"
           id="path1124"
           sodipodi:cx="166.91461"
           sodipodi:cy="198.74022"
           sodipodi:expansion="1"
           sodipodi:revolution="3"
           sodipodi:radius="5.7571616"
           sodipodi:argument="-16.112856"
           sodipodi:t0="0"
           d="m 166.91461,198.74022 c -0.26531,0.11371 -0.28417,-0.30154 -0.18899,-0.44097 0.25795,-0.37785 0.81576,-0.23205 1.07094,0.063 0.45645,0.52777 0.21477,1.32748 -0.31498,1.7009 -0.77743,0.54799 -1.84719,0.19985 -2.33086,-0.56697 -0.64465,-1.02204 -0.18611,-2.36986 0.81895,-2.96081 1.26476,-0.74366 2.89398,-0.17302 3.59077,1.07093 0.84391,1.50658 0.16031,3.41892 -1.32291,4.22073 -1.74792,0.94491 -3.94438,0.14783 -4.85069,-1.57489 -1.04638,-1.98895 -0.13551,-4.47019 1.82688,-5.48066 2.22979,-1.14816 4.99622,-0.1233 6.11061,2.07886 1.25018,2.47051 0.11118,5.52245 -2.33085,6.74058 -2.71111,1.35236 -6.04879,0.0991 -7.37053,-2.58283" />
        <path
           sodipodi:t0="0"
           sodipodi:argument="-16.112856"
           sodipodi:radius="5.7571616"
           sodipodi:revolution="3"
           sodipodi:expansion="1"
           sodipodi:cy="198.74022"
           sodipodi:cx="166.91461"
           id="path1126"
           style="fill:none;fill-rule:evenodd;stroke:#000000;stroke-width:1.365;stroke-miterlimit:4;stroke-dasharray:none"
           sodipodi:type="spiral"
           transform="matrix(0.4620196,0.66300842,-0.63313914,0.40818881,210.69374,18.727344)"
           d="m 166.91461,198.74022 c -0.26531,0.11371 -0.28417,-0.30154 -0.18899,-0.44097 0.25795,-0.37785 0.81576,-0.23205 1.07094,0.063 0.45645,0.52777 0.21477,1.32748 -0.31498,1.7009 -0.77743,0.54799 -1.84719,0.19985 -2.33086,-0.56697 -0.64465,-1.02204 -0.18611,-2.36986 0.81895,-2.96081 1.26476,-0.74366 2.89398,-0.17302 3.59077,1.07093 0.84391,1.50658 0.16031,3.41892 -1.32291,4.22073 -1.74792,0.94491 -3.94438,0.14783 -4.85069,-1.57489 -1.04638,-1.98895 -0.13551,-4.47019 1.82688,-5.48066 2.22979,-1.14816 4.99622,-0.1233 6.11061,2.07886 1.25018,2.47051 0.11118,5.52245 -2.33085,6.74058 -2.71111,1.35236 -6.04879,0.0991 -7.37053,-2.58283" />
        <path
           transform="matrix(0.21012784,0.71892567,-0.66932871,0.18154284,252.20321,62.807401)"
           sodipodi:type="spiral"
           style="fill:none;fill-rule:evenodd;stroke:#000000;stroke-width:1.365;stroke-miterlimit:4;stroke-dasharray:none"
           id="path1128"
           sodipodi:cx="166.91461"
           sodipodi:cy="198.74022"
           sodipodi:expansion="1"
           sodipodi:revolution="3"
           sodipodi:radius="5.7571616"
           sodipodi:argument="-16.112856"
           sodipodi:t0="0"
           d="m 166.91461,198.74022 c -0.26531,0.11371 -0.28417,-0.30154 -0.18899,-0.44097 0.25795,-0.37785 0.81576,-0.23205 1.07094,0.063 0.45645,0.52777 0.21477,1.32748 -0.31498,1.7009 -0.77743,0.54799 -1.84719,0.19985 -2.33086,-0.56697 -0.64465,-1.02204 -0.18611,-2.36986 0.81895,-2.96081 1.26476,-0.74366 2.89398,-0.17302 3.59077,1.07093 0.84391,1.50658 0.16031,3.41892 -1.32291,4.22073 -1.74792,0.94491 -3.94438,0.14783 -4.85069,-1.57489 -1.04638,-1.98895 -0.13551,-4.47019 1.82688,-5.48066 2.22979,-1.14816 4.99622,-0.1233 6.11061,2.07886 1.25018,2.47051 0.11118,5.52245 -2.33085,6.74058 -2.71111,1.35236 -6.04879,0.0991 -7.37053,-2.58283" />
        <path
           sodipodi:t0="0"
           sodipodi:argument="-16.112856"
           sodipodi:radius="5.7571616"
           sodipodi:revolution="3"
           sodipodi:expansion="1"
           sodipodi:cy="198.74022"
           sodipodi:cx="166.91461"
           id="path1130"
           style="fill:none;fill-rule:evenodd;stroke:#000000;stroke-width:1.365;stroke-miterlimit:4;stroke-dasharray:none"
           sodipodi:type="spiral"
           transform="matrix(0.11214571,0.74056139,-0.68758863,0.09044668,262.15848,83.839669)"
           d="m 166.91461,198.74022 c -0.26531,0.11371 -0.28417,-0.30154 -0.18899,-0.44097 0.25795,-0.37785 0.81576,-0.23205 1.07094,0.063 0.45645,0.52777 0.21477,1.32748 -0.31498,1.7009 -0.77743,0.54799 -1.84719,0.19985 -2.33086,-0.56697 -0.64465,-1.02204 -0.18611,-2.36986 0.81895,-2.96081 1.26476,-0.74366 2.89398,-0.17302 3.59077,1.07093 0.84391,1.50658 0.16031,3.41892 -1.32291,4.22073 -1.74792,0.94491 -3.94438,0.14783 -4.85069,-1.57489 -1.04638,-1.98895 -0.13551,-4.47019 1.82688,-5.48066 2.22979,-1.14816 4.99622,-0.1233 6.11061,2.07886 1.25018,2.47051 0.11118,5.52245 -2.33085,6.74058 -2.71111,1.35236 -6.04879,0.0991 -7.37053,-2.58283" />
        <path
           transform="matrix(0.05738094,0.70120515,-0.65622393,0.04299734,253.28253,104.65364)"
           sodipodi:type="spiral"
           style="fill:none;fill-rule:evenodd;stroke:#000000;stroke-width:1.365;stroke-miterlimit:4;stroke-dasharray:none"
           id="path1132"
           sodipodi:cx="166.91461"
           sodipodi:cy="198.74022"
           sodipodi:expansion="1"
           sodipodi:revolution="3"
           sodipodi:radius="5.7571616"
           sodipodi:argument="-16.112856"
           sodipodi:t0="0"
           d="m 166.91461,198.74022 c -0.26531,0.11371 -0.28417,-0.30154 -0.18899,-0.44097 0.25795,-0.37785 0.81576,-0.23205 1.07094,0.063 0.45645,0.52777 0.21477,1.32748 -0.31498,1.7009 -0.77743,0.54799 -1.84719,0.19985 -2.33086,-0.56697 -0.64465,-1.02204 -0.18611,-2.36986 0.81895,-2.96081 1.26476,-0.74366 2.89398,-0.17302 3.59077,1.07093 0.84391,1.50658 0.16031,3.41892 -1.32291,4.22073 -1.74792,0.94491 -3.94438,0.14783 -4.85069,-1.57489 -1.04638,-1.98895 -0.13551,-4.47019 1.82688,-5.48066 2.22979,-1.14816 4.99622,-0.1233 6.11061,2.07886 1.25018,2.47051 0.11118,5.52245 -2.33085,6.74058 -2.71111,1.35236 -6.04879,0.0991 -7.37053,-2.58283" />
        <path
           sodipodi:t0="0"
           sodipodi:argument="-16.112856"
           sodipodi:radius="5.7571616"
           sodipodi:revolution="3"
           sodipodi:expansion="1"
           sodipodi:cy="198.74022"
           sodipodi:cx="166.91461"
           id="path1134"
           style="fill:none;fill-rule:evenodd;stroke:#000000;stroke-width:1.365;stroke-miterlimit:4;stroke-dasharray:none"
           sodipodi:type="spiral"
           transform="matrix(0.02393805,0.67032924,-0.62368512,0.01232334,240.82098,119.00197)"
           d="m 166.91461,198.74022 c -0.26531,0.11371 -0.28417,-0.30154 -0.18899,-0.44097 0.25795,-0.37785 0.81576,-0.23205 1.07094,0.063 0.45645,0.52777 0.21477,1.32748 -0.31498,1.7009 -0.77743,0.54799 -1.84719,0.19985 -2.33086,-0.56697 -0.64465,-1.02204 -0.18611,-2.36986 0.81895,-2.96081 1.26476,-0.74366 2.89398,-0.17302 3.59077,1.07093 0.84391,1.50658 0.16031,3.41892 -1.32291,4.22073 -1.74792,0.94491 -3.94438,0.14783 -4.85069,-1.57489 -1.04638,-1.98895 -0.13551,-4.47019 1.82688,-5.48066 2.22979,-1.14816 4.99622,-0.1233 6.11061,2.07886 1.25018,2.47051 0.11118,5.52245 -2.33085,6.74058 -2.71111,1.35236 -6.04879,0.0991 -7.37053,-2.58283" />
        <path
           transform="matrix(-0.195055,0.6094076,-0.55727507,-0.19158164,252.20046,171.51136)"
           sodipodi:type="spiral"
           style="fill:none;fill-rule:evenodd;stroke:#000000;stroke-width:1.365;stroke-miterlimit:4;stroke-dasharray:none"
           id="path1136"
           sodipodi:cx="166.91461"
           sodipodi:cy="198.74022"
           sodipodi:expansion="1"
           sodipodi:revolution="3"
           sodipodi:radius="5.7571616"
           sodipodi:argument="-16.112856"
           sodipodi:t0="0"
           d="m 166.91461,198.74022 c -0.26531,0.11371 -0.28417,-0.30154 -0.18899,-0.44097 0.25795,-0.37785 0.81576,-0.23205 1.07094,0.063 0.45645,0.52777 0.21477,1.32748 -0.31498,1.7009 -0.77743,0.54799 -1.84719,0.19985 -2.33086,-0.56697 -0.64465,-1.02204 -0.18611,-2.36986 0.81895,-2.96081 1.26476,-0.74366 2.89398,-0.17302 3.59077,1.07093 0.84391,1.50658 0.16031,3.41892 -1.32291,4.22073 -1.74792,0.94491 -3.94438,0.14783 -4.85069,-1.57489 -1.04638,-1.98895 -0.13551,-4.47019 1.82688,-5.48066 2.22979,-1.14816 4.99622,-0.1233 6.11061,2.07886 1.25018,2.47051 0.11118,5.52245 -2.33085,6.74058 -2.71111,1.35236 -6.04879,0.0991 -7.37053,-2.58283" />
        <path
           sodipodi:t0="0"
           sodipodi:argument="-16.112856"
           sodipodi:radius="5.7571616"
           sodipodi:revolution="3"
           sodipodi:expansion="1"
           sodipodi:cy="198.74022"
           sodipodi:cx="166.91461"
           id="path1138"
           style="fill:none;fill-rule:evenodd;stroke:#000000;stroke-width:1.365;stroke-miterlimit:4;stroke-dasharray:none"
           sodipodi:type="spiral"
           transform="matrix(-0.43720598,0.4663384,-0.43825557,-0.41987675,257.10004,241.74031)"
           d="m 166.91461,198.74022 c -0.26531,0.11371 -0.28417,-0.30154 -0.18899,-0.44097 0.25795,-0.37785 0.81576,-0.23205 1.07094,0.063 0.45645,0.52777 0.21477,1.32748 -0.31498,1.7009 -0.77743,0.54799 -1.84719,0.19985 -2.33086,-0.56697 -0.64465,-1.02204 -0.18611,-2.36986 0.81895,-2.96081 1.26476,-0.74366 2.89398,-0.17302 3.59077,1.07093 0.84391,1.50658 0.16031,3.41892 -1.32291,4.22073 -1.74792,0.94491 -3.94438,0.14783 -4.85069,-1.57489 -1.04638,-1.98895 -0.13551,-4.47019 1.82688,-5.48066 2.22979,-1.14816 4.99622,-0.1233 6.11061,2.07886 1.25018,2.47051 0.11118,5.52245 -2.33085,6.74058 -2.71111,1.35236 -6.04879,0.0991 -7.37053,-2.58283" />
        <path
           transform="matrix(-0.59134603,0.13600705,-0.13098957,-0.57571166,209.35593,327.61161)"
           sodipodi:type="spiral"
           style="fill:none;fill-rule:evenodd;stroke:#000000;stroke-width:1.365;stroke-miterlimit:4;stroke-dasharray:none"
           id="path1140"
           sodipodi:cx="166.91461"
           sodipodi:cy="198.74022"
           sodipodi:expansion="1"
           sodipodi:revolution="2.9040148"
           sodipodi:radius="5.5729609"
           sodipodi:argument="-16.112856"
           sodipodi:t0="0"
           d="m 166.91461,198.74022 c -0.26531,0.11371 -0.28417,-0.30154 -0.18899,-0.44097 0.25795,-0.37785 0.81576,-0.23205 1.07094,0.063 0.45645,0.52777 0.21477,1.32748 -0.31498,1.7009 -0.77743,0.54799 -1.84719,0.19985 -2.33086,-0.56697 -0.64465,-1.02204 -0.18611,-2.36986 0.81895,-2.96081 1.26476,-0.74366 2.89398,-0.17302 3.59077,1.07093 0.84391,1.50658 0.16031,3.41892 -1.32291,4.22073 -1.74792,0.94491 -3.94438,0.14783 -4.85069,-1.57489 -1.04638,-1.98895 -0.13551,-4.47019 1.82688,-5.48066 2.22979,-1.14816 4.99622,-0.1233 6.11061,2.07886 1.25018,2.47051 0.11118,5.52245 -2.33085,6.74058 -1.58812,0.79219 -3.50629,0.72359 -5.05241,-0.13731" />
        <path
           sodipodi:t0="0"
           sodipodi:argument="-16.112856"
           sodipodi:radius="5.5677643"
           sodipodi:revolution="2.9013083"
           sodipodi:expansion="1"
           sodipodi:cy="198.74022"
           sodipodi:cx="166.91461"
           id="path1142"
           style="fill:none;fill-rule:evenodd;stroke:#000000;stroke-width:1.365;stroke-miterlimit:4;stroke-dasharray:none"
           sodipodi:type="spiral"
           transform="matrix(-0.60280284,-0.03894371,0.02284944,-0.57513641,169.46414,355.40215)"
           d="m 166.91461,198.74022 c -0.26531,0.11371 -0.28417,-0.30154 -0.18899,-0.44097 0.25795,-0.37785 0.81576,-0.23205 1.07094,0.063 0.45645,0.52777 0.21477,1.32748 -0.31498,1.70089 -0.77743,0.548 -1.84719,0.19986 -2.33086,-0.56696 -0.64465,-1.02204 -0.18611,-2.36986 0.81895,-2.96081 1.26476,-0.74366 2.89398,-0.17302 3.59077,1.07093 0.84391,1.50658 0.1603,3.41892 -1.32291,4.22073 -1.74792,0.94491 -3.94438,0.14783 -4.85069,-1.57489 -1.04637,-1.98895 -0.13551,-4.47019 1.82688,-5.48066 2.22979,-1.14816 4.99622,-0.1233 6.11061,2.07887 1.25017,2.4705 0.11118,5.52244 -2.33085,6.74057 -1.5585,0.77741 -3.43742,0.7271 -4.96913,-0.0919" />
        <path
           transform="matrix(-0.58290359,0.09192973,-0.10061213,-0.54477081,180.27282,325.30717)"
           sodipodi:type="spiral"
           style="fill:none;fill-rule:evenodd;stroke:#000000;stroke-width:1.365;stroke-miterlimit:4;stroke-dasharray:none"
           id="path1148"
           sodipodi:cx="166.91461"
           sodipodi:cy="198.74022"
           sodipodi:expansion="1"
           sodipodi:revolution="2.9096603"
           sodipodi:radius="5.5837955"
           sodipodi:argument="-16.112856"
           sodipodi:t0="0"
           d="m 166.91461,198.74022 c -0.26531,0.11371 -0.28417,-0.30154 -0.18899,-0.44097 0.25795,-0.37785 0.81576,-0.23205 1.07094,0.063 0.45645,0.52777 0.21477,1.32748 -0.31498,1.7009 -0.77743,0.54799 -1.84719,0.19985 -2.33086,-0.56697 -0.64465,-1.02204 -0.18611,-2.36986 0.81895,-2.96081 1.26476,-0.74366 2.89398,-0.17302 3.59077,1.07093 0.84391,1.50658 0.16031,3.41893 -1.32291,4.22073 -1.74792,0.94491 -3.94438,0.14783 -4.85069,-1.57489 -1.04638,-1.98895 -0.13551,-4.47019 1.82688,-5.48066 2.22979,-1.14816 4.99622,-0.12331 6.11061,2.07886 1.25018,2.47051 0.11118,5.52245 -2.33084,6.74058 -1.65019,0.82315 -3.65063,0.71403 -5.22381,-0.23678" />
        <path
           sodipodi:t0="0"
           sodipodi:argument="-16.112856"
           sodipodi:radius="5.7571616"
           sodipodi:revolution="3"
           sodipodi:expansion="1"
           sodipodi:cy="198.74022"
           sodipodi:cx="166.91461"
           id="path1150"
           style="fill:none;fill-rule:evenodd;stroke:#000000;stroke-width:1.365;stroke-miterlimit:4;stroke-dasharray:none"
           sodipodi:type="spiral"
           transform="matrix(-0.49903107,0.22351029,-0.25559996,-0.44937906,187.68814,281.36448)"
           d="m 166.91461,198.74022 c -0.26531,0.11371 -0.28417,-0.30154 -0.18899,-0.44097 0.25795,-0.37785 0.81576,-0.23205 1.07094,0.063 0.45645,0.52777 0.21477,1.32748 -0.31498,1.7009 -0.77743,0.54799 -1.84719,0.19985 -2.33086,-0.56697 -0.64465,-1.02204 -0.18611,-2.36986 0.81895,-2.96081 1.26476,-0.74366 2.89398,-0.17302 3.59077,1.07093 0.84391,1.50658 0.16031,3.41892 -1.32291,4.22073 -1.74792,0.94491 -3.94438,0.14783 -4.85069,-1.57489 -1.04638,-1.98895 -0.13551,-4.47019 1.82688,-5.48066 2.22979,-1.14816 4.99622,-0.1233 6.11061,2.07886 1.25018,2.47051 0.11118,5.52245 -2.33085,6.74058 -2.71111,1.35236 -6.04879,0.0991 -7.37053,-2.58283" />
        <path
           transform="matrix(-0.46600848,0.11590504,-0.17779282,-0.43795613,158.54515,293.20061)"
           sodipodi:type="spiral"
           style="fill:none;fill-rule:evenodd;stroke:#000000;stroke-width:1.365;stroke-miterlimit:4;stroke-dasharray:none"
           id="path1154"
           sodipodi:cx="166.91461"
           sodipodi:cy="198.74022"
           sodipodi:expansion="1"
           sodipodi:revolution="3"
           sodipodi:radius="5.7571616"
           sodipodi:argument="-16.112856"
           sodipodi:t0="0"
           d="m 166.91461,198.74022 c -0.26531,0.11371 -0.28417,-0.30154 -0.18899,-0.44097 0.25795,-0.37785 0.81576,-0.23205 1.07094,0.063 0.45645,0.52777 0.21477,1.32748 -0.31498,1.7009 -0.77743,0.54799 -1.84719,0.19985 -2.33086,-0.56697 -0.64465,-1.02204 -0.18611,-2.36986 0.81895,-2.96081 1.26476,-0.74366 2.89398,-0.17302 3.59077,1.07093 0.84391,1.50658 0.16031,3.41892 -1.32291,4.22073 -1.74792,0.94491 -3.94438,0.14783 -4.85069,-1.57489 -1.04638,-1.98895 -0.13551,-4.47019 1.82688,-5.48066 2.22979,-1.14816 4.99622,-0.1233 6.11061,2.07886 1.25018,2.47051 0.11118,5.52245 -2.33085,6.74058 -2.71111,1.35236 -6.04879,0.0991 -7.37053,-2.58283" />
        <path
           sodipodi:t0="0"
           sodipodi:argument="-16.112856"
           sodipodi:radius="5.7571616"
           sodipodi:revolution="3"
           sodipodi:expansion="1"
           sodipodi:cy="198.74022"
           sodipodi:cx="166.91461"
           id="path1156"
           style="fill:none;fill-rule:evenodd;stroke:#000000;stroke-width:1.365;stroke-miterlimit:4;stroke-dasharray:none"
           sodipodi:type="spiral"
           transform="matrix(-0.43790773,0.04107852,-0.09829367,-0.40614145,131.33626,294.70837)"
           d="m 166.91461,198.74022 c -0.26531,0.11371 -0.28417,-0.30154 -0.18899,-0.44097 0.25795,-0.37785 0.81576,-0.23205 1.07094,0.063 0.45645,0.52777 0.21477,1.32748 -0.31498,1.7009 -0.77743,0.54799 -1.84719,0.19985 -2.33086,-0.56697 -0.64465,-1.02204 -0.18611,-2.36986 0.81895,-2.96081 1.26476,-0.74366 2.89398,-0.17302 3.59077,1.07093 0.84391,1.50658 0.16031,3.41892 -1.32291,4.22073 -1.74792,0.94491 -3.94438,0.14783 -4.85069,-1.57489 -1.04638,-1.98895 -0.13551,-4.47019 1.82688,-5.48066 2.22979,-1.14816 4.99622,-0.1233 6.11061,2.07886 1.25018,2.47051 0.11118,5.52245 -2.33085,6.74058 -2.71111,1.35236 -6.04879,0.0991 -7.37053,-2.58283" />
      </g>
    </g>
  </g>
</svg>
