<?xml version="1.0" standalone="no"?>
<!DOCTYPE svg PUBLIC "-//W3C//DTD SVG 20010904//EN"
 "http://www.w3.org/TR/2001/REC-SVG-20010904/DTD/svg10.dtd">
<svg version="1.0" xmlns="http://www.w3.org/2000/svg"
 width="577.000000pt" height="332.000000pt" viewBox="0 0 577.000000 332.000000"
 preserveAspectRatio="xMidYMid meet">
<metadata>
Created by potrace 1.16, written by Peter Selinger 2001-2019
</metadata>
<g transform="translate(0.000000,332.000000) scale(0.100000,-0.100000)"
fill="#000000" stroke="none">
<path d="M2580 3304 c-69 -7 -213 -25 -320 -39 -625 -83 -1103 -238 -1160
-375 -11 -28 -11 -34 7 -58 19 -25 26 -27 107 -30 67 -2 154 8 389 47 166 28
430 69 587 90 157 22 355 50 440 63 136 20 194 23 470 23 257 0 332 -4 410
-18 314 -58 730 -194 1013 -332 201 -98 237 -121 388 -249 123 -104 209 -144
209 -96 0 103 -214 371 -432 540 -112 87 -439 255 -605 309 -193 64 -437 114
-648 131 -172 14 -705 10 -855 -6z"/>
<path d="M835 2994 c-16 -2 -59 -12 -95 -21 -59 -15 -72 -23 -135 -87 -58 -58
-82 -94 -133 -195 -35 -68 -60 -126 -57 -129 3 -3 28 16 56 44 l50 49 -50 -90
c-54 -97 -174 -362 -185 -408 -4 -18 -3 -28 3 -25 5 1 65 68 133 148 68 80
139 156 157 170 18 14 53 43 78 65 l46 40 -17 -32 c-9 -18 -14 -33 -11 -33 2
0 50 31 105 69 71 49 130 80 203 106 56 21 134 54 172 73 l70 36 -59 7 c-93
11 -109 52 -57 146 22 39 25 53 15 57 -18 7 -252 15 -289 10z"/>
<path d="M2805 2989 c-204 -16 -1114 -138 -1298 -175 -374 -74 -694 -225 -979
-464 -161 -134 -262 -273 -303 -414 -23 -79 -17 -205 12 -261 67 -129 290
-240 563 -280 52 -8 189 -17 305 -20 293 -9 394 -28 461 -88 122 -107 57 -256
-113 -257 -32 0 -98 15 -180 40 -179 56 -246 66 -325 45 -68 -17 -122 -54
-151 -102 -15 -26 -16 -38 -6 -82 22 -105 107 -177 323 -275 646 -291 1540
-381 2381 -240 313 52 667 153 915 261 484 211 794 517 867 857 18 85 12 250
-12 341 -23 85 -105 248 -164 326 -110 144 -297 298 -491 402 -281 152 -724
299 -1070 356 -246 40 -476 50 -735 30z m413 -272 c23 -15 54 -46 69 -69 25
-36 28 -51 28 -119 0 -70 -3 -81 -30 -120 -18 -26 -50 -53 -79 -68 -102 -53
-221 -24 -331 80 -123 116 -125 223 -5 284 71 36 113 44 216 42 80 -2 95 -5
132 -30z m1087 -276 c23 -10 59 -39 81 -64 66 -75 81 -159 42 -237 -35 -67
-65 -84 -158 -89 -193 -8 -348 99 -321 221 18 79 77 144 156 172 58 21 152 19
200 -3z m-3020 -392 c83 -24 146 -59 197 -107 80 -76 69 -143 -33 -195 -143
-72 -380 -75 -562 -7 -75 28 -147 95 -147 135 0 39 34 86 89 123 121 80 289
99 456 51z m3300 -546 c48 -25 90 -68 104 -106 38 -99 -25 -227 -131 -271 -59
-25 -153 -20 -218 10 -169 78 -213 245 -89 337 80 59 249 74 334 30z m-1121
-425 c84 -25 166 -136 166 -224 -1 -72 -61 -147 -139 -173 -93 -31 -242 -2
-302 58 -80 79 -74 188 15 276 28 28 67 56 86 62 48 15 124 15 174 1z m-1157
-53 c97 -29 183 -118 183 -190 0 -53 -20 -105 -57 -146 -53 -59 -104 -81 -196
-87 -71 -4 -82 -2 -142 27 -110 54 -160 150 -135 259 15 72 75 135 142 151 53
12 136 7 205 -14z"/>
<path d="M5160 2221 c-8 -15 -3 -29 24 -68 96 -139 129 -261 128 -468 -1 -301
-53 -414 -311 -678 -128 -131 -221 -197 -424 -298 -98 -50 -202 -99 -230 -111
-314 -125 -731 -216 -1202 -262 -350 -34 -447 -37 -705 -21 -231 14 -263 18
-565 79 -293 59 -339 71 -547 145 -270 96 -367 147 -491 261 -48 44 -92 80
-97 80 -13 0 -40 -29 -40 -44 0 -6 5 -17 11 -23 7 -7 0 -12 -25 -17 -104 -20
-78 -166 29 -166 28 0 47 6 58 18 53 59 -32 151 -98 108 -41 -27 -28 -80 25
-99 12 -4 12 -6 -2 -6 -23 -1 -58 38 -58 65 0 45 59 76 101 54 12 -7 57 -42
100 -78 66 -57 76 -68 61 -76 -49 -27 -56 -88 -16 -135 64 -76 195 -30 163 58
-8 20 -7 22 8 16 10 -5 51 -20 90 -34 l73 -27 -32 -32 c-26 -25 -33 -40 -33
-71 0 -97 134 -144 201 -70 24 26 23 82 -2 110 l-19 22 25 -8 c14 -4 65 -22
113 -39 87 -31 88 -32 68 -50 -11 -10 -25 -34 -31 -52 -25 -73 55 -155 137
-139 77 14 112 107 58 160 -13 14 -20 25 -16 25 5 0 63 -11 131 -25 68 -14
125 -25 127 -25 3 0 -7 -14 -21 -31 -54 -64 -21 -165 60 -188 79 -22 151 34
140 109 -6 39 -46 80 -78 80 -12 0 -19 3 -16 6 4 3 44 -2 90 -10 45 -8 118
-18 160 -22 l77 -6 -20 -31 c-54 -89 18 -200 120 -183 86 13 124 126 61 179
l-30 26 163 -1 163 -2 -18 -35 c-24 -47 -23 -91 5 -132 40 -60 105 -76 164
-39 99 60 72 209 -37 210 -69 0 -120 -67 -99 -129 12 -35 35 -51 74 -51 38 0
60 15 75 50 10 25 10 34 -4 54 -21 33 -52 41 -81 22 -44 -29 -23 -96 25 -81
27 9 26 42 -2 48 -20 4 -19 4 5 6 22 1 27 -3 27 -22 0 -42 -49 -64 -78 -35
-34 34 3 108 53 108 31 0 75 -41 75 -70 0 -65 -71 -114 -129 -90 -16 6 -37 26
-47 45 -15 28 -16 39 -6 73 21 69 29 72 249 93 109 10 199 19 199 19 1 0 -7
-17 -17 -37 -24 -46 -24 -77 0 -129 18 -40 67 -74 106 -74 40 0 84 33 106 77
19 39 20 50 10 83 -24 81 -111 107 -165 51 -57 -59 -26 -161 49 -161 69 0 105
100 49 137 -24 15 -29 15 -53 2 -35 -20 -42 -73 -11 -89 16 -9 25 -8 36 1 23
19 18 49 -8 49 -18 0 -20 2 -8 10 33 21 56 -44 25 -70 -22 -18 -64 -4 -75 25
-31 81 86 131 125 54 32 -61 -11 -131 -80 -131 -66 0 -107 63 -86 132 16 54
49 77 124 85 34 4 112 16 172 26 144 25 135 26 119 -22 -38 -109 65 -224 170
-189 120 39 105 229 -20 249 -32 5 -19 10 102 38 76 18 149 35 161 39 21 6 21
4 12 -30 -22 -78 39 -177 117 -192 81 -15 154 48 154 133 0 77 -50 132 -122
134 -27 0 -19 5 47 29 44 15 115 44 159 64 43 20 79 36 81 36 1 0 0 -13 -3
-30 -7 -52 8 -100 45 -141 86 -95 218 -61 247 64 18 78 -50 167 -127 167 l-42
0 79 45 c43 25 100 61 127 81 l49 36 0 -39 c1 -110 127 -196 220 -148 69 36
95 114 61 189 -26 61 -71 89 -131 83 -34 -4 -51 -12 -72 -36 -75 -84 5 -225
109 -190 71 23 79 130 12 164 -52 28 -99 0 -99 -59 0 -50 68 -78 90 -37 13 25
13 27 -6 46 -15 15 -18 15 -35 -1 -21 -19 -27 -6 -7 14 16 16 33 15 52 -4 33
-33 7 -94 -40 -94 -26 0 -62 34 -70 64 -7 28 18 81 41 90 25 9 64 7 86 -4 24
-13 49 -61 49 -95 0 -34 -25 -82 -49 -95 -58 -30 -134 1 -163 67 -33 75 -23
98 105 232 l112 117 21 -47 c32 -68 82 -102 158 -107 51 -3 67 0 96 20 79 53
90 155 24 228 -52 57 -121 69 -191 31 -17 -9 -16 -1 12 52 18 34 39 81 46 105
l12 43 28 -34 c104 -127 301 -66 301 92 0 56 -19 99 -62 135 -62 52 -145 49
-197 -8 -28 -30 -33 -44 -33 -83 0 -115 118 -185 198 -118 36 30 47 66 32 111
-33 99 -170 98 -170 -1 0 -44 29 -75 70 -75 57 0 67 80 11 88 -12 2 -24 -3
-27 -13 -8 -21 5 -33 16 -15 5 8 12 11 16 7 12 -11 -13 -30 -30 -24 -32 13
-12 67 24 67 24 0 53 -35 53 -65 0 -65 -73 -86 -124 -36 -37 38 -39 88 -5 128
20 23 32 28 71 28 41 0 51 -4 81 -37 29 -32 34 -45 34 -86 0 -135 -157 -166
-244 -49 -20 27 -21 39 -18 190 2 89 5 163 7 165 1 2 19 -7 39 -19 23 -13 60
-23 99 -26 54 -4 69 -1 117 24 40 21 63 42 85 78 80 129 2 299 -143 313 -64 6
-111 -10 -154 -53 -69 -69 -73 -167 -11 -236 62 -69 151 -76 218 -18 49 43 63
95 41 151 -22 57 -59 83 -117 83 -53 0 -84 -21 -106 -73 -34 -82 66 -168 130
-110 38 34 42 61 14 94 -42 49 -107 10 -72 -43 16 -24 16 -24 -4 -13 -29 15
-28 64 1 84 31 22 52 20 84 -8 22 -18 28 -32 27 -61 -2 -70 -68 -110 -136 -81
-93 38 -95 161 -4 216 59 37 129 21 180 -40 84 -99 -1 -261 -136 -260 -71 1
-159 66 -173 128 -26 118 -92 259 -148 315 -23 22 -53 22 -66 -2z m291 -1057
c25 -23 42 -78 34 -114 -23 -103 -191 -107 -239 -6 -18 38 -21 102 -6 111 7 4
9 -2 4 -19 -9 -36 13 -91 47 -121 54 -45 110 -45 155 0 41 41 26 123 -27 151
-38 19 -62 18 -93 -7 -50 -40 -21 -119 44 -119 49 0 64 57 20 80 -21 11 -46
-12 -34 -32 6 -11 4 -11 -7 0 -17 16 -1 46 28 50 53 8 70 -80 21 -107 -38 -21
-78 -5 -103 41 -18 35 -19 38 -3 72 27 56 108 66 159 20z"/>
<path d="M79 2190 c-56 -30 -74 -64 -74 -145 0 -86 32 -159 104 -237 65 -71
77 -64 83 49 4 72 11 101 36 157 18 38 32 79 32 91 0 45 -70 106 -122 105 -13
-1 -39 -9 -59 -20z"/>
<path d="M81 1742 c-8 -15 -2 -31 27 -74 20 -31 42 -64 49 -74 10 -18 12 -18
28 -3 10 10 20 37 22 62 5 41 2 49 -25 77 -36 35 -85 41 -101 12z"/>
</g>
</svg>
