<?xml version="1.0" standalone="no"?>
<!DOCTYPE svg PUBLIC "-//W3C//DTD SVG 20010904//EN"
 "http://www.w3.org/TR/2001/REC-SVG-20010904/DTD/svg10.dtd">
<svg version="1.0" xmlns="http://www.w3.org/2000/svg"
 width="4501.000000pt" height="4501.000000pt" viewBox="0 0 4501.000000 4501.000000"
 preserveAspectRatio="xMidYMid meet">
<metadata>
Created by potrace 1.16, written by Peter Selinger 2001-2019
</metadata>
<g transform="translate(0.000000,4501.000000) scale(0.100000,-0.100000)"
fill="#000000" stroke="none">
<path d="M20774 39608 c-460 -467 -791 -875 -1026 -1268 -188 -313 -282 -553
-325 -830 -25 -161 -25 -550 0 -705 79 -494 272 -892 596 -1228 383 -397 898
-642 1546 -737 77 -11 166 -20 198 -20 l58 0 -3 67 -3 67 -55 13 c-435 108
-885 310 -1174 528 -482 363 -757 853 -837 1490 -19 148 -16 456 5 598 49 340
181 646 477 1110 153 239 423 615 686 955 74 96 137 180 140 188 3 10 -3 14
-19 14 -19 0 -81 -57 -264 -242z"/>
<path d="M23876 39842 c-2 -4 25 -46 61 -92 148 -190 485 -645 583 -788 541
-785 699 -1199 677 -1772 -21 -537 -192 -1004 -498 -1366 -415 -490 -1115
-817 -2059 -963 -74 -12 -147 -23 -162 -26 -21 -3 -28 0 -28 11 0 14 -12 15
-87 9 -392 -28 -682 -111 -1053 -301 -1348 -690 -2567 -2483 -2944 -4329 -239
-1172 -102 -2174 399 -2920 279 -415 630 -718 1100 -950 258 -128 490 -209
800 -281 173 -40 200 -41 218 -12 9 12 19 35 22 50 6 24 4 28 -22 34 -598 136
-1058 373 -1412 725 -336 335 -568 782 -675 1299 -58 281 -70 425 -71 805 0
271 4 387 18 515 138 1260 601 2586 1242 3555 566 854 1222 1410 1965 1667
110 38 344 95 417 103 32 3 258 7 503 9 429 3 450 4 586 29 601 111 1046 324
1403 671 195 191 314 354 435 596 160 322 236 656 236 1035 0 372 -53 613
-201 916 -233 476 -598 955 -1168 1532 -222 224 -269 264 -285 239z"/>
<path d="M20231 37419 c-89 -17 -174 -88 -214 -178 -15 -33 -20 -67 -20 -121
-1 -163 109 -297 267 -330 35 -7 746 -9 2266 -8 1859 3 2221 5 2252 17 61 23
129 82 162 141 29 51 31 62 31 150 0 81 -4 103 -25 145 -47 95 -132 161 -238
184 -64 13 -4411 14 -4481 0z"/>
<path d="M21115 36191 c-92 -23 -164 -81 -205 -165 -26 -53 -32 -77 -32 -133
-1 -106 23 -166 96 -239 109 -108 -32 -99 1496 -99 1251 0 1328 1 1377 18 66
23 136 85 171 151 24 45 27 62 27 146 0 80 -4 102 -23 138 -36 67 -98 129
-161 159 l-56 28 -1330 2 c-731 0 -1343 -2 -1360 -6z"/>
<path d="M22290 34541 c-86 -28 -159 -90 -201 -171 -20 -38 -24 -60 -24 -140
0 -86 3 -100 29 -148 34 -60 85 -111 148 -144 39 -21 56 -23 193 -23 137 0
154 2 193 23 66 35 119 88 149 150 39 80 40 192 2 273 -33 70 -89 127 -154
159 -44 21 -66 24 -180 27 -71 1 -141 -1 -155 -6z"/>
<path d="M24275 33858 c181 -184 277 -297 440 -513 600 -799 1070 -1881 1319
-3040 174 -810 201 -1526 81 -2118 -216 -1064 -913 -1762 -2024 -2026 -46 -11
-86 -23 -89 -26 -3 -3 0 -25 8 -48 19 -53 35 -56 167 -27 478 103 851 254
1193 482 190 126 289 207 435 353 320 320 544 692 688 1140 233 727 215 1635
-52 2613 -336 1228 -1051 2444 -1898 3227 l-143 132 -106 6 c-59 4 -123 7
-143 7 l-36 0 160 -162z"/>
<path d="M22267 33435 c-21 -8 -57 -28 -79 -44 -191 -141 -164 -443 50 -548
54 -27 64 -28 197 -28 133 0 143 1 197 28 136 67 206 226 163 372 -31 106 -95
178 -195 216 -63 24 -272 26 -333 4z"/>
<path d="M21572 32180 c-117 -59 -177 -165 -170 -300 8 -128 73 -225 186 -278
l57 -27 750 0 c745 0 750 0 796 21 67 31 124 87 156 152 39 80 40 192 2 272
-34 74 -76 120 -141 156 l-53 29 -760 3 -761 2 -62 -30z"/>
<path d="M9660 30804 c-886 -49 -1593 -179 -2360 -433 -1129 -375 -2107 -939
-3015 -1740 -178 -156 -573 -554 -729 -733 -1008 -1157 -1666 -2491 -1962
-3974 -112 -564 -158 -1047 -158 -1654 0 -390 9 -573 45 -910 177 -1654 842
-3231 1903 -4515 350 -423 800 -867 1226 -1210 1825 -1470 4154 -2127 6495
-1834 88 11 212 29 276 39 64 11 120 20 124 20 4 0 -28 -25 -71 -57 -289 -207
-777 -656 -1100 -1013 -1004 -1110 -1692 -2440 -2013 -3895 -209 -943 -253
-1940 -131 -2910 33 -259 97 -597 150 -794 l11 -40 52 6 c201 21 691 119 1092
218 1002 247 1937 592 2865 1057 1598 800 3005 1886 4176 3223 1086 1240 1946
2682 2519 4220 145 390 247 711 341 1075 47 184 115 445 150 580 167 642 278
1365 341 2220 23 309 26 1402 5 1700 -53 762 -144 1417 -287 2075 -363 1668
-1036 3258 -1964 4640 -603 898 -1024 1409 -1805 2191 -482 481 -704 685
-1100 1007 -234 190 -465 334 -846 526 -1019 514 -2087 808 -3280 901 -135 11
-826 21 -950 14z"/>
<path d="M34635 30803 c-1430 -69 -2750 -450 -3927 -1133 -241 -139 -348 -221
-802 -610 -207 -178 -380 -342 -756 -719 -773 -774 -1203 -1299 -1817 -2216
-1174 -1754 -1940 -3886 -2167 -6025 -87 -819 -101 -1683 -41 -2485 63 -825
193 -1605 380 -2280 20 -71 57 -210 81 -308 100 -403 201 -728 353 -1136 693
-1853 1752 -3502 3146 -4896 1812 -1812 4084 -3075 6585 -3660 332 -78 703
-149 942 -180 37 -5 37 -4 49 37 88 329 154 746 196 1238 21 256 24 951 5
1200 -52 672 -152 1229 -327 1830 -449 1542 -1347 2947 -2562 4012 -155 136
-309 261 -408 333 -72 52 -77 57 -45 51 183 -35 609 -85 905 -108 207 -15 924
-15 1125 0 824 65 1501 200 2216 443 1086 369 2074 944 2949 1717 179 158 574
556 729 734 1063 1220 1740 2642 2006 4211 84 494 114 876 114 1417 0 425 -8
582 -50 960 -182 1643 -855 3217 -1919 4492 -1463 1752 -3548 2844 -5830 3053
-333 30 -834 43 -1130 28z"/>
<path d="M20354 30769 c-66 -15 -145 -69 -181 -122 -40 -60 -53 -104 -53 -184
0 -129 68 -236 188 -295 l67 -33 2010 0 2010 0 57 28 c242 119 226 466 -27
584 l-60 28 -1985 2 c-1190 0 -2001 -3 -2026 -8z"/>
<path d="M19085 29331 c-77 -19 -159 -84 -198 -156 -18 -33 -22 -56 -22 -140
0 -89 3 -105 27 -150 32 -60 97 -124 158 -156 l45 -24 3329 -3 3329 -2 52 24
c136 62 203 213 161 360 -31 106 -91 176 -191 223 l-60 28 -3300 2 c-1815 0
-3313 -2 -3330 -6z"/>
<path d="M19465 27882 c-68 -22 -155 -109 -178 -176 -24 -69 -22 -162 5 -233
29 -79 112 -162 191 -191 l58 -22 2962 2 2962 3 41 22 c67 36 101 70 133 135
81 161 6 365 -164 448 l-50 25 -2955 2 c-2721 2 -2959 1 -3005 -15z"/>
<path d="M22223 26189 c-597 -70 -1156 -427 -1463 -934 -188 -311 -277 -615
-287 -980 -15 -523 151 -976 506 -1384 190 -217 522 -438 811 -539 586 -204
1253 -126 1760 208 567 374 900 987 900 1660 0 520 -204 1020 -564 1384 -321
324 -722 523 -1169 581 -125 16 -373 18 -494 4z"/>
<path d="M22281 21819 c-340 -36 -700 -178 -981 -388 -95 -71 -274 -244 -353
-341 -239 -295 -386 -654 -428 -1045 -52 -484 215 -3205 527 -5360 399 -2761
838 -4462 1253 -4858 74 -71 128 -97 201 -97 73 0 127 26 201 97 451 430 926
2380 1348 5533 276 2059 480 4280 432 4700 -90 777 -608 1420 -1341 1664 -280
93 -569 125 -859 95z"/>
</g>
</svg>
