<svg id="Layer_1" data-name="Layer 1" xmlns="http://www.w3.org/2000/svg" viewBox="0 0 2000 2000"><defs><style>.cls-1{fill:#181818;}</style></defs><title>bob_logo</title><path class="cls-1" d="M1147.74,630l-12.61-8.4a6.15,6.15,0,0,0-9.56,5.12V811.29a88.32,88.32,0,0,1-68.13,86L1039,899.12h-58.4l45.67,14.23-4.49,22.46s21-1.5,24,12a25.54,25.54,0,0,0-24.7-5.24c-15,4.49-18,29.94-16.47,40.42s12,18,21,19.47c0,0-23.21,9-35.19-10.51-17.2-3-15.18-40.48-15.18-40.48-4.94,14.32-3.13,24.78,0,31.74a8,8,0,0,1,.63,4.45l0,.11a7.86,7.86,0,0,1-7.91,6.62c-3.12-.06-6.75-.18-10.93-.41-18.21-1-21.25-11.14-21.25-11.14,6.08,23.28,26.31,23.28,26.31,23.28h-.07v1.29a6.7,6.7,0,0,1,2.31-.39,6.48,6.48,0,0,1,3,.69,6,6,0,0,1,1.86.67,6.92,6.92,0,0,1,1.62-.19,6.82,6.82,0,0,1,2.14.33V1008l18.22,3.14v.31s2.62.5,6.81.9l.5,0a6,6,0,0,1,3.9,1.31,7,7,0,0,1,1.41-.14,7.5,7.5,0,0,1,1.18.11,7.26,7.26,0,0,1,1.17-.11,7.51,7.51,0,0,1,1.19.11,6.26,6.26,0,0,1,2.94-.69,6.61,6.61,0,0,1,2.35.41,6.71,6.71,0,0,1,2.36-.41,6.91,6.91,0,0,1,1.68.2,7.27,7.27,0,0,1,1.8,0,21.13,21.13,0,0,0,3.64.16,6.21,6.21,0,0,1,3.48-1,6.64,6.64,0,0,1,1.37.13,5.82,5.82,0,0,1,4.2-1.88,6,6,0,0,1,4.44-1.79c.25,0,.48,0,.71,0V1008a40,40,0,0,0,13.27-8.59c19.46-19.46,9-49.41,9-49.41l33-56.07a88.65,88.65,0,0,0,57.52-83V632.24A2.71,2.71,0,0,0,1147.74,630Z"/><path class="cls-1" d="M1001.71,437.89c6.62-1.32,13.24-9.26,14.56-15.88s5.29-9.27,5.29-9.27-11.91-1.32-19.85,10.59S995.09,439.22,1001.71,437.89Z"/><path class="cls-1" d="M968.61,448.49c6.62,2.64,14.56-7.95,15.89-13.24s5.29-11.92,5.29-11.92C977.88,423.33,962,445.84,968.61,448.49Z"/><path class="cls-1" d="M940.81,457.75c5.29,2.65,11.91-4,14.56-10.59A58.58,58.58,0,0,1,962,435.25C950.07,435.25,935.51,455.11,940.81,457.75Z"/><path class="cls-1" d="M926.24,460.4c1.33-4,6.62-11.91,6.62-11.91-9.27,1.32-15.89,13.23-17.21,18.53S924.92,464.37,926.24,460.4Z"/><path class="cls-1" d="M892.92,760.19a8.79,8.79,0,0,0-8.77,9.52c.84,9.57,4.07,26.08,15.11,48.17,18.22,36.43,57.68,42.5,57.68,42.5-45-13.9-53.6-70.75-55.26-92.06A8.8,8.8,0,0,0,892.92,760.19Z"/><path class="cls-1" d="M869.35,762.62a8.29,8.29,0,0,0-8.31,9c.75,9,3.74,24.64,14.08,45.55,17,34.48,54.3,40.37,54.3,40.37-42.42-13.31-50.34-67-51.82-87.17A8.3,8.3,0,0,0,869.35,762.62Z"/><path class="cls-1" d="M924.55,757.16a9,9,0,0,0-9,9.8c.85,9.87,4.18,26.87,15.56,49.63,18.77,37.53,59.43,43.79,59.43,43.79-46.33-14.32-55.23-72.89-56.94-94.85A9.06,9.06,0,0,0,924.55,757.16Z"/><path class="cls-1" d="M953.24,755.14a9.4,9.4,0,0,0-9.38,10.18c.89,10.25,4.36,27.93,16.18,51.57,19.5,39,61.76,45.51,61.76,45.51-48.15-14.88-57.4-75.75-59.17-98.57A9.41,9.41,0,0,0,953.24,755.14Z"/><path class="cls-1" d="M1055.19,860.38C1007,845.49,997.8,784.63,996,761.81a9.41,9.41,0,1,0-18.76,1.49c.89,10.25,4.35,27.92,16.17,51.57C1012.94,853.88,1055.19,860.38,1055.19,860.38Z"/><path class="cls-1" d="M1045,431.31a44.46,44.46,0,0,1,16.2-22.26c-22.27-12.15-35.42,15.18-33.4,20.24S1045,431.31,1045,431.31Z"/><path class="cls-1" d="M943.79,493l1-12.14,11.13-8.1S924.56,483.93,910.39,491c-17.17,8.58-16.19,25.29-16.19,25.29C902.3,507.21,943.79,493,943.79,493Z"/><path class="cls-1" d="M938.73,523.4l1-12.14,11.13-8.1s-31.37,11.13-45.54,18.21c-17.17,8.59-16.19,25.3-16.19,25.3C897.24,537.57,938.73,523.4,938.73,523.4Z"/><path class="cls-1" d="M935.59,543.79l12.24-8s-33.89,10.24-49.3,17c-18.68,8.25-18.48,26.05-18.48,26.05,9.06-9.26,53.85-22.2,53.85-22.2Z"/><path class="cls-1" d="M873,636.74c14.17-8.1,36.43-11.13,39.47-12.15s6.07-1,5.06-4-12.15-11.14-12.15-11.14S885.1,615.49,878,620.55s-6.07,16.19-6.07,16.19Z"/><path class="cls-1" d="M919.5,582.09c5.06-6.07,7.09-10.12,3-10.12s-35.42,11.13-40.48,18.22S877,606.38,877,606.38s15.18-9.11,24.29-10.12S914.44,588.16,919.5,582.09Z"/><path class="cls-1" d="M915.45,657l2-16.2,9.11-6.07c-17.21,2-46.55,11.13-54.65,18.22s-5.06,15.18-5.06,15.18C879,662,915.45,657,915.45,657Z"/><path class="cls-1" d="M909.38,690.37l1-14.17,16.2-8.09s-45.54,8.09-57.69,14.16-8.09,19.23-8.09,19.23C874,694.42,909.38,690.37,909.38,690.37Z"/><path class="cls-1" d="M854.74,733.88c14.16-7.08,48.57-9.1,48.57-9.1l2-16.19,17.21-6.08c-70.84,6.08-67.8,22.27-67.8,22.27Z"/><path class="cls-1" d="M1062.69,478.37c33.16,9.95,56.14,39.59,63.36,50a13.48,13.48,0,0,1,2.42,7.69,2.84,2.84,0,0,1-5.11,1.7c-7.63-10.21-23.69-28.86-47.51-42.17-34.41-19.23-78.93-7.08-78.93-7.08L961.5,500.63l-4,19.23s37.44-17.21,75.9-12.15,55.65,18.22,73.87,35.42,22.26,30.36,17.2,30.36-7.08-15.18-44.52-39.47-89.06-11.13-89.06-11.13L954.41,533l-2,18.22a352.72,352.72,0,0,1,38.45-9.11c86.65-10.36,119.83,39.76,124,46.76a3.23,3.23,0,0,1,.46,1.69v1.06a3.32,3.32,0,0,1-5.88,2.12c-37.58-46-108.94-41.46-117.57-40.5-9.11,1-32.39,7.08-37.45,10.12s-5.06,4,1,11.13,9.1,6.07,9.1,6.07c90.88-24.11,135,27.41,141.77,36.2a4.49,4.49,0,0,1-6.57,6.06c-10.3-9.31-30.43-24.92-55.25-31.12-36.43-9.11-78.93-1-84,3S938.22,619,942.27,618s35.42-7.09,35.42-7.09c81.18-10,118.79,30.91,125.41,39.08a4.8,4.8,0,0,1,1.08,3v.45a4.78,4.78,0,0,1-7.94,3.59c-43.53-37.81-98.54-35.85-118.55-33a285.91,285.91,0,0,0-40.48,9.11l-2,19.22,35.42-6.07c80.51-9.15,122.14,30.51,129.39,38.19a4.28,4.28,0,0,1,1.15,2.92v3a4.27,4.27,0,0,1-7,3.3c-46.7-39-106.08-36.16-120.53-34.23-15.18,2-42.5,7.08-42.5,7.08l-2,21.25c19.22-3,48.57-6.07,48.57-6.07,70.87-5.38,113.1,31.38,121.78,39.8a5.48,5.48,0,0,1-7.17,8.27c-43-33.9-94.61-33.9-112.59-33.9-19.22,0-53.12,6.57-53.12,6.57l-2,21.25s50.6-10.11,99.17-2,77.35,43.74,77.35,43.74l1.38,2.49c-22.67-21.52-48.79-30.92-66.41-35-15.23,57.52,15,83.9,15,83.9C1016.2,799,1023.44,739,1024.6,730.78a88,88,0,0,0-9-.94s-8.1,26.31,1,62.74,44.53,46.55,44.53,46.55c13.15,19.22,1,27.32-6.08,28.33s-51.61,0-82,0-43.52-5.06-43.52-5.06c16.19,16.19,50.6,18.22,50.6,18.22H1061a73.83,73.83,0,0,1-23,3.67H956.68c-.23,0-18.5-1.49-29-17C926,866.85,916.3,864,910.52,860c4.19,7.92,18.75,31.22,46.19,33.34h78.73a84.21,84.21,0,0,0,84.21-84.2v-180c0-4.71.93-7.18,1.75-8.44a9.54,9.54,0,0,0-8.92,6.19h0c2.22-18.47,16-11.9,16-11.9l21.19,11.22c-2.81-3.33-5.34-6.22-7-8.18-6.07-7.09-7.09-26.31,5.06-14.17s17.2,22.26,17.2,30.36a20.83,20.83,0,0,1-2.31,8.89,139,139,0,0,0-8.38-11.38l-.25,12.7-.19,9.82-2,102.41h2c6.07-7.08,1-24.28,1-24.28s2,0,6.07-11.14c2.45-6.71-.64-13.06-3.47-17,1.94-1.53,5.14-5.76,6.51-17.36a24.12,24.12,0,0,0-1.45-12.54c3.66-2.84,5.45-14.17,4.48-21.87a18.81,18.81,0,0,0-2.42-6.17c4.68-1,7.4-13.43,5.46-22.16a20.4,20.4,0,0,0-2.09-5.05h.07c5.06-1,6.07-14.17,5.06-24.29a17.38,17.38,0,0,0-1.83-5.55l1.83-4.57c7.08-16.19,10.12-51.61-28.34-102.21s-53.63-68.81-69.82-72.86S1033.35,445,1062.69,451s39.47,27.33,39.47,27.33c-29.35-29.35-75.9-25.3-94.11-23.28s-42.5,14.17-42.5,14.17l-2,18.21C984.77,479.38,1022.22,466.22,1062.69,478.37Zm87,61.73c4,1,17.2,18.21,21.25,26.31,3,6-.12,14.8-1.94,18.94-6.59-10.77-19.31-24.25-22.35-28.05C1142.64,552.24,1145.67,539.08,1149.72,540.1Zm-5.06,28.33c3,0,13.16,12.14,20.24,22.26s1,24.29,1,24.29-.09.16-.22.42c-6.5-10.06-18.25-22.94-22-26.73C1138.59,583.61,1141.63,568.43,1144.66,568.43Zm-81.46-128s3-20.24,11.13-21.25,23.28,12.14,33.39,27.32C1107.72,446.49,1075.34,407,1063.2,440.42Z"/><path class="cls-1" d="M991.09,977s3-34.43,19.47-40.42l4.49-19.47-10.48,12-44.92-3-6-22.46v22.46s-18,4.49-18,34.43c0,0,1.5,18,12,22.46,0,0-10.48-16.47-6-31.44s15-16.47,18-16.47l21.67.83a10.93,10.93,0,0,1,10.46,9c0,.14.05.27.07.4a10.78,10.78,0,0,1-.36,4.62C989.52,956.47,988.54,965.5,991.09,977Z"/><path class="cls-1" d="M1808.22,387.93S1756.45,599.59,1307,761.61c-.66.24-3.33,1.1-7,2.4-47,16.55-142.07,50-163.07,123.88-1.45,5.11-13.45,47.63,9.48,88.86,17.14,30.83,53.94,61.23,97.47,58,58.52-4.29,101.4-67.24,94.07-110.82-.5-3-4.67-26.09-23.2-36.08-26-14-69.06,3.78-73.44,28.35C1239,929,1246.35,948,1262,952c11.63,3,25.15-3,33.36-15.09-.37,6.38-2.21,22.14-14.18,33.5-19.74,18.74-55.74,14.82-74.74-3.86-20.75-20.42-14.73-52.11-12.88-61.85,3.83-20.19,14.13-34.72,21.9-43.82,40.72-47.68,109.91-61.16,119.84-63.14,0,0,103.33-20.51,262.87-103.08,56.25-29.11,129.37-82.31,197.15-188.13Q1801.78,447.2,1808.22,387.93Z"/><path class="cls-1" d="M1210.32,929.13s9-91.49,144.32-117.26,337.61-92.78,443.27-241l-38.66,144.32s-223,145.21-389.15,134C1255.42,841.51,1210.32,929.13,1210.32,929.13Z"/><path class="cls-1" d="M1422.93,855.68s127.57-15.46,145.61-33.5c0,0,145.61-5.16,229.37-72.16,0,0-1.29,30.92-12.89,45.1S1596.89,915,1422.93,855.68Z"/><path class="cls-1" d="M1328.87,863.41s55.41-3.86,150.76,16.75,202.31,21.91,318.28-29.63c0,0-37.37,101.79-181.69,104.37s-225.5-46.39-262.87-38.66C1353.35,916.24,1359.79,887.89,1328.87,863.41Z"/><path class="cls-1" d="M1429.38,954.9l32.21,51.54s117.26,46.39,137.88,47.68,114.68,34.79,150.76-28.35c0,0-67,21.91-207.46-55.41Z"/><path class="cls-1" d="M1493.81,1041.23s68.29,21.91,95.35,21.91c0,0,29.64,55.41,103.09,70.87C1692.25,1134,1599.47,1146.9,1493.81,1041.23Z"/><path class="cls-1" d="M1408.76,954.9s58,144.32,340.18,242.25c0,0-215.19,59.28-393-194.57,0,0,15.46-19.33,9-65.72Z"/><path class="cls-1" d="M1380.41,1058s28.35,63.14,63.14,74.73c0,0,2.58,179.12,206.17,269.32,0,0-208.75-42.53-283.48-243.55Z"/><path class="cls-1" d="M1462.88,1143l64.43,46.39s16.75,92.78,77.31,123.7C1604.62,1313.12,1483.5,1286.06,1462.88,1143Z"/><path class="cls-1" d="M1367.53,1215.19s12.88,59.28,73.44,97.93c0,0-28.34,112.11,45.1,188.14C1486.07,1501.26,1334,1421.36,1367.53,1215.19Z"/><path class="cls-1" d="M1285.06,1070.87s34.79-5.15,42.52-36.08c0,0,23.19,36.08,30.93,54.12,0,0-96.65,356.94,163.64,524.45C1522.15,1613.36,1225.78,1533.47,1285.06,1070.87Z"/><path class="cls-1" d="M191.78,378.91S243.55,590.57,693,752.59c.66.24,3.33,1.1,7,2.4,47,16.55,142.07,50,163.07,123.88,1.45,5.11,13.45,47.63-9.48,88.86-17.14,30.83-53.94,61.23-97.47,58-58.52-4.29-101.4-67.24-94.07-110.82.5-3,4.67-26.09,23.2-36.08,26-14,69.06,3.78,73.44,28.35C761,920,753.65,938.93,738,942.93c-11.63,3-25.15-3-33.36-15.09.37,6.38,2.21,22.14,14.18,33.5,19.74,18.74,55.74,14.82,74.74-3.86,20.75-20.42,14.73-52.11,12.88-61.85-3.83-20.19-14.13-34.72-21.9-43.82-40.72-47.68-109.91-61.16-119.84-63.14,0,0-103.33-20.51-262.87-103.08-56.25-29.11-129.37-82.31-197.15-188.13Q198.22,438.18,191.78,378.91Z"/><path class="cls-1" d="M789.68,920.11s-9-91.49-144.32-117.26-337.61-92.78-443.27-241L240.75,706.2s223.05,145.21,389.15,134C744.58,832.49,789.68,920.11,789.68,920.11Z"/><path class="cls-1" d="M577.07,846.66S449.5,831.2,431.46,813.16c0,0-145.61-5.16-229.37-72.16,0,0,1.29,30.92,12.89,45.1S403.11,905.93,577.07,846.66Z"/><path class="cls-1" d="M671.13,854.39s-55.41-3.86-150.76,16.75-202.31,21.91-318.28-29.63c0,0,37.37,101.79,181.69,104.37s225.5-46.39,262.87-38.66C646.65,907.22,640.21,878.87,671.13,854.39Z"/><path class="cls-1" d="M570.62,945.88l-32.21,51.54s-117.26,46.39-137.88,47.68-114.68,34.79-150.76-28.35c0,0,67,21.91,207.46-55.41Z"/><path class="cls-1" d="M506.19,1032.21s-68.29,21.91-95.35,21.91c0,0-29.64,55.41-103.09,70.87C307.75,1125,400.53,1137.88,506.19,1032.21Z"/><path class="cls-1" d="M591.24,945.88s-58,144.32-340.18,242.25c0,0,215.19,59.28,393-194.57,0,0-15.46-19.33-9-65.72Z"/><path class="cls-1" d="M619.59,1049s-28.35,63.14-63.14,74.73c0,0-2.58,179.12-206.17,269.32,0,0,208.75-42.53,283.48-243.55Z"/><path class="cls-1" d="M537.12,1134l-64.43,46.39s-16.75,92.78-77.31,123.7C395.38,1304.1,516.5,1277,537.12,1134Z"/><path class="cls-1" d="M632.47,1206.17s-12.88,59.28-73.44,97.93c0,0,28.34,112.11-45.1,188.14C513.93,1492.24,666,1412.34,632.47,1206.17Z"/><path class="cls-1" d="M714.94,1061.85s-34.79-5.15-42.52-36.08c0,0-23.19,36.08-30.93,54.12,0,0,96.65,356.94-163.64,524.45C477.85,1604.34,774.22,1524.45,714.94,1061.85Z"/><path d="M1075.06,1395.55c-4.14-7.82-7.85-14.77-11.52-21.74-8.3-15.77-16.68-31.51-24.85-47.36-3.43-6.64-8.69-10.12-16.05-9.76-7.64.38-12.93,4.67-16.08,11.48-2.08,4.49-1.37,9,.78,13.37q15.78,32.28,31.42,64.63c.64,1.32,1.21,2.67,1.8,4-18.37,11.31-84.21,10.55-105.54-1.28,2.07-4.35,4.13-8.75,6.24-13.13q17.85-37.15,35.74-74.32,13.72-28.47,27.49-56.92c3.64-7.58,2.41-14.21-3.55-20.1-5.31-5.24-13.84-6.86-20.31-3a20,20,0,0,0-7,7.59q-36.23,68.13-72.13,136.44c-.94,1.78-1.92,3.55-3.12,5.78-1.5-1-2.77-1.63-3.91-2.48-52.81-39.29-78.86-91.81-73.45-157.49,5.48-66.52,39.48-115.66,100.06-143.89,78.75-36.69,171.31-5.68,214.91,70.14a175.32,175.32,0,0,1-42.52,224.94C1087.77,1387,1081.58,1390.93,1075.06,1395.55Z"/><path d="M1087.38,1417.41c-1-1.36-1.53-2-1.92-2.63-1.94-3.42-3.84-6.85-5.94-10.6,1.56-1,2.88-1.93,4.23-2.78,110.4-70,114.66-230.48,8.14-306.31-76.73-54.61-183.25-38.74-241.8,36a184.88,184.88,0,0,0,40.79,266.77c.88.6,1.7,1.28,2.81,2.12l-6.85,13.1c-1.6-1-3-1.77-4.25-2.64-65.86-44.7-99.51-124.93-83.22-202.87,15.78-75.43,60.38-127.49,134.07-150.9,109.24-34.7,222,33.61,245.46,145.31,16.43,78.27-6.66,145-67.42,197.77C1104.05,1406.26,1095.54,1411.49,1087.38,1417.41Z"/><path d="M1161.88,1621.09c-6.2-.54-10.52-4.95-13.48-11q-8.78-18-17.39-36-56.77-118.07-113.52-236.14c-2.56-5.32-.86-9,4.61-10.49,3.73-1,5.5.9,7,3.83,8.57,16.25,17.22,32.45,25.82,48.68q57.43,108.36,114.77,216.78a34.74,34.74,0,0,1,3.66,11.94C1174.21,1615.55,1169.21,1621,1161.88,1621.09Z"/><path d="M837.94,1531.12c1.42-3.9,2.4-8,4.32-11.68q39.16-74.18,78.56-148.23,27.54-51.92,55-103.85c2.47-4.67,4.87-9.38,7.39-14,1.81-3.34,5-4.2,8.65-2.44s5.11,4.95,3.47,8.36c-5.32,11-10.88,21.92-16.21,32.94-5.68,11.75-11.13,23.6-16.78,35.36q-48.89,101.71-97.89,203.38a35.14,35.14,0,0,1-6.2,9c-3.5,3.64-8,5.4-13,3.2S838.66,1536.56,837.94,1531.12Z"/><path d="M1051.47,1433.51c-42.73,14-84.89,13.47-127.61-1.82l6.49-13.16c1.08.24,2,.36,2.86.64,36,11.85,72.15,12.52,108.43,1.52,2.88-.87,4.21-.35,5.27,2.34,1.15,2.9,2.64,5.67,4,8.5A19.09,19.09,0,0,1,1051.47,1433.51Z"/></svg>