<svg id="Layer_1" data-name="Layer 1" xmlns="http://www.w3.org/2000/svg" viewBox="0 0 2000 2000"><defs><style>.cls-1{fill:#231f20;}</style></defs><title>chemenigma</title><path class="cls-1" d="M1662.43,1309.55a62.62,62.62,0,0,0-73.85,8.28l-95.53-55.16v0c.22-.67.43-1.33.64-2,.07-.23.14-.45.2-.68.14-.46.27-.91.4-1.37s.25-.89.36-1.33c.07-.25.14-.49.2-.73.17-.67.33-1.34.49-2v-.07a91,91,0,0,0,2.34-18.71,1.93,1.93,0,0,1,0-.24c0-.59,0-1.18,0-1.77s0-1.13,0-1.69c0-.11,0-.21,0-.32a90.4,90.4,0,0,0-2.86-20.83l-.12-.48c-.14-.53-.28-1.06-.43-1.59-.1-.36-.21-.72-.32-1.09s-.19-.64-.29-1c-.17-.57-.36-1.14-.54-1.71,0-.11-.08-.23-.11-.34a91.81,91.81,0,0,0-5.59-13.21l-.06-.11c-.29-.56-.58-1.12-.89-1.67s-.51-.93-.78-1.39l-.19-.35a91.13,91.13,0,0,0-14-18.51l-.37-.38L1470,1168l-.85-.81-.71-.67-1.34-1.22-.25-.23a91.53,91.53,0,0,0-15.13-10.88l-.89-.5-.86-.48a92.1,92.1,0,0,0-12.91-5.83l-.22-.08c-.61-.21-1.21-.43-1.83-.63l-.85-.28L1433,1146l-1.46-.43-.6-.18q-3.24-.91-6.51-1.59V854.39l.18,0c.63-.13,1.25-.26,1.88-.41l.87-.2,1.21-.3,1.49-.39.58-.16a91.38,91.38,0,0,0,21.3-9l.8-.47.93-.56a91.44,91.44,0,0,0,14.87-11.26l.37-.35,1.18-1.13.81-.81.71-.7c.42-.43.83-.87,1.24-1.31l.23-.24a91.15,91.15,0,0,0,11.28-14.89l.59-1c.14-.25.29-.5.44-.75a91.2,91.2,0,0,0,9-21.35c0-.12.06-.24.1-.36l.45-1.71.24-1c.09-.37.18-.74.26-1.1.13-.55.24-1.09.36-1.63,0-.16.06-.32.1-.47a91.21,91.21,0,0,0,1.83-16.4c0-.11,0-.22,0-.33,0-.56,0-1.12,0-1.68s0-1.21,0-1.81v-.19a91,91,0,0,0-1.84-16.46c0-.08,0-.16,0-.23-.13-.63-.27-1.25-.41-1.88-.06-.28-.14-.57-.2-.86l-.3-1.22-.39-1.46c-.06-.21-.11-.41-.17-.61-.39-1.43-.83-2.84-1.29-4.24l95.53-55.15a62.61,62.61,0,1,0-18.5-32.05l-95.53,55.16c-.49-.55-1-1.09-1.48-1.63l-.31-.33-1.17-1.22-.78-.78-.73-.73-1.27-1.21-.28-.27a91.92,91.92,0,0,0-15-11.34l-.18-.11-1.54-.91-1.46-.82-.29-.17a91.4,91.4,0,0,0-17.26-7.29l-.63-.19-1.42-.41-1.27-.35-.8-.21-1.92-.47-.16,0a91.47,91.47,0,0,0-18.69-2.33h-.27l-1.74,0-1.75,0h-.25a91.1,91.1,0,0,0-20.84,2.86l-.51.13-1.55.42-1.12.33-.94.28-1.73.55-.32.11a90.53,90.53,0,0,0-15.05,6.56l-.95.53-.8.45a91,91,0,0,0-16.82,12.42l-.28.27-1.27,1.21-.74.73-.77.78-1.17,1.22-.31.33c-.5.54-1,1.08-1.48,1.63l-250-144.32a91.78,91.78,0,0,0,4-26.93v-.1c0-.61,0-1.22,0-1.83A91.91,91.91,0,0,0,1018,439.85V332a62.6,62.6,0,1,0-37,0V439.88a91.82,91.82,0,0,0-73.32,90.51c0,.54,0,1.08,0,1.61v.2A91.68,91.68,0,0,0,912,560L662.32,704.15a91.8,91.8,0,0,0-140.56,2.49L428.91,653a62.6,62.6,0,1,0-18.5,32l94.29,54.44a91.53,91.53,0,0,0-3.41,23.73c0,1.43,0,2.87,0,4.3a91.92,91.92,0,0,0,73.31,91.59v284.64l-2.15.47-.4.1c-.56.13-1.12.26-1.68.41l-1.05.28-1,.27-1.69.49-.36.11a92,92,0,0,0-17.26,7.28l-.64.36-1.11.63a91.42,91.42,0,0,0-18.46,14l-.07.07-1.44,1.45-.5.52-1,1-.9,1c-.18.2-.37.4-.54.6-.45.5-.88,1-1.31,1.51l-.11.13a91.57,91.57,0,0,0-7.18,9.75l0,.06c-.34.55-.69,1.09-1,1.64s-.53.88-.79,1.33c-.08.13-.16.26-.23.39a91.18,91.18,0,0,0-8.38,19.17l-.18.61c-.15.48-.29,1-.43,1.45l-.33,1.22c-.07.29-.15.57-.22.85q-.24.93-.45,1.86l-.06.22a91.36,91.36,0,0,0-2.32,23c0,.41,0,.82,0,1.23l0,.78a91.92,91.92,0,0,0,1.33,11.87l.09.46c.1.56.2,1.11.31,1.66l.24,1.1c.07.33.14.67.22,1,.13.57.26,1.14.4,1.71,0,.12.06.25.1.37q.82,3.3,1.89,6.49l-95.53,55.15a62.6,62.6,0,1,0,18.5,32l95.53-55.15c1,1.13,2,2.24,3.1,3.32l0,0c.49.5,1,1,1.49,1.48l.5.48,1.05,1c.33.32.67.62,1,.93l.58.51c.52.46,1,.92,1.57,1.36l.06.06a92.22,92.22,0,0,0,9.75,7.18l.1.06,1.61,1,1.3.77.43.25a91.29,91.29,0,0,0,19.24,8.4l.23.07,1.83.53.84.23,1.23.33,1.47.36.61.14a91.46,91.46,0,0,0,18.61,2.31h.25c.58,0,1.17,0,1.75,0s1.19,0,1.78,0h.22a91.26,91.26,0,0,0,18.67-2.32l.34-.08,1.75-.43.93-.25,1.14-.3,1.52-.45.54-.16a91.52,91.52,0,0,0,19.08-8.32l1.1-.65.63-.37a91.54,91.54,0,0,0,11.56-8.31l0-.05c.53-.45,1.06-.9,1.58-1.36l.58-.53c.34-.3.68-.6,1-.91s.7-.67,1.05-1l.5-.47,1.5-1.5h0q1.61-1.63,3.11-3.33l250.61,144.69c-.17.52-.33,1-.5,1.57l0,.1a91.29,91.29,0,0,0-4.12,25.21c0,.24,0,.49,0,.74,0,.42,0,.84,0,1.27a91,91,0,0,0,4.82,29.43l.15.44c.18.53.37,1.06.56,1.59l.39,1c.13.33.25.65.37,1,.23.58.47,1.16.7,1.73,0,.1.08.2.13.3.67,1.61,1.39,3.19,2.14,4.74l.24.48c.22.45.44.89.67,1.33s.57,1.1.87,1.64l.07.14A91.09,91.09,0,0,0,932.36,1531l.12.13c.44.48.9.95,1.36,1.43l.56.56c.32.32.63.64,1,.95l1,1,.53.5c.51.47,1,.94,1.54,1.4l0,0a91.92,91.92,0,0,0,15.26,11l.29.16,1.45.81c.54.3,1.09.59,1.65.88l.11.06a91.28,91.28,0,0,0,11.08,4.85l.21.07,1.84.64.79.26,1.26.4,1.37.41.7.2c.64.18,1.28.36,1.92.52l.16,0c1.46.38,2.93.72,4.41,1v110.3a62.6,62.6,0,1,0,37,0V1558.31l.56-.12,1.4-.3,1.37-.33.7-.17,2-.54h0a91.35,91.35,0,0,0,21.49-9l.36-.21,1.37-.82,1.53-1,.18-.12a91.22,91.22,0,0,0,14.75-11.73l.29-.29c.41-.41.82-.81,1.22-1.23.25-.25.49-.5.73-.76l.75-.79c.39-.42.77-.84,1.15-1.27l.29-.32a91.51,91.51,0,0,0,7.37-9.5l.44-.67.67-1a91.54,91.54,0,0,0,12.86-31.66c0-.18.07-.37.1-.55l.3-1.58c.06-.38.12-.76.19-1.14s.11-.67.16-1c.09-.61.17-1.22.25-1.83,0-.12,0-.23,0-.35a89.28,89.28,0,0,0,.73-11.64h0v-.07c0-.43,0-.86,0-1.29,0-.24,0-.48,0-.71q-.07-3.66-.45-7.32v0c-.08-.73-.16-1.46-.25-2.18,0-.26-.07-.51-.11-.77-.06-.47-.12-.94-.19-1.41s-.15-.9-.22-1.36c0-.26-.09-.52-.13-.79l-.36-1.9c0-.07,0-.15,0-.22a92.36,92.36,0,0,0-2.89-10.93l250.6-144.68.13.14c.43.48.85,1,1.29,1.42.2.22.41.43.62.65l.86.9,1.09,1.1.41.41a91.46,91.46,0,0,0,16.52,12.83l.86.51.87.51a91.17,91.17,0,0,0,21.4,9h0c.67.19,1.35.37,2,.54l.67.16,1.41.34,1.32.29.77.16c.67.14,1.35.27,2,.39l.11,0a90.79,90.79,0,0,0,14.1,1.41l1.13,0h.88a91.39,91.39,0,0,0,20.75-2.34l.52-.13c.52-.12,1-.24,1.56-.38l1.14-.3.93-.25,1.74-.51.32-.09a91,91,0,0,0,19.16-8.36l.9-.53.82-.49a90.56,90.56,0,0,0,13.24-9.77l.17-.15c.48-.43,1-.86,1.43-1.3l.62-.59c.32-.3.63-.59.93-.89l1.07-1.06.45-.45c.5-.51,1-1,1.48-1.55h0c.52-.56,1-1.12,1.54-1.69l95.53,55.15a62.6,62.6,0,1,0,92.35-40.32ZM930.07,592.29a91.8,91.8,0,0,0,139.44-.71l249.24,143.91c0,.11-.07.22-.11.34-.17.54-.35,1.08-.52,1.63l-.3,1c-.11.34-.21.68-.3,1-.16.55-.31,1.1-.45,1.64,0,.15-.08.29-.11.43a90.56,90.56,0,0,0-2.86,20.85,1.48,1.48,0,0,1,0,.21c0,.6,0,1.2,0,1.8s0,1.13,0,1.69c0,.11,0,.21,0,.31a91.08,91.08,0,0,0,2.34,18.72v0c.16.68.33,1.37.51,2,0,.22.11.44.17.66.13.47.25.94.38,1.41s.25.85.38,1.28c.07.26.15.51.23.77.19.64.4,1.28.61,1.92,0,0,0,.08,0,.13a91.51,91.51,0,0,0,6.6,15.13c.12.21.24.41.35.62.21.38.42.76.64,1.13a91.33,91.33,0,0,0,12.39,16.78l.24.25c.41.43.82.87,1.24,1.3l.7.7.82.81c.39.38.78.76,1.18,1.13l.37.35a91,91,0,0,0,15,11.32l.26.15c.48.3,1,.59,1.46.87l1.57.88.18.1a90.7,90.7,0,0,0,17.34,7.33l.25.07,1.81.53.86.23,1.22.33,1.47.36.61.14c.7.16,1.41.32,2.11.46v289.39c-.73.14-1.46.3-2.18.47l-.26.06-1.82.45c-.3.07-.6.16-.9.24l-1.17.31c-.51.14-1,.3-1.52.45l-.53.15a90.66,90.66,0,0,0-17.19,7.26l-.88.49-.87.49a91.13,91.13,0,0,0-16.86,12.46h0c-.52.48-1,1-1.54,1.47l-.48.48-1,1-.92,1-.56.6c-.45.48-.9,1-1.34,1.48l-.1.1a91.81,91.81,0,0,0-9.81,13.29l-.36.61-.66,1.12a91.6,91.6,0,0,0-8.35,19.17l0,.07c-.2.66-.39,1.33-.58,2l-.18.67c-.13.47-.25.94-.37,1.41s-.21.84-.31,1.27c-.07.27-.14.54-.2.82-.14.63-.28,1.26-.41,1.89,0,.07,0,.14,0,.21a90.88,90.88,0,0,0-1.84,16.45v.31c0,.57,0,1.13,0,1.69s0,1.21,0,1.81v.2a90.66,90.66,0,0,0,1.84,16.43c0,.13,0,.26.08.38.12.58.24,1.15.37,1.72l.24,1c.09.35.17.71.26,1.07.14.54.29,1.08.44,1.63,0,.14.07.29.12.43.4,1.44.83,2.87,1.3,4.28l-250.61,144.69c-.48-.54-1-1.08-1.46-1.6l-.42-.45-1-1.1-.9-.91-.61-.6-1.41-1.35-.14-.13a91.07,91.07,0,0,0-13.11-10.18l-.36-.22-1.36-.85c-.5-.31-1-.61-1.52-.91l-.21-.12a91.65,91.65,0,0,0-21.47-9.06l-.19-.05-1.86-.49c-.29-.08-.59-.14-.88-.21l-1.2-.29-1.57-.34-.52-.11a91.75,91.75,0,0,0-16.28-1.84h-2a91.24,91.24,0,0,0-25.14,3.46l-.53.16-1.54.46-1.08.34-1,.32c-.55.18-1.09.37-1.64.57l-.41.14a90.85,90.85,0,0,0-11,4.85h0c-.59.31-1.18.62-1.76.94l-1.3.73-.44.24a91.22,91.22,0,0,0-15.17,10.9l-.38.34c-.41.37-.82.73-1.22,1.11l-.83.79-.72.68-1.27,1.27-.24.24c-1.06,1.08-2.08,2.17-3.07,3.29L680.23,1262.68c.24-.72.47-1.43.68-2.15a1,1,0,0,0,.05-.16c.19-.63.38-1.26.56-1.89l.21-.8c.12-.43.23-.85.34-1.27s.24-1,.35-1.44l.15-.64c.16-.7.32-1.4.46-2.11h0a91.42,91.42,0,0,0,1.78-14.2l0-.77c0-.42,0-.83,0-1.24a91.07,91.07,0,0,0-3.44-27.33c0-.15-.09-.29-.13-.44-.16-.54-.31-1.08-.48-1.61l-.33-1.05-.33-1c-.19-.56-.38-1.11-.58-1.66,0-.13-.08-.25-.13-.38a92.11,92.11,0,0,0-5.87-13l-.12-.2c-.28-.52-.57-1-.87-1.54s-.59-1-.89-1.51l-.12-.21a91.29,91.29,0,0,0-8.34-11.61l-.1-.12c-.43-.51-.87-1-1.31-1.52-.18-.2-.37-.4-.55-.61l-.9-1c-.32-.35-.65-.7-1-1l-.5-.52c-.47-.49-.95-1-1.44-1.45l-.07-.07a91.2,91.2,0,0,0-18.55-14.05l-.48-.28-1.27-.7a91.51,91.51,0,0,0-15.06-6.57h0l-2-.65-.65-.19-1.41-.41-1.28-.35-.78-.21-1.93-.47-.15,0c-.74-.17-1.47-.33-2.21-.48V859.1a91.82,91.82,0,0,0,73.3-92c0-.85,0-1.7,0-2.55v-.15a91.71,91.71,0,0,0-4.38-28.07Z"/><path class="cls-1" d="M771.21,1221.24a326,326,0,1,0-95.48-230.53A323.89,323.89,0,0,0,771.21,1221.24Zm489.35-332.3h-14.21a18.5,18.5,0,0,0,0,37h25.8q2.61,11,4.33,22.19h-78.85V793.51l.67.65A277.43,277.43,0,0,1,1260.56,888.94ZM913.09,727.13v419.59a18.5,18.5,0,0,0,37,0V1017.58H992a18.5,18.5,0,0,0,0-37H950.09V717.53a281.18,281.18,0,0,1,126,5.21v42.74a18.5,18.5,0,0,0,37,0V735.87a275.17,275.17,0,0,1,47.54,26.69v70.58H1028.54V765.48a18.5,18.5,0,0,0-37,0v86.16a18.5,18.5,0,0,0,18.5,18.5h46.43v192.8a18.5,18.5,0,0,0,37,0V870.14h67.16v96.49a18.5,18.5,0,0,0,18.5,18.5h100.52c0,1.86.06,3.72.06,5.58a281,281,0,0,1-1.48,28.82H1147.38a18.5,18.5,0,0,0,0,37H1271.9a274,274,0,0,1-18.05,51.58H1094.59a18.5,18.5,0,0,0-18.5,18.5v77.44a18.5,18.5,0,0,0,37,0v-58.94H1233a280.61,280.61,0,0,1-34.69,42.16,276,276,0,0,1-168,80V1085.7a18.5,18.5,0,1,0-37,0v99.85H890.16a18.5,18.5,0,0,0,0,37H993.25v46a275.6,275.6,0,0,1-160.07-56.77v-46.44a18.5,18.5,0,0,0-37,0v12.49a277.84,277.84,0,0,1-43.25-62.88h99.89a18.5,18.5,0,0,0,18.5-18.5v-159a18.5,18.5,0,0,0-37,0v140.45H737.67a276.28,276.28,0,0,1-10.31-42.47h47.26a18.5,18.5,0,1,0,0-37H723.89q-.1-3.87-.11-7.76,0-13.8,1.32-27.38h56.22a18.5,18.5,0,0,0,18.5-18.5V883.06h60.91a18.5,18.5,0,0,0,0-37H799.82V799.69c1.76-1.86,3.55-3.71,5.37-5.53A276.81,276.81,0,0,1,913.09,727.13ZM762.82,926.33H731.25a274.29,274.29,0,0,1,31.57-77.88Z"/></svg>