<?xml version="1.0" standalone="no"?>
<!DOCTYPE svg PUBLIC "-//W3C//DTD SVG 20010904//EN"
 "http://www.w3.org/TR/2001/REC-SVG-20010904/DTD/svg10.dtd">
<svg version="1.0" xmlns="http://www.w3.org/2000/svg"
 width="720.000000pt" height="720.000000pt" viewBox="0 0 720.000000 720.000000"
 preserveAspectRatio="xMidYMid meet">
<metadata>
Created by potrace 1.16, written by Peter Selinger 2001-2019
</metadata>
<g transform="translate(0.000000,720.000000) scale(0.100000,-0.100000)"
fill="#000000" stroke="none">
<path d="M3416 6211 c-10 -16 -85 -24 -101 -11 -9 8 -15 8 -15 2 0 -10 -31
-17 -112 -28 -54 -7 -193 -32 -193 -34 0 -2 -9 -4 -20 -6 -35 -5 -199 -53
-240 -70 -22 -9 -53 -22 -70 -29 -16 -7 -48 -18 -70 -25 -40 -13 -203 -91
-300 -144 -27 -15 -101 -62 -163 -104 -62 -42 -125 -84 -140 -92 -30 -17 -181
-158 -284 -265 -156 -163 -318 -386 -413 -570 -26 -49 -55 -106 -66 -125 -30
-58 -57 -124 -80 -196 -12 -38 -28 -74 -35 -80 -8 -6 -11 -13 -8 -16 4 -5 -30
-164 -44 -198 -7 -18 -11 -34 -18 -82 -3 -21 -10 -38 -14 -38 -5 0 -6 -9 -3
-20 3 -13 -1 -22 -11 -26 -13 -5 -14 -9 -5 -20 8 -10 8 -18 1 -27 -6 -7 -13
-37 -16 -66 -3 -29 -9 -58 -15 -65 -6 -7 -8 -22 -4 -34 3 -12 2 -30 -2 -39 -4
-10 -8 -42 -9 -72 -2 -31 -8 -57 -14 -59 -13 -4 -16 -54 -5 -66 10 -10 3 -259
-8 -270 -13 -14 -11 -40 6 -72 8 -16 15 -47 16 -69 0 -22 2 -58 5 -80 10 -86
9 -90 -6 -87 -11 2 -11 -1 2 -11 21 -16 24 -37 6 -37 -7 0 -2 -9 11 -19 17
-13 22 -25 18 -40 -3 -11 -2 -23 3 -26 4 -3 14 -35 21 -72 15 -80 14 -74 22
-93 3 -8 15 -44 27 -80 11 -36 25 -74 30 -85 41 -89 70 -173 66 -187 -2 -11 1
-18 10 -18 13 0 44 -49 44 -70 0 -6 13 -31 30 -55 16 -24 30 -46 30 -49 0 -3
25 -42 55 -87 30 -45 55 -83 55 -86 0 -5 41 -59 108 -142 15 -18 43 -50 62
-70 129 -136 193 -200 229 -231 23 -19 61 -52 84 -72 23 -21 45 -38 49 -38 4
0 13 -6 20 -13 23 -22 86 -67 94 -67 4 0 21 -10 38 -23 17 -12 42 -28 56 -35
14 -7 48 -26 75 -42 45 -27 103 -56 235 -118 64 -30 221 -89 272 -102 24 -6
52 -15 63 -20 11 -6 62 -19 114 -29 51 -10 97 -25 102 -32 6 -10 10 -10 23 0
10 9 20 10 34 2 11 -6 22 -8 25 -5 3 3 25 0 48 -7 24 -7 65 -11 91 -10 28 2
60 -4 83 -15 27 -13 39 -14 48 -5 14 14 99 15 114 0 8 -8 26 -8 64 0 56 11
116 16 134 11 6 -2 18 0 28 5 10 4 33 5 52 2 19 -3 35 -2 35 4 0 14 48 11 53
-3 3 -8 6 -6 6 4 1 17 17 22 96 33 17 2 67 13 112 24 45 11 92 22 105 25 65
13 275 95 403 158 100 49 278 153 340 199 22 16 68 45 101 64 34 20 92 58 128
85 37 28 69 50 72 50 9 0 69 45 77 58 4 6 20 18 35 26 25 13 272 253 315 305
10 12 22 19 27 16 6 -3 10 3 10 14 0 12 11 31 25 43 14 12 25 27 25 33 0 7 9
20 20 30 28 25 190 272 190 290 0 4 23 47 50 96 28 49 50 93 50 99 0 8 10 33
67 160 9 19 17 42 18 50 1 8 8 35 15 60 7 25 15 51 16 59 1 8 6 17 11 20 4 3
8 14 9 24 3 59 5 67 19 67 12 0 14 4 7 16 -5 10 -5 35 0 63 6 25 12 64 14 85
2 23 13 50 26 64 14 15 18 22 9 20 -8 -2 -17 5 -19 15 -6 28 8 88 19 82 5 -4
9 32 9 89 0 53 -4 96 -9 96 -4 0 -11 28 -14 63 -4 47 -2 66 9 78 13 14 13 17
1 22 -18 7 -27 50 -15 71 6 11 5 16 -3 16 -8 0 -10 12 -6 35 3 19 1 37 -4 41
-6 3 -9 16 -8 27 1 12 -1 29 -5 38 -4 9 -8 34 -9 55 -1 22 -7 45 -14 51 -6 7
-14 32 -18 55 -3 24 -10 52 -15 63 -5 11 -20 54 -33 95 -47 139 -84 228 -137
327 -29 54 -67 125 -83 158 -16 33 -37 71 -46 85 -10 14 -24 41 -31 60 -7 19
-26 51 -40 70 -15 19 -35 49 -44 65 -9 17 -28 45 -41 64 -14 18 -22 37 -19 42
3 5 -1 9 -8 9 -17 0 -153 176 -153 198 0 9 -10 19 -22 22 -12 3 -75 57 -141
120 -66 63 -132 124 -147 135 -14 11 -35 27 -45 35 -242 186 -539 339 -815
420 -22 6 -47 14 -55 17 -30 12 -54 17 -190 43 -58 11 -107 25 -108 30 -3 8
-8 7 -17 0 -13 -11 -95 -3 -95 9 0 3 -91 6 -203 6 -111 0 -207 3 -214 8 -6 4
-14 4 -17 -2z m173 -58 c9 -17 11 -17 24 1 12 17 22 18 98 12 46 -4 91 -12
101 -17 10 -5 19 -5 23 0 8 14 78 1 92 -16 8 -10 13 -11 18 -3 4 7 16 9 29 5
11 -4 32 -8 46 -10 52 -8 126 -26 143 -36 10 -5 22 -7 27 -4 16 10 82 -23 74
-37 -6 -10 -4 -10 8 0 13 11 28 9 85 -9 37 -12 72 -25 78 -30 5 -5 16 -9 24
-9 15 0 42 -11 171 -73 90 -43 219 -114 240 -131 8 -6 27 -18 41 -25 50 -25
201 -143 206 -161 3 -10 17 -20 31 -23 28 -6 332 -298 332 -319 0 -12 -31 13
-90 72 -39 38 -131 120 -136 120 -5 0 -71 46 -112 78 -22 18 -43 32 -47 32 -4
0 -25 13 -48 28 -68 46 -215 132 -226 132 -6 0 -45 17 -88 38 -43 21 -100 46
-128 55 -136 48 -230 77 -246 77 -10 0 -20 4 -24 9 -3 5 -39 15 -81 22 -42 7
-81 18 -88 25 -8 7 -18 9 -26 4 -8 -5 -22 -4 -33 1 -10 6 -24 9 -30 6 -7 -2
-23 0 -37 6 -28 12 -44 13 -323 20 -109 3 -201 7 -204 10 -3 3 -17 1 -31 -4
-15 -6 -45 -9 -67 -8 -22 1 -47 -1 -55 -4 -8 -3 -51 -10 -95 -16 -44 -6 -96
-14 -115 -17 -56 -8 -252 -55 -280 -67 -8 -4 -64 -22 -125 -42 -105 -34 -139
-47 -177 -66 -10 -5 -23 -9 -29 -9 -12 0 -75 -28 -199 -90 -113 -55 -129 -65
-246 -140 -54 -36 -107 -68 -117 -72 -9 -4 -17 -12 -17 -17 0 -5 -8 -12 -19
-16 -10 -3 -33 -19 -51 -36 -17 -17 -38 -28 -45 -25 -9 3 -12 0 -9 -9 3 -8
-21 -35 -63 -68 -37 -30 -99 -89 -138 -132 -94 -104 -95 -105 -106 -105 -5 0
-11 -11 -15 -24 -3 -13 -21 -39 -40 -57 -19 -18 -34 -37 -34 -42 0 -10 -52
-80 -63 -85 -4 -2 -20 -29 -35 -60 -54 -109 -127 -227 -130 -211 -4 22 60 170
100 233 47 71 55 85 80 136 28 57 132 209 196 288 54 66 64 75 72 62 4 -7 9
-1 13 17 8 37 100 138 120 130 9 -3 14 1 13 11 -1 12 7 17 24 17 19 0 25 6 26
24 2 29 136 149 187 167 9 4 17 10 17 15 0 5 10 14 23 19 12 6 40 24 62 40 22
17 56 39 75 50 19 11 58 34 85 50 92 54 274 140 297 140 8 0 18 4 24 9 14 13
221 81 267 88 23 3 47 9 53 14 6 5 14 6 17 2 4 -3 12 -1 19 5 16 13 195 45
208 37 5 -3 11 -1 14 4 10 15 155 24 171 11 10 -8 15 -9 15 -2 0 14 29 19 117
21 59 1 74 -2 82 -16z m221 -199 c41 -3 96 -7 122 -8 29 -2 56 -10 68 -21 11
-10 20 -13 20 -7 0 17 45 15 60 -3 10 -12 16 -12 26 -4 8 6 21 8 31 4 10 -5
24 -7 31 -6 8 1 19 -2 25 -7 7 -5 41 -15 77 -22 64 -12 215 -59 275 -85 17 -7
46 -18 65 -25 61 -23 243 -111 295 -144 28 -17 62 -37 76 -45 14 -7 49 -30 78
-52 28 -21 55 -39 59 -39 4 0 22 -13 40 -30 18 -16 36 -30 38 -30 27 0 394
-347 394 -372 0 -6 12 -22 28 -37 63 -64 187 -242 222 -321 6 -13 22 -46 36
-73 13 -27 38 -94 55 -150 17 -56 35 -106 39 -112 5 -5 16 -39 25 -74 13 -52
14 -66 3 -72 -10 -7 -9 -9 5 -9 20 0 22 -20 5 -39 -11 -11 -10 -13 0 -7 16 10
29 -24 13 -34 -9 -5 -8 -9 4 -14 13 -4 16 -14 13 -36 -3 -17 -1 -30 4 -30 4 0
8 -11 8 -25 0 -14 -5 -25 -12 -25 -6 0 -3 -6 7 -14 16 -11 20 -27 20 -80 1
-36 4 -68 8 -72 11 -11 8 -94 -3 -94 -6 0 -10 -24 -9 -52 1 -42 3 -48 9 -28 6
18 8 4 9 -47 1 -40 -3 -73 -7 -73 -13 0 -14 -80 -2 -95 15 -18 2 -83 -17 -94
-12 -6 -13 -13 -5 -28 8 -14 8 -37 1 -74 -5 -30 -12 -72 -14 -94 -15 -122 -92
-362 -177 -550 -57 -124 -170 -329 -189 -341 -15 -9 -10 17 10 50 30 48 94
198 139 326 68 189 93 293 128 518 3 20 11 32 21 32 12 0 14 6 8 28 -12 39 -8
153 4 165 13 13 15 134 2 141 -16 10 -18 80 -4 115 8 18 12 36 9 39 -3 3 -6 0
-6 -6 0 -22 -18 -12 -24 14 -4 16 -2 32 6 42 10 12 10 16 1 19 -16 6 -17 63
-1 63 6 0 4 6 -7 13 -13 10 -16 21 -11 40 3 14 2 27 -4 29 -6 2 -11 25 -12 51
0 26 -4 47 -9 47 -5 0 -9 9 -9 20 0 11 -4 28 -9 38 -6 9 -24 67 -41 127 -38
134 -87 262 -143 373 -62 121 -71 137 -210 356 -7 11 -20 28 -30 39 -11 10
-17 27 -14 37 3 11 0 17 -7 14 -6 -2 -32 21 -56 51 -25 31 -72 83 -104 116
-46 48 -56 63 -45 70 11 7 10 9 -4 9 -11 0 -15 4 -11 12 4 6 3 8 -3 5 -11 -7
-77 37 -101 66 -8 9 -10 22 -6 28 4 8 3 9 -5 5 -14 -9 -52 14 -95 55 -25 24
-125 97 -184 134 -9 6 -36 24 -62 41 -48 32 -301 160 -360 182 -19 7 -89 31
-155 53 -66 23 -127 44 -135 47 -8 3 -22 7 -30 9 -237 49 -225 47 -345 57 -38
3 -106 9 -150 13 l-80 8 75 5 c41 3 89 4 105 3 17 -1 64 -5 105 -9z m-93 -73
c28 -4 79 -6 112 -4 92 7 379 -65 493 -123 26 -13 53 -24 60 -24 7 0 63 -25
123 -56 214 -110 259 -135 291 -165 11 -10 25 -19 30 -19 5 0 20 -10 34 -23
14 -13 33 -26 43 -30 9 -3 17 -11 17 -17 0 -5 6 -10 13 -10 11 0 33 -18 155
-127 84 -74 188 -178 217 -218 16 -22 35 -45 42 -51 27 -23 113 -137 113 -150
0 -8 4 -14 9 -14 19 0 191 -292 191 -324 0 -9 5 -16 10 -16 6 0 15 -12 21 -27
6 -16 17 -41 25 -57 8 -16 14 -36 14 -45 0 -9 7 -25 15 -35 8 -11 15 -32 15
-48 0 -15 5 -28 11 -28 6 0 9 -7 5 -15 -3 -8 -2 -15 2 -15 11 0 45 -108 37
-119 -3 -5 0 -11 5 -13 6 -2 12 -20 13 -41 1 -20 7 -39 13 -41 5 -2 9 -19 8
-37 -1 -18 4 -38 11 -44 28 -21 65 -306 65 -500 0 -176 -15 -326 -34 -340 -10
-8 -11 -16 -4 -29 6 -12 6 -26 0 -44 -6 -15 -11 -34 -11 -42 -1 -16 -2 -27
-16 -97 -7 -41 -28 -57 -38 -30 -4 8 -6 7 -6 -3 -1 -9 5 -22 11 -28 10 -10 10
-15 -1 -21 -7 -5 -10 -14 -7 -20 4 -6 4 -16 0 -23 -4 -7 -9 -25 -11 -42 -2
-16 -8 -34 -13 -41 -5 -7 -7 -15 -3 -18 3 -4 1 -12 -4 -19 -5 -7 -18 -38 -27
-68 -10 -30 -22 -58 -28 -61 -5 -3 -12 -20 -14 -38 -11 -66 -211 -422 -250
-444 -8 -4 -14 -13 -14 -19 0 -20 -83 -119 -95 -114 -8 3 -11 -2 -8 -15 4 -12
-1 -21 -13 -25 -11 -3 -53 -41 -95 -83 -42 -42 -90 -86 -105 -99 -39 -30 -166
-124 -190 -140 -103 -68 -324 -189 -324 -177 0 4 -13 -3 -29 -14 -16 -12 -34
-21 -40 -21 -6 0 -34 -11 -63 -24 -100 -45 -329 -110 -428 -122 -25 -3 -53
-10 -63 -16 -12 -6 -23 -6 -32 2 -9 7 -14 8 -17 0 -5 -16 -119 -32 -135 -19
-9 9 -17 8 -28 -1 -22 -18 -146 -21 -194 -4 -45 15 -121 16 -121 1 0 -15 -120
-3 -130 14 -8 11 -13 12 -30 1 -25 -16 -70 -5 -71 17 0 10 -2 11 -6 4 -7 -19
-63 -17 -63 2 0 8 -4 15 -10 15 -5 0 -10 -5 -10 -11 0 -15 -82 -1 -96 17 -8
10 -14 10 -22 2 -7 -7 -15 -8 -24 -1 -7 5 -40 15 -73 22 -155 33 -494 172
-613 252 -24 16 -46 29 -51 29 -4 0 -16 8 -27 17 -10 10 -32 25 -49 33 -79 39
-215 144 -215 166 0 8 -5 12 -10 9 -6 -4 -24 7 -41 24 -17 17 -34 31 -38 31
-4 0 -48 41 -97 90 -57 58 -89 99 -89 113 -1 17 -6 21 -22 19 -16 -2 -27 7
-45 37 -13 23 -28 41 -34 41 -7 0 -19 16 -28 35 -9 19 -20 35 -24 35 -7 0 -42
50 -118 170 -51 80 -64 104 -90 160 -13 30 -38 82 -54 114 -17 32 -30 69 -30
82 0 13 -4 24 -9 24 -5 0 -11 10 -14 23 -3 12 -17 55 -32 95 -15 40 -24 80
-21 89 4 8 0 21 -8 27 -18 15 -36 92 -31 139 2 27 -1 37 -11 37 -17 0 -18 32
-1 49 10 10 9 12 -2 9 -21 -4 -39 111 -19 123 10 7 9 14 -6 39 -15 26 -16 36
-6 60 10 24 9 33 -4 52 -13 18 -16 47 -15 138 1 122 9 167 27 162 15 -3 16 54
2 63 -16 10 -12 40 10 65 23 27 24 31 8 28 -14 -3 -13 32 1 115 0 4 8 7 17 7
14 0 14 1 0 16 -12 12 -13 20 -6 35 6 10 16 19 22 19 7 0 7 4 -1 14 -8 10 -9
16 -1 21 6 3 8 10 5 15 -8 13 18 112 31 117 7 3 10 11 8 18 -5 13 61 191 77
210 5 5 9 17 9 27 0 10 7 21 15 24 8 4 13 10 10 14 -5 9 59 143 90 185 11 17
30 47 40 68 11 20 30 48 42 62 13 13 23 29 23 35 0 6 7 13 15 16 8 4 15 11 15
18 1 20 49 68 62 60 6 -4 8 -3 5 3 -3 5 7 24 23 42 17 18 30 38 30 45 0 6 16
28 35 46 27 27 38 32 44 21 6 -9 10 -7 14 11 8 27 141 165 213 221 27 20 58
44 69 53 94 72 222 153 291 183 12 5 44 23 72 41 53 32 219 104 287 124 22 6
45 14 50 17 10 7 69 21 95 24 9 0 21 4 28 9 6 4 17 4 22 1 6 -4 16 -2 23 3 21
16 87 25 87 11 0 -7 6 -4 14 6 11 16 17 17 29 7 12 -10 16 -10 19 -1 2 7 24
15 49 19 56 9 537 2 606 -9z m-1928 -618 c-13 -15 -57 -63 -96 -106 -385 -417
-612 -966 -630 -1525 -8 -236 -25 -208 -24 39 0 358 45 562 190 865 122 253
320 524 507 691 75 68 92 79 53 36z m4371 -1608 c7 -20 9 -44 5 -53 -3 -9 -6
-74 -7 -144 0 -97 -3 -130 -14 -139 -16 -13 -19 -45 -4 -54 15 -9 12 -41 -5
-58 -10 -11 -13 -25 -8 -48 5 -24 3 -30 -7 -24 -9 6 -11 -2 -5 -34 4 -27 3
-41 -4 -41 -6 0 -11 -12 -11 -26 0 -16 -4 -23 -11 -18 -8 5 -8 1 0 -14 15 -27
14 -32 -4 -32 -10 0 -15 -8 -14 -22 5 -57 -1 -80 -17 -74 -13 5 -14 3 -6 -7
12 -14 -4 -97 -18 -97 -4 0 -11 -16 -14 -35 -4 -19 -11 -35 -16 -35 -6 0 -10
-7 -10 -17 0 -22 -32 -93 -42 -93 -4 0 -8 -11 -8 -25 0 -14 -4 -25 -10 -25 -5
0 -9 -3 -8 -7 4 -19 -36 -94 -47 -89 -8 3 -16 -2 -19 -10 -4 -9 -2 -12 5 -8 7
4 10 1 7 -7 -3 -8 -11 -13 -17 -11 -7 1 -10 -2 -6 -8 3 -5 0 -13 -8 -16 -8 -3
-13 -13 -10 -23 2 -9 -3 -23 -11 -30 -9 -8 -16 -20 -16 -28 0 -25 -41 -75 -57
-69 -11 4 -13 1 -8 -14 5 -14 2 -20 -9 -20 -10 0 -16 -9 -16 -25 0 -14 -4 -25
-10 -25 -5 0 -10 -6 -10 -13 0 -14 -30 -43 -66 -63 -11 -7 -18 -20 -16 -32 2
-13 -6 -27 -21 -37 -13 -8 -29 -26 -35 -40 -7 -14 -20 -25 -31 -25 -10 0 -34
-17 -52 -37 -18 -21 -36 -39 -41 -39 -4 -1 -12 -2 -18 -3 -5 0 -10 -6 -10 -12
0 -7 -11 -22 -25 -35 -14 -13 -29 -34 -35 -48 -5 -14 -27 -34 -48 -45 -22 -11
-42 -28 -46 -37 -4 -9 -9 -14 -12 -11 -9 9 66 97 83 97 8 0 19 14 24 30 6 17
17 30 25 30 7 0 21 16 29 36 10 24 20 34 29 31 15 -6 50 26 52 46 0 7 2 18 2
25 1 6 9 12 17 12 9 0 20 12 26 27 10 28 53 73 70 73 5 0 9 10 9 23 0 13 12
34 26 48 14 13 42 50 61 82 20 31 39 57 42 57 4 0 13 16 20 37 18 50 90 159
103 155 6 -2 8 4 5 12 -8 21 31 106 48 106 10 0 15 11 15 34 0 19 5 38 10 41
6 3 10 16 10 29 0 12 4 26 8 31 4 6 16 35 27 65 10 30 23 58 28 61 5 4 12 30
15 58 2 28 9 54 13 57 5 3 9 14 9 25 0 10 5 19 10 19 6 0 10 11 10 25 0 14 5
25 11 25 8 0 8 4 -1 15 -12 15 -5 39 10 30 5 -3 12 0 16 6 4 8 3 9 -5 5 -19
-12 -25 23 -7 43 9 10 14 25 10 35 -3 9 -1 22 4 29 6 7 11 28 11 47 1 88 7
134 19 138 13 4 17 58 4 66 -6 3 -7 115 -2 199 1 20 20 3 30 -28z m-5140 -325
c8 -69 14 -134 14 -145 1 -11 5 -26 9 -32 5 -7 6 -17 3 -21 -3 -5 2 -28 10
-52 9 -24 17 -58 18 -76 2 -17 5 -35 8 -40 3 -5 14 -38 23 -74 33 -120 182
-457 243 -548 66 -98 82 -123 82 -128 0 -6 100 -140 127 -169 42 -45 72 -91
73 -109 0 -11 3 -16 7 -13 3 4 12 -2 20 -13 8 -11 20 -20 27 -20 19 0 49 -37
41 -50 -8 -13 14 -42 26 -34 11 6 64 -29 99 -65 14 -15 77 -65 140 -111 63
-47 117 -88 118 -92 2 -5 8 -8 12 -8 5 0 28 -13 52 -29 83 -56 204 -119 348
-183 25 -11 57 -26 72 -33 15 -7 42 -17 60 -20 18 -4 55 -18 82 -31 27 -13 67
-26 89 -30 23 -3 48 -9 57 -14 17 -9 198 -48 263 -57 20 -3 40 -9 42 -14 3 -5
26 -6 50 -2 34 4 46 2 50 -9 6 -16 28 -17 56 -4 9 4 54 1 100 -5 94 -14 130
-14 271 -5 64 5 98 4 103 -3 3 -6 11 -11 16 -11 6 0 8 4 4 9 -6 10 40 21 85
20 34 0 92 7 110 13 8 3 78 18 154 33 132 26 282 72 425 129 137 55 95 18 -67
-60 -62 -30 -117 -54 -123 -54 -5 0 -27 -9 -48 -20 -31 -15 -125 -46 -196 -63
-5 -1 -14 -5 -20 -9 -5 -3 -64 -18 -130 -33 -95 -21 -124 -24 -138 -15 -11 6
-22 9 -25 6 -3 -3 0 -6 7 -6 7 0 9 -5 6 -10 -9 -14 -55 -12 -55 3 0 6 -5 4
-11 -5 -11 -19 -69 -25 -69 -8 0 6 -5 10 -11 10 -5 0 -8 -4 -4 -9 10 -17 -12
-21 -152 -27 -150 -6 -296 3 -287 17 3 5 -4 9 -15 9 -11 0 -23 -5 -27 -11 -6
-11 -67 -4 -89 9 -5 3 -24 5 -42 3 -23 -2 -35 2 -39 13 -5 13 -10 14 -20 5
-14 -11 -54 -4 -54 11 0 5 8 11 18 13 13 4 11 5 -5 6 -13 0 -23 -3 -23 -9 0
-13 -37 -13 -45 0 -4 6 -11 8 -16 4 -19 -11 -272 57 -285 77 -3 5 -16 9 -29 9
-42 0 -402 173 -475 229 -19 14 -46 32 -60 39 -14 7 -45 31 -70 52 -25 22 -50
40 -56 40 -5 0 -26 18 -45 40 -19 22 -39 40 -46 40 -23 0 -213 182 -264 253
-15 21 -27 44 -25 50 1 7 1 9 -1 5 -10 -17 -42 15 -89 84 -27 40 -51 75 -54
78 -3 3 -14 18 -24 34 -14 22 -16 31 -7 34 7 2 -1 12 -18 23 -17 10 -31 24
-31 31 0 6 -6 19 -14 27 -8 9 -49 84 -91 167 -84 167 -149 342 -134 360 6 8 5
14 -4 17 -16 6 -62 180 -52 196 3 6 2 11 -2 11 -11 0 -38 89 -30 97 4 3 2 14
-4 25 -7 14 -7 23 1 33 9 11 8 18 -4 30 -19 19 -20 37 -5 52 8 8 7 17 -5 34
-13 19 -16 51 -15 179 1 167 6 157 29 -70z m4080 -1731 c-110 -99 -182 -150
-275 -197 -109 -54 -274 -122 -296 -122 -8 0 59 38 147 84 162 84 278 154 389
233 74 54 94 55 35 2z"/>
<path d="M1955 4860 c-4 -7 -22 -10 -44 -7 -27 3 -44 -1 -69 -20 -35 -27 -82
-109 -82 -145 0 -13 -7 -34 -16 -46 -18 -27 -17 -128 2 -156 9 -13 10 -25 3
-38 -6 -12 -6 -18 0 -18 6 0 15 -19 21 -42 6 -24 25 -92 42 -152 26 -91 30
-120 25 -178 -3 -37 -9 -74 -14 -81 -4 -6 -17 -39 -29 -72 -12 -33 -31 -87
-43 -119 -26 -70 -31 -175 -11 -256 9 -37 35 -87 81 -156 38 -56 69 -105 69
-110 0 -6 9 -27 20 -49 11 -22 20 -49 20 -60 0 -12 4 -25 9 -31 12 -12 43
-163 36 -174 -3 -5 -1 -12 5 -15 6 -4 10 -14 9 -23 -1 -10 1 -24 4 -32 4 -8
15 -42 26 -75 32 -103 55 -144 119 -212 12 -13 22 -31 22 -39 0 -9 6 -14 13
-11 6 2 21 -4 32 -13 11 -10 43 -26 70 -35 59 -20 206 -36 220 -24 5 5 21 9
36 9 15 0 32 7 39 15 6 8 22 17 33 21 47 14 204 155 259 231 69 95 108 153
108 158 0 12 65 114 72 115 11 0 -27 -96 -54 -139 -13 -20 -30 -48 -37 -63 -8
-16 -18 -28 -22 -28 -17 0 -18 -54 -3 -103 27 -81 29 -88 65 -162 57 -119 133
-226 227 -318 49 -48 92 -87 96 -87 5 0 22 -10 39 -22 51 -37 67 -46 122 -68
125 -49 247 -35 325 39 15 14 55 69 89 121 35 52 68 102 75 110 7 8 21 35 31
60 11 25 36 74 57 110 47 83 112 239 128 310 7 30 18 73 23 95 11 40 11 40 15
10 5 -41 -32 -207 -62 -276 l-15 -36 34 -32 c19 -17 38 -31 43 -31 5 0 20 -10
34 -22 14 -13 34 -28 44 -35 131 -84 196 -123 203 -123 5 0 22 -7 37 -15 16
-8 37 -15 47 -15 9 0 17 -7 17 -16 0 -12 3 -14 13 -6 15 13 145 14 153 1 3 -5
12 -2 20 6 9 8 24 15 35 15 29 0 83 59 102 111 9 24 28 109 42 189 47 271 94
422 209 680 43 98 51 124 51 176 0 55 -4 68 -37 115 -58 85 -71 124 -72 219
-1 82 23 180 44 180 4 0 11 16 15 36 3 20 10 44 15 53 9 16 29 82 77 261 33
124 41 251 18 286 -9 14 -27 30 -41 36 -14 7 -23 17 -20 25 4 9 -3 13 -19 13
-14 0 -24 -5 -23 -12 3 -11 -60 -30 -73 -22 -4 2 -9 -2 -12 -9 -3 -7 -31 -19
-62 -27 -46 -11 -61 -11 -77 -1 -11 7 -23 10 -26 7 -3 -3 1 -6 8 -6 22 0 -5
-23 -32 -27 -77 -12 -97 -15 -128 -17 -19 -2 -52 -6 -73 -11 -25 -5 -42 -3
-52 5 -9 8 -30 10 -57 6 -113 -17 -127 -17 -173 -2 -35 13 -51 14 -61 5 -8 -7
-32 -9 -61 -5 -27 4 -62 6 -80 6 -17 0 -38 6 -46 14 -8 8 -19 11 -26 6 -18
-11 -51 0 -51 16 0 17 -12 18 -28 2 -10 -10 -14 -10 -21 0 -4 7 -12 12 -17 11
-16 -5 -94 13 -100 22 -8 13 -78 11 -109 -3 -36 -16 -79 -108 -71 -152 3 -18
12 -40 19 -50 11 -16 17 -15 76 16 51 26 78 33 129 35 36 1 75 -3 86 -9 29
-15 56 -49 55 -73 0 -17 -4 -15 -29 13 -67 73 -140 66 -265 -28 -115 -85 -342
-183 -370 -160 -9 8 -14 6 -19 -6 -5 -13 -10 -14 -18 -6 -8 8 -14 8 -22 -2 -6
-8 -30 -17 -52 -21 l-41 -6 -5 83 c-3 48 -1 88 4 96 7 8 6 17 -2 27 -8 9 -10
29 -7 50 3 19 2 37 -2 40 -5 2 -11 29 -14 58 -3 30 -11 65 -19 78 -20 36 -80
99 -95 99 -7 0 -13 8 -14 18 0 10 -3 12 -6 5 -2 -7 -16 -13 -29 -13 -13 0 -33
6 -44 13 -17 10 -22 9 -29 -2 -5 -7 -14 -10 -20 -7 -6 4 -11 3 -11 -3 0 -9
-86 -53 -157 -81 -18 -7 -45 -10 -60 -7 -18 3 -31 0 -39 -11 -9 -12 -15 -13
-25 -5 -18 14 -149 25 -149 13 0 -6 -7 -10 -16 -10 -10 0 -14 6 -10 15 6 18
-15 20 -31 4 -14 -14 -47 -4 -38 11 8 14 -8 13 -22 -1 -13 -13 -133 23 -228
66 -180 83 -226 107 -231 120 -4 8 -11 12 -16 9 -6 -4 -14 -1 -18 6 -6 9 -9 9
-15 0z m133 -494 c50 -31 115 -104 108 -122 -3 -9 1 -14 14 -14 21 0 60 -64
60 -98 0 -10 5 -23 12 -30 9 -9 7 -16 -7 -33 -15 -15 -16 -20 -5 -17 22 5 26
-78 5 -102 -12 -13 -13 -19 -4 -22 8 -3 10 -11 4 -24 -4 -10 -9 -30 -11 -43
-5 -41 -13 -53 -31 -47 -9 4 -24 -1 -35 -11 -27 -24 -95 -23 -132 2 -40 27
-99 154 -103 225 -9 133 1 204 35 243 9 10 22 15 29 13 7 -3 15 0 19 6 4 7 3
8 -4 4 -7 -4 -12 -2 -12 4 0 6 11 15 25 20 31 12 31 17 3 47 -28 29 -18 29 30
-1z m687 -93 c6 -17 7 -17 16 0 8 14 14 16 25 6 8 -6 25 -8 40 -5 36 9 64 -2
64 -24 0 -12 5 -17 14 -14 18 7 66 -51 66 -80 0 -12 6 -28 13 -35 10 -10 9
-15 -5 -25 -22 -16 -24 -27 -4 -20 17 6 25 -18 21 -61 -2 -16 -4 -38 -4 -47
-1 -10 -8 -18 -16 -18 -18 0 -20 -17 -3 -22 42 -14 -97 -268 -147 -268 -8 0
-15 -4 -15 -9 0 -5 -15 -14 -32 -19 -58 -16 -146 -3 -131 21 3 6 1 7 -5 3 -6
-4 -20 -2 -31 3 -24 13 -75 115 -68 136 4 8 2 17 -2 20 -5 3 -9 39 -9 81 -1
55 3 77 13 80 11 5 12 10 2 25 -10 17 -9 22 4 32 9 7 14 18 11 25 -2 7 6 30
17 53 12 22 21 45 21 52 0 19 39 59 51 52 5 -4 9 1 9 9 0 9 7 16 15 16 8 0 15
7 15 15 0 13 25 34 41 35 4 0 10 -8 14 -17z m2188 -154 c-39 -25 -40 -32 -10
-48 41 -22 61 -69 60 -141 -1 -94 -9 -139 -37 -195 -48 -98 -123 -143 -187
-111 -18 9 -34 16 -37 16 -2 0 -2 -30 2 -67 8 -88 -9 -52 -30 62 -17 98 -17
115 -1 115 19 0 19 71 0 85 -14 10 -15 17 -5 41 6 16 14 46 18 67 14 81 148
196 229 197 l30 0 -32 -21z m-611 -35 c50 -49 99 -136 102 -181 1 -16 5 -33 9
-40 18 -29 19 -133 2 -203 -14 -59 -26 -80 -61 -118 -40 -42 -47 -46 -101 -49
-68 -4 -127 20 -120 49 3 10 0 16 -7 15 -6 -1 -10 4 -8 11 1 6 -1 11 -5 11
-23 -4 -33 6 -57 54 -31 65 -32 86 -6 120 13 16 16 28 10 32 -15 9 -12 41 5
59 9 9 11 17 5 21 -11 7 -4 126 11 185 12 50 39 63 164 79 6 0 31 -20 57 -45z
m-983 -271 c27 -27 62 -73 79 -103 39 -71 68 -168 54 -182 -8 -8 -6 -16 5 -26
12 -13 14 -32 9 -101 -7 -109 -7 -104 -34 -177 -32 -84 -132 -209 -132 -165 0
6 5 13 10 16 22 14 8 25 -33 25 -55 0 -127 44 -162 99 -29 47 -29 44 -11 84
14 33 40 118 52 172 4 17 11 36 17 43 5 7 11 31 13 55 2 23 7 49 10 57 4 8 6
27 5 41 -1 14 5 31 14 39 11 9 12 16 5 25 -13 15 -3 65 12 65 7 0 8 15 4 40
-6 35 -4 40 14 40 11 0 42 -21 69 -47z m497 32 c-4 -10 1 -15 15 -15 34 0 86
-66 98 -122 14 -63 14 -135 0 -143 -5 -4 -8 -12 -6 -18 7 -21 -42 -105 -65
-113 -40 -14 -53 -13 -75 2 -27 17 -29 7 -8 -43 15 -36 15 -36 -5 -18 -36 33
-88 159 -69 170 14 9 11 35 -3 33 -21 -5 -23 71 -3 78 10 4 13 9 6 13 -17 11
10 80 47 120 19 20 38 44 43 53 12 22 33 24 25 3z m-1634 -783 c4 11 10 10 31
-1 15 -8 36 -11 51 -7 15 4 36 1 47 -5 16 -8 19 -8 15 0 -9 15 21 26 37 14 6
-5 25 -10 41 -11 58 -4 226 -107 226 -139 0 -7 6 -13 14 -13 21 0 51 -51 52
-88 1 -24 -5 -37 -21 -48 -21 -14 -55 -10 -55 6 0 11 -76 83 -130 124 -27 20
-67 39 -100 46 -30 6 -66 17 -80 24 -20 10 -35 10 -75 -1 -28 -7 -56 -10 -64
-8 -7 3 -19 2 -25 -3 -6 -5 -30 -14 -53 -21 -70 -20 -98 8 -73 73 7 18 21 28
52 36 24 6 52 15 63 19 11 5 25 5 32 -1 7 -6 13 -4 15 4z m2728 -125 c30 -24
23 -64 -20 -107 -88 -88 -187 -128 -310 -125 -45 1 -86 7 -93 14 -6 6 -20 11
-31 11 -12 0 -37 10 -56 22 -19 12 -44 27 -55 33 -26 14 -35 85 -11 85 9 0 16
7 16 15 0 21 9 19 60 -15 25 -16 48 -30 52 -30 4 0 19 -5 35 -11 33 -13 162
-18 169 -7 3 5 14 8 25 8 32 0 96 37 136 80 40 41 58 47 83 27z m-1199 -378
c20 -17 24 -30 24 -72 0 -72 -44 -127 -102 -127 -38 0 -83 72 -52 82 9 3 8 10
-1 25 -11 18 -10 26 10 58 35 56 81 69 121 34z"/>
</g>
</svg>
