<svg id="Layer_1" data-name="Layer 1" xmlns="http://www.w3.org/2000/svg" viewBox="0 0 2000 2000"><defs><style>.cls-1{fill:#231f20;}</style></defs><title>decoherence</title><g id="air"><polygon class="cls-1" points="423.49 214.29 430.64 1011.4 416.35 1011.4 423.49 214.29"/><polygon class="cls-1" points="1441.34 650.76 1427.05 650.76 1429.29 535.06 1430 498.82 1434.19 282.6 1438.39 498.82 1439.09 535.06 1441.34 650.76"/><polygon class="cls-1" points="381.04 721.08 390.01 1301.72 372.06 1301.72 381.04 721.08"/><polygon class="cls-1" points="1385.39 879.96 1371.1 879.96 1375.71 535.06 1376.19 498.82 1378.24 345.72 1380.29 498.82 1380.77 535.06 1385.39 879.96"/><polygon class="cls-1" points="590.58 701.14 576.29 701.14 579.29 535.06 579.95 498.82 583.43 306.28 586.92 498.82 587.57 535.06 590.58 701.14"/><polygon class="cls-1" points="1592.24 323.96 1599.38 1449.49 1585.09 1449.49 1592.24 323.96"/><polygon class="cls-1" points="423.49 1105.83 430.64 1580.18 416.35 1580.18 423.49 1105.83"/><polygon class="cls-1" points="1551.22 312.09 1558.37 814.62 1544.07 814.62 1551.22 312.09"/></g><g id="lift"><path class="cls-1" d="M511.82,498.82l-1.62.3c-12.88,2.36-17.21,16.28-19.29,23-4.54,14.59-8.67,39-12.29,72.56C467.38,698.94,461.68,881,461.68,1135.6s5.7,436.66,16.94,541c3.62,33.56,7.75,58,12.29,72.56,1.73,5.54,5,16,13.39,20.78a16.64,16.64,0,0,0,1.51.79,18.94,18.94,0,0,0,2.54,1l.79.22,1.06.22.26.05,11.16,2,1.26-1.8,25.45-36.24,106.33-151.43,8.7-12.39V498.82ZM520,1713.37c-2.78-16.62-6-42.18-9.14-81.23-8.61-107.9-13-275-13-496.54s4.37-388.64,13-496.54c5.22-65.35,10.78-92.9,13.91-104H627.12V1560.87Z"/><path class="cls-1" d="M1475.59,1743.46l-19-25.56h0L1339.86,1560.6l-3.57-4.81a18.13,18.13,0,0,0-14.55-7.32H645.24a18.13,18.13,0,0,0-14.83,7.71l-3.29,4.68h0L520,1713.37l-21.4,30.48a18.11,18.11,0,0,0,5.66,26,16.64,16.64,0,0,0,1.51.79,18.94,18.94,0,0,0,2.54,1l.79.22,1.06.22.26.05a18.81,18.81,0,0,0,3,.25H1461a18.12,18.12,0,0,0,14.55-28.92Zm-927.26-7.32,106.33-151.43h658L1425,1736.14Z"/><path class="cls-1" d="M627.12,498.82V1584.71h712.74V498.82Zm36.24,36.24h640.26V1548.47H663.36Z"/><path class="cls-1" d="M1059.74,520.8,1042.05,513a2.5,2.5,0,0,0-.14.34c.07-.2,1.68-5.09-1.52-14.27s-11.78-24.05-34.66-43.12c-25.92-21.6-37.3-39.44-36.89-57.84.46-20.48,15.31-40,51.26-67.32,19.77-15,25.7-36.82,17.61-64.73-6.45-22.28-19.39-39.84-19.52-40l15.51-11.53c.62.83,15.16,20.58,22.58,46.17,10.39,35.85,1.92,65.42-24.48,85.5-30.28,23-43.33,38.68-43.64,52.36-.26,11.8,9.25,25.33,29.94,42.56C1072.63,486.58,1061.22,517.43,1059.74,520.8Z"/><path class="cls-1" d="M1502.26,617.18c-3.82-37.29-8.28-65.62-13.26-84.21-4.38-16.38-9.15-25.43-15.94-30.28a20.46,20.46,0,0,0-12.58-3.87H1303.62V1572.58l9,12.13L1425,1736.14l24.81,33.43,5.31,1.83a18.48,18.48,0,0,0,5.65,1h.38a20.55,20.55,0,0,0,11.88-3.88c6.79-4.84,11.56-13.9,15.94-30.28,5-18.59,9.44-46.92,13.26-84.21,10.88-106.38,16.4-280.8,16.4-518.42S1513.14,723.56,1502.26,617.18Zm-34,1011.24c-4,45.55-8.23,73-11.67,89.47L1339.86,1560.6V535.06h112c3.47,9.93,10.24,37.13,16.43,107.72,9.38,106.93,14.14,272.74,14.14,492.82S1477.66,1521.49,1468.28,1628.42Z"/></g><g id="cat"><path class="cls-1" d="M1280.22,1392.6c-12-61.07-51.31,36.83-93.93,44.75-38.71,7.21-204.69,60.83-286.45-128.68,34.7-.57,75.41,9.32,128.54,30.38,151.82,60.19,176.37-7.26,91.82-39.62s-85.88-34.36-98.43-144,56.8-147.31,113.6-201.46-64.86-44.32-125,21.73c.27-1,9.1-33,8.84-55.47-.25-22.12-12.73-39.45,3.8-42.42,37.41,0,77.28-57.38,82.22-84.4,94.42-45.06,97.1-117.74,97.1-117.74-39.46-24.71-102.85-8.88-133.07,1a132.09,132.09,0,0,0-110.17-37.92c-12.18-13.31-71.53-74.66-117.35-59.62,0,0-19.13,54.62,19.5,125.11-8.28,14.5-12.28,31.14-16.17,48.45C837,788.9,848.87,811.94,858,823.51a12.91,12.91,0,0,1-1.49,17.81c-10.88,9.51-27.54,24.58-35.4,34.37-11.4,14.2-22,39.46-22,42.58,0,0-34.26-43.78-54.83-65.39C723,830.41,677,807.61,700.75,873.18s96.44,99.26,81.89,195.71,11.85,165.49-34.36,214c-85.15,89.5-87.83,201.46-1.3,112.3,47.58-49.07,85.17-78.09,132.92-85,21.08,67.24,69,162.91,172,174C1212.51,1501.46,1292.16,1453.67,1280.22,1392.6Zm-102-702.22s-17.92,59.14-69.86,80.63c0,0,.89-34.93-23.29-73.44C1085.09,697.57,1159.84,680,1178.24,690.38ZM1017,753.75c5.52-5.87,18.68-15.14,42.37-6.81a5.47,5.47,0,0,1,3.1,7.45c-5.07,10.94-19.34,32.64-45.36,6.86A5.39,5.39,0,0,1,1017,753.75Zm-55.79-18.44a5.38,5.38,0,0,1-4.36,6.1c-36.07,6.39-35.45-19.58-33.39-31.46a5.46,5.46,0,0,1,6.78-4.36C954.46,712.23,960,727.34,961.21,735.31Zm-87.72-44.93s-26.12-41.86-21.4-93.47c0,0,58.85,17,80.89,49.41C933,646.32,884.05,664.58,873.49,690.38Z"/><path class="cls-1" d="M944.75,737a9.32,9.32,0,1,1,7.13-11.08A9.32,9.32,0,0,1,944.75,737Z"/><path class="cls-1" d="M1037.17,766.93a9.32,9.32,0,1,1,7.13-11.07A9.32,9.32,0,0,1,1037.17,766.93Z"/></g></svg>