<?xml version="1.0" encoding="UTF-8"?>
<svg xmlns="http://www.w3.org/2000/svg" xmlns:xlink="http://www.w3.org/1999/xlink" width="25pt" height="24pt" viewBox="0 0 25 24" version="1.1">
<g id="surface1">
<path style=" stroke:none;fill-rule:nonzero;fill:rgb(13.72549%,12.156863%,12.54902%);fill-opacity:1;" d="M 1.046875 0.00390625 L 1.191406 12.167969 L 0.898438 12.167969 Z M 1.046875 0.00390625 "/>
<path style=" stroke:none;fill-rule:nonzero;fill:rgb(13.72549%,12.156863%,12.54902%);fill-opacity:1;" d="M 21.730469 6.664062 L 21.4375 6.664062 L 21.480469 4.898438 L 21.496094 4.34375 L 21.582031 1.046875 L 21.667969 4.34375 L 21.679688 4.898438 Z M 21.730469 6.664062 "/>
<path style=" stroke:none;fill-rule:nonzero;fill:rgb(13.72549%,12.156863%,12.54902%);fill-opacity:1;" d="M 0.183594 7.738281 L 0.363281 16.597656 L 0 16.597656 Z M 0.183594 7.738281 "/>
<path style=" stroke:none;fill-rule:nonzero;fill:rgb(13.72549%,12.156863%,12.54902%);fill-opacity:1;" d="M 20.589844 10.160156 L 20.300781 10.160156 L 20.394531 4.898438 L 20.402344 4.34375 L 20.445312 2.007812 L 20.484375 4.34375 L 20.496094 4.898438 Z M 20.589844 10.160156 "/>
<path style=" stroke:none;fill-rule:nonzero;fill:rgb(13.72549%,12.156863%,12.54902%);fill-opacity:1;" d="M 4.441406 7.433594 L 4.152344 7.433594 L 4.210938 4.898438 L 4.222656 4.34375 L 4.292969 1.40625 L 4.367188 4.34375 L 4.378906 4.898438 Z M 4.441406 7.433594 "/>
<path style=" stroke:none;fill-rule:nonzero;fill:rgb(13.72549%,12.156863%,12.54902%);fill-opacity:1;" d="M 24.792969 1.675781 L 24.9375 18.851562 L 24.648438 18.851562 Z M 24.792969 1.675781 "/>
<path style=" stroke:none;fill-rule:nonzero;fill:rgb(13.72549%,12.156863%,12.54902%);fill-opacity:1;" d="M 1.046875 13.609375 L 1.191406 20.847656 L 0.898438 20.847656 Z M 1.046875 13.609375 "/>
<path style=" stroke:none;fill-rule:nonzero;fill:rgb(13.72549%,12.156863%,12.54902%);fill-opacity:1;" d="M 23.960938 1.496094 L 24.105469 9.164062 L 23.8125 9.164062 Z M 23.960938 1.496094 "/>
<path style=" stroke:none;fill-rule:nonzero;fill:rgb(13.72549%,12.156863%,12.54902%);fill-opacity:1;" d="M 2.839844 4.34375 L 2.804688 4.351562 C 2.542969 4.386719 2.457031 4.601562 2.414062 4.703125 C 2.320312 4.925781 2.238281 5.296875 2.167969 5.808594 C 1.9375 7.398438 1.820312 10.179688 1.820312 14.0625 C 1.820312 17.949219 1.9375 20.726562 2.167969 22.320312 C 2.238281 22.828125 2.320312 23.203125 2.414062 23.425781 C 2.449219 23.511719 2.515625 23.667969 2.683594 23.742188 C 2.699219 23.746094 2.707031 23.753906 2.71875 23.753906 C 2.734375 23.757812 2.753906 23.765625 2.769531 23.769531 L 2.785156 23.773438 L 2.804688 23.78125 L 2.8125 23.78125 L 3.039062 23.808594 L 3.066406 23.78125 L 3.582031 23.226562 L 5.742188 20.917969 L 5.917969 20.726562 L 5.917969 4.34375 Z M 3.007812 22.878906 C 2.949219 22.628906 2.882812 22.238281 2.820312 21.640625 C 2.644531 19.992188 2.554688 17.441406 2.554688 14.0625 C 2.554688 10.683594 2.644531 8.132812 2.820312 6.488281 C 2.925781 5.488281 3.039062 5.066406 3.105469 4.898438 L 5.183594 4.898438 L 5.183594 20.550781 Z M 3.007812 22.878906 "/>
<path style=" stroke:none;fill-rule:nonzero;fill:rgb(13.72549%,12.156863%,12.54902%);fill-opacity:1;" d="M 22.421875 23.339844 L 22.039062 22.945312 L 19.664062 20.550781 L 19.59375 20.476562 C 19.523438 20.40625 19.414062 20.363281 19.296875 20.363281 L 5.550781 20.363281 C 5.429688 20.363281 5.320312 20.40625 5.25 20.480469 L 5.183594 20.550781 L 3.007812 22.878906 L 2.570312 23.34375 C 2.511719 23.40625 2.492188 23.488281 2.511719 23.5625 C 2.535156 23.636719 2.597656 23.703125 2.683594 23.742188 C 2.695312 23.746094 2.703125 23.75 2.71875 23.753906 C 2.734375 23.757812 2.75 23.765625 2.769531 23.769531 L 2.785156 23.773438 L 2.808594 23.777344 C 2.832031 23.78125 2.851562 23.78125 2.871094 23.78125 L 22.125 23.78125 C 22.265625 23.78125 22.390625 23.722656 22.457031 23.628906 C 22.519531 23.535156 22.507812 23.421875 22.421875 23.339844 Z M 3.582031 23.226562 L 5.742188 20.914062 L 19.113281 20.914062 L 21.394531 23.226562 Z M 3.582031 23.226562 "/>
<path style=" stroke:none;fill-rule:nonzero;fill:rgb(13.72549%,12.156863%,12.54902%);fill-opacity:1;" d="M 5.183594 4.34375 L 5.183594 20.914062 L 19.664062 20.914062 L 19.664062 4.34375 Z M 5.917969 4.898438 L 18.929688 4.898438 L 18.929688 20.363281 L 5.917969 20.363281 Z M 5.917969 4.898438 "/>
<path style=" stroke:none;fill-rule:nonzero;fill:rgb(13.72549%,12.156863%,12.54902%);fill-opacity:1;" d="M 13.972656 4.679688 L 13.613281 4.5625 C 13.613281 4.5625 13.613281 4.566406 13.613281 4.566406 C 13.613281 4.566406 13.644531 4.488281 13.582031 4.351562 C 13.515625 4.210938 13.339844 3.980469 12.875 3.691406 C 12.347656 3.363281 12.117188 3.089844 12.125 2.808594 C 12.136719 2.496094 12.4375 2.195312 13.167969 1.78125 C 13.570312 1.554688 13.691406 1.21875 13.527344 0.792969 C 13.398438 0.453125 13.132812 0.1875 13.128906 0.1875 L 13.445312 0.0078125 C 13.457031 0.0234375 13.75 0.324219 13.902344 0.710938 C 14.113281 1.257812 13.941406 1.710938 13.40625 2.015625 C 12.792969 2.367188 12.523438 2.605469 12.519531 2.816406 C 12.511719 2.996094 12.707031 3.199219 13.128906 3.464844 C 14.238281 4.160156 14.003906 4.632812 13.972656 4.679688 Z M 13.972656 4.679688 "/>
<path style=" stroke:none;fill-rule:nonzero;fill:rgb(13.72549%,12.156863%,12.54902%);fill-opacity:1;" d="M 22.964844 6.152344 C 22.886719 5.582031 22.796875 5.152344 22.695312 4.867188 C 22.605469 4.613281 22.507812 4.476562 22.371094 4.40625 C 22.296875 4.367188 22.207031 4.34375 22.117188 4.34375 L 18.929688 4.34375 L 18.929688 20.734375 L 19.113281 20.914062 L 21.394531 23.226562 L 21.902344 23.734375 L 22.007812 23.765625 C 22.042969 23.773438 22.082031 23.78125 22.125 23.78125 L 22.128906 23.78125 C 22.214844 23.78125 22.300781 23.757812 22.371094 23.722656 C 22.507812 23.648438 22.605469 23.511719 22.695312 23.257812 C 22.796875 22.976562 22.886719 22.542969 22.964844 21.976562 C 23.1875 20.351562 23.296875 17.6875 23.296875 14.0625 C 23.296875 10.4375 23.1875 7.777344 22.964844 6.152344 Z M 22.273438 21.585938 C 22.191406 22.28125 22.105469 22.699219 22.039062 22.945312 L 19.664062 20.550781 L 19.664062 4.898438 L 21.941406 4.898438 C 22.011719 5.050781 22.148438 5.464844 22.273438 6.539062 C 22.464844 8.175781 22.5625 10.703125 22.5625 14.0625 C 22.5625 17.421875 22.464844 19.953125 22.273438 21.585938 Z M 22.273438 21.585938 "/>
<path style=" stroke:none;fill-rule:nonzero;fill:rgb(13.72549%,12.156863%,12.54902%);fill-opacity:1;" d="M 18.453125 17.984375 C 18.210938 17.054688 17.410156 18.546875 16.542969 18.667969 C 15.757812 18.78125 12.382812 19.597656 10.722656 16.703125 C 11.429688 16.695312 12.257812 16.84375 13.335938 17.167969 C 16.421875 18.085938 16.917969 17.058594 15.203125 16.566406 C 13.484375 16.070312 13.457031 16.039062 13.199219 14.367188 C 12.945312 12.691406 14.355469 12.117188 15.511719 11.292969 C 16.664062 10.464844 14.195312 10.617188 12.96875 11.625 C 12.976562 11.609375 13.15625 11.117188 13.148438 10.777344 C 13.144531 10.4375 12.890625 10.175781 13.226562 10.128906 C 13.988281 10.128906 14.796875 9.253906 14.898438 8.839844 C 16.816406 8.152344 16.871094 7.042969 16.871094 7.042969 C 16.066406 6.667969 14.78125 6.910156 14.167969 7.058594 C 13.582031 6.617188 12.753906 6.402344 11.929688 6.480469 C 11.679688 6.277344 10.472656 5.339844 9.542969 5.570312 C 9.542969 5.570312 9.15625 6.402344 9.941406 7.480469 C 9.769531 7.699219 9.6875 7.957031 9.613281 8.21875 C 9.449219 8.773438 9.6875 9.125 9.875 9.300781 C 9.960938 9.378906 9.949219 9.5 9.84375 9.574219 C 9.621094 9.714844 9.285156 9.945312 9.125 10.09375 C 8.894531 10.3125 8.675781 10.699219 8.675781 10.746094 C 8.675781 10.746094 7.980469 10.078125 7.5625 9.75 C 7.128906 9.40625 6.195312 9.058594 6.679688 10.058594 C 7.160156 11.0625 8.636719 11.570312 8.34375 13.042969 C 8.046875 14.515625 8.582031 15.570312 7.644531 16.3125 C 5.914062 17.675781 5.859375 19.382812 7.617188 18.023438 C 8.585938 17.273438 9.347656 16.832031 10.320312 16.726562 C 10.746094 17.753906 11.722656 19.214844 13.8125 19.382812 C 17.078125 19.644531 18.695312 18.914062 18.453125 17.984375 Z M 16.378906 7.269531 C 16.378906 7.269531 16.015625 8.171875 14.960938 8.5 C 14.960938 8.5 14.980469 7.964844 14.484375 7.378906 C 14.488281 7.378906 16.007812 7.113281 16.382812 7.269531 Z M 13.105469 8.234375 C 13.21875 8.144531 13.484375 8.003906 13.964844 8.132812 C 13.996094 8.140625 14.019531 8.15625 14.03125 8.179688 C 14.042969 8.199219 14.042969 8.226562 14.027344 8.246094 C 13.925781 8.414062 13.636719 8.742188 13.105469 8.351562 C 13.0625 8.320312 13.0625 8.269531 13.105469 8.234375 Z M 11.96875 7.953125 C 11.980469 7.996094 11.9375 8.039062 11.882812 8.046875 C 11.148438 8.144531 11.164062 7.75 11.203125 7.566406 C 11.207031 7.542969 11.226562 7.523438 11.253906 7.511719 C 11.277344 7.5 11.3125 7.496094 11.339844 7.5 C 11.832031 7.601562 11.945312 7.832031 11.96875 7.953125 Z M 10.1875 7.269531 C 10.1875 7.269531 9.65625 6.628906 9.753906 5.84375 C 9.753906 5.84375 10.949219 6.101562 11.398438 6.597656 C 11.398438 6.597656 10.402344 6.875 10.1875 7.269531 Z M 10.1875 7.269531 "/>
<path style=" stroke:none;fill-rule:nonzero;fill:rgb(13.72549%,12.156863%,12.54902%);fill-opacity:1;" d="M 11.636719 7.980469 C 11.535156 7.996094 11.433594 7.945312 11.410156 7.871094 C 11.386719 7.796875 11.453125 7.71875 11.554688 7.699219 C 11.660156 7.683594 11.757812 7.734375 11.78125 7.808594 C 11.804688 7.886719 11.742188 7.964844 11.636719 7.980469 Z M 11.636719 7.980469 "/>
<path style=" stroke:none;fill-rule:nonzero;fill:rgb(13.72549%,12.156863%,12.54902%);fill-opacity:1;" d="M 13.515625 8.4375 C 13.410156 8.453125 13.3125 8.402344 13.289062 8.328125 C 13.265625 8.25 13.332031 8.175781 13.433594 8.15625 C 13.535156 8.140625 13.636719 8.191406 13.65625 8.265625 C 13.679688 8.34375 13.617188 8.421875 13.515625 8.4375 Z M 13.515625 8.4375 "/>
</g>
</svg>
