<svg id="Layer_1" data-name="Layer 1" xmlns="http://www.w3.org/2000/svg" viewBox="0 0 2000 2000"><defs><style>.cls-1{fill:#231f20;}</style></defs><title>ennumeration</title><path class="cls-1" d="M519.6,248.15S283.19,528,307.31,619.65,452.05,805.41,452.05,805.41s-371.5,446-84.43,616.22c0,0-123,68.89-135.09,122L268.71,1587s158-136.3,294.31,0l154.4-185.75S276,1169.68,514.78,885l439.05,388.39s229.18,205,231.59,313.61h57.9s171.27-193,60.3-308.79S1031,1029.76,1031,1029.76l207.46-229.18s147.16-154.39-19.3-270.18-111-224.36-72.37-250.89c0,0-246.06,139.92-221.94,289.48s301.55,142.33,41,386L546.14,569S420.69,409.78,519.6,248.15Z"/><path class="cls-1" d="M1486.72,1734.11h195.74S1779,1716.69,1779,1529s-126.3-281-211.54-281c-71.87,0-211.53,46.78-211.53,263,0,118.66,45,177.94,89.72,207.89,27.45-.2,51.54-2.35,71.19-11.67,13.9-6.6,25.71-16.73,36.09-31a151.88,151.88,0,0,0,10.32-16.34c-22.2-29.63-50.3-80.73-50.3-149.68,0-114,24.79-132.88,52.51-132.88,43.25,0,53.6,78.2,53.6,129.59,0,20.89-1.37,62.33-12.21,104.17-6.06,23.39-15.08,46.91-28.49,67-.09-.1-.19-.2-.28-.31a131.8,131.8,0,0,1-23.43,27.63l-.71.62a108.17,108.17,0,0,1-18,12.67l-.66.37a121.94,121.94,0,0,1-29.1,11.34l-.12,0A169.35,169.35,0,0,1,1486.72,1734.11Z"/></svg>