<svg id="Layer_1" data-name="Layer 1" xmlns="http://www.w3.org/2000/svg" viewBox="0 0 2000 2000"><defs><style>.cls-1{stroke:#fff;stroke-miterlimit:10;}</style></defs><title>escape_room</title><polyline class="cls-1" points="1040.01 1032.58 1658.23 677.79 1658.23 1390.19 1304.86 1596.27 1501.73 1406.48 1498.89 929.18 1201.47 1097.72 1201.47 1657.17 1040.01 1753.47 1040.01 1032.58"/><polygon class="cls-1" points="750.38 1282.55 743.29 1293.88 598.83 1238.65 615.83 1074.36 631.41 1074.36 651.24 1200.41 750.38 1282.55"/><path class="cls-1" d="M341.77,672.83v719.49L960.7,1750.64V1028.33Zm403.62,749c-66.74,35-169.47-29.44-229.47-143.89s-54.54-235.6,12.2-270.59,169.47,29.43,229.47,143.9S812.13,1386.82,745.39,1421.8Z"/><polygon class="cls-1" points="377.18 607.68 449.41 650.17 1000.35 331.5 1551.3 651.59 1623.53 607.68 1001.77 246.53 377.18 607.68"/><path class="cls-1" d="M1337.12,1336.61l21.56,57.12-85,48.16,23.29-97a38.3,38.3,0,0,1-12.34-5.43c-22.07-14.84-24.43-50-5.27-78.43s52.57-39.53,74.64-24.69,24.43,50,5.27,78.44A76.36,76.36,0,0,1,1337.12,1336.61Z"/><polygon points="750.38 1282.55 743.29 1293.88 598.83 1238.65 615.83 1074.36 631.41 1074.36 651.24 1200.41 750.38 1282.55"/><polygon points="750.38 1282.55 743.29 1293.88 598.83 1238.65 615.83 1074.36 631.41 1074.36 651.24 1200.41 750.38 1282.55"/></svg>