<svg id="Layer_1" data-name="Layer 1" xmlns="https://www.w3.org/2000/svg" viewBox="0 0 1317.46 1508.41"><defs><style>.cls-1{stroke:#fff;stroke-miterlimit:10;}</style></defs><title>escape room</title><polyline class="cls-1" points="698.74 786.63 1316.96 431.84 1316.96 1144.24 963.59 1350.32 1160.45 1160.53 1157.62 683.24 860.2 851.78 860.2 1411.22 698.74 1507.53 698.74 786.63"/><polygon class="cls-1" points="409.1 1036.61 402.02 1047.94 257.56 992.7 274.56 828.41 290.13 828.41 309.96 954.46 409.1 1036.61"/><path class="cls-1" d="M341.77,672.83v719.49L960.7,1750.64V1028.33Zm403.62,749c-66.74,35-169.47-29.44-229.47-143.89s-54.54-235.6,12.2-270.59,169.47,29.43,229.47,143.9S812.13,1386.82,745.39,1421.8Z" transform="translate(-341.27 -245.95)"/><polygon class="cls-1" points="35.91 361.74 108.14 404.23 659.08 85.56 1210.03 405.64 1282.26 361.74 660.5 0.58 35.91 361.74"/><path class="cls-1" d="M1337.12,1336.61l21.56,57.12-85,48.16,23.29-97a38.3,38.3,0,0,1-12.34-5.43c-22.07-14.84-24.43-50-5.27-78.43s52.57-39.53,74.64-24.69,24.43,50,5.27,78.44A76.36,76.36,0,0,1,1337.12,1336.61Z" transform="translate(-341.27 -245.95)"/><polygon points="409.1 1036.61 402.02 1047.94 257.56 992.7 274.56 828.41 290.13 828.41 309.96 954.46 409.1 1036.61"/><polygon points="409.1 1036.61 402.02 1047.94 257.56 992.7 274.56 828.41 290.13 828.41 309.96 954.46 409.1 1036.61"/></svg>