<svg id="Layer_1" data-name="Layer 1" xmlns="http://www.w3.org/2000/svg" viewBox="0 0 2000 2000"><title>footprints</title><path d="M883.06,1167.6c-18.08-27.32-41.2-51.34-60.67-77.82-13.61-18.66-28.41-37.8-36.32-59.14-25.27-68.44-13.18-132.11,34.58-186.39,23.18-26.3,50.43-48.87,76-72.9,36-33.67,59.52-73.06,61.5-124.94,2-55.22-25.08-100.32-74.54-113.87-25.18-6.87-77.79-10.65-77.92-9.52-75.64,3.73-148.36,19.51-214.9,57.78-60.71,34.89-104.23,84.45-116.33,156.84-10.21,60.88-4.54,121.59,16.91,179,19.17,51.36,43.38,100.65,66.06,150.66,26.66,58.71,44.25,119.67,45.67,184.83.38,16.82,1,33.81,4.2,50.19,10.51,55.07,36.18,99.42,88,123.57,31.25,14.54,64.2,11.6,96.85,6.89,61.3-8.82,101.5-45.18,113.78-102.75C918.28,1273,915.88,1217.39,883.06,1167.6Z"/><path d="M970.75,439.25c22.74-28,31.66-60.91,32.77-100.56-.72-5.8-1.26-15.54-3.11-25.14A136.6,136.6,0,0,0,993.66,290c-18.38-49-64.15-59.3-101-23s-48.63,115.51-24.31,161.81C892.28,474.35,938.23,479.12,970.75,439.25Z"/><path d="M795.83,435.69c28-27.88,34.49-83.61,13.58-117.46-18.58-30.13-51-31.84-73-3.45-14.27,18.42-20.11,40-19.94,63.34-.22,20.11,4.51,37.28,13.85,51.09C747.39,454.36,774.46,457,795.83,435.69Z"/><path d="M673,454.11c11.77-14.56,15.32-31.92,16.09-50.13-.86-18.75-4.54-36.51-16.86-51.13-15.06-17.81-36.34-17.68-51.39,0-21.67,25.49-22,75.42-.68,101.37C635.61,473.15,657.7,473.15,673,454.11Z"/><path d="M592,487.66c12.78-22.92,5.23-61.78-15.23-78.05-15.41-12.27-33.59-8.91-42.18,8.93-3.87,8.24-5.12,17.68-7.6,26.59,2,20.47,7.73,38.32,23.43,51.16C565.33,508.54,582.54,504.61,592,487.66Z"/><path d="M524.41,548.37c5.79-9,8.14-20.42,12.23-31.52-4-10.61-6.33-21.13-11.69-29.62-8.87-14.08-25-14-35.74-1.12C476,501.83,475,531.78,487.32,548.46,498.06,563,514.7,563.66,524.41,548.37Z"/><path d="M1211.87,853.34c.13-1.14-51.55-11.57-77.72-11.57-51.33-.13-89.37,36.16-102.1,89.89-12.08,50.54.31,94.77,26,136.83,18.23,30,38.52,59,53.84,90.63,31.58,64.91,26.44,129.5-16.2,188.74-13.3,18.48-32.75,33-50.76,47.43-25.78,20.46-54.38,37.32-79.18,58.92-44.92,39.22-62,92.22-65.32,150.49C897,1663.5,926,1709.12,982.71,1734c30.28,13.27,61.19,24.82,95.18,19.15,56.42-9.49,93-45.58,117.77-95.64,7.37-15,12.6-31.22,17.39-47.38,18.7-62.53,51.86-116.59,93.23-166,35.08-42.16,71.62-83.26,103.84-127.56,35.92-49.67,57.44-106.62,63.89-168,7.65-73-21.25-132.36-70.3-182.17C1349.53,911.57,1283.76,877.08,1211.87,853.34Z"/><path d="M1176.65,746c35.7-38.14,45.28-117.73,19.54-162.5s-72.5-47-103.37-4.7A147.49,147.49,0,0,0,1080,599.73c-4.26,8.67-7.42,17.89-9.66,23.38-9.44,38.48-9.61,72.65,4.87,105.65C1095.85,775.85,1141.39,783.5,1176.65,746Z"/><path d="M1309.57,783c12.74-10.82,21.79-26.12,26.92-45.58,6.46-22.49,6.59-44.83-2.37-66.46-13.57-33.13-45.32-40.11-71.27-16-29.07,27.11-37.77,82.51-18.18,116.8C1259.51,798,1286.39,802.6,1309.57,783Z"/><path d="M1409.12,836.47c27.49-19.34,40.44-67.48,26.3-97.85-9.83-21.1-30.26-26.85-49.49-13.72-15.89,10.8-24.07,26.94-29.9,44.79-4,17.8-5.23,35.44,2.2,52.6C1367.94,844.69,1389.05,850.59,1409.12,836.47Z"/><path d="M1427.3,876.26c4.62,18.79,20.2,27.16,37.86,19.38,18.52-8.23,28.8-23.88,36.13-43.07,0-9.27,1.37-18.71-.26-27.66-3.47-19.56-20.06-27.55-38.25-19.83C1438.72,815.29,1421,850.73,1427.3,876.26Z"/><path d="M1526.81,902c-6.94-15.21-22.48-19.71-34.73-8.47-7.42,6.81-12.39,16.29-19.15,25.47,1,11.81.27,23.36,3.39,33.64,5.31,17.29,21.51,21.07,35.74,9.92C1528.3,949.72,1535.29,920.63,1526.81,902Z"/></svg>