<svg id="Layer_3" data-name="Layer 3" xmlns="http://www.w3.org/2000/svg" viewBox="0 0 272.84 287.87"><defs><style>.cls-1{fill:#1d1d1b;}</style></defs><title>Hackathon</title><path class="cls-1" d="M490.93,370.46l14.35,34.64-25.15,21-28.88-22.72s-11.92,6.72-18.8,6.9l-10.8,36.32H388.87l-7.26-36.14s-11.74-2.79-19.73-6.51l-31.67,20.86-24.95-21.23,17.12-32.23s-8.74-12.1-10.05-17.32l-37.05-4.47-5.41-31.47,32.6-13.38h46.14c0,32,25.71,54.5,57.67,54.5s58.13-22.69,58.13-54.64l45.88-.07,32.42,16.39-5.22,32.21-37.25.93S495.58,366.19,490.93,370.46Z" transform="translate(-269.87 -158.77)"/><path class="cls-1" d="M471.09,241.88l-.14.43-14.84,39.63a9.57,9.57,0,0,1-3.54,4.91L439.88,298a5.48,5.48,0,0,1-7.22-8.24l13.16-11.53,14.75-39.42a.52.52,0,0,0-.08-.31l-.2-.34-28.76-52c-8.2-11.14-16.52-16.66-24.72-16.37-13,.44-22.82,15.07-23.59,16.25l-29.91,52.49a1.11,1.11,0,0,0-.07,1l14.26,35.2a1.22,1.22,0,0,0,.26.38l13.63,13.52a5.47,5.47,0,0,1-7.71,7.77l-13.63-13.51a12,12,0,0,1-2.7-4.05l-14.26-35.2a12,12,0,0,1,.7-10.49l30.1-52.8c.52-.85,13.18-20.76,32.49-21.46,12.13-.43,23.64,6.67,34.2,21.13l.37.58,28.84,52.2A11.44,11.44,0,0,1,471.09,241.88Z" transform="translate(-269.87 -158.77)"/><polygon class="cls-1" points="125.81 91.92 123.19 96.73 92.81 80.2 123.23 64.18 125.78 69.03 104.42 80.28 125.81 91.92"/><polygon class="cls-1" points="148.21 58.77 131.28 104.14 126.15 102.23 143.07 56.86 148.21 58.77"/><polygon class="cls-1" points="182.15 80.2 151.77 96.73 149.15 91.92 170.55 80.28 149.19 69.03 151.74 64.18 182.15 80.2"/></svg>