<svg id="Layer_1" data-name="Layer 1" xmlns="http://www.w3.org/2000/svg" viewBox="0 0 2000 2000"><defs><style>.cls-1{fill:#1d1d1b;}</style></defs><title>hackathon</title><path class="cls-1" d="M1547.15,1437.8l92.76,223.93-162.58,135.75-186.69-146.87s-77.06,43.44-121.53,44.6L1099.29,1930H887.39l-46.93-233.62s-75.89-18-127.55-42.09L508.19,1789.14,346.9,1651.9l110.67-208.35s-56.5-78.22-65-112l-239.5-28.9-35-203.43,210.74-86.5H627.13c0,206.86,166.2,352.31,372.81,352.31s375.77-146.67,375.77-353.21l296.59-.46,209.58,106-33.75,208.22-240.8,6S1577.21,1410.2,1547.15,1437.8Z"/><path class="cls-1" d="M1418.9,606.6l-.91,2.78-95.93,256.19a61.86,61.86,0,0,1-22.89,31.74l-82,72.08a35.43,35.43,0,0,1-46.67-53.27l85.07-74.54,95.35-254.82a3.39,3.39,0,0,0-.52-2l-1.29-2.2L1163.16,246.4c-53-72-106.79-107.69-159.8-105.82-84,2.85-147.52,97.42-152.49,105L657.51,585a7.19,7.19,0,0,0-.45,6.46L749.24,819a7.83,7.83,0,0,0,1.69,2.46L839,908.81A35.38,35.38,0,0,1,789.2,959l-88.11-87.33a77.49,77.49,0,0,1-17.46-26.18L591.45,618A77.59,77.59,0,0,1,596,550.17L790.55,208.85c3.36-5.5,85.2-134.21,210-138.73,78.42-2.78,152.82,43.12,221.09,136.59l2.39,3.75,186.43,337.45A74,74,0,0,1,1418.9,606.6Z"/><polygon class="cls-1" points="931.41 663.55 914.48 694.65 718.09 587.79 914.73 484.23 931.22 515.58 793.14 588.31 931.41 663.55"/><polygon class="cls-1" points="1076.22 449.26 966.77 742.55 933.61 730.2 1042.99 436.91 1076.22 449.26"/><polygon class="cls-1" points="1295.62 587.79 1099.23 694.65 1082.29 663.55 1220.63 588.31 1082.55 515.58 1099.04 484.23 1295.62 587.79"/></svg>
