<svg id="Layer_1" data-name="Layer 1" xmlns="http://www.w3.org/2000/svg" viewBox="0 0 2000 2000"><defs><style>.cls-1{fill:#231f20;}</style></defs><title>hcode</title><path class="cls-1" d="M664.45,769.31H604.14V713h67.67l12.52-81.78H624V574.93h67.66l19.88-140.09h58.92L750.6,574.93h69.06l19.88-140.09h58.32L878,574.93h60.37v56.33H869.89L858.49,713H918.8v56.27H851.6l-20.81,140.1H772.47l19.89-140.1H722.9L703,909.41H644.57Zm77.74-138L730.72,713h69.06l11.4-81.78Z"/><path class="cls-1" d="M644.57,1591.54c-181.78,0-246.53-124.39-246.53-240.83V1171.78A498.71,498.71,0,0,0,336.47,929a148.09,148.09,0,0,0-19.88-30.08l-31.94-29.3,32-29.29a152.54,152.54,0,0,0,19.88-30,499.14,499.14,0,0,0,61.57-242.75V388.64c0-116.37,64.74-240.76,246.53-240.76V227.4c-145.34,0-167,101.07-167,161.24V567.58a577.46,577.46,0,0,1-71.7,281.52q-6.46,11.63-12.13,20.54c3.78,6,7.82,12.86,12.13,20.61a577.5,577.5,0,0,1,71.7,281.53v178.93c0,60.24,21.67,161.31,167,161.31Z"/><path class="cls-1" d="M1241.88,883.83h73.82l-81.31,240.76h-62.23ZM1206,535.63a50.43,50.43,0,1,1,14.78,35.86A48.91,48.91,0,0,1,1206,535.83Z"/><rect class="cls-1" x="696.73" y="1509.43" width="365.49" height="79.53"/><rect class="cls-1" x="1105.03" y="1509.43" width="109.68" height="79.53"/><rect class="cls-1" x="725.49" y="1642.31" width="118.43" height="79.53"/><rect class="cls-1" x="892.96" y="1642.31" width="313" height="79.53"/><rect class="cls-1" x="845.57" y="1772.6" width="216.58" height="79.53"/><path class="cls-1" d="M1703.92,917a75.86,75.86,0,0,1-65.27,36.45h-62.76l1.39,147.19c1.06,114.92-91.24,209-206.16,210H1215.3V1486.9H1105v-79.53h30.75V1231.09h233.67A128.44,128.44,0,0,0,1498,1102.73c0-.47,0-.93,0-1.4l-2.12-227.44h138l-145.2-288.82.86-11.06c12.86-162.44-71.37-270.26-122.73-320a92.77,92.77,0,0,0-65.35-26.51H679.76V148.21h621.69a172.35,172.35,0,0,1,120.69,48.64c60.24,58.39,158.19,183.58,147.45,372.12L1707.17,842.6A75.94,75.94,0,0,1,1703.92,917Z"/></svg>