<svg id="Layer_2" data-name="Layer 2" xmlns="http://www.w3.org/2000/svg" viewBox="0 0 215.9 257.11"><defs><style>.cls-1{fill:#231f20;}</style></defs><title>honourcode</title><path class="cls-1" d="M232,529.79c-27.43,0-37.2-18.77-37.2-36.34v-27a75.26,75.26,0,0,0-9.29-36.63,22.43,22.43,0,0,0-3-4.54l-4.82-4.42,4.83-4.42a23.05,23.05,0,0,0,3-4.53,75.29,75.29,0,0,0,9.29-36.63v-27c0-17.56,9.77-36.33,37.2-36.33v12c-21.93,0-25.2,15.25-25.2,24.33v27a87.13,87.13,0,0,1-10.82,42.48c-.65,1.17-1.26,2.2-1.83,3.1.57.91,1.18,1.94,1.83,3.11a87.13,87.13,0,0,1,10.82,42.48v27c0,9.09,3.27,24.34,25.2,24.34Z" transform="translate(-177.68 -312)"/><path class="cls-1" d="M235,405.72h-9.1v-8.49h10.21L238,384.89h-9.1v-8.5h10.21l3-21.14H251l-3,21.14h10.42l3-21.14h8.8l-3,21.14h9.11v8.5H266l-1.72,12.34h9.1v8.49H263.24l-3.14,21.14h-8.8l3-21.14H243.82l-3,21.14H232Zm11.73-20.83L245,397.23h10.42l1.72-12.34Z" transform="translate(-177.68 -312)"/><path class="cls-1" d="M322.13,423h11.14L321,459.33h-9.39Zm-5.42-52.54a7.61,7.61,0,1,1,2.23,5.41A7.38,7.38,0,0,1,316.71,370.49Z" transform="translate(-177.68 -312)"/><rect class="cls-1" x="62.19" y="205.4" width="55.15" height="12"/><path class="cls-1" d="M318,523.4" transform="translate(-177.68 -312)"/><path class="cls-1" d="M301.48,523.4" transform="translate(-177.68 -312)"/><rect class="cls-1" x="123.8" y="205.4" width="16.55" height="12"/><rect class="cls-1" x="66.53" y="225.45" width="17.87" height="12"/><path class="cls-1" d="M316.72,543.45" transform="translate(-177.68 -312)"/><path class="cls-1" d="M269.49,543.45" transform="translate(-177.68 -312)"/><rect class="cls-1" x="91.8" y="225.45" width="47.23" height="12"/><rect class="cls-1" x="84.65" y="245.11" width="32.68" height="12"/><path class="cls-1" d="M391.85,428A11.45,11.45,0,0,1,382,433.5h-9.47l.21,22.21a31.4,31.4,0,0,1-31.39,31.69H318.12V514H301.48V502h4.64V475.4h35.26a19.38,19.38,0,0,0,19.39-19.58l-.32-34.32h20.83l-21.91-43.58.13-1.67c1.94-24.51-10.77-40.78-18.52-48.29a14,14,0,0,0-9.86-4H237.31V312h93.81a26,26,0,0,1,18.21,7.34c9.09,8.81,23.87,27.7,22.25,56.15l20.76,41.29A11.46,11.46,0,0,1,391.85,428Z" transform="translate(-177.68 -312)"/></svg>