<svg id="Layer_1" data-name="Layer 1" xmlns="http://www.w3.org/2000/svg" viewBox="0 0 2000 2000"><title>lasertag</title><polygon points="1209.19 515.83 1241.47 487.97 1282.72 498.76 1266.2 459.45 1289.2 423.55 1246.71 427.12 1219.67 394.15 1209.94 435.66 1170.22 451.17 1206.7 473.26 1209.19 515.83"/><polygon points="1372.5 631.54 1412.88 617.84 1447.06 643.35 1446.51 600.72 1481.34 576.09 1440.6 563.44 1427.95 522.71 1403.32 557.52 1360.68 556.97 1386.19 591.15 1372.5 631.54"/><polygon points="1516.06 762.56 1488.2 794.85 1530.77 797.34 1552.85 833.82 1568.38 794.09 1609.89 784.36 1576.91 757.32 1580.48 714.83 1544.58 737.84 1505.28 721.31 1516.06 762.56"/><polygon points="773.81 541.93 740.39 513.02 697.69 524.21 714.8 483.41 690.98 446.15 734.97 449.86 762.96 415.63 773.03 458.71 814.16 474.82 776.39 497.75 773.81 541.93"/><polygon points="604.75 662.03 562.95 647.82 527.56 674.3 528.13 630.05 492.08 604.48 534.25 591.35 547.35 549.08 572.85 585.21 616.99 584.64 590.57 620.12 604.75 662.03"/><polygon points="456.13 798.04 484.97 831.55 440.9 834.13 418.05 872 401.97 830.76 359 820.67 393.14 792.6 389.44 748.49 426.6 772.38 467.3 755.22 456.13 798.04"/><polygon points="785.68 1497.35 753.42 1525.23 712.15 1514.42 728.69 1553.75 705.67 1589.65 748.16 1586.08 775.2 1619.05 784.92 1577.54 824.65 1562.01 788.17 1539.92 785.68 1497.35"/><polygon points="622.39 1381.64 582.01 1395.34 547.83 1369.84 548.37 1412.48 513.55 1437.11 554.27 1449.76 566.93 1490.48 591.56 1455.66 634.19 1456.21 608.69 1422.03 622.39 1381.64"/><polygon points="464.11 1215.86 442.02 1179.38 426.51 1219.11 384.99 1228.84 417.96 1255.88 414.39 1298.37 450.29 1275.36 489.61 1291.89 478.81 1250.62 506.69 1218.35 464.11 1215.86"/><path d="M1445.63,1034.68l1.06-17.11h104.77V995.64H1446.69l-1.06-17.12c-14-225.52-194.59-406.13-420.1-420.11l-17.12-1.07V452.57H986.48V557.34l-17.12,1.07C743.85,572.39,563.24,753,549.24,978.52l-1,17.12H443.41v21.93H548.2l1,17.11c14,225.52,194.61,406.13,420.12,420.1l17.12,1.06v104.77h21.93V1455.84l17.12-1.06C1251,1440.81,1431.64,1260.2,1445.63,1034.68ZM1008.41,579.16l19.53,1.4c210.54,15,380.58,185,395.54,395.53l1.4,19.55H1252.1l-1.74-16.32c-12.63-118.11-107.53-213-225.65-225.66l-16.3-1.76Zm-437,396.93c15-210.52,185-380.57,395.54-395.53l19.55-1.4V751.9l-16.32,1.76c-118.1,12.65-213,107.55-225.65,225.66l-1.74,16.32H570ZM986.48,1434l-19.55-1.4c-210.54-14.95-380.58-185-395.54-395.52L570,1017.57H742.77l1.74,16.3c12.65,118.12,107.55,213,225.65,225.66l16.32,1.73Zm11-194.93c-128.19,0-232.48-104.3-232.48-232.5S869.25,774.11,997.44,774.11s232.47,104.29,232.47,232.48S1125.62,1239.09,997.44,1239.09Zm30.5,193.53-19.53,1.4V1261.26l16.3-1.73c118.12-12.64,213-107.54,225.65-225.66l1.76-16.3h172.76l-1.4,19.53C1408.52,1247.65,1238.48,1417.67,1027.94,1432.62Z"/><path d="M997.44,937.2a69.4,69.4,0,1,0,69.39,69.39A69.46,69.46,0,0,0,997.44,937.2Z"/><path d="M626.31,266.6l-34.87,66.62a778.28,778.28,0,0,1,109.13-55.69Z"/><path d="M333.2,591.46l-66.62,34.85,10.95,74.28A779.22,779.22,0,0,1,333.2,591.46Z"/><path d="M591.36,333.27l-75.19.82-24,71.3L418,418l-12.57,74.19-71.32,24-.8,75.19A785.74,785.74,0,0,1,591.36,333.27Z"/><path d="M1299.14,277.42l-44.77-60.26-71.82,22.48L1128.76,187l-67.41,33.42L1000,176.87l-61.35,43.57L871.24,187l-53.79,52.62-71.82-22.48-44.79,60.26a783.11,783.11,0,0,1,598.3,0Z"/><path d="M277.42,1299.16a783.11,783.11,0,0,1,0-598.3l-60.26,44.79,22.48,71.8L187,871.24l33.44,67.41L176.87,1000l43.57,61.36L187,1128.77l52.64,53.78-22.48,71.82Z"/><path d="M1733.42,626.31l-66.62-34.85a779.22,779.22,0,0,1,55.67,109.13Z"/><path d="M1373.69,266.6l-74.26,10.93a778.05,778.05,0,0,1,109.11,55.69Z"/><path d="M1666.73,591.38l-.8-75.19-71.32-24L1582,418l-74.19-12.57-24-71.3-75.19-.82A785.74,785.74,0,0,1,1666.73,591.38Z"/><path d="M1373.69,1733.42l34.85-66.62a777.94,777.94,0,0,1-109.11,55.67Z"/><path d="M1408.64,1666.75l75.19-.82,24-71.32L1582,1582l12.57-74.19,71.32-24,.8-75.19A785.93,785.93,0,0,1,1408.64,1666.75Z"/><path d="M1666.8,1408.56l66.62-34.86-11-74.27A780.32,780.32,0,0,1,1666.8,1408.56Z"/><path d="M1779.56,1061.36l43.57-61.36-43.57-61.35L1813,871.24l-52.64-53.79,22.48-71.8-60.26-44.79a783.11,783.11,0,0,1,0,598.3l60.26-44.79-22.48-71.82,52.64-53.78Z"/><path d="M700.84,1722.58l44.79,60.26,71.82-22.48L871.24,1813l67.41-33.44,61.35,43.57,61.35-43.57,67.41,33.44,53.79-52.64,71.82,22.48,44.77-60.26a783.11,783.11,0,0,1-598.3,0Z"/><path d="M333.27,1408.64l.8,75.19,71.32,24L418,1582l74.19,12.57,24,71.32,75.19.82A785.93,785.93,0,0,1,333.27,1408.64Z"/><path d="M266.58,1373.7l66.62,34.86a780.32,780.32,0,0,1-55.67-109.13Z"/><path d="M626.31,1733.42l74.26-11a778.17,778.17,0,0,1-109.13-55.67Z"/><path d="M1000,238.69c-419.8,0-761.33,341.51-761.33,761.31S580.2,1761.33,1000,1761.33,1761.33,1419.8,1761.33,1000,1419.8,238.69,1000,238.69Zm0,1502.82c-408.86,0-741.49-332.65-741.49-741.51S591.14,258.52,1000,258.52,1741.49,591.15,1741.49,1000,1408.86,1741.51,1000,1741.51Z"/></svg>