<svg id="Layer_1" data-name="Layer 1" xmlns="http://www.w3.org/2000/svg" viewBox="0 0 2000 2000"><title>lasya</title><path d="M1455.05,1006.33c-6.11-9.81,2.48-20.47,3.83-30.48-1.35-12.79-4.54-25.22-7.46-37.66-11.72-16.91-22.52-34.45-33.32-51.93-7.46-11.65-10.16-26.5-21.31-35.53-38.29-27.7-60.67-70.75-94.63-102.91C1283,727,1260,709.94,1242.34,687.62c-4.09-4.63-9.6-9.29-9.53-16.06,8.81,9.51,23.81,9.14,31.62,18.68-2.56-5.5,7.11-5.83,8.53-9.81-7-5.8-11.23-15.65-11.44-24.14-4.34-16.41-16.06-28.91-23.85-43.52,10.78,0,18.09,8.93,28.32,11.46-10.58-8.05-23.65-13.94-31.9-25,4.83-.67-.29-5.81-.65-8.51-9-11.19-24.29-18.81-25.9-34.62-5-20-10.79-39.93-15.68-60,.92-10.44,1.92-21.05.17-31.48,2.54-17.3-8-33.08-16.26-47.35-5.87-29.31-14-58.3-17-88.08-3.73-22.26-18.32-41.05-36.85-53.35-6.91-3.79-8-13.52-16.74-14.69-2.57-20.42-.08-41.1-1.58-61.59-3.38-23.73-19.92-42.25-31.35-62.33-15.59-23.65-43.4-35.6-71.23-36.78h-3.23c-16.9,7.93-37.39,3.39-53.49,13.58-6.9,4.58-17.37,3.89-22.35,11.1-3.08,7.91-6.09,18.8-16,20.33-10.36-.12-19.8,4.68-30,5.41-4.43.4-11.48,1.33-11.68,7-3.31,8,8.18,12.75,4.86,20.76-2.09,5.49-9.91,3.92-12,9.14-2.09,5.4,4.52,8.34,4.6,13.35-4.58-1.35-10.6-1.62-12.62,3.82,3.85,5.61.26,12.79-5.77,14.9-12.61,7.21-9.12,26.6,3.64,31.75,14.82,14.19,33.16,26.32,41.46,45.93,7.22,19.64,11.26,40.17,15,60.71,2.45,19.38-2.25,40-15.83,54.57-15.5,3.32-31.91,5-46.77-2.33-43.53-16.2-86.7,10.43-130.36,11-19.13-1.46-38.32-2.44-57.4-4.4-1.34-.89-5.68.52-5.15-2.44,20.8-30.84,46.79-57.79,72.93-84.16,12-11.94,29.48-27.82,47.06-16.86,12.6,10.48,28.63,14.75,42.41,23.15.1,5.94-5.82,13.05-.54,18.13,7.39,6.12,7.93-16.17,15.63-8.67,12,5.1-.06,23,11.31,28.22,10.54,4.59,1.69-16.89,11.15-11.53,3.92,4.75,10.91-1.18,13.79,4,1.91,6.27,12.31,10.56,15.55,3.37a270.69,270.69,0,0,1-17.47-51.14c16.38,5,13.35,36,32.56,34.24,1.23-10.75-4.47-22.24-9.21-32.05-6.44-22.18-32.37-30-42.15-50.2-9.91-5.5-21.7-.72-32.43-3.06-28.09,0-59.17-9.61-84.52,6.52-17.76,15.42-36.81,29.42-57.66,40.4C617.09,341.13,576,379.3,535.56,417.15c-2.81,2.48-4.56,5.83-6.25,9.12v5.55c8.2,18.26,22.42,36.72,43.34,40.24q50.36,14.7,101.78,25.42c43.58,8.57,88.25,3.56,132.13,9.12,3.26.84,6.74,3.2,8.21,5.94-5.14,12.33-14.27,22.61-19.75,34.81-10.81,21.69-9.47,49.64,5.63,69,19,25,28.17,55.94,31.88,86.72,5.49,19.94,18.35,36.65,29.37,53.8,25.91,32.36,40.91,71.7,52.23,111.2,1.55,3.55-5.12,2.06-6.65,2.84-56.73,2.28-113.82,2.56-169.64,14.28-47.06,5-90.4,24.37-134.35,40.43C587.7,931.73,574.61,946,572,963.06c-2.71,12.65-9.48,25.22-5.86,38.44,1.8,15.27,11.6,27.49,20,39.71,11.36,13.36,22.73,27.92,39.86,34,18,11.23,33.93,25.51,51.8,37,64.2,48,140.7,78.72,198.25,135.69,12.66,9,21.35,23.38,36.61,28.71,16.86,15.13,41.72,14.14,61.42,22.45,2.48,9.31,4.45,19,9.84,27.14,3.19,8.31,2,17.48,4.47,26,2.26,6.75,7.19,12.36,8.18,19.54,1.81,14.78,10.21,27.28,15.16,41.06,10.35,34.46,5.32,70.77,7.48,106.22-.07,45.18,7.52,90.23,3.53,135.48.17,39.36-13.81,77.23-13.34,116.59-1.62,18.4,2.64,36.8,7.08,54.56,1.94,6.47,6.76,12.72,5.41,19.68-3.9,2.35-8.33,4.34-9.16,9.52-9.54,4.83-21.57,7.75-26.78,17.91-9.76,5.75-3,16.84,2.51,22.52,16.61,4.33,34.37-1.07,50.92,2.63h11c18.89-.29,26.15-21.25,22.5-37,.15-18.26-1.68-39.36,10.28-54.49,19.27-7.89,33.31-26.36,38-46.53-1.79-10.66-9-20.82-19.05-25.58-8.4-10.66-9.45-25.15-7.59-38.37a365.73,365.73,0,0,1,12.72-63.72c8.76-30.77,14.77-62.24,20.4-93.71,10.18-30.55,8.17-63.38,2.82-94.64-2.55-24.44-15-47.1-14.08-72-.17-14.35-6.37-27.64-8-41.7-4.62-39.72,6.21-78.93,6.1-118.58,1.52-31.54-3.18-63-3.26-94.42,1.31-21.74,3.39-45.75,18.4-62.73,10.53-14.92,16.44-32.9,17.79-51,16.3-28.64,17.82-63.88,11.78-95.63-9.3-29.84-24.32-57.55-38.18-85.47-16.24-25.78-32.38-51.7-47.65-78.1-7.09-14.35-18.65-26.8-21.79-42.91-2.46-14.41-6-28.83-6.11-43.49,3.84-11.75,10.77-26.7.64-37.12,4.68-15,13.6-28.85,19.73-43.51,3.6.71,5.52,4.32,8.11,6.61,8.39,9.67,20.39,15.85,26.64,27.37,15.5,24.26,29.42,49.49,44.8,73.84,10.7,18.87,21.37,38,36,54.21,46.39,42.58,99.93,76.42,148,117.06,18.33,16.55,42.84,34.39,40.28,62.38-4.12,27.42,15.63,50,19.32,76.16,2.42,13.14,13.29,27.92,5.26,40.92-1.35,4,.78,11.3,6.47,9.31,8.31-7,15.41-16.2,25.22-21.17-2.35,6.89-4.62,21.38,6.68,20,4.61-5.89,4.19-15.34,9-20.53,6.32,10.3,9.52,23.66,17.83,33.25,2.06,3,7,5,10,2v-4.48C1464.35,1038.37,1460.45,1022.1,1455.05,1006.33Zm-536.47,176.4c-11.43-11.15-23.16-22-33.08-34.52-21.71-25.65-47.21-48.17-65.46-76.66-4.52-8.39-12.25-15.7-17-23.31,9.58,1.64,18.58,5.83,28.12,7.89,33.2,11.79,68.67,15.49,103.69,16.27,3.54.43.64,5.75,1.61,7.89-1.3,31.26,3.73,62.16,8.44,92.92C936.41,1177.33,928.6,1186.64,918.58,1182.73ZM1104.8,452.21C1093.61,436,1081,418.73,1062.11,411c-8.17-3.64-12.57-12.14-19.39-17.56-11.48-12.13-28.29-19.88-36-35.09.44-4.62-1.84-9.84,1-14,11.75-2.5,22.4,7.85,34.23,4.7,7.08-3.67,15.78-5.34,20.4-12.47,14.84-13.13,9.6-38,25.56-50.44,5.47,1,8.66,6.41,14.6,6.24,7,32,6.31,61.08,8.9,92.47.92,20.42-1.68,40.37-3.37,60.71C1108.38,448.07,1107.54,451.45,1104.8,452.21Z"/><path d="M1405.32,972.37c-2.78,12.07,9.37,26.28,5.75,40.14,11.3-2.35,18-20.61,8.67-29.13-4.19-3.91-8.24-9.52-14.42-11Z"/></svg>