<?xml version="1.0" encoding="UTF-8"?>
<svg xmlns="http://www.w3.org/2000/svg" xmlns:xlink="http://www.w3.org/1999/xlink" width="76pt" height="136pt" viewBox="0 0 76 136" version="1.1">
<g id="surface1">
<path style=" stroke:none;fill-rule:nonzero;fill:rgb(11.372549%,11.372549%,10.588235%);fill-opacity:1;" d="M 38.214844 63.277344 L 38.105469 63.257812 "/>
<path style=" stroke:none;fill-rule:nonzero;fill:rgb(11.372549%,11.372549%,10.588235%);fill-opacity:1;" d="M 38.105469 63.257812 L 37.996094 63.277344 "/>
<path style=" stroke:none;fill-rule:nonzero;fill:rgb(11.372549%,11.372549%,10.588235%);fill-opacity:1;" d="M 22.304688 122.871094 L 54.125 122.871094 C 54.125 130.117188 48.222656 135.992188 40.941406 135.992188 L 35.492188 135.992188 C 28.210938 135.992188 22.308594 130.117188 22.308594 122.871094 Z M 22.304688 122.871094 "/>
<path style=" stroke:none;fill-rule:nonzero;fill:rgb(11.372549%,11.372549%,10.588235%);fill-opacity:1;" d="M 50.632812 52.226562 C 50.496094 52.09375 50.3125 52.019531 50.121094 52.019531 L 48.027344 52.019531 C 47.972656 52.019531 47.921875 52.039062 47.886719 52.074219 C 47.847656 52.113281 47.828125 52.164062 47.828125 52.214844 L 47.828125 54.574219 C 47.828125 54.660156 47.859375 54.738281 47.921875 54.800781 C 47.980469 54.859375 48.0625 54.890625 48.148438 54.890625 L 50.117188 54.890625 C 50.3125 54.890625 50.5 54.8125 50.636719 54.675781 L 51.746094 53.570312 L 51.746094 53.335938 Z M 53.722656 48.851562 L 51.351562 48.851562 C 51.175781 48.851562 51.035156 48.992188 51.035156 49.167969 L 51.035156 51.128906 C 51.035156 51.324219 51.113281 51.507812 51.25 51.648438 L 52.359375 52.75 L 52.597656 52.75 L 53.710938 51.640625 C 53.84375 51.507812 53.921875 51.328125 53.925781 51.136719 L 53.925781 49.046875 C 53.925781 48.996094 53.902344 48.945312 53.863281 48.90625 C 53.824219 48.871094 53.773438 48.851562 53.722656 48.851562 Z M 53.738281 55.320312 L 52.625 54.210938 L 52.386719 54.210938 L 52.164062 54.433594 L 51.277344 55.316406 C 51.140625 55.449219 51.0625 55.636719 51.0625 55.828125 L 51.0625 57.796875 C 51.066406 57.96875 51.203125 58.109375 51.378906 58.113281 L 53.753906 58.113281 C 53.863281 58.113281 53.949219 58.023438 53.949219 57.914062 L 53.949219 55.824219 C 53.949219 55.632812 53.875 55.453125 53.734375 55.320312 Z M 56.808594 52.046875 L 54.839844 52.046875 C 54.644531 52.042969 54.457031 52.121094 54.320312 52.257812 L 53.210938 53.363281 L 53.210938 53.605469 L 54.324219 54.703125 C 54.457031 54.84375 54.640625 54.917969 54.835938 54.917969 L 56.929688 54.917969 C 57.039062 54.914062 57.125 54.828125 57.128906 54.71875 L 57.128906 52.363281 C 57.128906 52.277344 57.09375 52.199219 57.035156 52.136719 C 56.976562 52.078125 56.894531 52.042969 56.808594 52.046875 Z M 56.808594 52.046875 L 54.839844 52.046875 C 54.644531 52.042969 54.457031 52.121094 54.320312 52.257812 L 53.210938 53.363281 L 53.210938 53.605469 L 54.324219 54.703125 C 54.457031 54.84375 54.640625 54.917969 54.835938 54.917969 L 56.929688 54.917969 C 57.039062 54.914062 57.125 54.828125 57.128906 54.71875 L 57.128906 52.363281 C 57.128906 52.277344 57.09375 52.199219 57.035156 52.136719 C 56.976562 52.078125 56.894531 52.042969 56.808594 52.046875 Z M 53.738281 55.320312 L 52.625 54.210938 L 52.386719 54.210938 L 52.164062 54.433594 L 51.277344 55.316406 C 51.140625 55.449219 51.0625 55.636719 51.0625 55.828125 L 51.0625 57.796875 C 51.066406 57.96875 51.203125 58.109375 51.378906 58.113281 L 53.753906 58.113281 C 53.863281 58.113281 53.949219 58.023438 53.949219 57.914062 L 53.949219 55.824219 C 53.949219 55.632812 53.875 55.453125 53.734375 55.320312 Z M 53.722656 48.851562 L 51.351562 48.851562 C 51.175781 48.851562 51.035156 48.992188 51.035156 49.167969 L 51.035156 51.128906 C 51.035156 51.324219 51.113281 51.507812 51.25 51.648438 L 52.359375 52.75 L 52.597656 52.75 L 53.710938 51.640625 C 53.84375 51.507812 53.921875 51.328125 53.925781 51.136719 L 53.925781 49.046875 C 53.925781 48.996094 53.902344 48.945312 53.863281 48.90625 C 53.824219 48.871094 53.773438 48.851562 53.722656 48.851562 Z M 50.632812 52.226562 C 50.496094 52.09375 50.3125 52.019531 50.121094 52.019531 L 48.027344 52.019531 C 47.972656 52.019531 47.921875 52.039062 47.886719 52.074219 C 47.847656 52.113281 47.828125 52.164062 47.828125 52.214844 L 47.828125 54.574219 C 47.828125 54.660156 47.863281 54.738281 47.921875 54.800781 C 47.980469 54.859375 48.0625 54.890625 48.148438 54.890625 L 50.117188 54.890625 C 50.3125 54.890625 50.5 54.8125 50.636719 54.675781 L 51.746094 53.570312 L 51.746094 53.335938 Z M 37.707031 45.367188 L 38.214844 45.367188 Z M 50.632812 52.226562 C 50.496094 52.09375 50.3125 52.019531 50.121094 52.019531 L 48.027344 52.019531 C 47.972656 52.019531 47.921875 52.039062 47.886719 52.074219 C 47.847656 52.113281 47.828125 52.164062 47.828125 52.214844 L 47.828125 54.574219 C 47.828125 54.660156 47.859375 54.738281 47.921875 54.800781 C 47.980469 54.859375 48.0625 54.890625 48.148438 54.890625 L 50.117188 54.890625 C 50.3125 54.890625 50.5 54.8125 50.636719 54.675781 L 51.746094 53.570312 L 51.746094 53.335938 Z M 53.722656 48.851562 L 51.351562 48.851562 C 51.175781 48.851562 51.035156 48.992188 51.035156 49.167969 L 51.035156 51.128906 C 51.035156 51.324219 51.113281 51.507812 51.25 51.648438 L 52.359375 52.75 L 52.597656 52.75 L 53.710938 51.640625 C 53.84375 51.507812 53.921875 51.328125 53.925781 51.136719 L 53.925781 49.046875 C 53.925781 48.996094 53.902344 48.945312 53.863281 48.90625 C 53.824219 48.871094 53.773438 48.851562 53.722656 48.851562 Z M 53.738281 55.320312 L 52.625 54.210938 L 52.386719 54.210938 L 52.164062 54.433594 L 51.277344 55.316406 C 51.140625 55.449219 51.0625 55.636719 51.0625 55.828125 L 51.0625 57.796875 C 51.066406 57.96875 51.203125 58.109375 51.378906 58.113281 L 53.753906 58.113281 C 53.863281 58.113281 53.949219 58.023438 53.949219 57.914062 L 53.949219 55.824219 C 53.949219 55.632812 53.875 55.453125 53.734375 55.320312 Z M 56.808594 52.046875 L 54.839844 52.046875 C 54.644531 52.042969 54.457031 52.121094 54.320312 52.257812 L 53.210938 53.363281 L 53.210938 53.605469 L 54.324219 54.703125 C 54.457031 54.84375 54.640625 54.917969 54.835938 54.917969 L 56.929688 54.917969 C 57.039062 54.914062 57.125 54.828125 57.128906 54.71875 L 57.128906 52.363281 C 57.128906 52.277344 57.09375 52.199219 57.035156 52.136719 C 56.976562 52.078125 56.894531 52.042969 56.808594 52.046875 Z M 56.808594 52.046875 L 54.839844 52.046875 C 54.644531 52.042969 54.457031 52.121094 54.320312 52.257812 L 53.210938 53.363281 L 53.210938 53.605469 L 54.324219 54.703125 C 54.457031 54.84375 54.640625 54.917969 54.835938 54.917969 L 56.929688 54.917969 C 57.039062 54.914062 57.125 54.828125 57.128906 54.71875 L 57.128906 52.363281 C 57.128906 52.277344 57.09375 52.199219 57.035156 52.136719 C 56.976562 52.078125 56.894531 52.042969 56.808594 52.046875 Z M 53.738281 55.320312 L 52.625 54.210938 L 52.386719 54.210938 L 52.164062 54.433594 L 51.277344 55.316406 C 51.140625 55.449219 51.0625 55.636719 51.0625 55.828125 L 51.0625 57.796875 C 51.066406 57.96875 51.203125 58.109375 51.378906 58.113281 L 53.753906 58.113281 C 53.863281 58.113281 53.949219 58.023438 53.949219 57.914062 L 53.949219 55.824219 C 53.949219 55.632812 53.875 55.453125 53.734375 55.320312 Z M 53.722656 48.851562 L 51.351562 48.851562 C 51.175781 48.851562 51.035156 48.992188 51.035156 49.167969 L 51.035156 51.128906 C 51.035156 51.324219 51.113281 51.507812 51.25 51.648438 L 52.359375 52.75 L 52.597656 52.75 L 53.710938 51.640625 C 53.84375 51.507812 53.921875 51.328125 53.925781 51.136719 L 53.925781 49.046875 C 53.925781 48.996094 53.902344 48.945312 53.863281 48.90625 C 53.824219 48.871094 53.773438 48.851562 53.722656 48.851562 Z M 50.632812 52.226562 C 50.496094 52.09375 50.3125 52.019531 50.121094 52.019531 L 48.027344 52.019531 C 47.972656 52.019531 47.921875 52.039062 47.886719 52.074219 C 47.847656 52.113281 47.828125 52.164062 47.828125 52.214844 L 47.828125 54.574219 C 47.828125 54.660156 47.863281 54.738281 47.921875 54.800781 C 47.980469 54.859375 48.0625 54.890625 48.148438 54.890625 L 50.117188 54.890625 C 50.3125 54.890625 50.5 54.8125 50.636719 54.675781 L 51.746094 53.570312 L 51.746094 53.335938 Z M 37.707031 45.367188 L 38.214844 45.367188 Z M 56.808594 52.046875 L 54.839844 52.046875 C 54.644531 52.042969 54.457031 52.121094 54.316406 52.257812 L 53.210938 53.363281 L 53.210938 53.605469 L 54.324219 54.703125 C 54.457031 54.84375 54.640625 54.917969 54.835938 54.917969 L 56.929688 54.917969 C 57.039062 54.914062 57.125 54.828125 57.128906 54.71875 L 57.128906 52.363281 C 57.128906 52.277344 57.09375 52.199219 57.035156 52.136719 C 56.976562 52.078125 56.894531 52.042969 56.808594 52.046875 Z M 53.734375 55.320312 L 52.621094 54.210938 L 52.382812 54.210938 L 51.277344 55.316406 C 51.136719 55.449219 51.0625 55.636719 51.0625 55.828125 L 51.0625 57.796875 C 51.0625 57.96875 51.203125 58.109375 51.378906 58.113281 L 53.75 58.113281 C 53.859375 58.113281 53.949219 58.023438 53.949219 57.914062 L 53.949219 55.824219 C 53.949219 55.632812 53.871094 55.453125 53.734375 55.320312 Z M 53.71875 48.851562 L 51.351562 48.851562 C 51.175781 48.851562 51.035156 48.992188 51.03125 49.167969 L 51.03125 51.128906 C 51.035156 51.324219 51.113281 51.507812 51.25 51.648438 L 52.359375 52.75 L 52.597656 52.75 L 53.710938 51.640625 C 53.84375 51.507812 53.921875 51.328125 53.921875 51.136719 L 53.921875 49.046875 C 53.921875 48.996094 53.902344 48.945312 53.863281 48.90625 C 53.824219 48.871094 53.773438 48.851562 53.722656 48.851562 Z M 50.632812 52.226562 C 50.496094 52.09375 50.3125 52.019531 50.121094 52.019531 L 48.027344 52.019531 C 47.972656 52.019531 47.921875 52.039062 47.886719 52.074219 C 47.847656 52.113281 47.828125 52.164062 47.828125 52.214844 L 47.828125 54.574219 C 47.828125 54.660156 47.859375 54.738281 47.921875 54.800781 C 47.980469 54.859375 48.0625 54.890625 48.148438 54.890625 L 50.117188 54.890625 C 50.3125 54.890625 50.5 54.8125 50.636719 54.675781 L 51.746094 53.570312 L 51.746094 53.335938 Z M 50.632812 52.226562 C 50.496094 52.09375 50.3125 52.019531 50.121094 52.019531 L 48.027344 52.019531 C 47.972656 52.019531 47.921875 52.039062 47.886719 52.074219 C 47.847656 52.113281 47.828125 52.164062 47.828125 52.214844 L 47.828125 54.574219 C 47.828125 54.660156 47.859375 54.738281 47.921875 54.800781 C 47.980469 54.859375 48.0625 54.890625 48.148438 54.890625 L 50.117188 54.890625 C 50.3125 54.890625 50.5 54.8125 50.636719 54.675781 L 51.746094 53.570312 L 51.746094 53.335938 Z M 53.722656 48.851562 L 51.351562 48.851562 C 51.175781 48.851562 51.035156 48.992188 51.035156 49.167969 L 51.035156 51.128906 C 51.035156 51.324219 51.113281 51.507812 51.25 51.648438 L 52.359375 52.75 L 52.597656 52.75 L 53.710938 51.640625 C 53.84375 51.507812 53.921875 51.328125 53.925781 51.136719 L 53.925781 49.046875 C 53.925781 48.996094 53.902344 48.945312 53.863281 48.90625 C 53.824219 48.871094 53.773438 48.851562 53.722656 48.851562 Z M 53.738281 55.320312 L 52.625 54.210938 L 52.386719 54.210938 L 52.164062 54.433594 L 51.277344 55.316406 C 51.140625 55.449219 51.0625 55.636719 51.0625 55.828125 L 51.0625 57.796875 C 51.066406 57.96875 51.203125 58.109375 51.378906 58.113281 L 53.753906 58.113281 C 53.863281 58.113281 53.949219 58.023438 53.949219 57.914062 L 53.949219 55.824219 C 53.949219 55.632812 53.875 55.453125 53.734375 55.320312 Z M 56.808594 52.046875 L 54.839844 52.046875 C 54.644531 52.042969 54.457031 52.121094 54.320312 52.257812 L 53.210938 53.363281 L 53.210938 53.605469 L 54.324219 54.703125 C 54.457031 54.84375 54.640625 54.917969 54.835938 54.917969 L 56.929688 54.917969 C 57.039062 54.914062 57.125 54.828125 57.128906 54.71875 L 57.128906 52.363281 C 57.128906 52.277344 57.09375 52.199219 57.035156 52.136719 C 56.976562 52.078125 56.894531 52.042969 56.808594 52.046875 Z M 56.808594 52.046875 L 54.839844 52.046875 C 54.644531 52.042969 54.457031 52.121094 54.320312 52.257812 L 53.210938 53.363281 L 53.210938 53.605469 L 54.324219 54.703125 C 54.457031 54.84375 54.640625 54.917969 54.835938 54.917969 L 56.929688 54.917969 C 57.039062 54.914062 57.125 54.828125 57.128906 54.71875 L 57.128906 52.363281 C 57.128906 52.277344 57.09375 52.199219 57.035156 52.136719 C 56.976562 52.078125 56.894531 52.042969 56.808594 52.046875 Z M 53.738281 55.320312 L 52.625 54.210938 L 52.386719 54.210938 L 52.164062 54.433594 L 51.277344 55.316406 C 51.140625 55.449219 51.0625 55.636719 51.0625 55.828125 L 51.0625 57.796875 C 51.066406 57.96875 51.203125 58.109375 51.378906 58.113281 L 53.753906 58.113281 C 53.863281 58.113281 53.949219 58.023438 53.949219 57.914062 L 53.949219 55.824219 C 53.949219 55.632812 53.875 55.453125 53.734375 55.320312 Z M 53.722656 48.851562 L 51.351562 48.851562 C 51.175781 48.851562 51.035156 48.992188 51.035156 49.167969 L 51.035156 51.128906 C 51.035156 51.324219 51.113281 51.507812 51.25 51.648438 L 52.359375 52.75 L 52.597656 52.75 L 53.710938 51.640625 C 53.84375 51.507812 53.921875 51.328125 53.925781 51.136719 L 53.925781 49.046875 C 53.925781 48.996094 53.902344 48.945312 53.863281 48.90625 C 53.824219 48.871094 53.773438 48.851562 53.722656 48.851562 Z M 50.632812 52.226562 C 50.496094 52.09375 50.3125 52.019531 50.121094 52.019531 L 48.027344 52.019531 C 47.972656 52.019531 47.921875 52.039062 47.886719 52.074219 C 47.847656 52.113281 47.828125 52.164062 47.828125 52.214844 L 47.828125 54.574219 C 47.828125 54.660156 47.863281 54.738281 47.921875 54.800781 C 47.980469 54.859375 48.0625 54.890625 48.148438 54.890625 L 50.117188 54.890625 C 50.3125 54.890625 50.5 54.8125 50.636719 54.675781 L 51.746094 53.570312 L 51.746094 53.335938 Z M 50.632812 52.226562 "/>
<path style=" stroke:none;fill-rule:nonzero;fill:rgb(11.372549%,11.372549%,10.588235%);fill-opacity:1;" d="M 39.882812 20.933594 L 38.714844 20.933594 C 38.761719 21.925781 38.570312 22.746094 38.210938 23.4375 C 37.285156 25.238281 35.257812 26.152344 33.539062 26.933594 C 31.6875 27.761719 30.09375 28.484375 30.09375 29.957031 C 30.09375 32.410156 33.03125 32.757812 37.507812 33.015625 C 37.738281 33.03125 37.976562 33.039062 38.210938 33.054688 C 42.050781 33.28125 46.105469 33.714844 46.105469 37.28125 C 46.105469 40.40625 43.976562 41.097656 42.097656 41.707031 C 40.269531 42.300781 38.691406 42.808594 38.714844 45.363281 L 38.210938 45.367188 L 45.210938 45.367188 C 45.210938 45.367188 45.742188 40.300781 53.53125 40.300781 C 61.324219 40.300781 62.570312 44.617188 64.957031 58.96875 C 67.347656 73.316406 64.355469 73.414062 62.476562 73.417969 C 57.121094 73.421875 48.753906 62.15625 43.878906 61.875 C 39 61.59375 38.207031 61.597656 38.207031 61.597656 C 38.207031 61.597656 37.410156 61.597656 32.53125 61.875 C 27.65625 62.152344 19.308594 73.421875 13.945312 73.417969 C 12.070312 73.417969 9.078125 73.324219 11.464844 58.96875 C 13.855469 44.613281 15.09375 40.300781 22.890625 40.300781 C 30.6875 40.300781 31.214844 45.367188 31.214844 45.367188 L 37.707031 45.367188 C 37.699219 44.386719 37.886719 43.625 38.214844 43.035156 C 38.964844 41.660156 40.441406 41.1875 41.789062 40.75 C 43.640625 40.148438 45.101562 39.675781 45.101562 37.28125 C 45.101562 34.792969 42.402344 34.332031 38.214844 34.0625 L 37.449219 34.015625 C 33.339844 33.785156 29.085938 33.542969 29.085938 29.957031 C 29.085938 27.835938 31.144531 26.90625 33.132812 26.011719 C 35.453125 24.960938 37.855469 23.878906 37.714844 20.957031 L 38.21875 20.933594 L 36.199219 20.933594 C 16.289062 20.933594 0 37.144531 0 56.960938 L 0 99.839844 C 0 111.347656 9.457031 120.761719 21.011719 120.761719 L 54.984375 120.761719 C 66.542969 120.761719 76 111.347656 76 99.839844 L 76 56.875 C 76 37.105469 59.742188 20.933594 39.882812 20.933594 Z M 13.808594 88.863281 C 12.023438 88.863281 10.578125 87.421875 10.578125 85.648438 C 10.578125 83.875 12.023438 82.433594 13.804688 82.433594 C 15.589844 82.429688 17.035156 83.867188 17.039062 85.640625 C 17.039062 86.496094 16.703125 87.316406 16.09375 87.917969 C 15.488281 88.523438 14.667969 88.863281 13.808594 88.863281 Z M 22.304688 88.863281 C 20.519531 88.863281 19.074219 87.425781 19.070312 85.648438 C 19.070312 83.875 20.515625 82.433594 22.296875 82.433594 C 24.082031 82.429688 25.53125 83.867188 25.53125 85.640625 C 25.535156 86.496094 25.195312 87.3125 24.589844 87.917969 C 23.984375 88.523438 23.160156 88.863281 22.304688 88.863281 Z M 31.121094 88.863281 C 29.335938 88.863281 27.890625 87.425781 27.890625 85.648438 C 27.890625 83.875 29.332031 82.433594 31.117188 82.433594 C 32.902344 82.429688 34.347656 83.867188 34.351562 85.640625 C 34.351562 86.496094 34.011719 87.3125 33.40625 87.917969 C 32.800781 88.523438 31.980469 88.863281 31.121094 88.863281 Z M 31.121094 88.863281 "/>
<path style=" stroke:none;fill-rule:nonzero;fill:rgb(11.372549%,11.372549%,10.588235%);fill-opacity:1;" d="M 38.214844 45.367188 L 37.710938 45.375 L 37.710938 45.367188 Z M 38.214844 45.367188 "/>
<path style=" stroke:none;fill-rule:nonzero;fill:rgb(11.372549%,11.372549%,10.588235%);fill-opacity:1;" d="M 51.746094 53.570312 L 50.636719 54.675781 C 50.496094 54.8125 50.308594 54.890625 50.113281 54.890625 L 48.152344 54.890625 C 48.066406 54.890625 47.984375 54.859375 47.925781 54.800781 C 47.863281 54.738281 47.832031 54.660156 47.832031 54.574219 L 47.832031 52.214844 C 47.832031 52.164062 47.851562 52.113281 47.886719 52.074219 C 47.925781 52.039062 47.976562 52.019531 48.027344 52.019531 L 50.125 52.019531 C 50.316406 52.019531 50.5 52.09375 50.636719 52.226562 L 51.75 53.335938 Z M 51.746094 53.570312 "/>
<path style=" stroke:none;fill-rule:nonzero;fill:rgb(11.372549%,11.372549%,10.588235%);fill-opacity:1;" d="M 51.25 51.648438 C 51.113281 51.507812 51.035156 51.324219 51.03125 51.128906 L 51.03125 49.167969 C 51.035156 48.992188 51.175781 48.851562 51.351562 48.851562 L 53.722656 48.851562 C 53.773438 48.851562 53.824219 48.871094 53.863281 48.90625 C 53.902344 48.945312 53.925781 48.996094 53.925781 49.046875 L 53.925781 51.136719 C 53.921875 51.328125 53.84375 51.507812 53.710938 51.640625 L 52.597656 52.75 L 52.359375 52.75 Z M 51.25 51.648438 "/>
<path style=" stroke:none;fill-rule:nonzero;fill:rgb(11.372549%,11.372549%,10.588235%);fill-opacity:1;" d="M 53.734375 55.320312 C 53.871094 55.453125 53.949219 55.632812 53.949219 55.824219 L 53.949219 57.910156 C 53.949219 58.019531 53.859375 58.109375 53.75 58.113281 L 51.378906 58.113281 C 51.203125 58.109375 51.0625 57.96875 51.0625 57.792969 L 51.0625 55.828125 C 51.0625 55.632812 51.136719 55.449219 51.277344 55.3125 L 52.382812 54.207031 L 52.621094 54.207031 Z M 53.734375 55.320312 "/>
<path style=" stroke:none;fill-rule:nonzero;fill:rgb(11.372549%,11.372549%,10.588235%);fill-opacity:1;" d="M 57.128906 52.363281 L 57.128906 54.71875 C 57.125 54.828125 57.039062 54.914062 56.929688 54.917969 L 54.835938 54.917969 C 54.640625 54.917969 54.457031 54.84375 54.324219 54.703125 L 53.210938 53.601562 L 53.210938 53.363281 L 54.316406 52.261719 C 54.457031 52.125 54.644531 52.046875 54.839844 52.050781 L 56.808594 52.050781 C 56.984375 52.046875 57.125 52.1875 57.128906 52.363281 Z M 57.128906 52.363281 "/>
<path style=" stroke:none;fill-rule:nonzero;fill:rgb(11.372549%,11.372549%,10.588235%);fill-opacity:1;" d="M 28.597656 53.480469 C 28.597656 54.011719 28.164062 54.441406 27.628906 54.441406 L 23.945312 54.441406 L 23.945312 58.109375 C 23.945312 58.644531 23.511719 59.074219 22.976562 59.074219 C 22.441406 59.074219 22.007812 58.644531 22.007812 58.109375 L 22.007812 54.441406 L 18.324219 54.441406 C 17.792969 54.441406 17.359375 54.011719 17.359375 53.480469 C 17.359375 52.949219 17.792969 52.519531 18.324219 52.519531 L 22.003906 52.519531 L 22.003906 48.851562 C 22.003906 48.320312 22.4375 47.886719 22.972656 47.886719 C 23.507812 47.886719 23.941406 48.320312 23.941406 48.851562 L 23.941406 52.519531 L 27.625 52.519531 C 27.882812 52.515625 28.128906 52.617188 28.3125 52.796875 C 28.496094 52.980469 28.597656 53.226562 28.597656 53.480469 Z M 28.597656 53.480469 "/>
<path style=" stroke:none;fill-rule:nonzero;fill:rgb(11.372549%,11.372549%,10.588235%);fill-opacity:1;" d="M 57.128906 52.363281 L 57.128906 54.71875 C 57.125 54.828125 57.039062 54.914062 56.929688 54.917969 L 54.835938 54.917969 C 54.640625 54.917969 54.457031 54.84375 54.324219 54.703125 L 53.210938 53.601562 L 53.210938 53.363281 L 54.316406 52.261719 C 54.457031 52.125 54.644531 52.046875 54.839844 52.050781 L 56.808594 52.050781 C 56.984375 52.046875 57.125 52.1875 57.128906 52.363281 Z M 57.128906 52.363281 "/>
<path style=" stroke:none;fill-rule:nonzero;fill:rgb(11.372549%,11.372549%,10.588235%);fill-opacity:1;" d="M 51.746094 53.335938 L 51.746094 53.570312 L 50.636719 54.675781 C 50.496094 54.8125 50.308594 54.890625 50.113281 54.890625 L 48.152344 54.890625 C 48.066406 54.890625 47.984375 54.859375 47.925781 54.800781 C 47.863281 54.738281 47.832031 54.660156 47.832031 54.574219 L 47.832031 52.214844 C 47.832031 52.164062 47.851562 52.113281 47.886719 52.074219 C 47.925781 52.039062 47.976562 52.019531 48.027344 52.019531 L 50.125 52.019531 C 50.316406 52.019531 50.5 52.09375 50.636719 52.226562 Z M 51.746094 53.335938 "/>
<path style=" stroke:none;fill-rule:nonzero;fill:rgb(11.372549%,11.372549%,10.588235%);fill-opacity:1;" d="M 53.921875 49.046875 L 53.921875 51.136719 C 53.921875 51.328125 53.84375 51.507812 53.710938 51.640625 L 52.597656 52.75 L 52.359375 52.75 L 51.25 51.648438 C 51.113281 51.507812 51.035156 51.324219 51.03125 51.128906 L 51.03125 49.167969 C 51.035156 48.992188 51.175781 48.851562 51.351562 48.851562 L 53.722656 48.851562 C 53.773438 48.851562 53.824219 48.871094 53.863281 48.90625 C 53.902344 48.945312 53.921875 48.996094 53.921875 49.046875 Z M 53.921875 49.046875 "/>
<path style=" stroke:none;fill-rule:nonzero;fill:rgb(11.372549%,11.372549%,10.588235%);fill-opacity:1;" d="M 53.949219 55.824219 L 53.949219 57.910156 C 53.949219 58.019531 53.859375 58.109375 53.75 58.113281 L 51.378906 58.113281 C 51.203125 58.109375 51.0625 57.96875 51.0625 57.792969 L 51.0625 55.828125 C 51.0625 55.632812 51.136719 55.449219 51.277344 55.3125 L 52.382812 54.207031 L 52.621094 54.207031 L 53.734375 55.316406 C 53.875 55.449219 53.949219 55.632812 53.949219 55.824219 Z M 53.949219 55.824219 "/>
<path style=" stroke:none;fill-rule:nonzero;fill:rgb(11.372549%,11.372549%,10.588235%);fill-opacity:1;" d="M 38.722656 20.90625 L 38.722656 20.933594 L 38.214844 20.933594 Z M 38.722656 20.90625 "/>
<path style=" stroke:none;fill-rule:nonzero;fill:rgb(11.372549%,11.372549%,10.588235%);fill-opacity:1;" d="M 43.675781 5.445312 C 43.675781 8.25 41.527344 10.589844 38.722656 10.851562 L 38.722656 20.90625 L 38.214844 20.933594 L 37.707031 20.933594 L 37.707031 10.851562 C 34.773438 10.574219 32.585938 8.03125 32.769531 5.101562 C 32.957031 2.171875 35.445312 -0.0820312 38.390625 0.0117188 C 41.339844 0.101562 43.679688 2.507812 43.675781 5.445312 Z M 43.675781 5.445312 "/>
</g>
</svg>
