<svg id="Layer_1" data-name="Layer 1" xmlns="http://www.w3.org/2000/svg" viewBox="0 0 2000 2000"><defs><style>.cls-1{fill:#1d1d1b;}</style></defs><title>lots</title><g id="surface1"><path class="cls-1" d="M1002.78,938.82l-1.41-.25"/><path class="cls-1" d="M1001.37,938.57l-1.42.25"/><path class="cls-1" d="M796.71,1710.71h412.15c0,93.86-76.45,170-170.76,170H967.52c-94.31,0-170.76-76.1-170.76-170Z"/><path class="cls-1" d="M1163.63,795.69A9.52,9.52,0,0,0,1157,793h-27.12a2.51,2.51,0,0,0-2.58,2.53v30.56a4,4,0,0,0,1.21,2.94,4.14,4.14,0,0,0,2.94,1.16H1157a9.54,9.54,0,0,0,6.73-2.78l14.37-14.32v-3Zm40-43.72h-30.71a4.08,4.08,0,0,0-4.1,4.1v25.4a9.63,9.63,0,0,0,2.78,6.73L1186,802.47h3.09l14.42-14.37a9.5,9.5,0,0,0,2.78-6.53V754.5a2.61,2.61,0,0,0-.81-1.82A2.72,2.72,0,0,0,1203.65,752Zm.2,83.79-14.42-14.37h-3.09l-2.88,2.88L1172,835.71a9.27,9.27,0,0,0-2.79,6.63v25.5a4.18,4.18,0,0,0,4.1,4.09h30.76a2.54,2.54,0,0,0,2.53-2.58V842.29a8.88,8.88,0,0,0-2.78-6.53Zm39.77-42.4h-25.5a9.28,9.28,0,0,0-6.73,2.73L1197,810.41v3.14l14.42,14.21a9,9,0,0,0,6.63,2.79h27.12a2.67,2.67,0,0,0,2.58-2.58V797.46a4.27,4.27,0,0,0-1.22-2.94A3.9,3.9,0,0,0,1243.62,793.36Zm0,0h-25.5a9.28,9.28,0,0,0-6.73,2.73L1197,810.41v3.14l14.42,14.21a9,9,0,0,0,6.63,2.79h27.12a2.67,2.67,0,0,0,2.58-2.58V797.46a4.27,4.27,0,0,0-1.22-2.94A3.9,3.9,0,0,0,1243.62,793.36Zm-39.77,42.4-14.42-14.37h-3.09l-2.88,2.88L1172,835.71a9.27,9.27,0,0,0-2.79,6.63v25.5a4.18,4.18,0,0,0,4.1,4.09h30.76a2.54,2.54,0,0,0,2.53-2.58V842.29a8.88,8.88,0,0,0-2.78-6.53Zm-.2-83.79h-30.71a4.08,4.08,0,0,0-4.1,4.1v25.4a9.63,9.63,0,0,0,2.78,6.73L1186,802.47h3.09l14.42-14.37a9.5,9.5,0,0,0,2.78-6.53V754.5a2.61,2.61,0,0,0-.81-1.82A2.72,2.72,0,0,0,1203.65,752Zm-40,43.72A9.52,9.52,0,0,0,1157,793h-27.12a2.51,2.51,0,0,0-2.58,2.53v30.56a4.26,4.26,0,0,0,1.21,2.94,4.14,4.14,0,0,0,2.94,1.16H1157a9.54,9.54,0,0,0,6.73-2.78l14.37-14.32v-3ZM996.21,706.84h0Zm167.42,88.85A9.52,9.52,0,0,0,1157,793h-27.12a2.51,2.51,0,0,0-2.58,2.53v30.56a4,4,0,0,0,1.21,2.94,4.14,4.14,0,0,0,2.94,1.16H1157a9.54,9.54,0,0,0,6.73-2.78l14.37-14.32v-3Zm40-43.72h-30.71a4.08,4.08,0,0,0-4.1,4.1v25.4a9.63,9.63,0,0,0,2.78,6.73L1186,802.47h3.09l14.42-14.37a9.5,9.5,0,0,0,2.78-6.53V754.5a2.61,2.61,0,0,0-.81-1.82A2.72,2.72,0,0,0,1203.65,752Zm.2,83.79-14.42-14.37h-3.09l-2.88,2.88L1172,835.71a9.27,9.27,0,0,0-2.79,6.63v25.5a4.18,4.18,0,0,0,4.1,4.09h30.76a2.54,2.54,0,0,0,2.53-2.58V842.29a8.88,8.88,0,0,0-2.78-6.53Zm39.77-42.4h-25.5a9.28,9.28,0,0,0-6.73,2.73L1197,810.41v3.14l14.42,14.21a9,9,0,0,0,6.63,2.79h27.12a2.67,2.67,0,0,0,2.58-2.58V797.46a4.27,4.27,0,0,0-1.22-2.94A3.9,3.9,0,0,0,1243.62,793.36Zm0,0h-25.5a9.28,9.28,0,0,0-6.73,2.73L1197,810.41v3.14l14.42,14.21a9,9,0,0,0,6.63,2.79h27.12a2.67,2.67,0,0,0,2.58-2.58V797.46a4.27,4.27,0,0,0-1.22-2.94A3.9,3.9,0,0,0,1243.62,793.36Zm-39.77,42.4-14.42-14.37h-3.09l-2.88,2.88L1172,835.71a9.27,9.27,0,0,0-2.79,6.63v25.5a4.18,4.18,0,0,0,4.1,4.09h30.76a2.54,2.54,0,0,0,2.53-2.58V842.29a8.88,8.88,0,0,0-2.78-6.53Zm-.2-83.79h-30.71a4.08,4.08,0,0,0-4.1,4.1v25.4a9.63,9.63,0,0,0,2.78,6.73L1186,802.47h3.09l14.42-14.37a9.5,9.5,0,0,0,2.78-6.53V754.5a2.61,2.61,0,0,0-.81-1.82A2.72,2.72,0,0,0,1203.65,752Zm-40,43.72A9.52,9.52,0,0,0,1157,793h-27.12a2.51,2.51,0,0,0-2.58,2.53v30.56a4.26,4.26,0,0,0,1.21,2.94,4.14,4.14,0,0,0,2.94,1.16H1157a9.54,9.54,0,0,0,6.73-2.78l14.37-14.32v-3ZM996.21,706.84h0Zm247.41,86.52h-25.5a9.48,9.48,0,0,0-6.78,2.73L1197,810.41v3.14l14.42,14.21a9,9,0,0,0,6.63,2.79h27.12a2.67,2.67,0,0,0,2.58-2.58V797.46a4.27,4.27,0,0,0-1.22-2.94A3.9,3.9,0,0,0,1243.62,793.36Zm-39.82,42.4-14.42-14.37h-3.09L1172,835.71a9.08,9.08,0,0,0-2.79,6.63v25.5a4.14,4.14,0,0,0,4.1,4.09H1204a2.59,2.59,0,0,0,2.58-2.58V842.29A9.08,9.08,0,0,0,1203.8,835.76Zm-.2-83.79h-30.66a4.16,4.16,0,0,0-4.15,4.1v25.4a9.9,9.9,0,0,0,2.83,6.73L1186,802.47h3.09l14.42-14.37a9.23,9.23,0,0,0,2.73-6.53V754.5a2.55,2.55,0,0,0-.76-1.82,2.72,2.72,0,0,0-1.82-.71Zm-40,43.72A9.52,9.52,0,0,0,1157,793h-27.12a2.51,2.51,0,0,0-2.58,2.53v30.56a4,4,0,0,0,1.21,2.94,4.14,4.14,0,0,0,2.94,1.16H1157a9.54,9.54,0,0,0,6.73-2.78l14.37-14.32v-3Zm0,0A9.52,9.52,0,0,0,1157,793h-27.12a2.51,2.51,0,0,0-2.58,2.53v30.56a4,4,0,0,0,1.21,2.94,4.14,4.14,0,0,0,2.94,1.16H1157a9.54,9.54,0,0,0,6.73-2.78l14.37-14.32v-3Zm40-43.72h-30.71a4.08,4.08,0,0,0-4.1,4.1v25.4a9.63,9.63,0,0,0,2.78,6.73L1186,802.47h3.09l14.42-14.37a9.5,9.5,0,0,0,2.78-6.53V754.5a2.61,2.61,0,0,0-.81-1.82A2.72,2.72,0,0,0,1203.65,752Zm.2,83.79-14.42-14.37h-3.09l-2.88,2.88L1172,835.71a9.27,9.27,0,0,0-2.79,6.63v25.5a4.18,4.18,0,0,0,4.1,4.09h30.76a2.54,2.54,0,0,0,2.53-2.58V842.29a8.88,8.88,0,0,0-2.78-6.53Zm39.77-42.4h-25.5a9.28,9.28,0,0,0-6.73,2.73L1197,810.41v3.14l14.42,14.21a9,9,0,0,0,6.63,2.79h27.12a2.67,2.67,0,0,0,2.58-2.58V797.46a4.27,4.27,0,0,0-1.22-2.94A3.9,3.9,0,0,0,1243.62,793.36Zm0,0h-25.5a9.28,9.28,0,0,0-6.73,2.73L1197,810.41v3.14l14.42,14.21a9,9,0,0,0,6.63,2.79h27.12a2.67,2.67,0,0,0,2.58-2.58V797.46a4.27,4.27,0,0,0-1.22-2.94A3.9,3.9,0,0,0,1243.62,793.36Zm-39.77,42.4-14.42-14.37h-3.09l-2.88,2.88L1172,835.71a9.27,9.27,0,0,0-2.79,6.63v25.5a4.18,4.18,0,0,0,4.1,4.09h30.76a2.54,2.54,0,0,0,2.53-2.58V842.29a8.88,8.88,0,0,0-2.78-6.53Zm-.2-83.79h-30.71a4.08,4.08,0,0,0-4.1,4.1v25.4a9.63,9.63,0,0,0,2.78,6.73L1186,802.47h3.09l14.42-14.37a9.5,9.5,0,0,0,2.78-6.53V754.5a2.61,2.61,0,0,0-.81-1.82A2.72,2.72,0,0,0,1203.65,752Zm-40,43.72A9.52,9.52,0,0,0,1157,793h-27.12a2.51,2.51,0,0,0-2.58,2.53v30.56a4.26,4.26,0,0,0,1.21,2.94,4.14,4.14,0,0,0,2.94,1.16H1157a9.54,9.54,0,0,0,6.73-2.78l14.37-14.32v-3Z"/><path class="cls-1" d="M1024.39,390.36h-15.13c.61,12.85-1.87,23.48-6.53,32.43-12,23.33-38.25,35.17-60.51,45.29-24,10.72-44.63,20.08-44.63,39.16,0,31.77,38,36.28,96,39.62,3,.2,6.08.3,9.11.5,49.74,2.94,102.26,8.55,102.26,54.75,0,40.47-27.58,49.43-51.91,57.32-23.68,7.69-44.12,14.27-43.82,47.36l-6.53.05h90.67s6.88-65.62,107.77-65.62,117.08,55.91,148,241.8-7.79,187.1-32.13,187.15c-69.36,0-177.74-145.87-240.88-149.51s-73.47-3.59-73.47-3.59-10.32,0-73.51,3.59S757.9,1070.22,688.43,1070.17c-24.29,0-63-1.21-32.13-187.15s47-241.8,148-241.8,107.82,65.62,107.82,65.62h84.1c-.11-12.7,2.32-22.57,6.57-30.21,9.72-17.81,28.84-23.93,46.3-29.59,24-7.8,42.9-13.92,42.9-44.93,0-32.23-35-38.2-89.2-41.69l-9.91-.61c-53.23-3-108.33-6.12-108.33-52.57,0-27.47,26.66-39.52,52.42-51.1,30-13.61,61.17-27.63,59.35-65.47l6.52-.31H976.68c-257.89,0-468.88,210-468.88,466.65V1412.4c0,149.06,122.5,271,272.16,271h440c149.71,0,272.21-121.93,272.21-271V855.9C1492.2,599.83,1281.62,390.36,1024.39,390.36ZM686.66,1270.23a41.81,41.81,0,1,1,29.6-12.25A41.75,41.75,0,0,1,686.66,1270.23Zm110.05,0A41.74,41.74,0,1,1,826.3,1258,41.79,41.79,0,0,1,796.71,1270.23Zm114.19,0A41.81,41.81,0,1,1,940.5,1258,41.72,41.72,0,0,1,910.9,1270.23Z"/><path class="cls-1" d="M1002.78,706.84l-6.52.1v-.1Z"/><path class="cls-1" d="M1178.05,813.09l-14.37,14.32a9.74,9.74,0,0,1-6.78,2.78h-25.4a4.14,4.14,0,0,1-2.94-1.16,4,4,0,0,1-1.21-2.94V795.53a2.43,2.43,0,0,1,2.53-2.53h27.17a9.52,9.52,0,0,1,6.63,2.69l14.42,14.37Z"/><path class="cls-1" d="M1171.62,788.2a9.9,9.9,0,0,1-2.83-6.73v-25.4a4.16,4.16,0,0,1,4.15-4.1h30.71a2.72,2.72,0,0,1,1.82.71,2.61,2.61,0,0,1,.81,1.82v27.07a9.5,9.5,0,0,1-2.78,6.53l-14.42,14.37H1186Z"/><path class="cls-1" d="M1203.8,835.76a9.08,9.08,0,0,1,2.78,6.53v27a2.66,2.66,0,0,1-2.58,2.63h-30.71a4.15,4.15,0,0,1-4.1-4.14V842.34a9.19,9.19,0,0,1,2.79-6.68l14.31-14.32h3.09Z"/><path class="cls-1" d="M1247.77,797.46V828a2.67,2.67,0,0,1-2.58,2.58h-27.12a9,9,0,0,1-6.63-2.79L1197,813.5v-3.09l14.32-14.27a9.48,9.48,0,0,1,6.78-2.73h25.5A4.08,4.08,0,0,1,1247.77,797.46Z"/><path class="cls-1" d="M878.22,811.93a12.49,12.49,0,0,1-12.55,12.44H818v47.51a12.55,12.55,0,0,1-25.1,0V824.37H745.15a12.45,12.45,0,1,1,0-24.89h47.66V752a12.55,12.55,0,0,1,25.1,0v47.51h47.71a12.45,12.45,0,0,1,12.6,12.45Z"/><path class="cls-1" d="M1247.77,797.46V828a2.67,2.67,0,0,1-2.58,2.58h-27.12a9,9,0,0,1-6.63-2.79L1197,813.5v-3.09l14.32-14.27a9.48,9.48,0,0,1,6.78-2.73h25.5A4.08,4.08,0,0,1,1247.77,797.46Z"/><path class="cls-1" d="M1178.05,810.06v3l-14.37,14.32a9.74,9.74,0,0,1-6.78,2.78h-25.4a4.14,4.14,0,0,1-2.94-1.16,4,4,0,0,1-1.21-2.94V795.53a2.43,2.43,0,0,1,2.53-2.53h27.17a9.52,9.52,0,0,1,6.63,2.69Z"/><path class="cls-1" d="M1206.23,754.5v27.07a9.23,9.23,0,0,1-2.73,6.53l-14.42,14.37H1186l-14.37-14.27a9.9,9.9,0,0,1-2.83-6.73v-25.4a4.16,4.16,0,0,1,4.15-4.1h30.71a2.72,2.72,0,0,1,1.82.71A2.55,2.55,0,0,1,1206.23,754.5Z"/><path class="cls-1" d="M1206.58,842.29v27a2.66,2.66,0,0,1-2.58,2.63h-30.71a4.15,4.15,0,0,1-4.1-4.14V842.34a9.19,9.19,0,0,1,2.79-6.68l14.31-14.32h3.09l14.42,14.37A9,9,0,0,1,1206.58,842.29Z"/><path class="cls-1" d="M1009.36,390v.35h-6.58Z"/><path class="cls-1" d="M1073.52,189.75a70.5,70.5,0,0,1-64.16,70V390l-6.58.35h-6.57V259.77a70.38,70.38,0,1,1,77.31-70Z"/></g></svg>