<svg id="Layer_1" data-name="Layer 1" xmlns="http://www.w3.org/2000/svg" viewBox="0 0 845.81 1520.51"><defs><style>.cls-1{fill:#1d1d1b;}</style></defs><title>Lord of the Strings</title><path class="cls-1" d="M1002.43,946.83l-1.22-.22" transform="translate(-577.13 -239.4)"/><path class="cls-1" d="M1001.21,946.61l-1.21.22" transform="translate(-577.13 -239.4)"/><path class="cls-1" d="M248.24,1373.79H602.35a0,0,0,0,1,0,0v0a146.72,146.72,0,0,1-146.72,146.72H395a146.72,146.72,0,0,1-146.72-146.72v0A0,0,0,0,1,248.24,1373.79Z"/><path class="cls-1" d="M1140.63,823.28a8,8,0,0,0-5.69-2.31h-23.33a2.17,2.17,0,0,0-2.2,2.2v26.37a3.54,3.54,0,0,0,3.55,3.55h21.92a8.4,8.4,0,0,0,5.8-2.43L1153,838.33v-2.65ZM1175,785.54h-26.36a3.57,3.57,0,0,0-3.55,3.55V811a8.26,8.26,0,0,0,2.42,5.81l12.34,12.33h2.64l12.4-12.39a8.25,8.25,0,0,0,2.37-5.63V787.74A2.22,2.22,0,0,0,1175,785.54Zm.17,72.34-12.39-12.4h-2.65l-2.48,2.48-9.86,9.86a8.06,8.06,0,0,0-2.37,5.75v22a3.57,3.57,0,0,0,3.5,3.55h26.42a2.26,2.26,0,0,0,2.2-2.26V863.51A7.78,7.78,0,0,0,1175.16,857.88Zm34.2-36.62h-21.92a8.18,8.18,0,0,0-5.8,2.36L1169.3,836v2.7L1181.7,851a7.82,7.82,0,0,0,5.69,2.37h23.32a2.25,2.25,0,0,0,2.2-2.2V824.81A3.53,3.53,0,0,0,1209.36,821.26Zm0,0h-21.92a8.18,8.18,0,0,0-5.8,2.36L1169.3,836v2.7L1181.7,851a7.82,7.82,0,0,0,5.69,2.37h23.32a2.25,2.25,0,0,0,2.2-2.2V824.81A3.53,3.53,0,0,0,1209.36,821.26Zm-34.2,36.62-12.39-12.4h-2.65l-2.48,2.48-9.86,9.86a8.06,8.06,0,0,0-2.37,5.75v22a3.57,3.57,0,0,0,3.5,3.55h26.42a2.26,2.26,0,0,0,2.2-2.26V863.51A7.78,7.78,0,0,0,1175.16,857.88Zm-.17-72.34h-26.36a3.57,3.57,0,0,0-3.55,3.55V811a8.26,8.26,0,0,0,2.42,5.81l12.34,12.33h2.64l12.4-12.39a8.25,8.25,0,0,0,2.37-5.63V787.74A2.22,2.22,0,0,0,1175,785.54Zm-34.36,37.74a8,8,0,0,0-5.69-2.31h-23.33a2.17,2.17,0,0,0-2.2,2.2v26.37a3.54,3.54,0,0,0,3.55,3.55h21.92a8.4,8.4,0,0,0,5.8-2.43L1153,838.33v-2.65ZM996.79,746.61v0l5.64,0Zm143.84,76.67a8,8,0,0,0-5.69-2.31h-23.33a2.17,2.17,0,0,0-2.2,2.2v26.37a3.54,3.54,0,0,0,3.55,3.55h21.92a8.4,8.4,0,0,0,5.8-2.43L1153,838.33v-2.65ZM1175,785.54h-26.36a3.57,3.57,0,0,0-3.55,3.55V811a8.26,8.26,0,0,0,2.42,5.81l12.34,12.33h2.64l12.4-12.39a8.25,8.25,0,0,0,2.37-5.63V787.74A2.22,2.22,0,0,0,1175,785.54Zm.17,72.34-12.39-12.4h-2.65l-2.48,2.48-9.86,9.86a8.06,8.06,0,0,0-2.37,5.75v22a3.57,3.57,0,0,0,3.5,3.55h26.42a2.26,2.26,0,0,0,2.2-2.26V863.51A7.78,7.78,0,0,0,1175.16,857.88Zm34.2-36.62h-21.92a8.18,8.18,0,0,0-5.8,2.36L1169.3,836v2.7L1181.7,851a7.82,7.82,0,0,0,5.69,2.37h23.32a2.25,2.25,0,0,0,2.2-2.2V824.81A3.53,3.53,0,0,0,1209.36,821.26Zm0,0h-21.92a8.18,8.18,0,0,0-5.8,2.36L1169.3,836v2.7L1181.7,851a7.82,7.82,0,0,0,5.69,2.37h23.32a2.25,2.25,0,0,0,2.2-2.2V824.81A3.53,3.53,0,0,0,1209.36,821.26Zm-34.2,36.62-12.39-12.4h-2.65l-2.48,2.48-9.86,9.86a8.06,8.06,0,0,0-2.37,5.75v22a3.57,3.57,0,0,0,3.5,3.55h26.42a2.26,2.26,0,0,0,2.2-2.26V863.51A7.78,7.78,0,0,0,1175.16,857.88Zm-.17-72.34h-26.36a3.57,3.57,0,0,0-3.55,3.55V811a8.26,8.26,0,0,0,2.42,5.81l12.34,12.33h2.64l12.4-12.39a8.25,8.25,0,0,0,2.37-5.63V787.74A2.22,2.22,0,0,0,1175,785.54Zm-34.36,37.74a8,8,0,0,0-5.69-2.31h-23.33a2.17,2.17,0,0,0-2.2,2.2v26.37a3.54,3.54,0,0,0,3.55,3.55h21.92a8.4,8.4,0,0,0,5.8-2.43L1153,838.33v-2.65ZM996.79,746.61v0l5.64,0Zm212.57,74.65h-21.92a8.18,8.18,0,0,0-5.8,2.36L1169.3,836v2.7L1181.7,851a7.82,7.82,0,0,0,5.69,2.37h23.32a2.25,2.25,0,0,0,2.2-2.2V824.81A3.53,3.53,0,0,0,1209.36,821.26Zm-34.2,36.62-12.39-12.4h-2.65l-2.48,2.48-9.86,9.86a8.06,8.06,0,0,0-2.37,5.75v22a3.57,3.57,0,0,0,3.5,3.55h26.42a2.26,2.26,0,0,0,2.2-2.26V863.51A7.78,7.78,0,0,0,1175.16,857.88Zm-.17-72.34h-26.36a3.57,3.57,0,0,0-3.55,3.55V811a8.26,8.26,0,0,0,2.42,5.81l12.34,12.33h2.64l12.4-12.39a8.25,8.25,0,0,0,2.37-5.63V787.74A2.22,2.22,0,0,0,1175,785.54Zm-34.36,37.74a8,8,0,0,0-5.69-2.31h-23.33a2.17,2.17,0,0,0-2.2,2.2v26.37a3.54,3.54,0,0,0,3.55,3.55h21.92a8.4,8.4,0,0,0,5.8-2.43L1153,838.33v-2.65Zm0,0a8,8,0,0,0-5.69-2.31h-23.33a2.17,2.17,0,0,0-2.2,2.2v26.37a3.54,3.54,0,0,0,3.55,3.55h21.92a8.4,8.4,0,0,0,5.8-2.43L1153,838.33v-2.65ZM1175,785.54h-26.36a3.57,3.57,0,0,0-3.55,3.55V811a8.26,8.26,0,0,0,2.42,5.81l12.34,12.33h2.64l12.4-12.39a8.25,8.25,0,0,0,2.37-5.63V787.74A2.22,2.22,0,0,0,1175,785.54Zm.17,72.34-12.39-12.4h-2.65l-2.48,2.48-9.86,9.86a8.06,8.06,0,0,0-2.37,5.75v22a3.57,3.57,0,0,0,3.5,3.55h26.42a2.26,2.26,0,0,0,2.2-2.26V863.51A7.78,7.78,0,0,0,1175.16,857.88Zm34.2-36.62h-21.92a8.18,8.18,0,0,0-5.8,2.36L1169.3,836v2.7L1181.7,851a7.82,7.82,0,0,0,5.69,2.37h23.32a2.25,2.25,0,0,0,2.2-2.2V824.81A3.53,3.53,0,0,0,1209.36,821.26Zm0,0h-21.92a8.18,8.18,0,0,0-5.8,2.36L1169.3,836v2.7L1181.7,851a7.82,7.82,0,0,0,5.69,2.37h23.32a2.25,2.25,0,0,0,2.2-2.2V824.81A3.53,3.53,0,0,0,1209.36,821.26Zm-34.2,36.62-12.39-12.4h-2.65l-2.48,2.48-9.86,9.86a8.06,8.06,0,0,0-2.37,5.75v22a3.57,3.57,0,0,0,3.5,3.55h26.42a2.26,2.26,0,0,0,2.2-2.26V863.51A7.78,7.78,0,0,0,1175.16,857.88Zm-.17-72.34h-26.36a3.57,3.57,0,0,0-3.55,3.55V811a8.26,8.26,0,0,0,2.42,5.81l12.34,12.33h2.64l12.4-12.39a8.25,8.25,0,0,0,2.37-5.63V787.74A2.22,2.22,0,0,0,1175,785.54Zm-34.36,37.74a8,8,0,0,0-5.69-2.31h-23.33a2.17,2.17,0,0,0-2.2,2.2v26.37a3.54,3.54,0,0,0,3.55,3.55h21.92a8.4,8.4,0,0,0,5.8-2.43L1153,838.33v-2.65Z" transform="translate(-577.13 -239.4)"/><path class="cls-1" d="M1021,473.37h-13c.51,11.1-1.63,20.28-5.63,28-10.31,20.17-32.85,30.36-52,39.1-20.57,9.29-38.31,17.35-38.31,33.8,0,27.44,32.67,31.32,82.48,34.2,2.59.17,5.24.28,7.83.45,42.76,2.53,87.89,7.38,87.89,47.27,0,34.93-23.72,42.64-44.62,49.46-20.34,6.65-37.92,12.34-37.64,40.9l-5.63.06h77.91s5.92-56.68,92.62-56.68,100.57,48.28,127.16,208.73-6.71,161.53-27.61,161.58c-59.6.06-152.73-125.91-207-129.07s-63.1-3.1-63.1-3.1-8.9,0-63.16,3.1S792,1060.3,732.34,1060.24c-20.9,0-54.19-1.07-27.6-161.58s40.39-208.73,127.15-208.73,92.62,56.68,92.62,56.68h72.28c-.11-11,2-19.49,5.64-26.09,8.34-15.38,24.79-20.67,39.77-25.57,20.62-6.71,36.85-12,36.85-38.76,0-27.84-30-33-76.62-36l-8.51-.51c-45.75-2.59-93.07-5.3-93.07-45.41,0-23.72,22.87-34.08,45-44.11,25.86-11.72,52.56-23.83,51-56.51l5.64-.28H980c-221.58,0-402.88,181.29-402.88,402.87v479.44c0,128.68,105.24,233.91,233.86,233.91h378.09c128.62,0,233.86-105.23,233.86-233.91V875.28C1422.94,654.21,1242,473.37,1021,473.37Zm-290.2,759.55a35.95,35.95,0,1,1,35.95-36A35.9,35.9,0,0,1,730.82,1232.92Zm94.54,0a35.95,35.95,0,1,1,35.94-36A35.94,35.94,0,0,1,825.36,1232.92Zm98.14,0a35.95,35.95,0,1,1,35.94-36A35.93,35.93,0,0,1,923.5,1232.92Z" transform="translate(-577.13 -239.4)"/><polygon class="cls-1" points="425.3 507.21 419.67 507.26 419.67 507.21 425.3 507.21"/><path class="cls-1" d="M1153,838.33l-12.34,12.33a8.4,8.4,0,0,1-5.8,2.43H1113a3.54,3.54,0,0,1-3.55-3.55V823.17a2.17,2.17,0,0,1,2.2-2.2h23.33a8,8,0,0,1,5.69,2.31l12.39,12.4Z" transform="translate(-577.13 -239.4)"/><path class="cls-1" d="M1147.5,816.81a8.26,8.26,0,0,1-2.42-5.81V789.09a3.57,3.57,0,0,1,3.55-3.55H1175a2.22,2.22,0,0,1,2.26,2.2v23.38a8.25,8.25,0,0,1-2.37,5.63l-12.4,12.39h-2.64Z" transform="translate(-577.13 -239.4)"/><path class="cls-1" d="M1175.16,857.88a7.78,7.78,0,0,1,2.37,5.63v23.32a2.26,2.26,0,0,1-2.2,2.26h-26.42a3.57,3.57,0,0,1-3.5-3.55v-22a8.06,8.06,0,0,1,2.37-5.75l9.86-9.86,2.48-2.48h2.65Z" transform="translate(-577.13 -239.4)"/><path class="cls-1" d="M1212.91,824.81v26.36a2.25,2.25,0,0,1-2.2,2.2h-23.32a7.82,7.82,0,0,1-5.69-2.37l-12.4-12.34V836l12.34-12.34a8.18,8.18,0,0,1,5.8-2.36h21.92A3.53,3.53,0,0,1,1212.91,824.81Z" transform="translate(-577.13 -239.4)"/><path class="cls-1" d="M895.39,837.31a10.76,10.76,0,0,1-10.76,10.76h-41v41a10.79,10.79,0,0,1-21.58,0v-41H781.08a10.76,10.76,0,1,1,0-21.52H822v-41a10.79,10.79,0,0,1,21.58,0v41h41A10.76,10.76,0,0,1,895.39,837.31Z" transform="translate(-577.13 -239.4)"/><path class="cls-1" d="M1212.91,824.81v26.36a2.25,2.25,0,0,1-2.2,2.2h-23.32a7.82,7.82,0,0,1-5.69-2.37l-12.4-12.34V836l12.34-12.34a8.18,8.18,0,0,1,5.8-2.36h21.92A3.53,3.53,0,0,1,1212.91,824.81Z" transform="translate(-577.13 -239.4)"/><path class="cls-1" d="M1153,835.68v2.65l-12.34,12.33a8.4,8.4,0,0,1-5.8,2.43H1113a3.54,3.54,0,0,1-3.55-3.55V823.17a2.17,2.17,0,0,1,2.2-2.2h23.33a8,8,0,0,1,5.69,2.31Z" transform="translate(-577.13 -239.4)"/><path class="cls-1" d="M1177.25,787.74v23.38a8.25,8.25,0,0,1-2.37,5.63l-12.4,12.39h-2.64l-12.34-12.33a8.26,8.26,0,0,1-2.42-5.81V789.09a3.57,3.57,0,0,1,3.55-3.55H1175A2.22,2.22,0,0,1,1177.25,787.74Z" transform="translate(-577.13 -239.4)"/><path class="cls-1" d="M1177.53,863.51v23.32a2.26,2.26,0,0,1-2.2,2.26h-26.42a3.57,3.57,0,0,1-3.5-3.55v-22a8.06,8.06,0,0,1,2.37-5.75l9.86-9.86,2.48-2.48h2.65l12.39,12.4A7.78,7.78,0,0,1,1177.53,863.51Z" transform="translate(-577.13 -239.4)"/><polygon class="cls-1" points="430.93 233.69 430.93 233.97 425.3 233.97 430.93 233.69"/><path class="cls-1" d="M1063.22,300.19a60.76,60.76,0,0,1-55.16,60.45V473.09l-5.63.28h-5.64V360.64a60.75,60.75,0,1,1,66.43-60.45Z" transform="translate(-577.13 -239.4)"/></svg>