<!--?xml version="1.0" encoding="utf-8"?-->
<!-- Generator: Adobe Illustrator 19.1.1, SVG Export Plug-In . SVG Version: 6.00 Build 0)  -->
<svg version="1.1" id="_x31_0" xmlns="http://www.w3.org/2000/svg" xmlns:xlink="http://www.w3.org/1999/xlink" x="0px" y="0px" viewBox="0 0 512 512" style="width: 256px; height: 256px; opacity: 1;" xml:space="preserve">
<style type="text/css">
	.st0{fill:#374149;}
</style>
<g>
	<path class="st0" d="M433.398,67.678C385.562,27.772,322.558,5.795,256,5.795c-66.554,0-129.554,21.977-177.394,61.883
		C27.918,109.963,0,167.037,0,228.38c0,61.348,27.918,118.418,78.606,160.703c44.289,36.946,101.57,58.52,162.641,61.52
		l56.422,44.062c9.734,7.602,21.57,11.539,33.531,11.539c6.886,0,13.817-1.305,20.41-3.969c18.039-7.293,30.82-23.66,33.523-42.93
		l5.848-41.672C465.442,377.494,512,306.045,512,228.38C512,167.037,484.086,109.963,433.398,67.678z M331.054,451.627
		l-70.718-55.222c-1.446,0.027-2.879,0.094-4.336,0.094c-111.301,0-201.531-75.27-201.531-168.118
		c0-92.847,90.23-168.121,201.531-168.121c111.305,0,201.535,75.274,201.535,168.121c0,16.844-2.973,33.102-8.5,48.438
		c-0.102,0.286-0.23,0.559-0.336,0.84c-1.258,3.426-2.633,6.813-4.141,10.141c-0.668,1.465-1.445,2.894-2.16,4.34
		c-1.062,2.156-2.094,4.328-3.262,6.438c-0.973,1.766-2.066,3.476-3.114,5.206c-1.078,1.786-2.109,3.594-3.262,5.344
		c-1.023,1.558-2.16,3.062-3.242,4.59c-1.347,1.902-2.656,3.829-4.09,5.68c-0.82,1.058-1.722,2.07-2.57,3.117
		c-1.855,2.282-3.703,4.57-5.687,6.774c-0.359,0.398-0.758,0.778-1.122,1.172c-19.656,21.398-45.304,38.77-74.898,50.301
		l-6.625,47.211l-2.305,16.046L331.054,451.627z" style="fill: rgb(75, 75, 75);"></path>
	<path class="st0" d="M184.254,258.361c0.805-2.328,1.387-4.851,1.746-7.578c0.355-2.73,0.578-5.706,0.668-8.922
		c0.09-3.222,0.137-6.754,0.137-10.602c0-4.562-0.066-8.676-0.203-12.344c-0.133-3.664-0.519-7.038-1.137-10.125
		c-0.633-3.09-1.59-5.926-2.89-8.519c-1.297-2.59-3.149-5.098-5.566-7.516c-3.215-3.214-6.883-5.699-11-7.445
		c-4.114-1.746-8.946-2.614-14.489-2.614c-5.542,0-10.374,0.867-14.488,2.614c-4.117,1.746-7.824,4.23-11.137,7.445
		c-2.41,2.418-4.27,4.926-5.566,7.516c-1.301,2.594-2.234,5.43-2.816,8.519c-0.238,1.242-0.274,2.742-0.434,4.082
		c-0.062,0.531-0.122,1.066-0.172,1.613c-0.145,1.492-0.41,2.828-0.469,4.43c-0.137,3.668-0.203,7.782-0.203,12.344
		c0,4.562,0.066,8.676,0.203,12.344c0.058,1.609,0.324,2.942,0.469,4.434c0.05,0.546,0.11,1.082,0.172,1.609
		c0.16,1.34,0.195,2.84,0.434,4.082c0.582,3.09,1.515,5.93,2.816,8.523c1.297,2.594,3.156,5.098,5.566,7.516
		c3.313,3.214,7.02,5.695,11.137,7.442c4.114,1.746,8.946,2.613,14.488,2.613c3.848,0,7.356-0.445,10.528-1.336
		c3.175-0.894,6.062-2.152,8.66-3.758l8.582,8.317l9.797-9.794l-8.183-8.183C182.332,262.924,183.45,260.685,184.254,258.361z
		 M167.82,242.998c-0.183,2.461-0.574,4.519-1.086,6.347c-0.137,0.383-0.218,0.817-0.379,1.176l-7.191-7.183l-9.66,9.797
		l-0.02,0.015l0,0l-0.109,0.114l6.914,6.809l1.367,1.39c-1.777,1.145-3.828,1.726-6.137,1.726c-2.598,0-4.894-0.492-6.906-1.477
		c-2.016-0.98-3.734-2.23-5.172-3.758c-0.891-0.98-1.629-2.078-2.207-3.285c-0.586-1.207-1.054-2.77-1.414-4.692
		c-0.355-1.926-0.602-4.382-0.738-7.378c-0.13-2.996-0.196-6.778-0.196-11.34c0-4.562,0.066-8.336,0.196-11.336
		c0.136-2.996,0.382-5.477,0.738-7.446c0.36-1.965,0.829-3.554,1.414-4.766c0.578-1.202,1.316-2.297,2.207-3.285
		c1.438-1.519,3.156-2.746,5.172-3.687c2.011-0.942,4.308-1.41,6.906-1.41c2.59,0,4.895,0.469,6.91,1.41
		c2.012,0.941,3.691,2.168,5.031,3.687c0.89,0.988,1.629,2.082,2.215,3.285c0.578,1.211,1.046,2.801,1.402,4.766
		c0.359,1.969,0.629,4.45,0.805,7.446c0.179,3,0.269,6.774,0.269,11.336C168.152,236.088,168.039,240.002,167.82,242.998z" style="fill: rgb(75, 75, 75);"></path>
	<path class="st0" d="M256.187,183.502L256.187,183.502h-0.164v62.117c0,5.543-1.5,9.856-4.492,12.938
		c-2.996,3.094-7.047,4.633-12.145,4.633c-5.098,0-9.121-1.539-12.07-4.633c-2.954-3.082-4.43-7.394-4.43-12.938v-62.117h-18.43
		h-0.058l0,0h-0.156v62.781c0,5.102,0.914,9.707,2.75,13.825c1.828,4.113,4.336,7.621,7.508,10.527
		c3.176,2.906,6.89,5.164,11.137,6.777c4.246,1.61,8.832,2.41,13.75,2.41c4.918,0,9.504-0.801,13.75-2.41
		c4.254-1.613,7.961-3.87,11.137-6.777c3.172-2.906,5.679-6.414,7.515-10.527c1.836-4.118,2.75-8.723,2.75-13.825v-62.781h-18.297
		H256.187z" style="fill: rgb(75, 75, 75);"></path>
	<polygon class="st0" points="295.496,183.502 295.496,183.502 295.336,183.502 295.336,279.021 313.981,279.021 313.981,183.502 
		295.55,183.502 	" style="fill: rgb(75, 75, 75);"></polygon>
	<polygon class="st0" points="393.266,262.388 366.386,262.388 352.402,262.303 393.266,198.256 393.266,183.502 332.57,183.502 
		332.386,183.502 332.386,183.502 332.226,183.502 332.226,199.928 332.226,199.978 332.226,199.978 332.226,200.139 
		357.801,200.139 371.215,200.224 330.481,263.994 330.481,279.021 393.266,279.021 	" style="fill: rgb(75, 75, 75);"></polygon>
</g>
</svg>
