<?xml version="1.0" encoding="UTF-8" standalone="no"?>
<svg
   xmlns:dc="http://purl.org/dc/elements/1.1/"
   xmlns:cc="http://creativecommons.org/ns#"
   xmlns:rdf="http://www.w3.org/1999/02/22-rdf-syntax-ns#"
   xmlns:svg="http://www.w3.org/2000/svg"
   xmlns="http://www.w3.org/2000/svg"
   xmlns:sodipodi="http://sodipodi.sourceforge.net/DTD/sodipodi-0.dtd"
   xmlns:inkscape="http://www.inkscape.org/namespaces/inkscape"
   version="1.0"
   width="96.702782mm"
   height="102mm"
   viewBox="0 0 274.11844 289.13386"
   preserveAspectRatio="xMidYMid meet"
   id="svg24"
   sodipodi:docname="Shutters.svg"
   inkscape:version="1.0 (4035a4fb49, 2020-05-01)">
  <defs
     id="defs28" />
  <sodipodi:namedview
     inkscape:document-rotation="0"
     pagecolor="#ffffff"
     bordercolor="#666666"
     borderopacity="1"
     objecttolerance="10"
     gridtolerance="10"
     guidetolerance="10"
     inkscape:pageopacity="0"
     inkscape:pageshadow="2"
     inkscape:window-width="1920"
     inkscape:window-height="1001"
     id="namedview26"
     showgrid="false"
     units="mm"
     inkscape:zoom="0.97265625"
     inkscape:cx="499.83651"
     inkscape:cy="298.62182"
     inkscape:window-x="-9"
     inkscape:window-y="-9"
     inkscape:window-maximized="1"
     inkscape:current-layer="svg24" />
  <metadata
     id="metadata2">
Created by potrace 1.16, written by Peter Selinger 2001-2019
<rdf:RDF>
  <cc:Work
     rdf:about="">
    <dc:format>image/svg+xml</dc:format>
    <dc:type
       rdf:resource="http://purl.org/dc/dcmitype/StillImage" />
    <dc:title />
  </cc:Work>
</rdf:RDF>
</metadata>
  <g
     transform="matrix(0.01661169,0,0,-0.01569579,45.765145,246.47452)"
     fill="#000000"
     stroke="none"
     id="g22">
    <path
       d="m 3625,12443 c -132,-19 -311,-100 -421,-192 -123,-103 -227,-264 -275,-431 -18,-64 -22,-111 -28,-323 l -6,-249 -37,-34 c -36,-32 -41,-34 -113,-34 h -75 v 114 c 0,62 -5,137 -10,166 -24,126 -108,239 -223,301 l -62,34 h -405 -405 l -55,-29 c -110,-57 -181,-134 -223,-240 -16,-41 -21,-85 -26,-220 l -6,-168 -85,-25 c -365,-105 -682,-414 -800,-779 -58,-182 -55,-20 -55,-2739 0,-2371 1,-2515 18,-2598 74,-366 292,-661 617,-836 85,-45 225,-95 339,-119 69,-14 437,-16 4081,-19 2652,-3 4047,-1 4130,6 69,6 170,22 225,36 122,31 311,121 410,196 200,152 346,360 423,599 60,188 57,47 57,2725 v 2460 l -23,102 c -75,340 -257,623 -515,801 -95,66 -259,145 -352,170 l -70,19 -6,154 c -4,85 -12,174 -19,199 -33,120 -117,221 -230,274 l -65,31 h -405 -405 l -57,-28 c -89,-44 -161,-116 -205,-205 l -38,-76 -4,-163 -3,-163 h -74 c -71,0 -76,2 -112,34 l -37,34 -6,249 c -6,210 -10,260 -28,326 -71,256 -231,450 -466,563 -179,87 18,79 -2025,80 -998,1 -1828,-1 -1845,-3 z m 2223,-1977 c 1154,-174 2083,-1003 2372,-2118 81,-315 106,-525 97,-842 -9,-353 -67,-637 -194,-961 -389,-989 -1286,-1687 -2333,-1817 -158,-20 -585,-17 -735,5 -623,91 -1162,353 -1615,784 -251,239 -487,574 -631,896 -500,1120 -248,2427 631,3270 481,463 1068,730 1755,801 93,9 554,-3 653,-18 z M 1835,9295 c 86,-22 211,-86 273,-140 112,-99 189,-244 212,-399 49,-325 -178,-649 -506,-722 -96,-21 -240,-15 -334,15 -292,92 -485,400 -440,704 47,328 307,555 635,556 59,1 126,-5 160,-14 z m 7965,-7 c 93,-47 120,-171 58,-264 -19,-27 -50,-56 -73,-68 -39,-21 -53,-21 -650,-21 -580,0 -612,1 -648,19 -102,51 -127,205 -49,298 50,59 32,57 702,58 h 616 z m -7,-622 c 62,-31 91,-77 95,-155 3,-60 1,-70 -27,-111 -16,-25 -49,-57 -73,-70 l -43,-25 -574,-3 c -617,-3 -658,0 -713,46 -39,33 -68,95 -68,147 0,78 63,167 128,181 15,3 32,7 37,9 6,2 278,3 605,2 561,-2 597,-3 633,-21 z"
       id="path4" />
    <path
       d="m 5267,10169 c -535,-32 -1072,-242 -1475,-576 -139,-116 -405,-394 -390,-408 3,-3 597,-4 1321,-3 l 1316,3 -281,498 -282,497 -40,-1 c -23,-1 -98,-5 -169,-10 z"
       id="path6" />
    <path
       d="m 5830,10134 c 0,-3 242,-431 537,-952 295,-521 584,-1031 642,-1134 58,-102 110,-187 116,-189 8,-2 116,153 507,728 l 111,162 -43,78 c -367,669 -1008,1141 -1757,1292 -112,23 -113,23 -113,15 z"
       id="path8" />
    <path
       d="m 3167,8838 c -151,-260 -258,-567 -313,-898 -21,-132 -30,-457 -15,-605 17,-167 63,-389 112,-538 l 41,-126 502,837 c 277,460 575,957 664,1105 l 161,267 h -563 -564 z"
       id="path10" />
    <path
       d="M 7781,8302 C 7337,7582 6627,6435 6590,6380 c -20,-30 -46,-72 -59,-92 l -23,-38 h 570 570 l 75,153 c 145,294 228,564 269,882 20,161 15,502 -11,674 -20,133 -72,357 -103,443 l -13,37 z"
       id="path12" />
    <path
       d="m 3653,7172 c -44,-70 -176,-277 -293,-461 -116,-183 -214,-339 -216,-345 -11,-28 179,-315 314,-476 391,-467 1010,-807 1620,-888 34,-5 62,-7 62,-6 0,2 -61,104 -136,226 -75,123 -210,342 -299,488 -89,146 -303,495 -475,775 -442,720 -480,783 -480,794 0,34 -26,5 -97,-107 z"
       id="path14" />
    <path
       d="m 4850,5964 c 0,-3 145,-224 322,-491 l 322,-485 95,7 c 614,42 1118,251 1561,647 82,74 209,210 280,301 l 21,27 H 6151 c -716,0 -1301,-3 -1301,-6 z"
       id="path16" />
    <path
       d="m 1595,8917 c -115,-44 -177,-133 -176,-252 0,-73 19,-122 68,-176 57,-63 105,-84 193,-84 87,0 132,20 192,82 50,52 71,105 71,180 -1,149 -114,261 -263,261 -30,0 -69,-5 -85,-11 z"
       id="path18" />
    <path
       d="m 3500,3636 c 85,-224 331,-521 556,-669 241,-160 482,-236 802,-255 l 122,-7 L 3925,1650 C 3344,1070 2856,575 2840,551 c -37,-54 -45,-95 -31,-149 34,-126 183,-182 289,-108 22,15 513,504 1092,1087 579,582 1056,1059 1061,1059 5,0 9,-451 9,-1019 0,-561 3,-1028 7,-1038 13,-37 55,-84 93,-103 78,-40 182,-15 236,56 l 29,37 3,1034 c 1,581 6,1033 11,1033 5,0 482,-477 1061,-1059 579,-583 1070,-1072 1092,-1087 169,-118 382,100 256,262 -13,16 -498,506 -1080,1089 l -1057,1060 122,7 c 378,22 696,150 966,387 156,138 331,377 391,537 l 10,24 H 5445 3490 Z"
       id="path20" />
  </g>
</svg>
