<?xml version="1.0" standalone="no"?>
<!DOCTYPE svg PUBLIC "-//W3C//DTD SVG 20010904//EN"
 "http://www.w3.org/TR/2001/REC-SVG-20010904/DTD/svg10.dtd">
<svg version="1.0" xmlns="http://www.w3.org/2000/svg"
 width="1280.000000pt" height="1153.000000pt" viewBox="0 0 1280.000000 1153.000000"
 preserveAspectRatio="xMidYMid meet">
<metadata>
Created by potrace 1.16, written by Peter Selinger 2001-2019
</metadata>
<g transform="translate(0.000000,1153.000000) scale(0.100000,-0.100000)"
fill="#000000" stroke="none">
<path d="M6662 10730 c-74 -54 -98 -109 -221 -515 -16 -55 -46 -152 -65 -215
-113 -371 -114 -455 -6 -514 89 -48 159 -29 214 57 30 47 109 283 176 527 10
36 45 156 79 268 71 235 76 285 35 349 -53 80 -137 97 -212 43z"/>
<path d="M3364 10456 c-17 -8 -42 -29 -55 -47 -20 -29 -24 -45 -24 -109 1 -82
17 -122 147 -365 30 -55 80 -149 112 -210 33 -60 75 -139 94 -175 105 -198
170 -282 228 -296 77 -20 172 25 201 95 19 43 7 116 -30 190 -47 94 -161 308
-192 361 -29 50 -72 130 -206 385 -26 50 -62 105 -80 124 -55 58 -129 76 -195
47z"/>
<path d="M4915 9135 c-297 -33 -552 -107 -821 -241 -415 -205 -774 -542 -1055
-989 -179 -285 -292 -591 -345 -932 -23 -150 -23 -506 0 -663 32 -215 73 -381
144 -590 132 -382 331 -677 675 -997 253 -236 575 -384 938 -433 94 -13 138
-6 196 29 76 47 112 159 79 246 -24 62 -142 166 -602 530 -266 210 -417 389
-547 650 -207 416 -260 874 -152 1322 196 815 960 1403 1815 1397 411 -3 801
-138 1135 -393 91 -69 260 -236 330 -326 279 -357 400 -756 381 -1255 -41
-1117 -20 -1613 91 -2180 42 -215 78 -334 167 -556 31 -78 56 -154 56 -170 0
-63 -33 -88 -230 -176 -102 -45 -236 -105 -297 -134 -107 -50 -112 -54 -104
-77 11 -29 192 -431 231 -514 17 -35 30 -67 30 -73 0 -19 25 -10 235 81 246
106 463 213 545 269 80 54 181 157 223 227 54 89 70 146 75 264 5 125 -9 197
-67 352 -71 190 -117 348 -171 579 -30 128 -39 176 -66 348 -62 404 -78 870
-48 1397 35 605 -3 964 -143 1353 -164 456 -493 895 -898 1196 -143 106 -227
157 -395 238 -245 118 -512 192 -800 222 -161 16 -452 16 -605 -1z"/>
<path d="M8855 8908 c-56 -18 -80 -32 -250 -146 -615 -410 -695 -475 -695
-569 0 -78 64 -158 134 -168 79 -12 91 -5 674 398 70 48 158 108 196 134 98
66 141 111 154 164 20 80 -8 147 -74 179 -43 22 -91 24 -139 8z"/>
<path d="M8362 6299 c-99 -19 -152 -78 -152 -166 0 -91 42 -140 140 -162 39
-8 860 -36 1005 -34 137 2 231 120 180 227 -41 86 -125 113 -375 121 -102 3
-291 10 -420 16 -269 10 -318 10 -378 -2z"/>
<path d="M8240 2849 c-36 -17 -92 -44 -125 -59 -33 -15 -109 -51 -170 -80
-129 -61 -222 -105 -325 -153 -142 -65 -425 -199 -569 -268 -79 -38 -147 -69
-151 -69 -4 0 -19 -11 -34 -25 -30 -28 -35 -78 -11 -111 19 -28 163 -89 284
-122 85 -22 116 -25 266 -26 186 0 230 7 379 66 178 69 317 177 440 343 83
110 171 319 183 431 5 46 3 53 -23 77 -37 34 -64 34 -144 -4z"/>
</g>
</svg>
