<svg id="Layer_1" data-name="Layer 1" xmlns="http://www.w3.org/2000/svg" viewBox="0 0 1760.36 1767.23"><defs><style>.cls-1,.cls-2{fill:none;stroke:#000;stroke-miterlimit:10;}.cls-1{stroke-width:29px;}.cls-2{stroke-width:43px;}</style></defs><title>videogaming</title><path d="M1486,711.27h0a30.26,30.26,0,1,1-21.41,8.85,30,30,0,0,1,21.41-8.85m0-28a58.26,58.26,0,1,0,41.21,17.05A58.12,58.12,0,0,0,1486,683.27Z" transform="translate(-119.82 -116.39)"/><path d="M1486,424.29h0a30.25,30.25,0,1,1-21.41,8.84,30.06,30.06,0,0,1,21.41-8.84m0-28a58.25,58.25,0,1,0,41.21,17,58.11,58.11,0,0,0-41.21-17Z" transform="translate(-119.82 -116.39)"/><path d="M1629.51,570.59h0a30.18,30.18,0,1,1-21.42,8.84,30.08,30.08,0,0,1,21.42-8.84m0-28a58.25,58.25,0,1,0,41.21,17,58.13,58.13,0,0,0-41.21-17Z" transform="translate(-119.82 -116.39)"/><path d="M1342.52,570.59h0a30.18,30.18,0,1,1-21.42,8.84,30.08,30.08,0,0,1,21.42-8.84m0-28a58.25,58.25,0,1,0,41.21,17,58.09,58.09,0,0,0-41.21-17Z" transform="translate(-119.82 -116.39)"/><path class="cls-1" d="M413.41,547.59H339.5a24,24,0,0,0-24,24v58.43a24,24,0,0,0,24,24h73.91" transform="translate(-119.82 -116.39)"/><path class="cls-1" d="M609.64,654.09h73.9a24,24,0,0,0,24-24V571.63a24,24,0,0,0-24-24h-73.9" transform="translate(-119.82 -116.39)"/><path class="cls-1" d="M564.77,502.73V428.82a24,24,0,0,0-24-24H482.31a24,24,0,0,0-24,24v73.91" transform="translate(-119.82 -116.39)"/><path class="cls-1" d="M458.28,699v73.9a24,24,0,0,0,24,24h58.43a24,24,0,0,0,24-24V699" transform="translate(-119.82 -116.39)"/><line class="cls-2" x1="625.41" y1="1204.06" x2="625.41" y2="1581.2"/><line class="cls-2" x1="1134.95" y1="1150.42" x2="1134.95" y2="1581.2"/><path class="cls-2" d="M1214.71,1183.53A400.21,400.21,0,0,1,959.51,1275c-176.09,0-325.73-113.26-380-270.91" transform="translate(-119.82 -116.39)"/><path class="cls-2" d="M1287.82,225.13H1476.1a91.49,91.49,0,0,1,9.41.48h.5c205.82,0,372.67,166.85,372.67,372.67S1691.83,970.94,1486,970.94a375,375,0,0,1-54.68-4" transform="translate(-119.82 -116.39)"/><path class="cls-2" d="M982.76,656.11H882.09C854.09,834.23,700,970.47,514,970.47c-205.82,0-372.67-166.85-372.67-372.67S308.17,225.13,514,225.13c2.1,0,4.16.12,6.25.16,1,0,2.08-.16,3.14-.16H631.19" transform="translate(-119.82 -116.39)"/><path d="M710.35,159.39a36.2,36.2,0,0,1,36.16,36.15V388.62a36.16,36.16,0,0,1-72.32,0V195.54a36.2,36.2,0,0,1,36.16-36.15m0-43a79.16,79.16,0,0,0-79.16,79.15V388.62a79.16,79.16,0,0,0,158.32,0V195.54a79.16,79.16,0,0,0-79.16-79.15Z" transform="translate(-119.82 -116.39)"/><path d="M869.64,159.39a36.2,36.2,0,0,1,36.16,36.15V388.62a36.16,36.16,0,0,1-72.32,0V195.54a36.2,36.2,0,0,1,36.16-36.15m0-43a79.16,79.16,0,0,0-79.16,79.15V388.62a79.16,79.16,0,0,0,158.32,0V195.54a79.16,79.16,0,0,0-79.16-79.15Z" transform="translate(-119.82 -116.39)"/><path d="M1028.92,159.39a36.2,36.2,0,0,1,36.16,36.15V388.62a36.16,36.16,0,1,1-72.32,0V195.54a36.2,36.2,0,0,1,36.16-36.15m0-43a79.16,79.16,0,0,0-79.16,79.15V388.62a79.16,79.16,0,1,0,158.32,0V195.54a79.16,79.16,0,0,0-79.16-79.15Z" transform="translate(-119.82 -116.39)"/><path d="M1208.66,159.39a36.2,36.2,0,0,1,36.16,36.15V388.62a36.16,36.16,0,1,1-72.32,0V195.54a36.2,36.2,0,0,1,36.16-36.15m0-43a79.16,79.16,0,0,0-79.16,79.15V388.62a79.16,79.16,0,1,0,158.32,0V195.54a79.16,79.16,0,0,0-79.16-79.15Z" transform="translate(-119.82 -116.39)"/><path class="cls-2" d="M1185.82,1177.11a234.59,234.59,0,0,0,165.89-400.47q-5.12-5.11-10.47-9.81t-10.9-9.05l-104.1-104.52-78.33-78.33a97.15,97.15,0,1,0-137.4,137.39l32.35,32.77,6.57,6.58q-7.74,5.55-15.14,11.78t-14.35,13.19a234.59,234.59,0,0,0,0,331.76" transform="translate(-119.82 -116.39)"/><path class="cls-2" d="M1277.06,825.66" transform="translate(-119.82 -116.39)"/><path class="cls-2" d="M1184.35,1110.88a160.84,160.84,0,0,0,117.42-39.58" transform="translate(-119.82 -116.39)"/><path class="cls-2" d="M1241.78,379.68a33.15,33.15,0,0,1-33.12,33.11" transform="translate(-119.82 -116.39)"/><path class="cls-2" d="M1062,379.68a33.14,33.14,0,0,1-33.11,33.11" transform="translate(-119.82 -116.39)"/><path class="cls-2" d="M902.75,379.68a33.14,33.14,0,0,1-33.11,33.11" transform="translate(-119.82 -116.39)"/><path class="cls-2" d="M743.47,379.68a33.15,33.15,0,0,1-33.12,33.11" transform="translate(-119.82 -116.39)"/><path d="M511.52,574.87a28.78,28.78,0,1,0,28.78,28.78,28.77,28.77,0,0,0-28.78-28.78Z" transform="translate(-119.82 -116.39)"/><polyline class="cls-2" points="795.26 1257.69 795.26 1581.2 795.26 1767.23"/></svg>