<svg id="Layer_1" data-name="Layer 1" xmlns="http://www.w3.org/2000/svg" xmlns:xlink="http://www.w3.org/1999/xlink" viewBox="0 0 2000 2000"><defs><style>.cls-1{fill:none;}.cls-2{fill:#231f20;}.cls-3{clip-path:url(#clip-path);}</style><clipPath id="clip-path"><circle class="cls-1" cx="1013.15" cy="936.42" r="303.09"/></clipPath></defs><title>whodunnit</title><path class="cls-2" d="M1447.43,404a23,23,0,0,1-12-3.35C1366.64,359,1288.22,327.5,1202.38,307c-69.05-16.48-143-25.91-219.89-28C851,275.36,755.62,294.66,754.67,294.86a23.17,23.17,0,0,1-9.38-45.38c4-.84,100.66-20.48,237.2-16.85,80.22,2.13,157.56,11.93,229.89,29.13,90.81,21.59,173.93,55,247.06,99.21a23.17,23.17,0,0,1-12,43Z"/><path class="cls-2" d="M1605.29,661.32a23.12,23.12,0,0,1-15.8-6.22c-112.59-105-236.67-179.83-368.76-222.51-105.63-34.13-216.75-47.92-330.27-41a976.61,976.61,0,0,0-239.13,45.34c-57.75,18.77-91.88,36.33-92.22,36.5a23.17,23.17,0,0,1-21.37-41.12c1.47-.77,36.8-19,97.44-38.86a1024,1024,0,0,1,250.43-48c119.57-7.53,236.7,6.81,348.12,42.64,139.08,44.72,269.41,123.15,387.36,233.11a23.17,23.17,0,0,1-15.8,40.12Z"/><path class="cls-2" d="M1656.3,930.84a23.15,23.15,0,0,1-19.46-10.56c-156.13-240.45-343.29-380.45-556.26-416.1-75.81-12.69-155.21-12-236,1.93-64.92,11.23-130.88,31-196.05,58.87-111,47.42-181.35,101.91-182,102.45A23.17,23.17,0,0,1,438,630.91c3.05-2.37,75.86-58.78,192.38-108.54,68.47-29.25,137.9-50.08,206.35-61.92,85.94-14.87,170.57-15.53,251.54-2,226.32,37.89,424,184.77,587.48,436.57a23.18,23.18,0,0,1-19.41,35.8Z"/><path class="cls-2" d="M761.35,607.06a416.68,416.68,0,0,0-76.74,76.5c-100.8,43-194.09,107.36-265.08,183.17a23.17,23.17,0,0,1-33.83-31.68c82.06-87.62,192-160.71,309.59-205.82Q728.2,616.6,761.35,607.06Z"/><path class="cls-2" d="M1369.45,785.88c1,2.32,1.94,4.64,2.86,7-.85-.83-1.71-1.65-2.57-2.47-85-81.06-182.83-133.15-290.67-154.84C971.75,614,855.3,623.2,740.53,662.15a384.93,384.93,0,0,1,105-74.32h0c82.78-14,164.86-13.36,242.66,2.29a610.22,610.22,0,0,1,210.26,85.26A384.57,384.57,0,0,1,1369.45,785.88Z"/><path class="cls-2" d="M1636.45,1188.48a23.14,23.14,0,0,1-29.79-13.65c-50.57-136.08-114.48-248.71-190.45-335.79h0a411.07,411.07,0,0,0-42.73-107.74q14.34,12.27,28.24,25.54c101.77,97,185.33,232.22,248.38,401.86A23.17,23.17,0,0,1,1636.45,1188.48Z"/><path class="cls-2" d="M627.93,782.94a410.11,410.11,0,0,0-20.44,67.6,564.62,564.62,0,0,0-84.12,70.82c-45.09,46.33-78.43,97.47-99.08,152A23.17,23.17,0,1,1,381,1056.94c22.92-60.5,59.66-117,109.21-167.91C529.78,848.32,576,812.73,627.93,782.94Z"/><path class="cls-2" d="M817.37,708.29q-8.64,7.43-16.78,15.57A303.3,303.3,0,0,0,760.76,773a656.07,656.07,0,0,0-81.15,34.69q-19.5,9.93-37.93,20.94a382.54,382.54,0,0,1,15.17-42.7q5.24-12.37,11.28-24.3A698.46,698.46,0,0,1,817.37,708.29Z"/><path class="cls-2" d="M1397.82,896.39a393.89,393.89,0,0,1-.26,82.54q-13.3-22.63-28.27-43.29a491,491,0,0,0-64.62-73,296.56,296.56,0,0,0-37.87-87.74C1316.44,806.93,1360.48,847.66,1397.82,896.39Z"/><path class="cls-2" d="M1546.83,1431.16a23.18,23.18,0,1,1-46.35,0c0-107.9-12.07-205.89-35.87-291.22a706.28,706.28,0,0,0-45.23-120.35,415.83,415.83,0,0,0,8.32-80.24c34.6,54.81,62,117.93,81.55,188.14C1534.18,1216.88,1546.83,1319.05,1546.83,1431.16Z"/><path class="cls-2" d="M600.75,979a409.64,409.64,0,0,0,9.38,55A570.08,570.08,0,0,0,568.66,1080c-57.9,72-90.15,149.31-93.28,223.59a23.17,23.17,0,0,1-46.3-1.94c3.54-84.25,39.32-170.94,103.47-250.7A628.89,628.89,0,0,1,600.75,979Z"/><path class="cls-2" d="M712.55,936.42q0,7.29.35,14.53a646.85,646.85,0,0,0-79.16,60.67A384.31,384.31,0,0,1,627,956.46,699.23,699.23,0,0,1,715.37,895,304.89,304.89,0,0,0,712.55,936.42Z"/><path class="cls-2" d="M1367.61,1091.24a385.87,385.87,0,0,1-31.3,57.7c-.59-2.27-1.18-4.54-1.78-6.79q-15.24-57-38.64-103.19a298.65,298.65,0,0,0,15.61-65.46Q1345.36,1024.86,1367.61,1091.24Z"/><path class="cls-2" d="M1393,1604.57a23.19,23.19,0,0,1-23,20.2,23.47,23.47,0,0,1-3-.19,23.17,23.17,0,0,1-20-26c21-161.79,20.12-300.48-2.42-413.15a413,413,0,0,0,34.85-54.74C1412.88,1256.23,1417.43,1415.64,1393,1604.57Z"/><path class="cls-2" d="M604.32,1291.52q-.77,2.38-1.5,4.79A697.08,697.08,0,0,0,583,1378.78q-6.56,36.78-9.77,75.73l-40.43,40.43a23.09,23.09,0,0,1-7.51-18.35q1.19-22,3.38-43.48,4.07-39.79,11.55-77.5h0Z"/><path class="cls-2" d="M638.85,1114.86a412.68,412.68,0,0,0,25.4,45.55,520.41,520.41,0,0,0-28.32,51.18l-80.1,80.1q1.3-4.51,2.69-9c17.25-56.12,40.91-107.58,70.33-153Q633.76,1122.17,638.85,1114.86Z"/><path class="cls-2" d="M742,1066.56a444.48,444.48,0,0,0-60.71,68.54,384.37,384.37,0,0,1-23.45-45.82,478,478,0,0,1,66.52-68.89A296.42,296.42,0,0,0,742,1066.56Z"/><path class="cls-2" d="M1261.17,1233.14a416.16,416.16,0,0,0-29.25-90.56,301.45,301.45,0,0,0,31.85-40,435.55,435.55,0,0,1,36.2,93.25q-6.49,7.17-13.38,14Q1274.34,1222.12,1261.17,1233.14Z"/><path class="cls-2" d="M1246.48,1705.14a23.17,23.17,0,1,1-43.54-15.88c55.65-152.51,77.87-288.71,66-404.79q-1-10.1-2.41-19.94a413.51,413.51,0,0,0,40.9-36.17q4.92,25,7.62,51.41C1327.63,1402.88,1304.55,1546,1246.48,1705.14Z"/><path class="cls-2" d="M763.11,1103.45a269.39,269.39,0,0,0-36.33,39.81,231.2,231.2,0,0,0-19.09,30.37q3.16,4.08,6.45,8.07l-17.9,17.9a184.84,184.84,0,0,0-11,73.71c.06,1,.12,2,.17,3.08,1.11,20,1.81,41.88,1.67,64.29l45.59-45.59q-.45-12-1.17-24.45a137,137,0,0,1,5.2-45.54q2-6.86,4.62-13.65A176.23,176.23,0,0,1,764,1170.83a213.16,213.16,0,0,1,19.39-22.6q4.13-4.21,8.53-8.25A302.23,302.23,0,0,1,763.11,1103.45Zm-77.87,287.39c-3.21,45.42-11.09,89.35-27.12,121.51-15.77,31.63-32.33,36.62-33.92,37a23.17,23.17,0,0,0,5.28,46c2.68-.25,12.4-1.64,24.9-9.21,15.2-9.2,28.6-23.72,39.85-43.17,25.49-44.11,38.63-111.34,39.23-200.41Zm498.27-206.66a296.18,296.18,0,0,1-41,23.74c8.06,25.85,13.23,55,15.45,87.16q2.87-1.15,5.71-2.36a385.53,385.53,0,0,0,38.93-19.1C1199.21,1241,1192.81,1211,1183.51,1184.18ZM1205,1306.74c0-.9-.08-1.8-.13-2.69a408.13,408.13,0,0,1-45.73,20.48c1.47,106.73-26.18,240.73-82.28,398.66a23.17,23.17,0,1,0,43.66,15.52C1181.47,1567.24,1209.89,1421.91,1205,1306.74Z"/><path class="cls-2" d="M846.12,1340.18c15.07,130.3-89.69,310.52-94.15,318.13a23.17,23.17,0,0,1-40-23.46c1.22-2.09,101.35-174.61,88.09-289.35a186.26,186.26,0,0,1,1.43-52.54,409.17,409.17,0,0,0,44,22.71A138.23,138.23,0,0,0,846.12,1340.18Z"/><path class="cls-2" d="M893.92,1212.54a164.25,164.25,0,0,0-43.78,74.65,383.93,383.93,0,0,1-41.64-22.57,212.95,212.95,0,0,1,42.9-74.71A296.78,296.78,0,0,0,893.92,1212.54Z"/><path class="cls-2" d="M1023.19,1350.85a414.69,414.69,0,0,0,46.53-3.7c-3.59,100.17-32,231.68-84.58,391.06a23.17,23.17,0,1,1-44-14.52C991.38,1571.29,1019,1446,1023.19,1350.85Z"/><path class="cls-2" d="M1023.76,1323c-.23-38.32-4.89-66-11.23-86h.62a303.82,303.82,0,0,0,46.59-3.57c6.42,24.33,9.89,53,10.32,85.53A385,385,0,0,1,1023.76,1323Z"/><path class="cls-2" d="M926.55,1341.92a411.45,411.45,0,0,0,46,7.09c-3.67,58.39-20.11,128.72-49.15,210-29.68,83.11-61.4,146-62.74,148.64a23.17,23.17,0,1,1-41.34-20.94c.58-1.14,27.5-54.78,54.28-126.57C898.32,1493.87,922.92,1412.11,926.55,1341.92Z"/><path class="cls-2" d="M925,1291.84a23.17,23.17,0,1,1,46-6,292.75,292.75,0,0,1,2.35,35.25,382.27,382.27,0,0,1-46.52-7.63Q926.36,1302.36,925,1291.84Z"/><line class="cls-1" x1="780.94" y1="1180.85" x2="367.19" y2="1594.6"/><path class="cls-2" d="M1397.82,896.39a382,382,0,0,0-25.51-103.54c-.92-2.33-1.88-4.65-2.86-7a384.57,384.57,0,0,0-71-110.51q-5.78-6.32-11.87-12.4a387.07,387.07,0,0,0-424-82.85q-8.65,3.66-17.07,7.7h0a384.93,384.93,0,0,0-105,74.32l-.83.82a385.44,385.44,0,0,0-71.57,98.61q-6,11.91-11.28,24.3a384.68,384.68,0,0,0-30.41,150.54q0,10.07.51,20a384.15,384.15,0,0,0,29.9,130.5c.33.77.66,1.55,1,2.32a384.37,384.37,0,0,0,23.45,45.82,380.31,380.31,0,0,0,26.39,38.53q3.16,4.08,6.45,8.07,12,14.63,25.56,28.16c.54.54,1.07,1.07,1.61,1.59,1.51,1.51,3,3,4.57,4.46a389,389,0,0,0,35.69,30.27q13.08,9.79,26.93,18.44a383.93,383.93,0,0,0,41.64,22.57q6.18,2.86,12.47,5.53a386.36,386.36,0,0,0,150.54,30.41q5.31,0,10.61-.15a384.46,384.46,0,0,0,134.22-27.9q2.87-1.15,5.71-2.36a385.32,385.32,0,0,0,97.48-59.58q13.15-11,25.42-23.28,6.89-6.88,13.38-14a384.93,384.93,0,0,0,67.64-104.57q.93-2.13,1.84-4.28a383,383,0,0,0,28.11-108,393.89,393.89,0,0,0,.26-82.54ZM1295.89,1039a296.49,296.49,0,0,1-32.12,63.6,301.45,301.45,0,0,1-31.85,40q-3,3.24-6.21,6.4a303.6,303.6,0,0,1-42.2,35.2,297.32,297.32,0,0,1-123.77,49.27,303.82,303.82,0,0,1-46.59,3.57h-.62a299.93,299.93,0,0,1-118.61-24.48,296.78,296.78,0,0,1-42.52-22.63A302.74,302.74,0,0,1,800.59,1149q-4.43-4.43-8.64-9a302.23,302.23,0,0,1-28.84-36.53,297.59,297.59,0,0,1-38.74-83.06A300.6,300.6,0,0,1,712.9,951q-.36-7.25-.35-14.53A304.89,304.89,0,0,1,715.37,895a297.19,297.19,0,0,1,45.39-122,303.3,303.3,0,0,1,39.83-49.09q8.14-8.15,16.78-15.57a300.62,300.62,0,0,1,408.34,15.57,303.42,303.42,0,0,1,41.09,51,296.56,296.56,0,0,1,37.87,87.74,301.93,301.93,0,0,1,9.08,73.78,306,306,0,0,1-2.25,37.08A298.65,298.65,0,0,1,1295.89,1039Z"/><path class="cls-2" d="M802.12,1225.63l-20.55,20.55-48.91,48.91-45.59,45.59L532.81,1494.94,400.17,1627.58a46.64,46.64,0,0,1-66-66l206-206h0l64.09-64.08,91.92-91.92,17.9-17.9,22-22a46.64,46.64,0,0,1,66,66Z"/><g class="cls-3"><path d="M745.31,762.94H689.49L676.24,803.3H659l48.68-145.62H728L777.13,803.3H759Zm-50.44-15h45.65L719.1,679.53h-2.5Z"/><path d="M788.78,657.68H897v38.07H881.56V673.08H851.4V787.9h22.88v15.4h-63V787.9h22.88V673.08h-30v22.67h-15.4Z"/><path d="M996.18,672a87.91,87.91,0,0,0-17.33-1.46,47.42,47.42,0,0,0-16.8,3,34.92,34.92,0,0,0-14.19,10.09q-6.17,7.06-9.81,18.51t-3.65,28.29q0,30.79,11.37,45.35t32.86,14.56q13.35,0,22.75-5.2V744.64H971.21V730.7h44.94v64.07a41.68,41.68,0,0,1-8,4.58,71.15,71.15,0,0,1-10,3.53,80.18,80.18,0,0,1-11,2.19,89.27,89.27,0,0,1-11.13.72,65.94,65.94,0,0,1-25-4.47,46.93,46.93,0,0,1-18.73-13.73q-7.69-9.26-11.85-23.5t-4.16-33.6q0-20.18,5.2-34.53t13.73-23.4a51.59,51.59,0,0,1,19.55-13.21,63.59,63.59,0,0,1,22.68-4.16,129.2,129.2,0,0,1,20.59,1.35,64.67,64.67,0,0,1,13.73,3.64l-.21.83v34.74H996.18Z"/><path d="M1125.36,673.49a37.33,37.33,0,0,0-7.83-2.18,62.18,62.18,0,0,0-10.33-.73,47.06,47.06,0,0,0-16.8,3.12,37.27,37.27,0,0,0-14.61,10.19q-6.37,7.08-10.23,18.52t-3.86,28.08a89.88,89.88,0,0,0,3.44,26.21,54,54,0,0,0,9.61,18.72,39,39,0,0,0,14.81,11.24,48.25,48.25,0,0,0,19.3,3.74,51.27,51.27,0,0,0,10.12-.94,44.05,44.05,0,0,0,8.66-2.6v-20.8H1143v28.08l.21.42a54.49,54.49,0,0,1-15.81,8q-9.57,3.23-23.3,3.22a64.45,64.45,0,0,1-24.24-4.47,50.65,50.65,0,0,1-19.24-13.62q-8.12-9.15-12.58-23.41t-4.48-33.8q0-20.38,5-34.64t13.52-23.29A51.09,51.09,0,0,1,1082,659.35a69.68,69.68,0,0,1,24.24-4.16q7.07,0,12.27.52a69.91,69.91,0,0,1,9.15,1.45,35,35,0,0,1,7,2.39,59.12,59.12,0,0,1,5.93,3.33h.21v32.87h-15.39Z"/><path d="M1245.8,672a87.84,87.84,0,0,0-17.33-1.46,47.46,47.46,0,0,0-16.8,3,34.92,34.92,0,0,0-14.19,10.09q-6.17,7.06-9.81,18.51T1184,730.49q0,30.79,11.37,45.35t32.86,14.56q13.37,0,22.75-5.2V744.64h-30.16V730.7h44.93v64.07a41.68,41.68,0,0,1-8,4.58,71.46,71.46,0,0,1-10,3.53,80.62,80.62,0,0,1-11,2.19,89.15,89.15,0,0,1-11.13.72,65.94,65.94,0,0,1-25-4.47,47,47,0,0,1-18.72-13.73q-7.71-9.26-11.86-23.5t-4.16-33.6q0-20.18,5.2-34.53t13.73-23.4a51.59,51.59,0,0,1,19.55-13.21,63.59,63.59,0,0,1,22.68-4.16,129.2,129.2,0,0,1,20.59,1.35,64.67,64.67,0,0,1,13.73,3.64l-.21.83v34.74H1245.8Z"/><path d="M1288,657.68H1396.2v38.07h-15.4V673.08h-30.16V787.9h22.88v15.4h-63V787.9h22.88V673.08h-29.95v22.67H1288Z"/><path d="M664,871.78H772.14v38.07H756.75V887.17H726.59V1002h22.88v15.39h-63V1002h22.88V887.17h-30v22.68H664Z"/><path d="M875.73,887.59a37.06,37.06,0,0,0-7.82-2.19,63.48,63.48,0,0,0-10.33-.72,47.06,47.06,0,0,0-16.8,3.12A37.27,37.27,0,0,0,826.17,898q-6.37,7.08-10.23,18.51t-3.86,28.09a89.93,89.93,0,0,0,3.44,26.21,54.18,54.18,0,0,0,9.6,18.72,39,39,0,0,0,14.82,11.23,48,48,0,0,0,19.3,3.75,52,52,0,0,0,10.12-.94A44.74,44.74,0,0,0,878,1001v-20.8h15.4v28.08l.2.42a54.37,54.37,0,0,1-15.81,8q-9.57,3.21-23.29,3.22a64.45,64.45,0,0,1-24.24-4.47A50.57,50.57,0,0,1,811,1001.79q-8.12-9.15-12.59-23.4T794,944.59q0-20.39,5-34.64t13.53-23.3a51.31,51.31,0,0,1,19.86-13.21,69.91,69.91,0,0,1,24.24-4.16q7.06,0,12.27.52a71.8,71.8,0,0,1,9.15,1.46,33.82,33.82,0,0,1,7,2.39,55.43,55.43,0,0,1,5.93,3.33h.21v32.87h-15.4Z"/><path d="M996.18,886.13a88,88,0,0,0-17.33-1.45,47.41,47.41,0,0,0-16.8,3,35,35,0,0,0-14.19,10.09q-6.17,7.08-9.81,18.52t-3.65,28.29q0,30.78,11.37,45.34t32.86,14.57q13.35,0,22.75-5.2V958.73H971.21V944.79h44.94v64.07a40.65,40.65,0,0,1-8,4.58,69.91,69.91,0,0,1-10,3.54,80.18,80.18,0,0,1-11,2.18,87.45,87.45,0,0,1-11.13.73,65.94,65.94,0,0,1-25-4.47,46.93,46.93,0,0,1-18.73-13.73q-7.69-9.26-11.85-23.51t-4.16-33.59q0-20.18,5.2-34.54t13.73-23.4a51.82,51.82,0,0,1,19.55-13.21,63.81,63.81,0,0,1,22.68-4.16,127.88,127.88,0,0,1,20.59,1.36,64.67,64.67,0,0,1,13.73,3.64l-.21.83v34.74H996.18Z"/><path d="M1119.74,977h-55.82l-13.24,40.35h-17.27l48.68-145.61h20.38l49.1,145.61h-18.1Zm-50.44-15H1115l-21.43-68.44H1091Z"/><path d="M1163.21,871.78h108.18v38.07H1256V887.17h-30.16V1002h22.88v15.39h-63V1002h22.88V887.17h-30v22.68h-15.4Z"/><path d="M1375,887.59a37.33,37.33,0,0,0-7.83-2.19,63.31,63.31,0,0,0-10.33-.72,47.06,47.06,0,0,0-16.8,3.12A37.35,37.35,0,0,0,1325.41,898q-6.36,7.08-10.23,18.51t-3.86,28.09a89.57,89.57,0,0,0,3.45,26.21,53.84,53.84,0,0,0,9.6,18.72,38.93,38.93,0,0,0,14.81,11.23,48.1,48.1,0,0,0,19.31,3.75,52,52,0,0,0,10.11-.94,45.06,45.06,0,0,0,8.67-2.6v-20.8h15.39v28.08l.21.42a54.37,54.37,0,0,1-15.81,8q-9.57,3.21-23.3,3.22a64.36,64.36,0,0,1-24.23-4.47,50.52,50.52,0,0,1-19.25-13.63q-8.1-9.15-12.58-23.4t-4.47-33.8q0-20.39,5-34.64t13.52-23.3a51.27,51.27,0,0,1,19.87-13.21,69.81,69.81,0,0,1,24.23-4.16q7.07,0,12.27.52a72,72,0,0,1,9.16,1.46,33.93,33.93,0,0,1,7,2.39,55.43,55.43,0,0,1,5.93,3.33h.21v32.87H1375Z"/><path d="M746.56,1100.23a87.91,87.91,0,0,0-17.33-1.46,47.42,47.42,0,0,0-16.8,3,34.92,34.92,0,0,0-14.19,10.09q-6.16,7.06-9.81,18.51t-3.66,28.29q0,30.79,11.38,45.35T729,1218.59q13.35,0,22.75-5.2v-40.56H721.59v-13.94h44.94V1223a41.16,41.16,0,0,1-8,4.58,69.9,69.9,0,0,1-10,3.53,80.18,80.18,0,0,1-11,2.19,89.33,89.33,0,0,1-11.13.73,65.91,65.91,0,0,1-25-4.48,46.84,46.84,0,0,1-18.73-13.73q-7.7-9.26-11.85-23.5t-4.16-33.6q0-20.17,5.2-34.53t13.73-23.4a51.71,51.71,0,0,1,19.55-13.21,63.8,63.8,0,0,1,22.67-4.16,129.34,129.34,0,0,1,20.6,1.35,65.45,65.45,0,0,1,13.73,3.64l-.21.83v34.74H746.56Z"/><path d="M870.12,1191.13H814.3l-13.24,40.36H783.79l48.68-145.61h20.38L902,1231.49h-18.1Zm-50.44-15h45.65l-21.42-68.44h-2.5Z"/><path d="M913.59,1085.88h108.17v38.06h-15.39v-22.67H976.21V1216.1h22.88v15.39h-63V1216.1h22.88V1101.27H929v22.67h-15.4Z"/><path d="M1125.36,1101.68a37.94,37.94,0,0,0-7.83-2.18,63.28,63.28,0,0,0-10.33-.73,47.06,47.06,0,0,0-16.8,3.12,37.2,37.2,0,0,0-14.61,10.2q-6.37,7.07-10.23,18.51t-3.86,28.08a89.88,89.88,0,0,0,3.44,26.21,54,54,0,0,0,9.61,18.72,39,39,0,0,0,14.81,11.24,48.25,48.25,0,0,0,19.3,3.74,52.06,52.06,0,0,0,10.12-.93,45.45,45.45,0,0,0,8.66-2.6v-20.81H1143v28.09l.21.41a54.49,54.49,0,0,1-15.81,8q-9.57,3.23-23.3,3.23a64.45,64.45,0,0,1-24.24-4.48,50.65,50.65,0,0,1-19.24-13.62q-8.12-9.15-12.58-23.4t-4.48-33.81q0-20.39,5-34.63t13.52-23.3a51.2,51.2,0,0,1,19.86-13.21,69.91,69.91,0,0,1,24.24-4.16q7.07,0,12.27.52a71.64,71.64,0,0,1,9.15,1.45,34.41,34.41,0,0,1,7,2.4,55.43,55.43,0,0,1,5.93,3.33h.21v32.86h-15.39Z"/><path d="M1163.21,1085.88h108.18v38.06H1256v-22.67h-30.16V1216.1h22.88v15.39h-63V1216.1h22.88V1101.27h-30v22.67h-15.4Z"/><path d="M1369.36,1191.13h-55.82l-13.24,40.36H1283l48.68-145.61h20.39l49.09,145.61h-18.1Zm-50.44-15h45.66l-21.43-68.44h-2.5Z"/></g></svg>