<svg xmlns="http://www.w3.org/2000/svg" viewBox="0 0 1500 750"><defs><style>.cls-1{fill:#fff;}.cls-2{fill:#262262;}.cls-3{fill:#f7941d;}.cls-4{fill:#be1e2d;}</style></defs><title>Chandrato_FINAL_Logos_SVG</title><g id="Layer_3" data-name="Layer 3"><path class="cls-1" d="M1210.83,538.76h.2c14.23,0,24.86-5.7,24.86-10.8s-10.63-10.8-24.86-10.8h-.36c-14,.1-24.49,5.74-24.49,10.79S1196.71,538.71,1210.83,538.76Z"/><path class="cls-1" d="M1238.12,337.66c1.74-.44,3.45-.82,5.13-1.18-1.68.36-3.37.73-5.1,1.17Z"/><path class="cls-1" d="M1244.41,336.23l-.88.18h0Z"/><path class="cls-1" d="M1342.73,332.61l2.58.62,2.65.69-2.65-.7Z"/><path class="cls-1" d="M1213.34,386.12c.1,1.26.4,5.1,14.8,12.55a133.5,133.5,0,0,0,25.72,10,40.2,40.2,0,0,1,2.6-49.76c-20.74,4.36-32.19,12.29-38.24,18.5C1214.65,381,1213.15,383.73,1213.34,386.12Z"/><path class="cls-1" d="M1344.95,356.17c1,.28,2,.57,3,.88l-.46-.14C1346.61,356.66,1345.78,356.41,1344.95,356.17Z"/><path class="cls-2" d="M430.13,364.78a22.11,22.11,0,0,0-3.75-3.53,5.33,5.33,0,0,0-3.75-1.28,18.51,18.51,0,0,0-5.89,2.68,26,26,0,0,0-5.57,4.92,19.12,19.12,0,0,0-3.64,6.42,11,11,0,0,0-.11,7,3.2,3.2,0,0,0,1.82,1.93,4.55,4.55,0,0,0,3.1.22A52.92,52.92,0,0,0,424,378.91a40.06,40.06,0,0,0,10.38-6.74,6.77,6.77,0,0,0-1.28-3.32A37.33,37.33,0,0,0,430.13,364.78Z"/><path class="cls-2" d="M534.84,485.28a38.87,38.87,0,0,0,4.53-1.32,17.91,17.91,0,0,0,3.46-1.64,4.86,4.86,0,0,0-3.72-3,14.18,14.18,0,0,0-5.48-.06,13.6,13.6,0,0,0-2.71.88,12,12,0,0,0-2.64,1.57,13,13,0,0,0-2.14,2.14,4.94,4.94,0,0,0-1.07,2.71,32.88,32.88,0,0,0,4.72-.38Q532.38,485.85,534.84,485.28Z"/><path class="cls-2" d="M751.07,364.78a22.11,22.11,0,0,0-3.75-3.53,5.33,5.33,0,0,0-3.75-1.28,18.51,18.51,0,0,0-5.89,2.68,26,26,0,0,0-5.57,4.92,19.12,19.12,0,0,0-3.64,6.42,11,11,0,0,0-.11,7,3.2,3.2,0,0,0,1.82,1.93,4.55,4.55,0,0,0,3.1.22A52.92,52.92,0,0,0,745,378.91a40.06,40.06,0,0,0,10.38-6.74,6.77,6.77,0,0,0-1.28-3.32A37.33,37.33,0,0,0,751.07,364.78Z"/><path class="cls-2" d="M925.56,333.41a5.13,5.13,0,0,1-3,1.07,5.3,5.3,0,0,1-2.36-.43,65.14,65.14,0,0,1-5.46-4q-3.11-2.46-5.46-2.46a7.31,7.31,0,0,0-5,2.36,25,25,0,0,0-4.28,5.46,46.91,46.91,0,0,0-3.1,6.32,35.35,35.35,0,0,0-1.71,5.14,52.63,52.63,0,0,0-.86,7.71,36.92,36.92,0,0,0,.64,8.88,20.52,20.52,0,0,0,3.32,7.92,13.35,13.35,0,0,0,7.39,5,14,14,0,0,0,7.07-.11,25.68,25.68,0,0,0,8-3.53,33.32,33.32,0,0,0,7.49-6.85,31.5,31.5,0,0,0,5.46-9.85,20.61,20.61,0,0,0,.11-13A15.24,15.24,0,0,0,925.56,333.41Z"/><path class="cls-2" d="M917.33,485.28a38.87,38.87,0,0,0,4.53-1.32,17.91,17.91,0,0,0,3.46-1.64,4.86,4.86,0,0,0-3.72-3,14.18,14.18,0,0,0-5.48-.06,13.6,13.6,0,0,0-2.71.88,12,12,0,0,0-2.64,1.57,13,13,0,0,0-2.14,2.14,4.94,4.94,0,0,0-1.07,2.71,32.88,32.88,0,0,0,4.72-.38Q914.87,485.85,917.33,485.28Z"/><path class="cls-2" d="M609.55,370.66l1.93-.64-6-37.68-4.28,1.07a49.3,49.3,0,0,0-9.53,4,40.72,40.72,0,0,0-8.89,6.32,25.79,25.79,0,0,0-5.89,8.14,13.23,13.23,0,0,0-.75,9.21,14.29,14.29,0,0,0,4.71,7.92A18.56,18.56,0,0,0,589,372.7a31.39,31.39,0,0,0,10.06.32A53.13,53.13,0,0,0,609.55,370.66Z"/><path class="cls-2" d="M345.49,482.32a3,3,0,0,1-1.76.63,3.13,3.13,0,0,1-1.39-.25,38.6,38.6,0,0,1-3.21-2.33,5.49,5.49,0,0,0-3.21-1.45,4.3,4.3,0,0,0-3,1.38,14.75,14.75,0,0,0-2.52,3.21,27.73,27.73,0,0,0-1.83,3.72,20.7,20.7,0,0,0-1,3,30.89,30.89,0,0,0-.5,4.53,21.74,21.74,0,0,0,.38,5.23,12.06,12.06,0,0,0,2,4.66,7.85,7.85,0,0,0,4.34,3,8.2,8.2,0,0,0,4.15-.06,15.09,15.09,0,0,0,4.72-2.08,19.61,19.61,0,0,0,4.41-4,18.57,18.57,0,0,0,3.21-5.79,12.13,12.13,0,0,0,.06-7.62A9,9,0,0,0,345.49,482.32Z"/><path class="cls-3" d="M1210.47,372.7a29,29,0,0,0-3.86,5.26,19.14,19.14,0,0,0-1,2,19.13,19.13,0,0,1,1-2A29,29,0,0,1,1210.47,372.7Z"/><path class="cls-3" d="M1231.23,330.35h0Z"/><path class="cls-3" d="M1215.6,335.71c-.85.34-1.69.72-2.54,1.07,1.88-.78,3.76-1.54,5.66-2.26,2.9-1.09,5.83-2.12,8.79-3.05Q1221.48,333.36,1215.6,335.71Z"/><path class="cls-3" d="M1205.4,340.17c1.87-.89,3.76-1.72,5.66-2.54-.65.28-1.31.54-2,.83Q1207.24,339.29,1205.4,340.17Z"/><path class="cls-3" d="M1235.93,329.08h0q2.86-.72,5.62-1.3-2.77.59-5.62,1.3Z"/><path class="cls-3" d="M1246.08,326.9c-1.48.26-3,.55-4.5.87C1243.1,327.45,1244.6,327.17,1246.08,326.9Z"/><path class="cls-3" d="M1261.9,324.88l1.32-.09-.84,0Z"/><path class="cls-3" d="M1289.55,324.92l6.08.39q3.12.21,6.23.49-3.12-.28-6.23-.49Z"/><path class="cls-3" d="M1312.12,326.92c3.08.4,6.15.87,9.22,1.37-1.37-.22-2.73-.45-4.1-.66Q1314.68,327.25,1312.12,326.92Z"/><path class="cls-3" d="M1266.4,324.61l1.25-.06h-.49Z"/><path class="cls-3" d="M1349.53,343.49q-10.11-2.8-20.33-4.82-7.26-1.44-14.54-2.46-9.8-1.39-19.61-2.06c-3.36-.23-6.83-.46-10.41-.63-2-.09-4-.17-6-.22s-3.89-.06-5.89,0q-3.55,0-7.27.24-3.32.18-6.79.54-2.4.25-4.88.58-1.86.26-3.77.57c-1.69.28-3.41.61-5.16,1l-.38.08-.94.19h0l-.27.06c-1.69.36-3.39.74-5.13,1.18a154.88,154.88,0,0,0-24.54,8.43q-4,1.75-7.84,3.72h0l-2.26-4.44-1.76-3.45h0c.61-.31,1.22-.6,1.84-.88l1.85-.86q1.84-.88,3.7-1.71c.65-.29,1.31-.55,2-.83l2-.84c.85-.35,1.69-.73,2.54-1.07q5.88-2.35,11.91-4.24l.63-.21c1-.32,2.06-.61,3.1-.91h0c1.56-.44,3.12-.87,4.68-1.27h0q2.86-.72,5.62-1.3c1.52-.32,3-.61,4.5-.87l1-.18c1-.18,2-.32,3-.47.75-.12,1.52-.25,2.26-.35q2.48-.34,4.89-.59l.23,0h0c1.51-.16,3-.28,4.45-.39l.48,0,.84,0q1.61-.11,3.18-.18l.77,0h.5c1.39-.05,2.78-.1,4.13-.12q2.28,0,4.47,0c2.34,0,4.62.08,6.84.17s4.36.2,6.45.33l6.08.39q3.12.21,6.23.49,5.13.46,10.25,1.13,2.56.33,5.12.71t5.11.81l.46.09q4.46.75,8.9,1.66l1.93.4c3,.63,6.06,1.3,9.08,2l2.58.62,2.65.7c2.74.72,5.47,1.46,8.2,2.26a178.07,178.07,0,0,0-80.81-90.63c-51.21-20.64-104.21-16.88-112.64-16.15-5.66.49-13.09,1.15-21.6,2.5a177.94,177.94,0,0,0-109.54,94.5c-1.51,3.22-2.92,6.5-4.24,9.82,3.65-.77,7.1-1.37,10.35-1.86a152.73,152.73,0,0,1,23.87-1.79l1.54,0,3.29,0c15.88.23,26.88.8,38.83,7.67,15.23,8.76,23,22.34,26.35,29.65,3.22,7.14,4.19,12.84,6.28,52.47l.47,9c1.47,28.65,1.74,33.81,7.58,39.84,8.66,8.93,20.26,8,30.48,7.15,7.28-.59,14.15-1.15,19.51,1.53,6,3,11.53,10.84,13.92,28.39l.61,0,.61,0c9.61,0,18,2.11,24.06,5.62a25.89,25.89,0,0,1,4,2.89,20.4,20.4,0,0,1,1.65,1.62,16.38,16.38,0,0,1,2.48,3.55,13.8,13.8,0,0,1,.8,1.91,13,13,0,0,1,.49,2,12.78,12.78,0,0,1,.17,2.07h0a12.75,12.75,0,0,1-.09,1.41c0,.14,0,.27-.06.41q-.07.51-.19,1c0,.13-.06.27-.09.4a13.12,13.12,0,0,1-.42,1.33,14.11,14.11,0,0,1-.91,1.89l-.27.46h0a16.21,16.21,0,0,1-1.23,1.78,19.72,19.72,0,0,1-2.39,2.47,24.71,24.71,0,0,1-2.61,2,34.93,34.93,0,0,1-8.28,3.92q-1.31.44-2.7.8a55.18,55.18,0,0,1-10.61,1.68q-1.9.12-3.87.12l-.68,0c-.43,6.45-1.08,13.46-2,21.11q-.51,4.34-1.13,9,4.56-.4,9.06-1c63.85-8.9,116.82-52,139.89-110.13V417.34l-1.27,0c-1.72.43-3.46.79-5.19,1.17a217,217,0,0,1-21.6,3.75q-4.5.54-9,.87-4.07.3-7.92.43t-7.47.13c-.7,0-1.35,0-2,0l-2.05,0a41,41,0,0,1-6.23,1.56,40,40,0,0,1-21.9-2.49,40.63,40.63,0,0,1-4.57-2.23l-1.26-.21-.62-.11-1.17-.2c-.87-.15-1.75-.34-2.62-.51-1.91-.37-3.81-.8-5.72-1.25-1.27-.3-2.54-.61-3.81-1s-2.79-.78-4.18-1.21c-1.13-.35-2.26-.72-3.38-1.09h0l-.7-.22-1.18-.39c-.52-.18-1-.38-1.55-.57-2.59-.94-5.17-1.93-7.7-3q-4.56-2-9-4.23c-8.33-4.31-13.67-8.16-16.64-12.18a15.53,15.53,0,0,1-2-3.68q-.24-.63-.42-1.26t-.29-1.29q-.11-.65-.16-1.32t0-1.22q0-.6.06-1.19a14.69,14.69,0,0,1,.4-2.28,16.29,16.29,0,0,1,.71-2.15,19.14,19.14,0,0,1,1-2,29,29,0,0,1,3.86-5.26c.47-.52.94-1,1.4-1.49s1.09-1.09,1.68-1.64c.94-.88,2-1.79,3.11-2.71l.8-.64a73,73,0,0,1,15.09-9l.47-.21c2.57-1.14,5.36-2.23,8.39-3.24s6.29-2,9.8-2.79c.95-.23,1.92-.44,2.9-.65,2.56-.55,5.22-1.06,8-1.5,1.22-.19,2.4-.33,3.58-.47s2.36-.29,3.52-.4,2.32-.24,3.46-.33c.73-.27,1.49-.5,2.24-.73a39.36,39.36,0,0,1,19.66-1.08,40.57,40.57,0,0,1,7.31,2.19q2,.2,3.8.42l3.58.45c2.31.31,4.47.62,6.44.91a246.73,246.73,0,0,1,29.18,6.37c.94.27,1.89.55,2.83.84l.13,0,3.68,1.15c.94.3,1.89.56,2.83.86.59.19,1.17.42,1.76.61v-14.2c-1.27-.39-2.54-.77-3.81-1.14C1351.42,344.06,1350.48,343.75,1349.53,343.49Z"/><polygon class="cls-4" points="1356.16 143.08 949.4 143.08 143.84 143.08 143.84 185.88 949.4 185.88 1356.16 185.88 1356.16 143.8 1356.16 143.08"/><polygon class="cls-2" points="1203.56 345.54 1203.47 345.37 1201.71 341.91 1203.47 345.37 1203.56 345.54"/><path class="cls-2" d="M1267.66,324.55q4.44-.17,8.6-.13-2.2,0-4.47,0C1270.44,324.46,1269.06,324.5,1267.66,324.55Z"/><path class="cls-2" d="M1356.16,200.15H143.84V606.92H1356.18V466.52c-23.06,58.13-76,101.23-139.89,110.13q-4.49.63-9.06,1,.62-4.62,1.13-9c.9-7.65,1.55-14.66,2-21.11l.68,0q2,0,3.87-.12a55.18,55.18,0,0,0,10.61-1.68q1.39-.37,2.7-.8a34.93,34.93,0,0,0,8.28-3.92,24.71,24.71,0,0,0,2.61-2,19.72,19.72,0,0,0,2.39-2.47,16.23,16.23,0,0,0,1.23-1.78l.27-.46a14.12,14.12,0,0,0,.9-1.89,13.12,13.12,0,0,0,.42-1.33c0-.13.06-.26.09-.4q.11-.5.19-1c0-.14,0-.27.06-.41a12.28,12.28,0,0,0-.08-3.47,13,13,0,0,0-.49-2,13.8,13.8,0,0,0-.8-1.91,16.38,16.38,0,0,0-2.48-3.55,20.4,20.4,0,0,0-1.65-1.62,25.89,25.89,0,0,0-4-2.89c-6-3.51-14.45-5.62-24.06-5.62l-.61,0-.61,0c-2.39-17.55-8-25.41-13.92-28.39-5.36-2.68-12.23-2.12-19.51-1.53-10.23.83-21.82,1.78-30.48-7.15-5.84-6-6.11-11.19-7.58-39.84l-.47-9c-2.09-39.64-3.06-45.33-6.28-52.47-3.3-7.31-11.12-20.89-26.35-29.65-11.95-6.87-23-7.44-38.83-7.67l-3.29,0-1.54,0a152.73,152.73,0,0,0-23.87,1.79c-3.25.48-6.7,1.09-10.35,1.86,1.32-3.32,2.73-6.6,4.24-9.82a177.94,177.94,0,0,1,109.54-94.5c8.51-1.34,15.94-2,21.6-2.5,8.42-.73,61.42-4.49,112.64,16.15a178.07,178.07,0,0,1,80.81,90.63c-2.72-.8-5.46-1.54-8.2-2.26l-2.65-.69-2.58-.62c-3-.73-6-1.4-9.08-2l-1.93-.4q-4.44-.9-8.9-1.66l-1.48-.24c-3.07-.5-6.15-1-9.22-1.37q-5.12-.66-10.25-1.13-3.12-.28-6.23-.49l-6.08-.39c-2.09-.12-4.24-.24-6.45-.33s-4.49-.15-6.84-.17q-4.16,0-8.61.13h0l-1.25.06q-1.57.07-3.18.18l-1.32.09q-2.31.17-4.68.42c-.92.1-1.86.22-2.79.34q-2.16.27-4.38.61-2,.3-4,.66c-1.48.27-3,.55-4.5.87q-2.77.59-5.62,1.3h0c-1.57.39-3.13.82-4.68,1.27h0q-1.87.53-3.73,1.12c-3,.93-5.88,2-8.79,3.05-1.9.72-3.78,1.48-5.66,2.26l-2,.84c-1.9.82-3.79,1.65-5.66,2.54-1.23.59-2.47,1.13-3.68,1.74l1.76,3.45,2.26,4.44q3.87-2,7.84-3.72a154.85,154.85,0,0,1,24.54-8.43c1.84-.46,3.63-.86,5.41-1.24l.88-.18.13,0,.31-.06h0c1.74-.35,3.47-.68,5.16-1q1.91-.31,3.77-.57,2.48-.34,4.88-.58,3.48-.36,6.79-.54,3.72-.21,7.27-.24,3,0,5.89,0c2.05,0,4.06.12,6,.22,3.58.17,7,.4,10.41.63q9.81.66,19.61,2.06,7.28,1,14.54,2.46,10.21,2,20.33,4.82c.95.26,1.89.57,2.84.85,1.27.37,2.54.75,3.81,1.14V242.66h0ZM714.41,272.06c11,1,22.25,1.63,33.33,2,13.09.39,26.37.33,39.48-.18a6.08,6.08,0,1,1,.47,12.14c-7.6.29-15.25.44-22.89.44q-8.74,0-17.43-.26c-11.31-.33-22.76-1-34-2a6.08,6.08,0,0,1,1.06-12.11ZM278.23,504.3a17.89,17.89,0,0,1-5,3.72,50.1,50.1,0,0,1-6.61,3.08,35.19,35.19,0,0,1-7,1.89,23,23,0,0,1-7,.06,16.61,16.61,0,0,1-6.49-2.39,13.46,13.46,0,0,1-5.79-9.32,27.61,27.61,0,0,1,.88-12.47,25.44,25.44,0,0,1,2.14-4.85,21.74,21.74,0,0,1,7.68-7.93,15.13,15.13,0,0,1,5.29-2,16.6,16.6,0,0,1,8.94.94,9.27,9.27,0,0,1,5.67,6.23,4.36,4.36,0,0,1,0,2.08,2.61,2.61,0,0,1-1.39,1.7,3.24,3.24,0,0,1-2.14.32,3.1,3.1,0,0,1-2.14-1.57,6,6,0,0,0-4.91-2.64,9.29,9.29,0,0,0-4.72,1.2,13,13,0,0,0-3.65,3.15,18,18,0,0,0-2.58,4.34,20.68,20.68,0,0,0-1.39,4.79,10,10,0,0,0,1.51,7.43q2.14,3,6.68,3a23.19,23.19,0,0,0,8.25-1.45,41.61,41.61,0,0,0,8.63-4.09,10.64,10.64,0,0,1,3.27-.88,2.65,2.65,0,0,1,2.52,1.51Q280.12,502.22,278.23,504.3ZM292,374.52a23.45,23.45,0,0,1-6.85,4.92,45.75,45.75,0,0,1-9.42,3.43,46.94,46.94,0,0,1-10.49,1.39,35.4,35.4,0,0,1-10.06-1.18A33.13,33.13,0,0,1,244,378a31,31,0,0,1-7.6-7.71,33.47,33.47,0,0,1-4.5-9.42,42,42,0,0,1-1.71-10.38,45.2,45.2,0,0,1,5-23.12,34.64,34.64,0,0,1,15.31-15.2,26.38,26.38,0,0,1,14.67-2.89q7.39.75,11,5.46a4.7,4.7,0,0,1,1,2.68,4.52,4.52,0,0,1-.54,2.68,2.83,2.83,0,0,1-3.64,1.71,34.29,34.29,0,0,0-9.42-.86,17.89,17.89,0,0,0-9.85,3.85,23.69,23.69,0,0,0-7.71,10.6,38.54,38.54,0,0,0-2.78,14.45,21.89,21.89,0,0,0,3.53,12.53,20.36,20.36,0,0,0,9.1,7.6,21.73,21.73,0,0,0,7.71,1.71,50.41,50.41,0,0,0,8.67-.32,59.6,59.6,0,0,0,8.67-1.71A82.85,82.85,0,0,0,289,367a3,3,0,0,1,2.46.21,3.41,3.41,0,0,1,1.61,1.71A5.49,5.49,0,0,1,292,374.52Zm66.17,123.3a41.58,41.58,0,0,1-3.53,6.93,31.59,31.59,0,0,1-4.91,6,23.19,23.19,0,0,1-6.3,4.28,18.33,18.33,0,0,1-7.81,1.64,15.11,15.11,0,0,1-8.69-2.39,17,17,0,0,1-5.54-6.17,24,24,0,0,1-2.58-8.57,37.41,37.41,0,0,1,1.89-16.44,23.17,23.17,0,0,1,3.09-5.92,17.24,17.24,0,0,1,4.34-4.22,9.89,9.89,0,0,1,5.6-1.64,18.11,18.11,0,0,1,4.41.69,21.17,21.17,0,0,1,4.91,2,3.5,3.5,0,0,1,4-.51,16.18,16.18,0,0,1,6.36,4.16,20,20,0,0,1,4,6.23A22.16,22.16,0,0,1,359,491,19,19,0,0,1,358.21,497.81Zm18.62-99.74a5.09,5.09,0,0,1-4.07,2.14q-1.72,0-4.18-2.25A12.72,12.72,0,0,1,365,392.5a70.92,70.92,0,0,1-1.28-7.49q-.64-4.92-1.5-10.6T360.12,363a69.33,69.33,0,0,0-3.1-10.38,20.87,20.87,0,0,0-4.39-7.17,6.39,6.39,0,0,0-6-1.93q-5.35,1.07-9.31,7.49a76.33,76.33,0,0,0-6.85,14.56A134.76,134.76,0,0,0,325.76,382q-1.82,8.35-2.68,13.49-.86,3.85-2.25,5.24a4.29,4.29,0,0,1-3.1,1.39,4,4,0,0,1-3.1-1.71,20.68,20.68,0,0,1-2.57-4.18,39.82,39.82,0,0,1-2-5.14,24,24,0,0,1-1.07-4.6q-1.07-11.56-1.71-22.16t-1-21.3q-.32-10.7-.32-21.95t.43-24.09q0-10.7,7.71-9.63,2.57.43,4.5,3.75a14,14,0,0,1,1.93,7.17q0,5.14-.11,11.56t0,13.28q.11,6.86.21,14.13t.32,13.92a62,62,0,0,1,5.14-8.46,41.61,41.61,0,0,1,6.74-7.39,34.07,34.07,0,0,1,7.92-5.14,21.44,21.44,0,0,1,9.1-1.93,14.61,14.61,0,0,1,9.53,3.43,30.58,30.58,0,0,1,7.28,9.1,68,68,0,0,1,5.24,12.63,137.14,137.14,0,0,1,3.53,14.13q1.39,7.18,2,13.7t1.07,11.24A8.65,8.65,0,0,1,376.82,398.07ZM414,520.61a2.51,2.51,0,0,1-1.51-.57,6.51,6.51,0,0,1-1.38-1.45,19.65,19.65,0,0,1-1.2-1.89,5.54,5.54,0,0,1-.69-1.76q-1-6.42-1.89-13.6t-1.57-14.42q-.69-7.24-1.2-14.17T403.92,460a24.93,24.93,0,0,1,.88-5.1,2.4,2.4,0,0,1,2.64-2,3.59,3.59,0,0,1,3.09,1.7,8.28,8.28,0,0,1,1.07,3.84q.63,13.73,2.14,28.4t3.27,28Q417.4,520.49,414,520.61Zm44.4-140.74q-1.29,3.85-4.6,4a15.09,15.09,0,0,1-7.6-2.25q-3,2.14-6.85,4.6t-8.14,4.71a92.09,92.09,0,0,1-8.57,4,40.3,40.3,0,0,1-7.92,2.36,16.74,16.74,0,0,1-12.31-2.57A18.09,18.09,0,0,1,395,383.72a27,27,0,0,1-.64-10.17,28.68,28.68,0,0,1,3.21-10.06,30.8,30.8,0,0,1,7-8.67,31.7,31.7,0,0,1,10.38-6,18.39,18.39,0,0,1,4.18-1.07,28.75,28.75,0,0,1,5.57-.32,19.76,19.76,0,0,1,5.89,1.18,15.07,15.07,0,0,1,5.57,3.64q0-3.64-.11-8t-.32-8.89q-.22-4.5-.54-8.46t-.75-6.74q-.43-3.21-2.46-4a7.4,7.4,0,0,0-5,.32,47.18,47.18,0,0,0-12,6.64,155.86,155.86,0,0,0-13.06,10.49,5.34,5.34,0,0,1-4.39,1.71,6.5,6.5,0,0,1-4.18-1.93,6.3,6.3,0,0,1-1.93-4,7,7,0,0,1,1.71-4.82q3.64-3.85,8.14-7.92a84.36,84.36,0,0,1,9.42-7.39,57.83,57.83,0,0,1,10.06-5.46A29.94,29.94,0,0,1,431,301.51q7.49-.21,11.56,3.32a14.61,14.61,0,0,1,4.92,9.1q.85,6,1.39,12.74t.86,13.6q.32,6.86.32,13.28t-.21,11.56q6.85,4.71,8.24,8.35A8.83,8.83,0,0,1,458.4,379.87Zm13.91,140.74a2.51,2.51,0,0,1-1.51-.57,6.51,6.51,0,0,1-1.38-1.45,19.65,19.65,0,0,1-1.2-1.89,5.54,5.54,0,0,1-.69-1.76q-1-6.42-1.89-13.6t-1.57-14.42q-.69-7.24-1.2-14.17T462.23,460a24.93,24.93,0,0,1,.88-5.1,2.4,2.4,0,0,1,2.64-2,3.59,3.59,0,0,1,3.09,1.7,8.28,8.28,0,0,1,1.07,3.84q.63,13.73,2.14,28.4t3.27,28Q475.71,520.49,472.31,520.61Zm39.61-178.42q-2.57,4.49-5.25,10t-5.25,11.13q-2.57,5.68-5,11.35T491.79,385a7.66,7.66,0,0,1-3.75,2,7.85,7.85,0,0,1-4.6-.32,7,7,0,0,1-3.43-2.14,4.62,4.62,0,0,1-1.29-3q-1.93-16.7-4-30.4t-5.25-28q-1.5-4.92-.53-7.82t6.32-2.25q7.49,1.29,9.21,9.42.64,3.21,1.39,7.17t1.61,8.14q.85,4.17,1.5,8.46t1.07,8.14q2.57-5.56,5.57-11.78a92.65,92.65,0,0,1,6.53-11.45,43.48,43.48,0,0,1,7.49-8.67,13,13,0,0,1,8.67-3.43,15.65,15.65,0,0,1,11.88,5.14,44.5,44.5,0,0,1,8.14,12.74,91,91,0,0,1,5.24,16q1.93,8.35,3.21,14.77,1.29,5.78-5.14,8.57-3,1.5-4.5.43a3.78,3.78,0,0,1-1.71-2.14,71.66,71.66,0,0,1-2.68-9q-1.61-6.42-3.64-13.06a68.82,68.82,0,0,0-4.6-11.56q-2.57-4.92-5.78-4.5Q514.92,336.62,511.92,342.19Zm41.12,159a19.3,19.3,0,0,1-5.79,6.86,18.92,18.92,0,0,1-8.44,3.59,18.69,18.69,0,0,1-8.31-.38,17.35,17.35,0,0,1-7.68-4.41,19.38,19.38,0,0,1-4.41-6.8,29.6,29.6,0,0,1-1.89-8.06,19,19,0,0,1,.69-7.43,17.51,17.51,0,0,1,3.34-6.23,18.21,18.21,0,0,1,5.67-4.47,19.41,19.41,0,0,1,7.93-2,17.6,17.6,0,0,1,9.82,2,13.23,13.23,0,0,1,6.17,6.67,6.63,6.63,0,0,1,.57,4.16,5.48,5.48,0,0,1-2.58,3.15,43.76,43.76,0,0,1-10.58,4.47,45.49,45.49,0,0,1-12.22,1.57,11.22,11.22,0,0,0,2.52,7,9.08,9.08,0,0,0,5.67,3.09,13.41,13.41,0,0,0,4.09-.13,16.86,16.86,0,0,0,3.9-1.2,22.87,22.87,0,0,0,3.34-1.83,24.3,24.3,0,0,0,2.64-2,5.68,5.68,0,0,1,2.39-1.32,3.27,3.27,0,0,1,1.89-.06Q553.54,498.07,553,501.22Zm17.87-122.52a26.68,26.68,0,0,1-7.82-12.31q-5.14-16.48,6.42-30a54,54,0,0,1,12.2-10.06,61.74,61.74,0,0,1,17.56-7.07l3.85-.86-5.35-33.83a13.68,13.68,0,0,1,.54-7.07,5.38,5.38,0,0,1,4.82-3.64,6.91,6.91,0,0,1,5.67,1.71,9.48,9.48,0,0,1,3.1,5.57q4.28,24.62,8,48.92t6.74,47.64q.85,6.21-.86,8.46a10.62,10.62,0,0,1-4.07,3.32,5.66,5.66,0,0,1-4.82,0,5.29,5.29,0,0,1-2.89-3.85l-.22-1.28-.86.21a49,49,0,0,1-14.77,2.89,44.23,44.23,0,0,1-14.77-1.82A33.26,33.26,0,0,1,570.91,378.69ZM631.5,504.3a17.89,17.89,0,0,1-5,3.72,50.1,50.1,0,0,1-6.61,3.08,35.19,35.19,0,0,1-7,1.89,23,23,0,0,1-7,.06,16.61,16.61,0,0,1-6.49-2.39,13.46,13.46,0,0,1-5.79-9.32,27.61,27.61,0,0,1,.88-12.47,25.44,25.44,0,0,1,2.14-4.85,21.74,21.74,0,0,1,7.68-7.93,15.13,15.13,0,0,1,5.29-2,16.6,16.6,0,0,1,8.94.94,9.27,9.27,0,0,1,5.67,6.23,4.36,4.36,0,0,1,0,2.08,2.61,2.61,0,0,1-1.39,1.7,3.24,3.24,0,0,1-2.14.32,3.1,3.1,0,0,1-2.14-1.57,6,6,0,0,0-4.91-2.64,9.29,9.29,0,0,0-4.72,1.2,13,13,0,0,0-3.65,3.15,18,18,0,0,0-2.58,4.34,20.68,20.68,0,0,0-1.39,4.79,10,10,0,0,0,1.51,7.43q2.14,3,6.68,3a23.19,23.19,0,0,0,8.25-1.45,41.61,41.61,0,0,0,8.63-4.09,10.64,10.64,0,0,1,3.27-.88,2.65,2.65,0,0,1,2.52,1.51Q633.39,502.22,631.5,504.3Zm31.79-124.64a18.66,18.66,0,0,1-1.82,7.82q-1.82,4-5,4-4.07,0-6.53-4.18a27.74,27.74,0,0,1-3.32-8q-3.64-15.2-6-30.08t-4.07-29.65q0-3,1.82-3.85a8,8,0,0,1,4.18-.64,14.85,14.85,0,0,1,4.92,1.28,4.52,4.52,0,0,1,2.78,3.43q.85,7.92,2.14,16.59t2.57,14.88A37.6,37.6,0,0,1,659.65,337a55.4,55.4,0,0,1,9.53-12.42A56.17,56.17,0,0,1,682,315.21a47.93,47.93,0,0,1,14.66-5.14,16.73,16.73,0,0,1,5.35,0,5,5,0,0,1,3,1.5q.85,1.07.32,3.43a7.4,7.4,0,0,1-3.32,4.28q-3.85,2.14-8,4.5a80.13,80.13,0,0,0-8.35,5.46,53.69,53.69,0,0,0-7.92,7.28,47.47,47.47,0,0,0-6.74,10,56.67,56.67,0,0,0-5.78,16.59A135.78,135.78,0,0,0,663.29,379.66Zm54,127.48a8.89,8.89,0,0,1-2.27,3.65,56.61,56.61,0,0,1-5,3.46q-3.09,2-6.61,3.72a70.51,70.51,0,0,1-7.12,3.09,25.42,25.42,0,0,1-6.36,1.57q-4.16.38-6.3-2.27a11.45,11.45,0,0,1-2.39-6.68q-.25-4-.06-9.32t.44-11.21q-2.39.25-4.6.44t-4.22.44a10,10,0,0,1-3.59-.76,2.85,2.85,0,0,1-2-2.9,4.86,4.86,0,0,1,.63-2,4.2,4.2,0,0,1,2.77-1.89q5.16-.88,11.46-1.51.38-5.92.88-11.46t.88-10.08a5.5,5.5,0,0,1,.88-2.64,2.07,2.07,0,0,1,1.64-1.13,6.92,6.92,0,0,1,4.09,1.07q1.95,1.2,2,2.71-.5,4.29-.94,9.7t-.82,11.08q2.52-.25,4.85-.32t4.47-.19a9.16,9.16,0,0,1,4.79,1.13,4.14,4.14,0,0,1,2.39,3.9,3,3,0,0,1-2.33,2.71,13.36,13.36,0,0,1-3.34.57q-2.52,0-5.42.13t-5.92.38q-.25,4.16-.44,7.81t-.31,6.49q-.13,2.83-.13,4.6a6.24,6.24,0,0,0,.13,1.89,35.3,35.3,0,0,0,6-1.7q3.21-1.2,6.42-2.64t6.3-3l5.86-3a3.4,3.4,0,0,1,2.33-.38,1.63,1.63,0,0,1,1.32,1.13A7.29,7.29,0,0,1,717.27,507.13Zm55.41,8.44a3.29,3.29,0,0,1-3.78-.13,7.89,7.89,0,0,1-3-3.4,23.93,23.93,0,0,1-2.14-6.49q-.76-3.84-1.13-7.62t-.44-7.05q-.06-3.27-.06-4.91a7.46,7.46,0,0,1,1-3.28,3.31,3.31,0,0,1,2.27-1.76A4.62,4.62,0,0,1,769,483a7.59,7.59,0,0,1,1.26,4.85q0,2.27.13,5t.5,5.54q.38,2.77.88,5.35a18.79,18.79,0,0,0,1.26,4.22,11.52,11.52,0,0,1,.94,4.34A3.39,3.39,0,0,1,772.68,515.57Zm3.28-49.5a1.71,1.71,0,0,1-1.76,1.39q-1.51.13-2.52.13a58.81,58.81,0,0,0-13.48,2.14,4.18,4.18,0,0,1-3.27-.38,4.28,4.28,0,0,1-2.14-3.53,2,2,0,0,1,.76-1.64,9.18,9.18,0,0,1,1.76-1.13,22.2,22.2,0,0,1,3.9-1.32,34.11,34.11,0,0,1,4.6-.82,32.87,32.87,0,0,1,4.47-.19,15.55,15.55,0,0,1,3.53.44,7.42,7.42,0,0,1,3.21,1.89A3.47,3.47,0,0,1,776,466.08Zm3.38-86.21q-1.29,3.85-4.6,4a15.09,15.09,0,0,1-7.6-2.25q-3,2.14-6.85,4.6t-8.14,4.71a92.09,92.09,0,0,1-8.57,4,40.3,40.3,0,0,1-7.92,2.36,16.74,16.74,0,0,1-12.31-2.57A18.09,18.09,0,0,1,716,383.72a27,27,0,0,1-.64-10.17,28.68,28.68,0,0,1,3.21-10.06,30.8,30.8,0,0,1,7-8.67,31.7,31.7,0,0,1,10.38-6,18.39,18.39,0,0,1,4.18-1.07,28.75,28.75,0,0,1,5.57-.32,19.76,19.76,0,0,1,5.89,1.18,15.07,15.07,0,0,1,5.57,3.64q0-3.64-.11-8t-.32-8.89q-.22-4.5-.54-8.46t-.75-6.74q-.43-3.21-2.46-4a7.4,7.4,0,0,0-5,.32,47.18,47.18,0,0,0-12,6.64,155.86,155.86,0,0,0-13.06,10.49,5.34,5.34,0,0,1-4.39,1.71,6.5,6.5,0,0,1-4.18-1.93,6.3,6.3,0,0,1-1.93-4,7,7,0,0,1,1.71-4.82q3.64-3.85,8.14-7.92a84.36,84.36,0,0,1,9.42-7.39,57.83,57.83,0,0,1,10.06-5.46,29.94,29.94,0,0,1,10.28-2.36q7.49-.21,11.56,3.32a14.61,14.61,0,0,1,4.92,9.1q.85,6,1.39,12.74t.86,13.6q.32,6.86.32,13.28t-.21,11.56q6.85,4.71,8.24,8.35A8.83,8.83,0,0,1,779.33,379.87Zm80.37,91.87q-2,3.4-4,6.67t-4.35,7.49q-2.33,4.22-5.35,9.76t-7.05,13.48a15.79,15.79,0,0,1-2,3,3.1,3.1,0,0,1-2.39,1.13,4,4,0,0,1-3-1.07,12,12,0,0,1-1.83-2.33q-4.16-6.92-8.19-15.36A124,124,0,0,1,815,478a1.94,1.94,0,0,1,.06-1.45,1.74,1.74,0,0,1,.94-1.07,4.73,4.73,0,0,1,3.28-.13,9,9,0,0,1,3,2.27,14.83,14.83,0,0,1,2.39,3.4q.76,1.76,1.76,4t2.2,4.85q1.19,2.58,2.46,5.1t2.52,4.53l4.6-8.12,5-8.82q2.52-4.47,5.1-8.63t5.1-7.43a2.39,2.39,0,0,1,1.76-1,3.69,3.69,0,0,1,2.52.88Q860.84,468.85,859.71,471.74Zm10-96.16a15.13,15.13,0,0,1-3.85,6.21,96,96,0,0,1-8.46,5.89A128.38,128.38,0,0,1,846.13,394a118.51,118.51,0,0,1-12.1,5.25,43.23,43.23,0,0,1-10.81,2.68q-7.07.64-10.7-3.85a19.44,19.44,0,0,1-4.07-11.35q-.43-6.85-.11-15.84t.75-19.06q-4.07.43-7.82.75t-7.17.75A17,17,0,0,1,788,352a4.84,4.84,0,0,1-3.32-4.92,8.27,8.27,0,0,1,1.07-3.43q1.07-2.14,4.71-3.21,8.78-1.49,19.48-2.57.64-10.06,1.5-19.48t1.5-17.13a9.36,9.36,0,0,1,1.5-4.5q1.29-1.93,2.78-1.93a11.78,11.78,0,0,1,7,1.82q3.32,2,3.32,4.6-.86,7.28-1.61,16.49t-1.39,18.84q4.28-.43,8.24-.54t7.6-.32a15.57,15.57,0,0,1,8.14,1.93,7,7,0,0,1,4.07,6.64,5,5,0,0,1-4,4.6,22.84,22.84,0,0,1-5.67,1q-4.29,0-9.21.21t-10.06.64q-.43,7.07-.75,13.28t-.54,11q-.21,4.82-.21,7.81a10.63,10.63,0,0,0,.21,3.21,59.83,59.83,0,0,0,10.17-2.89q5.46-2,10.92-4.5t10.7-5.14q5.24-2.67,10-5a5.8,5.8,0,0,1,4-.64,2.77,2.77,0,0,1,2.25,1.93A12.4,12.4,0,0,1,869.68,375.59Zm65.84,125.63a19.3,19.3,0,0,1-5.79,6.86,18.92,18.92,0,0,1-8.44,3.59,18.69,18.69,0,0,1-8.31-.38,17.35,17.35,0,0,1-7.68-4.41,19.38,19.38,0,0,1-4.41-6.8A29.6,29.6,0,0,1,899,492a19,19,0,0,1,.69-7.43,17.51,17.51,0,0,1,3.34-6.23,18.21,18.21,0,0,1,5.67-4.47,19.41,19.41,0,0,1,7.93-2,17.6,17.6,0,0,1,9.82,2,13.23,13.23,0,0,1,6.17,6.67,6.63,6.63,0,0,1,.57,4.16,5.48,5.48,0,0,1-2.58,3.15A43.76,43.76,0,0,1,920,492.34a45.49,45.49,0,0,1-12.22,1.57,11.22,11.22,0,0,0,2.52,7A9.08,9.08,0,0,0,916,504a13.41,13.41,0,0,0,4.09-.13,16.86,16.86,0,0,0,3.9-1.2,22.87,22.87,0,0,0,3.34-1.83,24.3,24.3,0,0,0,2.64-2,5.68,5.68,0,0,1,2.39-1.32,3.27,3.27,0,0,1,1.89-.06Q936,498.07,935.53,501.22Zm11.66-141.47a70.67,70.67,0,0,1-6,11.78,53.79,53.79,0,0,1-8.35,10.28,39.46,39.46,0,0,1-10.7,7.28,31.13,31.13,0,0,1-13.28,2.78q-8.78,0-14.77-4.07a28.91,28.91,0,0,1-9.42-10.49,40.86,40.86,0,0,1-4.39-14.56,63.54,63.54,0,0,1,3.21-27.94,39.59,39.59,0,0,1,5.24-10.06,29.36,29.36,0,0,1,7.39-7.17,16.79,16.79,0,0,1,9.53-2.78,30.79,30.79,0,0,1,7.49,1.18,35.9,35.9,0,0,1,8.35,3.32q2.78-2.57,6.85-.86a27.48,27.48,0,0,1,10.81,7.07,34,34,0,0,1,6.74,10.6,37.65,37.65,0,0,1,2.68,12.1A32.24,32.24,0,0,1,947.19,359.74Zm263.48,157.43h.36c14.23,0,24.86,5.7,24.86,10.8s-10.63,10.8-24.86,10.8h-.2c-14.12-.06-24.65-5.72-24.65-10.8S1196.63,517.27,1210.67,517.18Z"/><path class="cls-2" d="M1244.85,336.14h0l-.31.06-.07,0Z"/><path class="cls-2" d="M1213.05,336.78l-2,.84Z"/><path class="cls-2" d="M1235.93,329.08c-1.57.39-3.13.82-4.68,1.27C1232.81,329.9,1234.37,329.48,1235.93,329.08Z"/><path class="cls-2" d="M1231.23,330.35c-1,.3-2.07.59-3.1.91l-.63.21Q1229.36,330.89,1231.23,330.35Z"/><path class="cls-2" d="M1246.08,326.9q2-.35,4-.66c-1,.15-2,.29-3,.47Z"/><path class="cls-2" d="M1250.05,326.25q2.22-.34,4.38-.61c-.71.09-1.4.16-2.11.26S1250.8,326.13,1250.05,326.25Z"/><path class="cls-2" d="M1214.9,547.5q-1.9.12-3.87.12l-.68,0,.68,0Q1213,547.62,1214.9,547.5Z"/><path class="cls-2" d="M1272.72,333.26q-3.55,0-7.27.24-3.32.18-6.79.54,3.48-.36,6.79-.54Q1269.17,333.29,1272.72,333.26Z"/><path class="cls-2" d="M1351.58,358.2l-3.68-1.15c-1-.3-2-.6-3-.88a246.62,246.62,0,0,0-29.18-6.37c-2-.29-4.13-.61-6.44-.91l-3.58-.45q-1.85-.22-3.8-.42a40.59,40.59,0,0,0-7.31-2.19,39.36,39.36,0,0,0-19.66,1.08c-.75.23-1.5.46-2.24.73-1.14.09-2.3.21-3.46.33s-2.34.25-3.52.4-2.36.28-3.58.47c-2.82.43-5.47.95-8,1.5-1,.21-2,.43-2.9.65-3.51.84-6.78,1.78-9.8,2.79s-5.82,2.1-8.39,3.24l-.47.21a73,73,0,0,0-15.09,9l-.8.64c-1.13.92-2.17,1.82-3.11,2.71-.59.56-1.16,1.11-1.68,1.64s-.93,1-1.4,1.49a29,29,0,0,0-3.86,5.26,19.13,19.13,0,0,0-1,2,16.29,16.29,0,0,0-.71,2.15,14.69,14.69,0,0,0-.4,2.28q-.05.59-.06,1.19t0,1.22q.05.67.16,1.32t.29,1.29q.18.64.42,1.26-.24-.63-.42-1.26.18.64.42,1.26a15.53,15.53,0,0,0,2,3.68c3,4,8.31,7.87,16.64,12.18q4.38,2.27,9,4.23c2.53,1.09,5.11,2.08,7.7,3,.52.19,1,.39,1.55.57l.67.22,1.2.39h0l.9.29,1.18.38,1.31.42c1.39.42,2.78.83,4.17,1.21s2.54.65,3.81,1c1.91.46,3.81.88,5.72,1.25.87.17,1.75.36,2.62.51l1.17.2.62.11,1.26.21a40.82,40.82,0,0,0,4.57,2.23,40,40,0,0,0,21.9,2.49,41,41,0,0,0,6.23-1.56l2.05,0c.67,0,1.33,0,2,0q3.62,0,7.47-.13t7.92-.43q4.52-.33,9-.87a217.1,217.1,0,0,0,21.6-3.75c1.73-.39,3.46-.75,5.19-1.17h0l1.27-.31V408a207.05,207.05,0,0,1-37.73,6.36c-1.28.09-2.52.17-3.77.23a40.23,40.23,0,0,0,2.62-55.54,242,242,0,0,1,25.26,5.68c4.57,1.28,9.11,2.72,13.62,4.28v-9.31c-.59-.2-1.17-.42-1.76-.61C1353.47,358.76,1352.53,358.49,1351.58,358.2Zm-105.12,27.21a40.13,40.13,0,0,0,7.4,23.24,133.5,133.5,0,0,1-25.72-10c-14.4-7.45-14.7-11.29-14.8-12.55-.19-2.39,1.31-5.08,4.87-8.73,6.05-6.21,17.51-14.14,38.24-18.5A40.15,40.15,0,0,0,1246.46,385.41Z"/><path class="cls-2" d="M1204.47,385.59q0,.6,0,1.22t.16,1.32q-.11-.65-.16-1.32T1204.47,385.59Z"/><polygon class="cls-2" points="1244.16 414.96 1244.16 414.96 1244.16 414.96 1244.16 414.96"/><polygon class="cls-2" points="1244.16 414.96 1244.17 414.96 1244.17 414.96 1244.16 414.96"/><polygon class="cls-2" points="1244.16 414.95 1244.16 414.96 1244.16 414.96 1244.16 414.95"/><path class="cls-1" d="M291.5,367.24A3,3,0,0,0,289,367a82.85,82.85,0,0,1-8.14,2.68,59.6,59.6,0,0,1-8.67,1.71,50.41,50.41,0,0,1-8.67.32,21.73,21.73,0,0,1-7.71-1.71,20.36,20.36,0,0,1-9.1-7.6,21.89,21.89,0,0,1-3.53-12.53A38.54,38.54,0,0,1,246,335.44a23.69,23.69,0,0,1,7.71-10.6,17.89,17.89,0,0,1,9.85-3.85,34.29,34.29,0,0,1,9.42.86,2.83,2.83,0,0,0,3.64-1.71,4.52,4.52,0,0,0,.54-2.68,4.7,4.7,0,0,0-1-2.68q-3.64-4.71-11-5.46a26.38,26.38,0,0,0-14.67,2.89,34.64,34.64,0,0,0-15.31,15.2,45.2,45.2,0,0,0-5,23.12,42,42,0,0,0,1.71,10.38,33.47,33.47,0,0,0,4.5,9.42A31,31,0,0,0,244,378a33.13,33.13,0,0,0,11.24,5,35.4,35.4,0,0,0,10.06,1.18,46.94,46.94,0,0,0,10.49-1.39,45.75,45.75,0,0,0,9.42-3.43,23.45,23.45,0,0,0,6.85-4.92,5.49,5.49,0,0,0,1.07-5.57A3.41,3.41,0,0,0,291.5,367.24Z"/><path class="cls-1" d="M375.43,367.56a137.14,137.14,0,0,0-3.53-14.13,68,68,0,0,0-5.24-12.63,30.58,30.58,0,0,0-7.28-9.1,14.61,14.61,0,0,0-9.53-3.43,21.44,21.44,0,0,0-9.1,1.93,34.07,34.07,0,0,0-7.92,5.14,41.61,41.61,0,0,0-6.74,7.39,62,62,0,0,0-5.14,8.46q-.21-6.64-.32-13.92t-.21-14.13q-.11-6.85,0-13.28t.11-11.56a14,14,0,0,0-1.93-7.17q-1.93-3.32-4.5-3.75-7.71-1.07-7.71,9.63Q306,309.86,306,321.1t.32,21.95q.32,10.71,1,21.3T309,386.51a24,24,0,0,0,1.07,4.6,39.82,39.82,0,0,0,2,5.14,20.68,20.68,0,0,0,2.57,4.18,4,4,0,0,0,3.1,1.71,4.29,4.29,0,0,0,3.1-1.39q1.39-1.39,2.25-5.24.85-5.14,2.68-13.49a134.76,134.76,0,0,1,4.71-16.49A76.33,76.33,0,0,1,337.32,351q4-6.42,9.31-7.49a6.39,6.39,0,0,1,6,1.93,20.87,20.87,0,0,1,4.39,7.17,69.33,69.33,0,0,1,3.1,10.38q1.29,5.78,2.14,11.45t1.5,10.6A70.92,70.92,0,0,0,365,392.5a12.72,12.72,0,0,0,3.53,5.46q2.46,2.25,4.18,2.25a5.09,5.09,0,0,0,4.07-2.14,8.65,8.65,0,0,0,1.71-5.57q-.43-4.71-1.07-11.24T375.43,367.56Z"/><path class="cls-1" d="M449.83,365.1q.21-5.14.21-11.56t-.32-13.28q-.32-6.85-.86-13.6t-1.39-12.74a14.61,14.61,0,0,0-4.92-9.1q-4.07-3.53-11.56-3.32a29.94,29.94,0,0,0-10.28,2.36,57.83,57.83,0,0,0-10.06,5.46,84.36,84.36,0,0,0-9.42,7.39q-4.49,4.07-8.14,7.92a7,7,0,0,0-1.71,4.82,6.3,6.3,0,0,0,1.93,4,6.5,6.5,0,0,0,4.18,1.93,5.34,5.34,0,0,0,4.39-1.71,155.86,155.86,0,0,1,13.06-10.49,47.18,47.18,0,0,1,12-6.64,7.4,7.4,0,0,1,5-.32q2,.75,2.46,4,.43,2.79.75,6.74t.54,8.46q.21,4.49.32,8.89t.11,8a15.07,15.07,0,0,0-5.57-3.64,19.76,19.76,0,0,0-5.89-1.18,28.75,28.75,0,0,0-5.57.32,18.39,18.39,0,0,0-4.18,1.07,31.7,31.7,0,0,0-10.38,6,30.8,30.8,0,0,0-7,8.67,28.68,28.68,0,0,0-3.21,10.06,27,27,0,0,0,.64,10.17,18.09,18.09,0,0,0,7.39,10.92,16.74,16.74,0,0,0,12.31,2.57,40.3,40.3,0,0,0,7.92-2.36,92.09,92.09,0,0,0,8.57-4q4.28-2.25,8.14-4.71t6.85-4.6a15.09,15.09,0,0,0,7.6,2.25q3.32-.1,4.6-4a8.83,8.83,0,0,0-.32-6.42Q456.68,369.81,449.83,365.1ZM424,378.91a52.92,52.92,0,0,1-11.67,4.18,4.55,4.55,0,0,1-3.1-.22,3.2,3.2,0,0,1-1.82-1.93,11,11,0,0,1,.11-7,19.12,19.12,0,0,1,3.64-6.42,26,26,0,0,1,5.57-4.92,18.51,18.51,0,0,1,5.89-2.68,5.33,5.33,0,0,1,3.75,1.28,22.11,22.11,0,0,1,3.75,3.53,37.33,37.33,0,0,1,3,4.07,6.77,6.77,0,0,1,1.28,3.32A40.06,40.06,0,0,1,424,378.91Z"/><path class="cls-1" d="M524.55,340.9a68.82,68.82,0,0,1,4.6,11.56q2,6.64,3.64,13.06a71.66,71.66,0,0,0,2.68,9,3.78,3.78,0,0,0,1.71,2.14q1.49,1.07,4.5-.43,6.42-2.78,5.14-8.57-1.29-6.42-3.21-14.77a91,91,0,0,0-5.24-16,44.5,44.5,0,0,0-8.14-12.74,15.65,15.65,0,0,0-11.88-5.14,13,13,0,0,0-8.67,3.43,43.48,43.48,0,0,0-7.49,8.67,92.65,92.65,0,0,0-6.53,11.45q-3,6.21-5.57,11.78-.43-3.85-1.07-8.14t-1.5-8.46q-.86-4.18-1.61-8.14t-1.39-7.17q-1.71-8.13-9.21-9.42-5.35-.64-6.32,2.25t.53,7.82q3.21,14.35,5.25,28t4,30.4a4.62,4.62,0,0,0,1.29,3,7,7,0,0,0,3.43,2.14,7.85,7.85,0,0,0,4.6.32,7.66,7.66,0,0,0,3.75-2q2.14-4.71,4.6-10.38t5-11.35q2.57-5.67,5.25-11.13t5.25-10q3-5.57,6.85-5.78Q522,336,524.55,340.9Z"/><path class="cls-1" d="M598.2,387.47A49,49,0,0,0,613,384.58l.86-.21.22,1.28a5.29,5.29,0,0,0,2.89,3.85,5.66,5.66,0,0,0,4.82,0,10.62,10.62,0,0,0,4.07-3.32q1.71-2.25.86-8.46-3-23.33-6.74-47.64t-8-48.92a9.48,9.48,0,0,0-3.1-5.57,6.91,6.91,0,0,0-5.67-1.71,5.38,5.38,0,0,0-4.82,3.64,13.68,13.68,0,0,0-.54,7.07l5.35,33.83-3.85.86a61.74,61.74,0,0,0-17.56,7.07,54,54,0,0,0-12.2,10.06q-11.56,13.49-6.42,30a26.68,26.68,0,0,0,7.82,12.31,33.26,33.26,0,0,0,12.53,7A44.23,44.23,0,0,0,598.2,387.47ZM589,372.7a18.56,18.56,0,0,1-8.14-3.75,14.29,14.29,0,0,1-4.71-7.92,13.23,13.23,0,0,1,.75-9.21,25.79,25.79,0,0,1,5.89-8.14,40.72,40.72,0,0,1,8.89-6.32,49.3,49.3,0,0,1,9.53-4l4.28-1.07,6,37.68-1.93.64A53.13,53.13,0,0,1,599.06,373,31.39,31.39,0,0,1,589,372.7Z"/><path class="cls-1" d="M677.74,336.51a53.69,53.69,0,0,1,7.92-7.28,80.13,80.13,0,0,1,8.35-5.46q4.18-2.35,8-4.5a7.4,7.4,0,0,0,3.32-4.28q.53-2.35-.32-3.43a5,5,0,0,0-3-1.5,16.73,16.73,0,0,0-5.35,0A47.93,47.93,0,0,0,682,315.21a56.17,56.17,0,0,0-12.85,9.42A55.4,55.4,0,0,0,659.65,337a37.6,37.6,0,0,0-4.71,14.13q-1.29-6.21-2.57-14.88t-2.14-16.59a4.52,4.52,0,0,0-2.78-3.43,14.85,14.85,0,0,0-4.92-1.28,8,8,0,0,0-4.18.64q-1.82.86-1.82,3.85,1.71,14.77,4.07,29.65t6,30.08a27.74,27.74,0,0,0,3.32,8q2.46,4.18,6.53,4.18,3.21,0,5-4a18.66,18.66,0,0,0,1.82-7.82,135.78,135.78,0,0,1,1.93-16.59A56.67,56.67,0,0,1,671,346.47,47.47,47.47,0,0,1,677.74,336.51Z"/><path class="cls-1" d="M770.77,365.1q.21-5.14.21-11.56t-.32-13.28q-.32-6.85-.86-13.6t-1.39-12.74a14.61,14.61,0,0,0-4.92-9.1q-4.07-3.53-11.56-3.32a29.94,29.94,0,0,0-10.28,2.36,57.83,57.83,0,0,0-10.06,5.46,84.36,84.36,0,0,0-9.42,7.39q-4.49,4.07-8.14,7.92a7,7,0,0,0-1.71,4.82,6.3,6.3,0,0,0,1.93,4,6.5,6.5,0,0,0,4.18,1.93,5.34,5.34,0,0,0,4.39-1.71,155.86,155.86,0,0,1,13.06-10.49,47.18,47.18,0,0,1,12-6.64,7.4,7.4,0,0,1,5-.32q2,.75,2.46,4,.43,2.79.75,6.74t.54,8.46q.21,4.49.32,8.89t.11,8a15.07,15.07,0,0,0-5.57-3.64,19.76,19.76,0,0,0-5.89-1.18,28.75,28.75,0,0,0-5.57.32,18.39,18.39,0,0,0-4.18,1.07,31.7,31.7,0,0,0-10.38,6,30.8,30.8,0,0,0-7,8.67,28.68,28.68,0,0,0-3.21,10.06,27,27,0,0,0,.64,10.17,18.09,18.09,0,0,0,7.39,10.92,16.74,16.74,0,0,0,12.31,2.57,40.3,40.3,0,0,0,7.92-2.36,92.09,92.09,0,0,0,8.57-4q4.28-2.25,8.14-4.71t6.85-4.6a15.09,15.09,0,0,0,7.6,2.25q3.32-.1,4.6-4a8.83,8.83,0,0,0-.32-6.42Q777.62,369.81,770.77,365.1ZM745,378.91a52.92,52.92,0,0,1-11.67,4.18,4.55,4.55,0,0,1-3.1-.22,3.2,3.2,0,0,1-1.82-1.93,11,11,0,0,1,.11-7,19.12,19.12,0,0,1,3.64-6.42,26,26,0,0,1,5.57-4.92,18.51,18.51,0,0,1,5.89-2.68,5.33,5.33,0,0,1,3.75,1.28,22.11,22.11,0,0,1,3.75,3.53,37.33,37.33,0,0,1,3,4.07,6.77,6.77,0,0,1,1.28,3.32A40.06,40.06,0,0,1,745,378.91Z"/><path class="cls-1" d="M868.08,367.88a5.8,5.8,0,0,0-4,.64q-4.71,2.36-10,5t-10.7,5.14q-5.46,2.46-10.92,4.5a59.83,59.83,0,0,1-10.17,2.89,10.63,10.63,0,0,1-.21-3.21q0-3,.21-7.81t.54-11q.32-6.21.75-13.28,5.14-.43,10.06-.64t9.21-.21a22.84,22.84,0,0,0,5.67-1,5,5,0,0,0,4-4.6,7,7,0,0,0-4.07-6.64,15.57,15.57,0,0,0-8.14-1.93q-3.64.22-7.6.32t-8.24.54q.64-9.64,1.39-18.84t1.61-16.49q0-2.57-3.32-4.6a11.78,11.78,0,0,0-7-1.82q-1.5,0-2.78,1.93a9.36,9.36,0,0,0-1.5,4.5q-.64,7.71-1.5,17.13t-1.5,19.48q-10.71,1.07-19.48,2.57-3.64,1.08-4.71,3.21a8.27,8.27,0,0,0-1.07,3.43A4.84,4.84,0,0,0,788,352a17,17,0,0,0,6.1,1.29q3.42-.43,7.17-.75t7.82-.75q-.43,10.07-.75,19.06t.11,15.84a19.44,19.44,0,0,0,4.07,11.35q3.64,4.49,10.7,3.85A43.23,43.23,0,0,0,834,399.25a118.51,118.51,0,0,0,12.1-5.25,128.38,128.38,0,0,0,11.24-6.32,96,96,0,0,0,8.46-5.89,15.13,15.13,0,0,0,3.85-6.21,12.4,12.4,0,0,0,.64-5.78A2.77,2.77,0,0,0,868.08,367.88Z"/><path class="cls-1" d="M945.9,336.08a34,34,0,0,0-6.74-10.6,27.48,27.48,0,0,0-10.81-7.07q-4.07-1.71-6.85.86a35.9,35.9,0,0,0-8.35-3.32,30.79,30.79,0,0,0-7.49-1.18,16.79,16.79,0,0,0-9.53,2.78,29.36,29.36,0,0,0-7.39,7.17,39.59,39.59,0,0,0-5.24,10.06,63.54,63.54,0,0,0-3.21,27.94,40.86,40.86,0,0,0,4.39,14.56,28.91,28.91,0,0,0,9.42,10.49q6,4.07,14.77,4.07a31.13,31.13,0,0,0,13.28-2.78,39.46,39.46,0,0,0,10.7-7.28,53.79,53.79,0,0,0,8.35-10.28,70.67,70.67,0,0,0,6-11.78,32.24,32.24,0,0,0,1.39-11.56A37.65,37.65,0,0,0,945.9,336.08Zm-12.2,20a31.5,31.5,0,0,1-5.46,9.85,33.32,33.32,0,0,1-7.49,6.85,25.68,25.68,0,0,1-8,3.53,14,14,0,0,1-7.07.11,13.35,13.35,0,0,1-7.39-5,20.52,20.52,0,0,1-3.32-7.92,36.92,36.92,0,0,1-.64-8.88,52.63,52.63,0,0,1,.86-7.71,35.35,35.35,0,0,1,1.71-5.14,46.91,46.91,0,0,1,3.1-6.32,25,25,0,0,1,4.28-5.46,7.31,7.31,0,0,1,5-2.36q2.36,0,5.46,2.46a65.14,65.14,0,0,0,5.46,4,5.3,5.3,0,0,0,2.36.43,5.13,5.13,0,0,0,3-1.07,15.24,15.24,0,0,1,8.24,9.74A20.61,20.61,0,0,1,933.7,356.1Z"/><path class="cls-1" d="M276.34,498.7a10.64,10.64,0,0,0-3.27.88,41.61,41.61,0,0,1-8.63,4.09,23.19,23.19,0,0,1-8.25,1.45q-4.53,0-6.68-3a10,10,0,0,1-1.51-7.43,20.68,20.68,0,0,1,1.39-4.79,18,18,0,0,1,2.58-4.34,13,13,0,0,1,3.65-3.15,9.29,9.29,0,0,1,4.72-1.2,6,6,0,0,1,4.91,2.64,3.1,3.1,0,0,0,2.14,1.57,3.24,3.24,0,0,0,2.14-.32,2.61,2.61,0,0,0,1.39-1.7,4.36,4.36,0,0,0,0-2.08,9.27,9.27,0,0,0-5.67-6.23,16.6,16.6,0,0,0-8.94-.94,15.13,15.13,0,0,0-5.29,2,21.74,21.74,0,0,0-7.68,7.93,25.44,25.44,0,0,0-2.14,4.85,27.61,27.61,0,0,0-.88,12.47,13.46,13.46,0,0,0,5.79,9.32,16.61,16.61,0,0,0,6.49,2.39,23,23,0,0,0,7-.06,35.19,35.19,0,0,0,7-1.89,50.1,50.1,0,0,0,6.61-3.08,17.89,17.89,0,0,0,5-3.72q1.89-2.08.63-4.09A2.65,2.65,0,0,0,276.34,498.7Z"/><path class="cls-1" d="M357.45,483.9a20,20,0,0,0-4-6.23,16.18,16.18,0,0,0-6.36-4.16,3.5,3.5,0,0,0-4,.51,21.17,21.17,0,0,0-4.91-2,18.11,18.11,0,0,0-4.41-.69,9.89,9.89,0,0,0-5.6,1.64,17.24,17.24,0,0,0-4.34,4.22,23.17,23.17,0,0,0-3.09,5.92,37.41,37.41,0,0,0-1.89,16.44,24,24,0,0,0,2.58,8.57,17,17,0,0,0,5.54,6.17,15.11,15.11,0,0,0,8.69,2.39,18.33,18.33,0,0,0,7.81-1.64,23.19,23.19,0,0,0,6.3-4.28,31.59,31.59,0,0,0,4.91-6,41.58,41.58,0,0,0,3.53-6.93A19,19,0,0,0,359,491,22.16,22.16,0,0,0,357.45,483.9Zm-7.18,11.78a18.57,18.57,0,0,1-3.21,5.79,19.61,19.61,0,0,1-4.41,4,15.09,15.09,0,0,1-4.72,2.08,8.2,8.2,0,0,1-4.15.06,7.85,7.85,0,0,1-4.34-3,12.06,12.06,0,0,1-2-4.66,21.74,21.74,0,0,1-.38-5.23,30.89,30.89,0,0,1,.5-4.53,20.7,20.7,0,0,1,1-3,27.73,27.73,0,0,1,1.83-3.72,14.75,14.75,0,0,1,2.52-3.21,4.3,4.3,0,0,1,3-1.38,5.49,5.49,0,0,1,3.21,1.45,38.6,38.6,0,0,0,3.21,2.33,3.13,3.13,0,0,0,1.39.25,3,3,0,0,0,1.76-.63,9,9,0,0,1,4.85,5.73A12.13,12.13,0,0,1,350.27,495.67Z"/><path class="cls-1" d="M413.75,486.92q-1.51-14.67-2.14-28.4a8.28,8.28,0,0,0-1.07-3.84,3.59,3.59,0,0,0-3.09-1.7,2.4,2.4,0,0,0-2.64,2,24.93,24.93,0,0,0-.88,5.1q.12,5.8.63,12.72t1.2,14.17q.69,7.25,1.57,14.42t1.89,13.6a5.54,5.54,0,0,0,.69,1.76,19.65,19.65,0,0,0,1.2,1.89,6.51,6.51,0,0,0,1.38,1.45,2.51,2.51,0,0,0,1.51.57q3.4-.12,3-5.67Q415.25,501.6,413.75,486.92Z"/><path class="cls-1" d="M472.06,486.92q-1.51-14.67-2.14-28.4a8.28,8.28,0,0,0-1.07-3.84,3.59,3.59,0,0,0-3.09-1.7,2.4,2.4,0,0,0-2.64,2,24.93,24.93,0,0,0-.88,5.1q.12,5.8.63,12.72t1.2,14.17q.69,7.25,1.57,14.42t1.89,13.6a5.54,5.54,0,0,0,.69,1.76,19.65,19.65,0,0,0,1.2,1.89A6.51,6.51,0,0,0,470.8,520a2.51,2.51,0,0,0,1.51.57q3.4-.12,3-5.67Q473.57,501.6,472.06,486.92Z"/><path class="cls-1" d="M551.78,497.44a3.27,3.27,0,0,0-1.89.06,5.68,5.68,0,0,0-2.39,1.32,24.3,24.3,0,0,1-2.64,2,22.87,22.87,0,0,1-3.34,1.83,16.86,16.86,0,0,1-3.9,1.2,13.41,13.41,0,0,1-4.09.13,9.08,9.08,0,0,1-5.67-3.09,11.22,11.22,0,0,1-2.52-7,45.49,45.49,0,0,0,12.22-1.57,43.76,43.76,0,0,0,10.58-4.47,5.48,5.48,0,0,0,2.58-3.15,6.63,6.63,0,0,0-.57-4.16,13.23,13.23,0,0,0-6.17-6.67,17.6,17.6,0,0,0-9.82-2,19.41,19.41,0,0,0-7.93,2,18.21,18.21,0,0,0-5.67,4.47,17.51,17.51,0,0,0-3.34,6.23,19,19,0,0,0-.69,7.43,29.6,29.6,0,0,0,1.89,8.06,19.38,19.38,0,0,0,4.41,6.8,17.35,17.35,0,0,0,7.68,4.41,18.69,18.69,0,0,0,8.31.38,18.92,18.92,0,0,0,8.44-3.59,19.3,19.3,0,0,0,5.79-6.86Q553.54,498.07,551.78,497.44ZM526.15,483.9a13,13,0,0,1,2.14-2.14,12,12,0,0,1,2.64-1.57,13.6,13.6,0,0,1,2.71-.88,14.18,14.18,0,0,1,5.48.06,4.86,4.86,0,0,1,3.72,3,17.91,17.91,0,0,1-3.46,1.64,38.87,38.87,0,0,1-4.53,1.32q-2.46.57-5,.94a32.88,32.88,0,0,1-4.72.38A4.94,4.94,0,0,1,526.15,483.9Z"/><path class="cls-1" d="M629.61,498.7a10.64,10.64,0,0,0-3.27.88,41.61,41.61,0,0,1-8.63,4.09,23.19,23.19,0,0,1-8.25,1.45q-4.53,0-6.68-3a10,10,0,0,1-1.51-7.43,20.68,20.68,0,0,1,1.39-4.79,18,18,0,0,1,2.58-4.34,13,13,0,0,1,3.65-3.15,9.29,9.29,0,0,1,4.72-1.2,6,6,0,0,1,4.91,2.64,3.1,3.1,0,0,0,2.14,1.57,3.24,3.24,0,0,0,2.14-.32,2.61,2.61,0,0,0,1.39-1.7,4.36,4.36,0,0,0,0-2.08,9.27,9.27,0,0,0-5.67-6.23,16.6,16.6,0,0,0-8.94-.94,15.13,15.13,0,0,0-5.29,2,21.74,21.74,0,0,0-7.68,7.93,25.44,25.44,0,0,0-2.14,4.85,27.61,27.61,0,0,0-.88,12.47,13.46,13.46,0,0,0,5.79,9.32,16.61,16.61,0,0,0,6.49,2.39,23,23,0,0,0,7-.06,35.19,35.19,0,0,0,7-1.89,50.1,50.1,0,0,0,6.61-3.08,17.89,17.89,0,0,0,5-3.72q1.89-2.08.63-4.09A2.65,2.65,0,0,0,629.61,498.7Z"/><path class="cls-1" d="M716.32,502.6A3.4,3.4,0,0,0,714,503l-5.86,3q-3.09,1.58-6.3,3t-6.42,2.64a35.3,35.3,0,0,1-6,1.7,6.24,6.24,0,0,1-.13-1.89q0-1.76.13-4.6t.31-6.49q.19-3.65.44-7.81,3-.25,5.92-.38t5.42-.13a13.36,13.36,0,0,0,3.34-.57,3,3,0,0,0,2.33-2.71,4.14,4.14,0,0,0-2.39-3.9,9.16,9.16,0,0,0-4.79-1.13q-2.14.13-4.47.19t-4.85.32q.38-5.67.82-11.08t.94-9.7q0-1.51-2-2.71a6.92,6.92,0,0,0-4.09-1.07,2.07,2.07,0,0,0-1.64,1.13,5.5,5.5,0,0,0-.88,2.64q-.38,4.54-.88,10.08T682.13,485q-6.3.63-11.46,1.51a4.2,4.2,0,0,0-2.77,1.89,4.86,4.86,0,0,0-.63,2,2.85,2.85,0,0,0,2,2.9,10,10,0,0,0,3.59.76q2-.25,4.22-.44t4.6-.44q-.26,5.92-.44,11.21t.06,9.32a11.45,11.45,0,0,0,2.39,6.68q2.14,2.64,6.3,2.27a25.42,25.42,0,0,0,6.36-1.57,70.51,70.51,0,0,0,7.12-3.09q3.52-1.76,6.61-3.72a56.61,56.61,0,0,0,5-3.46,8.89,8.89,0,0,0,2.27-3.65,7.29,7.29,0,0,0,.38-3.4A1.63,1.63,0,0,0,716.32,502.6Z"/><path class="cls-1" d="M771.8,503.8q-.5-2.58-.88-5.35t-.5-5.54q-.13-2.77-.13-5A7.59,7.59,0,0,0,769,483a4.62,4.62,0,0,0-3.65-2.08,3.31,3.31,0,0,0-2.27,1.76,7.46,7.46,0,0,0-1,3.28q0,1.64.06,4.91t.44,7.05q.38,3.78,1.13,7.62a23.93,23.93,0,0,0,2.14,6.49,7.89,7.89,0,0,0,3,3.4,3.29,3.29,0,0,0,3.78.13,3.39,3.39,0,0,0,1.32-3.21,11.52,11.52,0,0,0-.94-4.34A18.79,18.79,0,0,1,771.8,503.8Z"/><path class="cls-1" d="M771.8,461.16a15.55,15.55,0,0,0-3.53-.44,32.87,32.87,0,0,0-4.47.19,34.11,34.11,0,0,0-4.6.82,22.2,22.2,0,0,0-3.9,1.32,9.18,9.18,0,0,0-1.76,1.13,2,2,0,0,0-.76,1.64,4.28,4.28,0,0,0,2.14,3.53,4.18,4.18,0,0,0,3.27.38,58.81,58.81,0,0,1,13.48-2.14q1,0,2.52-.13a1.71,1.71,0,0,0,1.76-1.39,3.47,3.47,0,0,0-.94-3A7.42,7.42,0,0,0,771.8,461.16Z"/><path class="cls-1" d="M857.69,466.46a3.69,3.69,0,0,0-2.52-.88,2.39,2.39,0,0,0-1.76,1q-2.52,3.28-5.1,7.43t-5.1,8.63l-5,8.82-4.6,8.12q-1.26-2-2.52-4.53t-2.46-5.1q-1.2-2.58-2.2-4.85t-1.76-4a14.83,14.83,0,0,0-2.39-3.4,9,9,0,0,0-3-2.27,4.73,4.73,0,0,0-3.28.13,1.74,1.74,0,0,0-.94,1.07A1.94,1.94,0,0,0,815,478a124,124,0,0,0,6.55,16.5q4,8.44,8.19,15.36a12,12,0,0,0,1.83,2.33,4,4,0,0,0,3,1.07,3.1,3.1,0,0,0,2.39-1.13,15.79,15.79,0,0,0,2-3q4-7.93,7.05-13.48t5.35-9.76q2.33-4.22,4.35-7.49t4-6.67Q860.84,468.85,857.69,466.46Z"/><path class="cls-1" d="M934.27,497.44a3.27,3.27,0,0,0-1.89.06,5.68,5.68,0,0,0-2.39,1.32,24.3,24.3,0,0,1-2.64,2,22.87,22.87,0,0,1-3.34,1.83,16.86,16.86,0,0,1-3.9,1.2A13.41,13.41,0,0,1,916,504a9.08,9.08,0,0,1-5.67-3.09,11.22,11.22,0,0,1-2.52-7A45.49,45.49,0,0,0,920,492.34a43.76,43.76,0,0,0,10.58-4.47,5.48,5.48,0,0,0,2.58-3.15,6.63,6.63,0,0,0-.57-4.16,13.23,13.23,0,0,0-6.17-6.67,17.6,17.6,0,0,0-9.82-2,19.41,19.41,0,0,0-7.93,2,18.21,18.21,0,0,0-5.67,4.47,17.51,17.51,0,0,0-3.34,6.23A19,19,0,0,0,899,492a29.6,29.6,0,0,0,1.89,8.06,19.38,19.38,0,0,0,4.41,6.8,17.35,17.35,0,0,0,7.68,4.41,18.69,18.69,0,0,0,8.31.38,18.92,18.92,0,0,0,8.44-3.59,19.3,19.3,0,0,0,5.79-6.86Q936,498.07,934.27,497.44ZM908.64,483.9a13,13,0,0,1,2.14-2.14,12,12,0,0,1,2.64-1.57,13.6,13.6,0,0,1,2.71-.88,14.18,14.18,0,0,1,5.48.06,4.86,4.86,0,0,1,3.72,3,17.91,17.91,0,0,1-3.46,1.64,38.87,38.87,0,0,1-4.53,1.32q-2.46.57-5,.94a32.88,32.88,0,0,1-4.72.38A4.94,4.94,0,0,1,908.64,483.9Z"/><path class="cls-4" d="M713.35,284.17c11.27,1,22.72,1.66,34,2q8.67.26,17.43.26c7.64,0,15.29-.15,22.89-.44a6.08,6.08,0,1,0-.47-12.14c-13.12.51-26.4.57-39.48.18-11.08-.33-22.29-1-33.33-2a6.08,6.08,0,0,0-1.06,12.11Z"/><polygon class="cls-2" points="1205.73 349.81 1203.47 345.37 1203.56 345.54 1205.73 349.81"/><path class="cls-2" d="M1331.72,330.18q-4.44-.9-8.9-1.66Q1327.28,329.28,1331.72,330.18Z"/><path class="cls-2" d="M1342.73,332.61c-3-.73-6-1.4-9.08-2C1336.68,331.22,1339.71,331.88,1342.73,332.61Z"/><path class="cls-2" d="M1317.24,327.63c1.37.2,2.74.43,4.1.66l1,.15Q1319.8,328,1317.24,327.63Z"/><path class="cls-2" d="M1321.34,328.29l1.48.24-.46-.09Z"/><path class="cls-2" d="M1333.65,330.58l-1.93-.4Z"/><path class="cls-2" d="M1261.9,324.88h0l.48,0Z"/><path class="cls-2" d="M1227.5,331.47q-6,1.88-11.91,4.24,5.87-2.35,11.91-4.24Z"/><path class="cls-2" d="M1231.23,330.35h0Z"/><path class="cls-2" d="M1227.5,331.47h0q1.86-.58,3.73-1.12h0Q1229.36,330.89,1227.5,331.47Z"/><path class="cls-2" d="M1267.16,324.57h0Z"/><path class="cls-2" d="M1254.43,325.64c.93-.12,1.87-.24,2.79-.34h0C1256.29,325.4,1255.35,325.52,1254.43,325.64Z"/><path class="cls-2" d="M1267.65,324.55h0Z"/><path class="cls-2" d="M1267.65,324.55q4.44-.17,8.61-.13-4.16,0-8.6.13Z"/><path class="cls-2" d="M1257.45,325.27l-.23,0q2.38-.25,4.68-.42h0C1260.43,325,1259,325.12,1257.45,325.27Z"/><path class="cls-2" d="M1252.31,325.89c.72-.1,1.41-.17,2.11-.26.93-.11,1.86-.24,2.78-.34Q1254.8,325.55,1252.31,325.89Z"/><path class="cls-2" d="M1257.43,325.27l-.23,0h0l.23,0Z"/><polygon points="1203.47 345.37 1205.73 349.81 1203.56 345.54 1203.47 345.37"/><polygon points="1205.73 349.81 1205.73 349.81 1203.56 345.54 1205.73 349.81"/><path d="M1218.71,334.52c2.91-1.09,5.83-2.12,8.79-3.05h0C1224.54,332.4,1221.62,333.43,1218.71,334.52Z"/><path d="M1228.13,331.26l-.63.21h0Z"/><circle cx="1227.5" cy="331.47" transform="translate(-43.83 349.97) rotate(-15.95)"/><path d="M1213.57,346.09q-4,1.75-7.84,3.72h0Q1209.6,347.84,1213.57,346.09Z"/><path d="M1238.15,337.65h0a154.85,154.85,0,0,0-24.54,8.43,154.88,154.88,0,0,1,24.54-8.43Z"/><circle cx="1243.52" cy="336.42"/><polygon points="1243.52 336.42 1243.52 336.42 1243.52 336.42 1243.52 336.42"/><polygon points="1244.85 336.14 1244.85 336.14 1244.85 336.14 1244.85 336.14"/><circle cx="1244.85" cy="336.14" transform="translate(-44.36 311.96) rotate(-14.04)"/><path d="M1243.52,336.42l.94-.19h-.06l-.88.18Z"/><path d="M1244.53,336.21l-.13,0h.06Z"/><path d="M1244.85,336.14l-.31.06.31-.06Z"/><path d="M1250,335.18c-1.69.28-3.41.61-5.16,1h0C1246.59,335.79,1248.32,335.46,1250,335.18Z"/><path d="M1244.85,336.14c1.75-.35,3.47-.68,5.16-1-1.69.28-3.41.61-5.16,1Z"/><path d="M1243.25,336.48l.27-.06h0c-1.78.38-3.57.78-5.41,1.24h0C1239.88,337.21,1241.57,336.84,1243.25,336.48Z"/><path d="M1243.25,336.48l.27-.06h0Z"/><path d="M1243.9,532.52a14.12,14.12,0,0,1-.9,1.89h0A14.11,14.11,0,0,0,1243.9,532.52Z"/><path d="M1242.73,534.87a16.23,16.23,0,0,1-1.23,1.78,16.21,16.21,0,0,0,1.23-1.78Z"/><path d="M1243,534.41h0l-.27.46h0Z"/><polygon points="1242.73 534.87 1242.72 534.87 1242.72 534.87 1242.73 534.87"/><path class="cls-2" d="M1314.66,336.2q-9.8-1.39-19.61-2.06c-3.36-.23-6.83-.46-10.41-.63,3.58.17,7,.4,10.41.63Q1304.86,334.8,1314.66,336.2Z"/><path class="cls-2" d="M1356.18,345.47h0c-1.27-.39-2.54-.77-3.81-1.14C1353.64,344.7,1354.91,345.09,1356.18,345.47Z"/><path class="cls-2" d="M1286.81,345.06a40,40,0,0,1,7.82.77A40,40,0,0,0,1286.81,345.06Z"/><path class="cls-2" d="M1344.95,356.17c.83.23,1.66.49,2.49.74-.83-.25-1.66-.51-2.49-.74a246.73,246.73,0,0,0-29.18-6.37c-2-.29-4.13-.61-6.44-.91,2.31.31,4.47.62,6.44.91A246.62,246.62,0,0,1,1344.95,356.17Z"/><path class="cls-2" d="M1347.9,357.05l-.13,0-.34-.1Z"/><path class="cls-2" d="M1347.78,357c-.94-.29-1.88-.57-2.83-.84.83.23,1.66.49,2.49.74Z"/><path d="M1305.75,348.44q-1.85-.22-3.8-.42a40.57,40.57,0,0,0-7.31-2.19,40.59,40.59,0,0,1,7.31,2.19Q1303.9,348.22,1305.75,348.44Z"/><path class="cls-2" d="M1293.39,425.22a39.66,39.66,0,0,1-6.57.55A39.65,39.65,0,0,0,1293.39,425.22Z"/><path class="cls-2" d="M1261.26,419.47c.87.17,1.75.36,2.62.51l1.17.2-1.17-.2C1263,419.83,1262.13,419.64,1261.26,419.47Z"/><path class="cls-2" d="M1271.49,422.73a40.82,40.82,0,0,1-4.57-2.23A40.63,40.63,0,0,0,1271.49,422.73Z"/><path class="cls-2" d="M1293.39,425.22a41,41,0,0,0,6.23-1.56l2.05,0-2.05,0A41,41,0,0,1,1293.39,425.22Z"/><path d="M1301.68,423.69c.67,0,1.33,0,2,0q3.62,0,7.47-.13-3.85.14-7.47.13C1303,423.72,1302.35,423.7,1301.68,423.69Z"/><path d="M1351.58,358.2c.94.3,1.89.56,2.83.86.59.19,1.17.42,1.76.61-.59-.2-1.17-.42-1.76-.61C1353.47,358.76,1352.53,358.49,1351.58,358.2Z"/><path class="cls-2" d="M1311.17,423.58q3.85-.14,7.92-.43,4.52-.33,9-.87-4.5.54-9,.87Q1315,423.45,1311.17,423.58Z"/><path class="cls-3" d="M1246.25,415.63l1.31.42h0Z"/><polygon class="cls-3" points="1244.17 414.96 1244.16 414.96 1244.17 414.96 1244.17 414.96"/><path class="cls-3" d="M1354.9,417.36l1.27,0v-.29l-1.27.31Z"/><path class="cls-3" d="M1245.82,415.49l-1.23-.4-.41-.13c1.12.37,2.25.75,3.38,1.09l-1.31-.42Z"/><path class="cls-3" d="M1246.25,415.63l-1.18-.38.75.24Z"/><path class="cls-3" d="M1245.82,415.49l-.75-.24-.48-.15Z"/><path class="cls-3" d="M1244.17,415h0l.41.13Z"/><path class="cls-3" d="M1244.59,415.09l.48.15-.9-.29h0Z"/><polygon class="cls-3" points="1244.16 414.96 1244.16 414.96 1244.16 414.96 1244.16 414.96"/><path class="cls-3" d="M1243,414.56l.51.17.69.22Z"/><path class="cls-3" d="M1244.15,415l-1.2-.39,1.2.39Z"/><path class="cls-3" d="M1247.56,416.05q2.08.64,4.18,1.21c-1.4-.38-2.79-.78-4.17-1.21Z"/><circle class="cls-3" cx="1244.16" cy="414.96" transform="translate(441.49 1452.18) rotate(-70.71)"/><polygon class="cls-3" points="1244.16 414.96 1244.16 414.96 1244.17 414.96 1244.16 414.96"/><polygon class="cls-3" points="1244.15 414.95 1244.15 414.95 1244.16 414.96 1244.15 414.95"/><circle class="cls-3" cx="1244.16" cy="414.96" transform="translate(462.24 1467.91) rotate(-71.85)"/><path class="cls-3" d="M1244.15,415h0l-.69-.22.7.22Z"/><path class="cls-3" d="M1243.46,414.73l.7.22h0Z"/><polygon class="cls-3" points="1244.15 414.95 1244.15 414.95 1244.15 414.95 1244.15 414.95"/><path class="cls-3" d="M1201.71,341.91c1.21-.62,2.46-1.16,3.68-1.74l-1.85.86C1202.93,341.31,1202.32,341.6,1201.71,341.91Z"/><path class="cls-3" d="M1201.71,341.91h0c.61-.31,1.22-.6,1.84-.88C1202.93,341.31,1202.32,341.6,1201.71,341.91Z"/><path class="cls-3" d="M1244.57,525.9a12.78,12.78,0,0,1,.17,2.07h0A12.78,12.78,0,0,0,1244.57,525.9Z"/><path class="cls-3" d="M1349.72,418.53a217.1,217.1,0,0,1-21.6,3.75A217,217,0,0,0,1349.72,418.53Z"/><path class="cls-2" d="M1242.28,414.34l1.18.39-.51-.17Z"/><path class="cls-1" d="M1353.8,128.81H130V621.19H1370V128.81Zm-1210,14.27H1356.16v42.8H143.84Zm1212.34,85.61V345.47h0V369c-4.51-1.56-9.06-3-13.62-4.28a242,242,0,0,0-25.26-5.68,40.23,40.23,0,0,1-2.62,55.54c1.24-.07,2.49-.14,3.77-.23a207.05,207.05,0,0,0,37.73-6.36v199H143.84V200.15H1356.18Z"/><polygon class="cls-1" points="1356.17 200.15 1356.16 200.15 1356.16 242.66 1356.17 242.66 1356.17 228.68 1356.17 200.15"/></g></svg>