<?xml version="1.0" encoding="utf-8"?>
<!-- Generator: Adobe Illustrator 21.0.2, SVG Export Plug-In . SVG Version: 6.00 Build 0)  -->
<svg version="1.1" id="Layer_1" xmlns="http://www.w3.org/2000/svg" xmlns:xlink="http://www.w3.org/1999/xlink" x="0px" y="0px"
	 viewBox="0 0 525 672.7" style="enable-background:new 0 0 525 672.7;" xml:space="preserve">
<g id="Layer_2">
	<g id="Layer_1-2">
		<path d="M285.3,128.4c1.6,3.1,3.3,6.3,4.9,9.4c2,4,0.5,8.9-3.5,10.9c-1,0.5-2.2,0.8-3.4,0.9c-27.9,1.7-54.4-11.9-69.4-35.4
			c-2.2-3.6-1.1-8.2,2.5-10.4c1.6-1,3.4-1.3,5.2-1l34.5,5C268.6,109.6,279.4,117.3,285.3,128.4z"/>
		<path d="M257.2,97.3l-41.2-6c-7.6-1-13.2-7.4-13.5-15c-0.7-33.8,22.1-64.8,56.9-73.8c7.6-2,15.5-2.8,23.3-2.4
			c9.7,0.5,17.1,8.7,16.7,18.4c-0.1,1.3-0.3,2.7-0.7,4l-17.4,59.6C278.2,92.4,267.9,98.9,257.2,97.3z"/>
		<path d="M352.5,55.9c9,33.4-6.6,67.6-35.8,84c-5.5,3.2-12.5,1.3-15.7-4.2c0-0.1-0.1-0.2-0.1-0.3l-0.2-0.4
			c-9.8-18.6-12-40.2-6.1-60.4l15.4-52.8c1.7-5.5,7.5-8.7,13.1-7c1.2,0.4,2.4,1,3.4,1.8C339.3,26.5,348.4,40.3,352.5,55.9z"/>
		<path d="M104.9,386.3c0,0,18.1,46.5,36.3,132.6c13,61.6,60.8,153.8,128.9,153.8c49.8,0,91.9-106.9,122.8-168.3
			c6-11.9,11.5-22,16.6-29.4c0,0-98.8,133-146.5,133.8s-69.8-53.5-85.8-79.1S111.2,389.4,104.9,386.3z"/>
		<path d="M212.7,567.5c0,0-14.1-217.7-49-300.4c-5.6-13.3-12.6-29.6-18.9-44.3c-9.5-22.1-36.6-30.9-57.6-18.8L6.6,250.7
			c-6.2,3.5-8.4,11.4-4.8,17.7c1.1,1.9,2.6,3.5,4.5,4.6c25.8,15.9,70.5,45.8,98.7,95c14.7,25.8,46.5,89,68.4,136.5
			C183.8,527.1,197,548.2,212.7,567.5z"/>
		<path d="M281.9,593.9C332,557.1,404.6,476.1,427.2,438c15.8-26.7,63.8-116.4,91.3-167.9c11.7-22,7.3-49.2-11-66.3l-53.1-50.3
			c-8-7.5-21.3-3.2-23.1,7.5c-7.2,42.7-23.8,132.1-48.7,215.2C353.6,472.5,281.9,593.9,281.9,593.9z"/>
		<path d="M209.8,454.9c0,0,3.6,27.8,7.3,59.3c4.4,37.4,5.7,83.3,38.4,83.3c6.2,0,19.6-3.7,41.6-51.5c0,0-16.8,13.1-31.7,5.3
			C246.9,541.6,212.8,482.8,209.8,454.9z"/>
	</g>
</g>
</svg>
