<?xml version="1.0" encoding="utf-8"?>
<!-- Generator: Adobe Illustrator 21.0.2, SVG Export Plug-In . SVG Version: 6.00 Build 0)  -->
<svg version="1.1" id="Layer_1" xmlns="http://www.w3.org/2000/svg" xmlns:xlink="http://www.w3.org/1999/xlink" x="0px" y="0px"
	 viewBox="0 0 525 672.7" style="enable-background:new 0 0 525 672.7;" xml:space="preserve">
<style type="text/css">
	.st0{fill:#FDD089;}
	.st1{fill:#E99B55;}
	.st2{fill:#FDD82F;}
	.st3{fill:#E4AF2A;}
</style>
<title>Asset 1</title>
<circle cx="265" cy="267.6" r="254.8"/>
<g id="Layer_2">
	<g id="Layer_1-2">
		<path class="st0" d="M277.1,157.1c0.9,1.7,1.7,3.3,2.6,5c1.1,2.1,0.2,4.7-1.9,5.8c-0.6,0.3-1.2,0.4-1.8,0.5
			c-14.8,0.9-28.9-6.3-36.9-18.8c-1.2-1.9-0.6-4.4,1.3-5.5c0.8-0.5,1.8-0.7,2.8-0.5l18.4,2.7C268.2,147.1,274,151.1,277.1,157.1z"/>
		<path class="st1" d="M262.1,140.5l-21.9-3.2c-4-0.5-7-3.9-7.2-8c-0.4-18,11.8-34.5,30.2-39.3c4-1,8.2-1.5,12.4-1.3
			c5.1,0.3,9.1,4.6,8.9,9.8c0,0.7-0.2,1.4-0.4,2.1l-9.2,31.7C273.3,138,267.8,141.4,262.1,140.5z"/>
		<path class="st2" d="M312.8,118.5c4.8,17.8-3.5,35.9-19,44.7c-2.9,1.7-6.7,0.7-8.3-2.3c0,0-0.1-0.1-0.1-0.1l-0.1-0.2
			c-5.2-9.9-6.4-21.4-3.2-32.1l8.2-28.1c0.9-2.9,4-4.6,7-3.7c0.7,0.2,1.3,0.5,1.8,0.9C305.8,102.9,310.6,110.2,312.8,118.5z"/>
		<path class="st0" d="M181.1,294.2c0,0,9.6,24.7,19.3,70.5c6.9,32.8,32.3,81.8,68.5,81.8c26.5,0,48.9-56.8,65.3-89.5
			c3.2-6.3,6.1-11.7,8.8-15.6c0,0-52.5,70.7-77.9,71.1c-25.3,0.4-37.1-28.5-45.6-42C211.1,356.9,184.5,295.8,181.1,294.2z"/>
		<path class="st2" d="M238.5,390.5c0,0-7.5-115.7-26.1-159.7c-3-7.1-6.7-15.7-10-23.6c-5-11.8-19.5-16.5-30.6-10l-42.9,24.8
			c-3.3,1.9-4.4,6.1-2.6,9.4c0.6,1,1.4,1.8,2.4,2.5c13.7,8.5,37.5,24.4,52.5,50.5c7.8,13.7,24.7,47.3,36.4,72.6
			C223.1,369.1,230.1,380.3,238.5,390.5z"/>
		<path class="st1" d="M275.2,404.6c26.7-19.6,65.3-62.6,77.3-82.9c8.4-14.2,33.9-61.9,48.5-89.3c6.2-11.7,3.9-26.2-5.8-35.3
			L367,170.4c-4.3-4-11.3-1.7-12.3,4c-3.8,22.7-12.6,70.2-25.9,114.4C313.4,340.1,275.2,404.6,275.2,404.6z"/>
		<path class="st3" d="M236.9,330.7c0,0,1.9,14.8,3.9,31.5c2.4,19.9,3,44.3,20.4,44.3c3.3,0,10.4-1.9,22.1-27.4c0,0-8.9,7-16.8,2.8
			C256.6,376.8,238.5,345.5,236.9,330.7z"/>
	</g>
</g>
</svg>
