<svg xmlns="http://www.w3.org/2000/svg" viewBox="0 0 525 672.68"><defs><style>.cls-1{fill:#fdd089;}.cls-2{fill:#e99b55;}.cls-3{fill:#fdd82f;}.cls-4{fill:#e4af2a;}</style></defs><title>Asset 1</title><g id="Layer_2" data-name="Layer 2"><g id="Layer_1-2" data-name="Layer 1"><path class="cls-1" d="M285.29,128.45c1.61,3.12,3.26,6.27,4.88,9.37a8.13,8.13,0,0,1-6.9,11.83,76.78,76.78,0,0,1-69.42-35.45,7.58,7.58,0,0,1,7.69-11.44l34.54,5A39.24,39.24,0,0,1,285.29,128.45Z"/><path class="cls-2" d="M257.2,97.31l-41.22-6a15.58,15.58,0,0,1-13.46-15c-.68-33.76,22.14-64.85,56.87-73.82A77.81,77.81,0,0,1,282.68.09a17.55,17.55,0,0,1,16,22.38L281.29,82.09A21.75,21.75,0,0,1,257.2,97.31Z"/><path class="cls-3" d="M352.54,55.86c9,33.45-6.6,67.57-35.76,84a11.5,11.5,0,0,1-15.84-4.5l-.21-.4a80.83,80.83,0,0,1-6.07-60.38l15.43-52.79a10.49,10.49,0,0,1,16.48-5.23A74.46,74.46,0,0,1,352.54,55.86Z"/><path class="cls-1" d="M104.86,386.29S123,432.81,141.2,518.9c13,61.64,60.76,153.78,128.9,153.78,49.79,0,91.94-106.92,122.79-168.32,6-11.86,11.51-22,16.6-29.39,0,0-98.82,133-146.48,133.81s-69.77-53.54-85.76-79.06S111.22,389.38,104.86,386.29Z"/><path class="cls-3" d="M212.67,567.51s-14.07-217.66-49-300.35c-5.64-13.34-12.56-29.56-18.86-44.31-9.46-22.11-36.6-30.94-57.64-18.77L6.56,250.74A12.94,12.94,0,0,0,6.19,273c25.75,15.92,70.53,45.8,98.67,95,14.72,25.75,46.46,89,68.45,136.54A297.84,297.84,0,0,0,212.67,567.51Z"/><path class="cls-2" d="M281.86,593.88C332,557.07,404.61,476.11,427.21,438c15.81-26.69,63.84-116.38,91.28-167.9a55.31,55.31,0,0,0-10.95-66.33l-53.11-50.31c-8-7.54-21.27-3.22-23.08,7.5-7.19,42.67-23.77,132.11-48.72,215.17C353.65,472.55,281.86,593.88,281.86,593.88Z"/><path class="cls-4" d="M209.81,454.94s3.55,27.84,7.26,59.29c4.43,37.38,5.66,83.31,38.41,83.31,6.17,0,19.61-3.66,41.58-51.51,0,0-16.82,13.14-31.68,5.32C246.85,541.59,212.8,482.77,209.81,454.94Z"/></g></g></svg>