<svg xmlns="http://www.w3.org/2000/svg" viewBox="0 0 600.01 600"><defs><style>.cls-1{fill:#01aed6;}.cls-2{fill:#2662a2;}.cls-3{fill:#02c39a;}</style></defs><title>LOGO v 2021</title><g id="Layer_1" data-name="Layer 1"><path class="cls-1" d="M280.31,114.24c0,.93.2,6.31.44,12l2.37,55.49c.24,5.65,3.13,6.51,6.42,1.91l38.15-53.33a109.57,109.57,0,0,1,13.7-15.18l10.72-9.45c4.25-3.75,3.55-8.83-1.54-11.31L319.31,79.18a13.39,13.39,0,0,0-15.62,3.6l-17,21.69C283.17,108.92,280.31,113.32,280.31,114.24Z"/><path class="cls-2" d="M299.63,193.47c-5.65.27-7.58-3.26-4.28-7.87l38.28-53.46a102.12,102.12,0,0,1,13.82-15l9.49-8.11c4.3-3.68,8.55-2.11,9.44,3.48l4.17,26.25c.88,5.59-1.3,13.76-4.86,18.17l-21.57,26.71c-3.55,4.41-11.09,8.24-16.74,8.51Z"/><path class="cls-3" d="M297.09,82.79c3.48-4.46,2.18-6.06-2.9-3.56l-26.58,13.1c-5.08,2.5-10.33,9-11.67,14.55l-7.5,30.77c-1.34,5.5.36,13.69,3.78,18.2l19.6,25.84c3.42,4.51,6,3.57,5.79-2.08l-2.46-57.9c-.24-5.66,2.42-13.93,5.9-18.39Z"/><path class="cls-2" d="M118.55,173.38c-13.52-18.16-10-33,7.85-33s40.22,16.81,49.73,37.35l72.12,155.77c9.51,20.55,6.23,22.5-7.29,4.34Z"/><path class="cls-1" d="M101.94,169.69c-13.46-18.2-15.75-16.75-5.08,3.22L276,508.32c10.67,20,19.4,17.78,19.4-4.86v-44c0-22.64,11.18-55.94,24.84-74l54.46-72c13.66-18.06,11.13-20.37-5.63-5.14l-68,61.76c-16.76,15.23-41.48,12.79-54.95-5.41Z"/><path class="cls-3" d="M503.27,167c10.56-20,8.19-21.52-5.27-3.31L328.44,392.88C315,411.08,304,444.5,304,467.14v36.32c0,22.64,8.65,24.79,19.22,4.76Z"/></g></svg>