<svg id="Layer_1" data-name="Layer 1" xmlns="http://www.w3.org/2000/svg" xmlns:xlink="http://www.w3.org/1999/xlink" viewBox="0 0 545.27 201.75"><defs><style>.cls-1{fill:none;}.cls-2{clip-path:url(#clip-path);}.cls-3{fill:#ff7300;}.cls-4{fill:#ff7400;}.cls-5{fill:#fe7400;}.cls-6{fill:#fe7500;}.cls-7{fill:#fd7500;}.cls-8{fill:#fd7600;}.cls-9{fill:#fd7700;}.cls-10{fill:#fc7800;}.cls-11{fill:#fb7900;}.cls-12{fill:#fb7a01;}.cls-13{fill:#fa7b01;}.cls-14{fill:#fa7c01;}.cls-15{fill:#f97d01;}.cls-16{fill:#f87e01;}.cls-17{fill:#f87f01;}.cls-18{fill:#f78001;}.cls-19{fill:#f78101;}.cls-20{fill:#f68201;}.cls-21{fill:#f58301;}.cls-22{fill:#f58401;}.cls-23{fill:#f48501;}.cls-24{fill:#f38601;}.cls-25{fill:#f38701;}.cls-26{fill:#f28801;}.cls-27{fill:#f18a02;}.cls-28{fill:#f18b02;}.cls-29{fill:#f08c02;}.cls-30{fill:#ef8d02;}.cls-31{fill:#ee8e02;}.cls-32{fill:#ee9002;}.cls-33{fill:#ed9102;}.cls-34{fill:#ec9202;}.cls-35{fill:#eb9302;}.cls-36{fill:#eb9502;}.cls-37{fill:#ea9602;}.cls-38{fill:#e99703;}.cls-39{fill:#e89903;}.cls-40{fill:#e79a03;}.cls-41{fill:#e79b03;}.cls-42{fill:#e69d03;}.cls-43{fill:#e59e03;}.cls-44{fill:#e59f03;}.cls-45{fill:#e5a003;}.cls-46{fill:#e5a103;}.cls-47{fill:#e5a203;}.cls-48{fill:#e5a303;}.cls-49{fill:#e5a403;}.cls-50{fill:#e5a502;}.cls-51{fill:#e5a602;}.cls-52{fill:#e5a702;}.cls-53{fill:#e5a802;}.cls-54{fill:#e5a902;}.cls-55{fill:#e5aa02;}.cls-56{fill:#e5ab02;}.cls-57{fill:#e5ac02;}.cls-58{fill:#e5ad02;}.cls-59{fill:#e5ae02;}.cls-60{fill:#e5af02;}.cls-61{fill:#e5b002;}.cls-62{fill:#e5b202;}.cls-63{fill:#e5b301;}.cls-64{fill:#e5b401;}.cls-65{fill:#e5b501;}.cls-66{fill:#e5b601;}.cls-67{fill:#e5b701;}.cls-68{fill:#e5b801;}.cls-69{fill:#e5b901;}.cls-70{fill:#e5ba01;}.cls-71{fill:#e5bb01;}.cls-72{fill:#e5bc01;}.cls-73{fill:#e5bd01;}.cls-74{fill:#e5be01;}.cls-75{fill:#e5bf00;}.cls-76{fill:#e5c000;}.cls-77{fill:#e5c100;}.cls-78{fill:#e5c200;}.cls-79{fill:#e5c300;}.cls-80{fill:#e5c400;}.cls-81{fill:#e5c500;}.cls-82{fill:#e4c300;}.cls-83{fill:#e4c200;}.cls-84{fill:#e3c100;}.cls-85{fill:#e3c000;}.cls-86{fill:#e2bf00;}.cls-87{fill:#e2be00;}.cls-88{fill:#e1bd00;}.cls-89{fill:#e1bc00;}.cls-90{fill:#e1bb00;}.cls-91{fill:#e0ba00;}.cls-92{fill:#e0b900;}.cls-93{fill:#dfb800;}.cls-94{fill:#dfb700;}.cls-95{fill:#deb600;}.cls-96{fill:#deb500;}.cls-97{fill:#ddb400;}.cls-98{fill:#ddb300;}.cls-99{fill:#ddb200;}.cls-100{fill:#dcb100;}.cls-101{fill:#dcb000;}.cls-102{fill:#dbaf00;}.cls-103{fill:#dbae00;}.cls-104{fill:#daad00;}.cls-105{fill:#daac00;}.cls-106{fill:#d9ab00;}.cls-107{fill:#d9aa00;}.cls-108{fill:#d8a900;}.cls-109{fill:#d8a800;}.cls-110{fill:#d8a700;}.cls-111{fill:#d7a600;}.cls-112{fill:#d7a500;}.cls-113{fill:#d6a400;}.cls-114{fill:#d6a300;}.cls-115{fill:#d5a200;}.cls-116{fill:#d5a100;}.cls-117{fill:#d4a000;}.cls-118{fill:#d49f00;}.cls-119{fill:#d49e00;}.cls-120{fill:#d39d00;}.cls-121{fill:#d39c00;}.cls-122{fill:#d29b00;}.cls-123{fill:#d29900;}.cls-124{fill:#d19800;}.cls-125{fill:#d19700;}.cls-126{fill:#d09600;}.cls-127{fill:#d09500;}.cls-128{fill:#d09400;}.cls-129{fill:#cf9300;}.cls-130{fill:#cf9200;}.cls-131{fill:#ce9100;}.cls-132{fill:#ce9000;}.cls-133{fill:#cd8f00;}.cls-134{fill:#cd8e00;}.cls-135{fill:#cc8d00;}.cls-136{fill:#cc8c00;}.cls-137{fill:#cc8b00;}.cls-138{fill:#cb8a00;}.cls-139{fill:#cb8900;}.cls-140{fill:#ca8800;}.cls-141{fill:#ca8700;}.cls-142{fill:#c98600;}.cls-143{fill:#c98500;}.cls-144{fill:#c88400;}.cls-145{fill:#c88300;}.cls-146{fill:#c78200;}.cls-147{fill:#c78100;}.cls-148{fill:#c78000;}.cls-149{fill:#c67f00;}.cls-150{fill:#c67e00;}.cls-151{fill:#c57d00;}.cls-152{fill:#c57c00;}.cls-153{fill:#c47b00;}.cls-154{fill:#c47a00;}.cls-155{fill:#c37900;}.cls-156{fill:#c37800;}.cls-157{fill:#c37700;}.cls-158{fill:#c27600;}.cls-159{fill:#c27500;}.cls-160{fill:#c17400;}.cls-161{fill:#c17300;}.cls-162{fill:#c07200;}.cls-163{fill:#c07100;}.cls-164{fill:#bf7000;}.cls-165{fill:#bf6f00;}.cls-166{fill:#01aed6;}.cls-167{fill:#2662a2;}.cls-168{fill:#02c39a;}.cls-169{fill:#fff;}</style><clipPath id="clip-path" transform="translate(-7.36 -43.13)"><path class="cls-1" d="M275.36,80.44"/></clipPath></defs><title>LOGO (POSTER) (2)</title><g class="cls-2"><path class="cls-3" d="M275.36,80.44Z" transform="translate(-7.36 -43.13)"/><path class="cls-3" d="M275.36,80.44Z" transform="translate(-7.36 -43.13)"/><path class="cls-3" d="M275.36,80.44Z" transform="translate(-7.36 -43.13)"/><path class="cls-4" d="M275.36,80.44Z" transform="translate(-7.36 -43.13)"/><path class="cls-5" d="M275.36,80.44Z" transform="translate(-7.36 -43.13)"/><path class="cls-6" d="M275.36,80.44Z" transform="translate(-7.36 -43.13)"/><path class="cls-7" d="M275.36,80.44Z" transform="translate(-7.36 -43.13)"/><path class="cls-8" d="M275.36,80.44Z" transform="translate(-7.36 -43.13)"/><path class="cls-9" d="M275.36,80.44Z" transform="translate(-7.36 -43.13)"/><path class="cls-10" d="M275.36,80.44Z" transform="translate(-7.36 -43.13)"/><path class="cls-10" d="M275.36,80.44Z" transform="translate(-7.36 -43.13)"/><path class="cls-11" d="M275.36,80.44Z" transform="translate(-7.36 -43.13)"/><path class="cls-12" d="M275.36,80.44Z" transform="translate(-7.36 -43.13)"/><path class="cls-13" d="M275.36,80.44Z" transform="translate(-7.36 -43.13)"/><path class="cls-14" d="M275.36,80.44Z" transform="translate(-7.36 -43.13)"/><path class="cls-15" d="M275.36,80.44Z" transform="translate(-7.36 -43.13)"/><path class="cls-16" d="M275.36,80.44Z" transform="translate(-7.36 -43.13)"/><path class="cls-17" d="M275.36,80.44Z" transform="translate(-7.36 -43.13)"/><path class="cls-18" d="M275.36,80.44Z" transform="translate(-7.36 -43.13)"/><path class="cls-19" d="M275.36,80.44Z" transform="translate(-7.36 -43.13)"/><path class="cls-20" d="M275.36,80.44Z" transform="translate(-7.36 -43.13)"/><path class="cls-21" d="M275.36,80.44Z" transform="translate(-7.36 -43.13)"/><path class="cls-22" d="M275.36,80.44Z" transform="translate(-7.36 -43.13)"/><path class="cls-23" d="M275.36,80.44Z" transform="translate(-7.36 -43.13)"/><path class="cls-24" d="M275.36,80.44Z" transform="translate(-7.36 -43.13)"/><path class="cls-25" d="M275.36,80.44Z" transform="translate(-7.36 -43.13)"/><path class="cls-26" d="M275.36,80.44Z" transform="translate(-7.36 -43.13)"/><path class="cls-27" d="M275.36,80.44Z" transform="translate(-7.36 -43.13)"/><path class="cls-28" d="M275.36,80.44Z" transform="translate(-7.36 -43.13)"/><path class="cls-29" d="M275.36,80.44Z" transform="translate(-7.36 -43.13)"/><path class="cls-30" d="M275.36,80.44Z" transform="translate(-7.36 -43.13)"/><path class="cls-31" d="M275.36,80.44Z" transform="translate(-7.36 -43.13)"/><path class="cls-32" d="M275.36,80.44Z" transform="translate(-7.36 -43.13)"/><path class="cls-33" d="M275.36,80.44Z" transform="translate(-7.36 -43.13)"/><path class="cls-34" d="M275.36,80.44Z" transform="translate(-7.36 -43.13)"/><path class="cls-35" d="M275.36,80.44Z" transform="translate(-7.36 -43.13)"/><path class="cls-36" d="M275.36,80.44Z" transform="translate(-7.36 -43.13)"/><path class="cls-37" d="M275.36,80.44Z" transform="translate(-7.36 -43.13)"/><path class="cls-38" d="M275.36,80.44Z" transform="translate(-7.36 -43.13)"/><path class="cls-39" d="M275.36,80.44Z" transform="translate(-7.36 -43.13)"/><path class="cls-40" d="M275.36,80.44Z" transform="translate(-7.36 -43.13)"/><path class="cls-41" d="M275.36,80.44Z" transform="translate(-7.36 -43.13)"/><path class="cls-42" d="M275.36,80.44Z" transform="translate(-7.36 -43.13)"/><path class="cls-43" d="M275.36,80.44Z" transform="translate(-7.36 -43.13)"/><path class="cls-43" d="M275.36,80.44Z" transform="translate(-7.36 -43.13)"/><path class="cls-44" d="M275.36,80.44Z" transform="translate(-7.36 -43.13)"/><path class="cls-45" d="M275.36,80.44Z" transform="translate(-7.36 -43.13)"/><path class="cls-46" d="M275.36,80.44Z" transform="translate(-7.36 -43.13)"/><path class="cls-47" d="M275.36,80.44Z" transform="translate(-7.36 -43.13)"/><path class="cls-48" d="M275.36,80.44Z" transform="translate(-7.36 -43.13)"/><path class="cls-49" d="M275.36,80.44Z" transform="translate(-7.36 -43.13)"/><path class="cls-50" d="M275.36,80.44Z" transform="translate(-7.36 -43.13)"/><path class="cls-51" d="M275.36,80.44Z" transform="translate(-7.36 -43.13)"/><path class="cls-52" d="M275.36,80.44Z" transform="translate(-7.36 -43.13)"/><path class="cls-53" d="M275.36,80.44Z" transform="translate(-7.36 -43.13)"/><path class="cls-54" d="M275.36,80.44Z" transform="translate(-7.36 -43.13)"/><path class="cls-55" d="M275.36,80.44Z" transform="translate(-7.36 -43.13)"/><path class="cls-56" d="M275.36,80.44Z" transform="translate(-7.36 -43.13)"/><path class="cls-57" d="M275.36,80.44Z" transform="translate(-7.36 -43.13)"/><path class="cls-58" d="M275.36,80.44Z" transform="translate(-7.36 -43.13)"/><path class="cls-59" d="M275.36,80.44Z" transform="translate(-7.36 -43.13)"/><path class="cls-60" d="M275.36,80.44Z" transform="translate(-7.36 -43.13)"/><path class="cls-61" d="M275.36,80.44Z" transform="translate(-7.36 -43.13)"/><path class="cls-62" d="M275.36,80.44Z" transform="translate(-7.36 -43.13)"/><path class="cls-63" d="M275.36,80.44Z" transform="translate(-7.36 -43.13)"/><path class="cls-64" d="M275.36,80.44Z" transform="translate(-7.36 -43.13)"/><path class="cls-65" d="M275.36,80.44Z" transform="translate(-7.36 -43.13)"/><path class="cls-66" d="M275.36,80.44Z" transform="translate(-7.36 -43.13)"/><path class="cls-67" d="M275.36,80.44Z" transform="translate(-7.36 -43.13)"/><path class="cls-68" d="M275.36,80.44Z" transform="translate(-7.36 -43.13)"/><path class="cls-69" d="M275.36,80.44Z" transform="translate(-7.36 -43.13)"/><path class="cls-70" d="M275.36,80.44Z" transform="translate(-7.36 -43.13)"/><path class="cls-71" d="M275.36,80.44Z" transform="translate(-7.36 -43.13)"/><path class="cls-72" d="M275.36,80.44Z" transform="translate(-7.36 -43.13)"/><path class="cls-73" d="M275.36,80.44Z" transform="translate(-7.36 -43.13)"/><path class="cls-74" d="M275.36,80.44Z" transform="translate(-7.36 -43.13)"/><path class="cls-75" d="M275.36,80.44Z" transform="translate(-7.36 -43.13)"/><path class="cls-76" d="M275.36,80.44Z" transform="translate(-7.36 -43.13)"/><path class="cls-77" d="M275.36,80.44Z" transform="translate(-7.36 -43.13)"/><path class="cls-78" d="M275.36,80.44Z" transform="translate(-7.36 -43.13)"/><path class="cls-79" d="M275.36,80.44Z" transform="translate(-7.36 -43.13)"/><path class="cls-80" d="M275.36,80.44Z" transform="translate(-7.36 -43.13)"/><path class="cls-81" d="M275.36,80.44Z" transform="translate(-7.36 -43.13)"/><path class="cls-81" d="M275.36,80.44Z" transform="translate(-7.36 -43.13)"/><path class="cls-80" d="M275.36,80.44Z" transform="translate(-7.36 -43.13)"/><path class="cls-82" d="M275.36,80.44Z" transform="translate(-7.36 -43.13)"/><path class="cls-83" d="M275.36,80.44Z" transform="translate(-7.36 -43.13)"/><path class="cls-84" d="M275.36,80.44Z" transform="translate(-7.36 -43.13)"/><path class="cls-85" d="M275.36,80.44Z" transform="translate(-7.36 -43.13)"/><path class="cls-86" d="M275.36,80.44Z" transform="translate(-7.36 -43.13)"/><path class="cls-87" d="M275.36,80.44Z" transform="translate(-7.36 -43.13)"/><path class="cls-88" d="M275.36,80.44Z" transform="translate(-7.36 -43.13)"/><path class="cls-89" d="M275.36,80.44Z" transform="translate(-7.36 -43.13)"/><path class="cls-90" d="M275.36,80.44Z" transform="translate(-7.36 -43.13)"/><path class="cls-91" d="M275.36,80.44Z" transform="translate(-7.36 -43.13)"/><path class="cls-92" d="M275.36,80.44Z" transform="translate(-7.36 -43.13)"/><path class="cls-93" d="M275.36,80.44Z" transform="translate(-7.36 -43.13)"/><path class="cls-94" d="M275.36,80.44Z" transform="translate(-7.36 -43.13)"/><path class="cls-95" d="M275.36,80.44Z" transform="translate(-7.36 -43.13)"/><path class="cls-96" d="M275.36,80.44Z" transform="translate(-7.36 -43.13)"/><path class="cls-97" d="M275.36,80.44Z" transform="translate(-7.36 -43.13)"/><path class="cls-98" d="M275.36,80.44Z" transform="translate(-7.36 -43.13)"/><path class="cls-99" d="M275.36,80.44Z" transform="translate(-7.36 -43.13)"/><path class="cls-100" d="M275.36,80.44Z" transform="translate(-7.36 -43.13)"/><path class="cls-101" d="M275.36,80.44Z" transform="translate(-7.36 -43.13)"/><path class="cls-102" d="M275.36,80.44Z" transform="translate(-7.36 -43.13)"/><path class="cls-103" d="M275.36,80.44Z" transform="translate(-7.36 -43.13)"/><path class="cls-104" d="M275.36,80.44Z" transform="translate(-7.36 -43.13)"/><path class="cls-105" d="M275.36,80.44Z" transform="translate(-7.36 -43.13)"/><path class="cls-106" d="M275.36,80.44Z" transform="translate(-7.36 -43.13)"/><path class="cls-107" d="M275.36,80.44Z" transform="translate(-7.36 -43.13)"/><path class="cls-108" d="M275.36,80.44Z" transform="translate(-7.36 -43.13)"/><path class="cls-109" d="M275.36,80.44Z" transform="translate(-7.36 -43.13)"/><path class="cls-110" d="M275.36,80.44Z" transform="translate(-7.36 -43.13)"/><path class="cls-111" d="M275.36,80.44Z" transform="translate(-7.36 -43.13)"/><path class="cls-112" d="M275.36,80.44Z" transform="translate(-7.36 -43.13)"/><path class="cls-113" d="M275.36,80.44Z" transform="translate(-7.36 -43.13)"/><path class="cls-114" d="M275.36,80.44Z" transform="translate(-7.36 -43.13)"/><path class="cls-115" d="M275.36,80.44Z" transform="translate(-7.36 -43.13)"/><path class="cls-116" d="M275.36,80.44Z" transform="translate(-7.36 -43.13)"/><path class="cls-117" d="M275.36,80.44Z" transform="translate(-7.36 -43.13)"/><path class="cls-118" d="M275.36,80.44Z" transform="translate(-7.36 -43.13)"/><path class="cls-119" d="M275.36,80.44Z" transform="translate(-7.36 -43.13)"/><path class="cls-120" d="M275.36,80.44Z" transform="translate(-7.36 -43.13)"/><path class="cls-121" d="M275.36,80.44Z" transform="translate(-7.36 -43.13)"/><path class="cls-122" d="M275.36,80.44Z" transform="translate(-7.36 -43.13)"/><path class="cls-123" d="M275.36,80.44Z" transform="translate(-7.36 -43.13)"/><path class="cls-124" d="M275.36,80.44Z" transform="translate(-7.36 -43.13)"/><path class="cls-125" d="M275.36,80.44Z" transform="translate(-7.36 -43.13)"/><path class="cls-126" d="M275.36,80.44Z" transform="translate(-7.36 -43.13)"/><path class="cls-127" d="M275.36,80.44Z" transform="translate(-7.36 -43.13)"/><path class="cls-128" d="M275.36,80.44Z" transform="translate(-7.36 -43.13)"/><path class="cls-129" d="M275.36,80.44Z" transform="translate(-7.36 -43.13)"/><path class="cls-130" d="M275.36,80.44Z" transform="translate(-7.36 -43.13)"/><path class="cls-131" d="M275.36,80.44Z" transform="translate(-7.36 -43.13)"/><path class="cls-132" d="M275.36,80.44Z" transform="translate(-7.36 -43.13)"/><path class="cls-133" d="M275.36,80.44Z" transform="translate(-7.36 -43.13)"/><path class="cls-134" d="M275.36,80.44Z" transform="translate(-7.36 -43.13)"/><path class="cls-135" d="M275.36,80.44Z" transform="translate(-7.36 -43.13)"/><path class="cls-136" d="M275.36,80.44Z" transform="translate(-7.36 -43.13)"/><path class="cls-137" d="M275.36,80.44Z" transform="translate(-7.36 -43.13)"/><path class="cls-138" d="M275.36,80.44Z" transform="translate(-7.36 -43.13)"/><path class="cls-139" d="M275.36,80.44Z" transform="translate(-7.36 -43.13)"/><path class="cls-140" d="M275.36,80.44Z" transform="translate(-7.36 -43.13)"/><path class="cls-141" d="M275.36,80.44Z" transform="translate(-7.36 -43.13)"/><path class="cls-142" d="M275.36,80.44Z" transform="translate(-7.36 -43.13)"/><path class="cls-143" d="M275.36,80.44Z" transform="translate(-7.36 -43.13)"/><path class="cls-144" d="M275.36,80.44Z" transform="translate(-7.36 -43.13)"/><path class="cls-145" d="M275.36,80.44Z" transform="translate(-7.36 -43.13)"/><path class="cls-146" d="M275.36,80.44Z" transform="translate(-7.36 -43.13)"/><path class="cls-147" d="M275.36,80.44Z" transform="translate(-7.36 -43.13)"/><path class="cls-148" d="M275.36,80.44Z" transform="translate(-7.36 -43.13)"/><path class="cls-149" d="M275.36,80.44Z" transform="translate(-7.36 -43.13)"/><path class="cls-150" d="M275.36,80.44Z" transform="translate(-7.36 -43.13)"/><path class="cls-151" d="M275.36,80.44Z" transform="translate(-7.36 -43.13)"/><path class="cls-152" d="M275.36,80.44Z" transform="translate(-7.36 -43.13)"/><path class="cls-153" d="M275.36,80.44Z" transform="translate(-7.36 -43.13)"/><path class="cls-154" d="M275.36,80.44Z" transform="translate(-7.36 -43.13)"/><path class="cls-155" d="M275.36,80.44Z" transform="translate(-7.36 -43.13)"/><path class="cls-156" d="M275.36,80.44Z" transform="translate(-7.36 -43.13)"/><path class="cls-157" d="M275.36,80.44Z" transform="translate(-7.36 -43.13)"/><path class="cls-158" d="M275.36,80.44Z" transform="translate(-7.36 -43.13)"/><path class="cls-159" d="M275.36,80.44Z" transform="translate(-7.36 -43.13)"/><path class="cls-160" d="M275.36,80.44Z" transform="translate(-7.36 -43.13)"/><path class="cls-161" d="M275.36,80.44Z" transform="translate(-7.36 -43.13)"/><path class="cls-162" d="M275.36,80.44Z" transform="translate(-7.36 -43.13)"/><path class="cls-163" d="M275.36,80.44Z" transform="translate(-7.36 -43.13)"/><path class="cls-164" d="M275.36,80.44Z" transform="translate(-7.36 -43.13)"/><path class="cls-165" d="M275.36,80.44Z" transform="translate(-7.36 -43.13)"/><path class="cls-165" d="M275.36,80.44Z" transform="translate(-7.36 -43.13)"/></g><path class="cls-166" d="M262.25,58.09c0,.39.09,2.61.19,4.95l1,22.92c.1,2.34,1.3,2.69,2.66.79l15.76-22a44.91,44.91,0,0,1,5.66-6.27l4.43-3.91c1.75-1.55,1.47-3.65-.64-4.67L278.36,43.6a5.53,5.53,0,0,0-6.45,1.49l-7,9A17.13,17.13,0,0,0,262.25,58.09Z" transform="translate(-7.36 -43.13)"/><path class="cls-167" d="M270.24,90.82c-2.34.12-3.14-1.34-1.78-3.24l15.82-22.09A42.06,42.06,0,0,1,290,59.27l3.92-3.35c1.78-1.52,3.54-.87,3.9,1.43l1.72,10.85a10.93,10.93,0,0,1-2,7.51l-8.91,11a10.89,10.89,0,0,1-6.92,3.51Z" transform="translate(-7.36 -43.13)"/><path class="cls-168" d="M269.18,45.1c1.44-1.84.91-2.51-1.19-1.47L257,49a10.42,10.42,0,0,0-4.82,6l-3.09,12.71a10.09,10.09,0,0,0,1.56,7.52L258.75,86c1.41,1.86,2.48,1.47,2.39-.86l-1-23.92a13.42,13.42,0,0,1,2.44-7.6Z" transform="translate(-7.36 -43.13)"/><path class="cls-168" d="M19.35,145h34.8q9.48,0,14.52,4.92t5,14.4q0,9.61-5,14.76t-14.52,5.16H37q-4.92,0-4.92-5.16c0-3.27,1.64-4.92,4.92-4.92H53.07c3.6,0,6.08-.69,7.44-2.1s2-3.9,2-7.5a21.47,21.47,0,0,0-.42-4.62,5.88,5.88,0,0,0-1.5-2.94,6,6,0,0,0-2.94-1.5,21.41,21.41,0,0,0-4.62-.42H24.87v47.16q0,5.4-5.76,5.4-5.4,0-5.4-5.4v-51.6C13.71,146.84,15.59,145,19.35,145Z" transform="translate(-7.36 -43.13)"/><path class="cls-168" d="M94.71,150.59c0-3.75,1.88-5.64,5.64-5.64h32.4q9.72,0,14.76,5t5,14.46a19,19,0,0,1-3.6,11.82A19.57,19.57,0,0,1,138.87,183l13.56,17.76q5.16,6.84-3.72,6.84a8.21,8.21,0,0,1-7.08-3.48l-14.88-20h-8.88q-4.8,0-4.8-5.16,0-4.92,4.8-4.92h13.68a9.82,9.82,0,0,0,7.2-2.58,9.51,9.51,0,0,0,2.64-7.14q0-5.15-2.1-7.2c-1.4-1.35-4-2-7.74-2H105.87v47c0,3.69-1.88,5.52-5.64,5.52s-5.52-1.83-5.52-5.52Z" transform="translate(-7.36 -43.13)"/><path class="cls-168" d="M169.37,201.52l25.08-51a8.19,8.19,0,0,1,7.92-4.92,8.1,8.1,0,0,1,7.8,4.92l25.08,51q3.6,7.09-4.32,7.08h-.12a5.87,5.87,0,0,1-5.76-3.6l-5.64-11.52H199.85q-3.48,0-4.68-1.8c-.8-1.2-.64-2.83.48-4.92a5.48,5.48,0,0,1,5.16-3.24h13.92l-12.36-25.44L179.57,205a5.87,5.87,0,0,1-5.76,3.6Q165.77,208.6,169.37,201.52Z" transform="translate(-7.36 -43.13)"/><path class="cls-167" d="M195.42,82.53c-5.59-7.51-4.13-13.65,3.24-13.65s16.62,7,20.55,15.44L249,148.67c3.93,8.49,2.57,9.3-3,1.79Z" transform="translate(-7.36 -43.13)"/><path class="cls-166" d="M188.56,81c-5.57-7.52-6.51-6.92-2.1,1.33l74,138.58c4.41,8.25,8,7.35,8-2V200.72c0-9.35,4.62-23.11,10.27-30.57l22.5-29.73c5.64-7.46,4.6-8.42-2.33-2.13l-28.08,25.52a15.1,15.1,0,0,1-22.7-2.23Z" transform="translate(-7.36 -43.13)"/><path class="cls-168" d="M354.37,79.9c4.36-8.27,3.39-8.89-2.18-1.37l-70.05,94.69C276.57,180.73,272,194.54,272,203.9v15c0,9.36,3.57,10.24,7.94,2Z" transform="translate(-7.36 -43.13)"/><path class="cls-166" d="M461.58,172.13h-4.11q-8.87,0-17.54.21a7.05,7.05,0,0,0-3.68,1.51A5.5,5.5,0,0,0,434,178a4.91,4.91,0,0,0,1.31,3.15,5.81,5.81,0,0,0,4.22,1.77h8.75a5.35,5.35,0,0,0,3.72-1.5l3.07-3Z" transform="translate(-7.36 -43.13)"/><path class="cls-166" d="M329.94,201.46V150.7q0-5.64,5.64-5.64h43.68q5,0,5,5t-5,5H341.1V197h38.64q5,0,5,5t-5,5H335.58Q329.94,207.1,329.94,201.46Zm23.28-30.84h19.56q4.8,0,4.8,4.8t-4.8,4.92H353.22q-4.8,0-4.8-4.92T353.22,170.62Z" transform="translate(-7.36 -43.13)"/><path class="cls-166" d="M492.15,193.22l-5.86,11a6.15,6.15,0,0,1-6,3.45h-.13q-8.22,0-4.49-6.78l26.06-48.85a8.49,8.49,0,0,1,8.1-4.71q5.73,0,8.23,4.71l26,48.85q3.74,6.78-4.61,6.78a6.17,6.17,0,0,1-6-3.45l-23.68-44.94L497,183.68m16,9.53h-.55m1.06,0-.51,0m1-.09-.52.06m.83-.11-.31.05m.54-.09-.23,0m1-.23a5.19,5.19,0,0,1-.73.19m1.47-.49a4.09,4.09,0,0,1-.74.3m1.46-.76a3.7,3.7,0,0,1-.72.46m1.27-1a3.41,3.41,0,0,1-.55.59m.84-1.1a2.58,2.58,0,0,1-.29.51m.46-1.07a2.26,2.26,0,0,1-.17.56m.22-1.29a2.52,2.52,0,0,1-.05.73m0-1.21a2.61,2.61,0,0,1,.05.48m-.15-.95a4.4,4.4,0,0,1,.1.47m-.24-.91a3.73,3.73,0,0,1,.14.44m-.43-1.16c.11.25.21.49.29.72M517,187l.29.55m-.67-1.2.24.4.14.25M516.3,186c.1.13.19.27.29.41m-.59-.78a3.47,3.47,0,0,1,.3.37m-1.12-1.14a5.39,5.39,0,0,1,.82.77m-1.37-1.14a4.81,4.81,0,0,1,.55.37m-1.09-.64a4.53,4.53,0,0,1,.54.27m-1.08-.48q.27.09.54.21m-1.08-.35.54.14m-1.08-.24.54.1m-1.23-.16c.24,0,.46,0,.69.06m-1-.06h.31m-19.63,9.54,4.86-9.54" transform="translate(-7.36 -43.13)"/><path class="cls-166" d="M517.94,193.19H501.52a5.27,5.27,0,0,1-3-4.32,5.34,5.34,0,0,1,3-5.19h16.42a5.05,5.05,0,0,1,0,9.51Z" transform="translate(-7.36 -43.13)"/><path class="cls-166" d="M462.67,176.13a8.2,8.2,0,0,1,.2,1.72V196q0,5.15-2.88,7.89t-8.28,2.74H412.25a13.21,13.21,0,0,1-4.48-.9,6.63,6.63,0,0,1-3.12-1.92c-.43-.55-.81-1.31-1.08-4.8-.1-1.25-.19-2.92-.17-4.92V155.92q0-5.4,2.88-8.28t8.28-2.88H456.2a5.52,5.52,0,0,1,4.31.23,5.4,5.4,0,0,1,2.88,4.68,5.46,5.46,0,0,1-1.62,4,5.62,5.62,0,0,1-5.57,1.21H414.56v42.22h37.15v-6.93a8.37,8.37,0,0,1,2.63-6.07Z" transform="translate(-7.36 -43.13)"/><path class="cls-166" d="M461.05,171.33" transform="translate(-7.36 -43.13)"/><path class="cls-166" d="M269.72,244.87a1,1,0,0,1-.71-.29L241.94,217.5H8.36a1,1,0,1,1,0-2h234a1,1,0,0,1,.71.3l27.37,27.37a1,1,0,0,1,0,1.41A1,1,0,0,1,269.72,244.87Z" transform="translate(-7.36 -43.13)"/><path class="cls-167" d="M269.72,244.87a1,1,0,0,1-.71-.29,1,1,0,0,1,0-1.41l27.37-27.37a1,1,0,0,1,.71-.3h250a1,1,0,0,1,0,2H297.5l-27.07,27.08A1,1,0,0,1,269.72,244.87Z" transform="translate(-7.36 -43.13)"/><path class="cls-169" d="M478.27,221.59a5.82,5.82,0,0,1,4.38,1.47,5.36,5.36,0,0,1,1.41,3.87v2.29a5.63,5.63,0,0,1-1.44,4.14,5.79,5.79,0,0,1-4.29,1.46H465.89c-1.14,0-1.71.62-1.71,1.87v2.78q0,.69.66.69h18.44q.75,0,.75.72v2.91q0,.72-.75.72h-20.9a3.33,3.33,0,0,1-2.36-.67,2.88,2.88,0,0,1-.68-2.11v-5a5.69,5.69,0,0,1,1.44-4.18,5.79,5.79,0,0,1,4.29-1.46h12.44c1.14,0,1.7-.61,1.7-1.83v-1.41a2.18,2.18,0,0,0-.39-1.36,1.59,1.59,0,0,0-1.34-.51H460.91a.64.64,0,0,1-.72-.72v-2.91a.64.64,0,0,1,.72-.72Z" transform="translate(-7.36 -43.13)"/><path class="cls-168" d="M504.43,221.59a16.58,16.58,0,0,1,4.23.47,6.63,6.63,0,0,1,2.83,1.51,6.07,6.07,0,0,1,1.6,2.67,13.53,13.53,0,0,1,.51,4v5.64a13.72,13.72,0,0,1-.51,4,6,6,0,0,1-1.6,2.68,6.39,6.39,0,0,1-2.83,1.49,16.62,16.62,0,0,1-4.23.46h-7.56a16.62,16.62,0,0,1-4.23-.46,6.34,6.34,0,0,1-2.83-1.49,6,6,0,0,1-1.61-2.68,14.1,14.1,0,0,1-.5-4v-5.64a13.91,13.91,0,0,1,.5-4,6.09,6.09,0,0,1,1.61-2.67,6.57,6.57,0,0,1,2.83-1.51,16.58,16.58,0,0,1,4.23-.47Zm-11.89,14.08a10.18,10.18,0,0,0,.2,2.18,2.55,2.55,0,0,0,2,2.09,8.36,8.36,0,0,0,2.12.22h7.56a8.27,8.27,0,0,0,2.11-.22,2.54,2.54,0,0,0,2-2.09,10.25,10.25,0,0,0,.19-2.18v-5.24a10,10,0,0,0-.19-2.16,2.91,2.91,0,0,0-.69-1.38,2.65,2.65,0,0,0-1.33-.73,8.27,8.27,0,0,0-2.11-.22h-7.56a8.36,8.36,0,0,0-2.12.22,2.66,2.66,0,0,0-1.32.73,2.91,2.91,0,0,0-.69,1.38,9.92,9.92,0,0,0-.2,2.16Z" transform="translate(-7.36 -43.13)"/><path class="cls-169" d="M536.23,221.59a5.83,5.83,0,0,1,4.39,1.47,5.36,5.36,0,0,1,1.41,3.87v2.29a5.63,5.63,0,0,1-1.44,4.14,5.8,5.8,0,0,1-4.29,1.46H523.85c-1.13,0-1.7.62-1.7,1.87v2.78c0,.46.22.69.65.69h18.44q.75,0,.75.72v2.91q0,.72-.75.72H520.35a3.31,3.31,0,0,1-2.36-.67,2.84,2.84,0,0,1-.69-2.11v-5a5.69,5.69,0,0,1,1.44-4.18,5.79,5.79,0,0,1,4.29-1.46h12.45c1.13,0,1.7-.61,1.7-1.83v-1.41a2.18,2.18,0,0,0-.39-1.36,1.6,1.6,0,0,0-1.35-.51H518.87a.64.64,0,0,1-.72-.72v-2.91a.64.64,0,0,1,.72-.72Z" transform="translate(-7.36 -43.13)"/><path class="cls-169" d="M549.62,221.59a3.28,3.28,0,0,1,2.33.67,2.84,2.84,0,0,1,.69,2.11v19.42a.64.64,0,0,1-.72.72h-3.38a.64.64,0,0,1-.72-.72V226.63a.61.61,0,0,0-.69-.69h-1.86q-.75,0-.75-.72v-2.91q0-.72.75-.72Z" transform="translate(-7.36 -43.13)"/></svg>